%TF.GenerationSoftware,KiCad,Pcbnew,9.0.7*%
%TF.CreationDate,2026-03-06T10:06:46+03:00*%
%TF.ProjectId,FM Transmitter System,464d2054-7261-46e7-936d-697474657220,V2.0*%
%TF.SameCoordinates,Original*%
%TF.FileFunction,Legend,Top*%
%TF.FilePolarity,Positive*%
%FSLAX46Y46*%
G04 Gerber Fmt 4.6, Leading zero omitted, Abs format (unit mm)*
G04 Created by KiCad (PCBNEW 9.0.7) date 2026-03-06 10:06:46*
%MOMM*%
%LPD*%
G01*
G04 APERTURE LIST*
G04 Aperture macros list*
%AMRoundRect*
0 Rectangle with rounded corners*
0 $1 Rounding radius*
0 $2 $3 $4 $5 $6 $7 $8 $9 X,Y pos of 4 corners*
0 Add a 4 corners polygon primitive as box body*
4,1,4,$2,$3,$4,$5,$6,$7,$8,$9,$2,$3,0*
0 Add four circle primitives for the rounded corners*
1,1,$1+$1,$2,$3*
1,1,$1+$1,$4,$5*
1,1,$1+$1,$6,$7*
1,1,$1+$1,$8,$9*
0 Add four rect primitives between the rounded corners*
20,1,$1+$1,$2,$3,$4,$5,0*
20,1,$1+$1,$4,$5,$6,$7,0*
20,1,$1+$1,$6,$7,$8,$9,0*
20,1,$1+$1,$8,$9,$2,$3,0*%
G04 Aperture macros list end*
%ADD10C,0.100000*%
%ADD11C,0.060000*%
%ADD12C,0.150000*%
%ADD13C,0.125000*%
%ADD14C,0.120000*%
%ADD15R,1.050000X1.500000*%
%ADD16O,1.050000X1.500000*%
%ADD17R,1.700000X1.700000*%
%ADD18C,1.700000*%
%ADD19RoundRect,0.250000X-0.550000X-0.550000X0.550000X-0.550000X0.550000X0.550000X-0.550000X0.550000X0*%
%ADD20C,1.600000*%
%ADD21RoundRect,0.250000X-0.750000X0.750000X-0.750000X-0.750000X0.750000X-0.750000X0.750000X0.750000X0*%
%ADD22C,2.000000*%
%ADD23C,1.400000*%
%ADD24RoundRect,0.250000X-0.350000X-0.350000X0.350000X-0.350000X0.350000X0.350000X-0.350000X0.350000X0*%
%ADD25C,1.200000*%
%ADD26RoundRect,0.250000X0.350000X-0.350000X0.350000X0.350000X-0.350000X0.350000X-0.350000X-0.350000X0*%
%ADD27C,2.050000*%
%ADD28C,2.250000*%
%ADD29C,1.440000*%
%ADD30C,2.800000*%
%ADD31C,1.500000*%
G04 APERTURE END LIST*
D10*
X150288723Y-96407169D02*
X150307771Y-96369074D01*
X150307771Y-96369074D02*
X150326819Y-96350027D01*
X150326819Y-96350027D02*
X150364914Y-96330979D01*
X150364914Y-96330979D02*
X150383961Y-96330979D01*
X150383961Y-96330979D02*
X150422057Y-96350027D01*
X150422057Y-96350027D02*
X150441104Y-96369074D01*
X150441104Y-96369074D02*
X150460152Y-96407169D01*
X150460152Y-96407169D02*
X150460152Y-96483360D01*
X150460152Y-96483360D02*
X150441104Y-96521455D01*
X150441104Y-96521455D02*
X150422057Y-96540503D01*
X150422057Y-96540503D02*
X150383961Y-96559550D01*
X150383961Y-96559550D02*
X150364914Y-96559550D01*
X150364914Y-96559550D02*
X150326819Y-96540503D01*
X150326819Y-96540503D02*
X150307771Y-96521455D01*
X150307771Y-96521455D02*
X150288723Y-96483360D01*
X150288723Y-96483360D02*
X150288723Y-96407169D01*
X150288723Y-96407169D02*
X150269676Y-96369074D01*
X150269676Y-96369074D02*
X150250628Y-96350027D01*
X150250628Y-96350027D02*
X150212533Y-96330979D01*
X150212533Y-96330979D02*
X150136342Y-96330979D01*
X150136342Y-96330979D02*
X150098247Y-96350027D01*
X150098247Y-96350027D02*
X150079200Y-96369074D01*
X150079200Y-96369074D02*
X150060152Y-96407169D01*
X150060152Y-96407169D02*
X150060152Y-96483360D01*
X150060152Y-96483360D02*
X150079200Y-96521455D01*
X150079200Y-96521455D02*
X150098247Y-96540503D01*
X150098247Y-96540503D02*
X150136342Y-96559550D01*
X150136342Y-96559550D02*
X150212533Y-96559550D01*
X150212533Y-96559550D02*
X150250628Y-96540503D01*
X150250628Y-96540503D02*
X150269676Y-96521455D01*
X150269676Y-96521455D02*
X150288723Y-96483360D01*
X150460152Y-98851931D02*
X150460152Y-99118598D01*
X150460152Y-99118598D02*
X150060152Y-98947169D01*
G36*
X139449981Y-96214571D02*
G01*
X139457357Y-96215401D01*
X139494652Y-96217917D01*
X139596063Y-96219212D01*
X139761855Y-96219212D01*
X139771228Y-96220772D01*
X139776094Y-96224683D01*
X139777775Y-96229437D01*
X139778537Y-96239435D01*
X139778268Y-96263200D01*
X139778000Y-96286965D01*
X139778806Y-96315810D01*
X139779636Y-96344630D01*
X139778278Y-96351328D01*
X139774657Y-96355015D01*
X139768181Y-96356378D01*
X139720773Y-96354473D01*
X139673317Y-96352568D01*
X139592644Y-96352568D01*
X139587442Y-96354329D01*
X139583237Y-96360324D01*
X139580236Y-96373475D01*
X139576917Y-96386011D01*
X139571445Y-96392298D01*
X139563676Y-96394358D01*
X139489475Y-96394358D01*
X139482338Y-96392527D01*
X139478216Y-96387251D01*
X139464572Y-96356404D01*
X139450382Y-96333816D01*
X139435791Y-96317861D01*
X139429965Y-96311573D01*
X139428586Y-96307750D01*
X139429416Y-96303646D01*
X139445048Y-96219212D01*
X139446912Y-96215656D01*
X139449981Y-96214571D01*
G37*
X139410895Y-99797497D02*
X139391847Y-99835592D01*
X139391847Y-99835592D02*
X139391847Y-99892735D01*
X139391847Y-99892735D02*
X139410895Y-99949878D01*
X139410895Y-99949878D02*
X139448990Y-99987973D01*
X139448990Y-99987973D02*
X139487085Y-100007020D01*
X139487085Y-100007020D02*
X139563276Y-100026068D01*
X139563276Y-100026068D02*
X139620419Y-100026068D01*
X139620419Y-100026068D02*
X139696609Y-100007020D01*
X139696609Y-100007020D02*
X139734704Y-99987973D01*
X139734704Y-99987973D02*
X139772800Y-99949878D01*
X139772800Y-99949878D02*
X139791847Y-99892735D01*
X139791847Y-99892735D02*
X139791847Y-99854639D01*
X139791847Y-99854639D02*
X139772800Y-99797497D01*
X139772800Y-99797497D02*
X139753752Y-99778449D01*
X139753752Y-99778449D02*
X139620419Y-99778449D01*
X139620419Y-99778449D02*
X139620419Y-99854639D01*
X139791847Y-99607020D02*
X139391847Y-99607020D01*
X139391847Y-99607020D02*
X139791847Y-99378449D01*
X139791847Y-99378449D02*
X139391847Y-99378449D01*
X139791847Y-99187972D02*
X139391847Y-99187972D01*
X139391847Y-99187972D02*
X139391847Y-99092734D01*
X139391847Y-99092734D02*
X139410895Y-99035591D01*
X139410895Y-99035591D02*
X139448990Y-98997496D01*
X139448990Y-98997496D02*
X139487085Y-98978449D01*
X139487085Y-98978449D02*
X139563276Y-98959401D01*
X139563276Y-98959401D02*
X139620419Y-98959401D01*
X139620419Y-98959401D02*
X139696609Y-98978449D01*
X139696609Y-98978449D02*
X139734704Y-98997496D01*
X139734704Y-98997496D02*
X139772800Y-99035591D01*
X139772800Y-99035591D02*
X139791847Y-99092734D01*
X139791847Y-99092734D02*
X139791847Y-99187972D01*
G36*
X128822591Y-108552516D02*
G01*
X128820314Y-108558586D01*
X128813016Y-108560747D01*
X128772863Y-108556326D01*
X128732685Y-108551368D01*
X128696430Y-108566636D01*
X128663297Y-108575215D01*
X128632692Y-108577942D01*
X128599979Y-108575522D01*
X128569707Y-108568430D01*
X128541442Y-108556739D01*
X128514835Y-108540287D01*
X128489639Y-108518688D01*
X128467869Y-108493643D01*
X128451297Y-108467171D01*
X128439524Y-108439023D01*
X128432383Y-108408846D01*
X128429946Y-108376197D01*
X128432380Y-108342653D01*
X128439489Y-108311886D01*
X128451151Y-108283431D01*
X128467483Y-108256914D01*
X128488833Y-108232069D01*
X128513647Y-108210676D01*
X128540123Y-108194316D01*
X128568524Y-108182638D01*
X128599226Y-108175522D01*
X128632692Y-108173085D01*
X128659341Y-108174981D01*
X128687115Y-108180821D01*
X128716296Y-108190939D01*
X128746234Y-108205859D01*
X128768656Y-108222479D01*
X128784879Y-108240715D01*
X128788968Y-108247936D01*
X128790082Y-108253147D01*
X128785409Y-108263392D01*
X128759747Y-108294547D01*
X128733046Y-108322166D01*
X128720961Y-108332136D01*
X128715371Y-108334811D01*
X128710019Y-108335653D01*
X128703769Y-108333662D01*
X128684740Y-108323147D01*
X128670544Y-108316213D01*
X128655463Y-108312053D01*
X128639237Y-108310642D01*
X128622569Y-108312796D01*
X128607948Y-108319111D01*
X128594834Y-108329840D01*
X128584714Y-108343526D01*
X128578712Y-108358689D01*
X128576662Y-108375831D01*
X128578792Y-108392942D01*
X128585113Y-108408531D01*
X128595933Y-108423067D01*
X128609814Y-108434588D01*
X128624811Y-108441264D01*
X128641436Y-108443510D01*
X128658555Y-108441816D01*
X128673407Y-108436940D01*
X128669035Y-108398325D01*
X128666300Y-108359979D01*
X128667399Y-108354484D01*
X128673138Y-108352847D01*
X128687891Y-108354191D01*
X128741697Y-108355974D01*
X128777772Y-108355192D01*
X128813847Y-108354411D01*
X128819901Y-108356155D01*
X128821760Y-108360981D01*
X128819171Y-108405384D01*
X128816582Y-108449763D01*
X128819586Y-108501982D01*
X128822591Y-108552516D01*
G37*
G36*
X129246327Y-108191403D02*
G01*
X129243323Y-108285168D01*
X129240319Y-108379201D01*
X129239757Y-108560722D01*
X129237683Y-108565206D01*
X129230183Y-108567000D01*
X129203267Y-108566218D01*
X129176376Y-108565436D01*
X129148215Y-108566218D01*
X129119810Y-108567000D01*
X129115355Y-108565275D01*
X129108599Y-108558085D01*
X129034006Y-108457590D01*
X129007376Y-108425657D01*
X129001230Y-108420967D01*
X128998592Y-108422509D01*
X128997395Y-108428880D01*
X128999032Y-108492896D01*
X129000668Y-108556888D01*
X128998425Y-108564616D01*
X128992193Y-108567000D01*
X128962542Y-108566218D01*
X128932891Y-108565436D01*
X128900797Y-108566218D01*
X128868679Y-108567000D01*
X128861827Y-108564931D01*
X128859667Y-108559062D01*
X128862402Y-108469449D01*
X128865138Y-108379812D01*
X128862549Y-108286364D01*
X128859960Y-108193186D01*
X128862226Y-108188980D01*
X128871170Y-108187153D01*
X128924440Y-108182537D01*
X128953676Y-108177921D01*
X128982643Y-108174648D01*
X128986347Y-108176751D01*
X128993829Y-108187275D01*
X129037817Y-108249801D01*
X129104227Y-108339341D01*
X129105968Y-108335631D01*
X129106963Y-108321609D01*
X129103397Y-108258130D01*
X129099855Y-108194676D01*
X129101534Y-108186145D01*
X129105326Y-108184027D01*
X129138103Y-108184808D01*
X129170905Y-108185590D01*
X129206150Y-108184808D01*
X129241418Y-108184027D01*
X129244931Y-108185633D01*
X129246327Y-108191403D01*
G37*
G36*
X129484427Y-108186147D02*
G01*
X129528883Y-108193287D01*
X129562816Y-108203857D01*
X129588292Y-108217122D01*
X129609859Y-108234574D01*
X129628878Y-108257348D01*
X129645396Y-108286291D01*
X129657082Y-108315818D01*
X129663909Y-108344877D01*
X129666157Y-108373779D01*
X129664493Y-108398849D01*
X129659417Y-108424481D01*
X129650720Y-108450886D01*
X129638998Y-108476064D01*
X129625107Y-108498104D01*
X129609053Y-108517321D01*
X129588768Y-108535200D01*
X129566192Y-108549094D01*
X129541003Y-108559190D01*
X129512754Y-108565455D01*
X129480898Y-108567635D01*
X129432807Y-108566535D01*
X129384715Y-108565436D01*
X129342071Y-108566218D01*
X129299719Y-108567000D01*
X129292864Y-108564936D01*
X129290706Y-108559086D01*
X129293442Y-108469693D01*
X129296177Y-108380300D01*
X129296058Y-108375928D01*
X129434443Y-108375928D01*
X129434981Y-108409096D01*
X129435542Y-108442265D01*
X129437169Y-108448919D01*
X129441830Y-108452884D01*
X129450832Y-108454452D01*
X129471598Y-108451694D01*
X129489379Y-108443668D01*
X129504932Y-108430077D01*
X129516092Y-108413593D01*
X129522827Y-108394936D01*
X129525155Y-108373486D01*
X129522669Y-108353082D01*
X129515403Y-108335151D01*
X129503149Y-108319069D01*
X129487332Y-108306540D01*
X129469567Y-108299117D01*
X129449196Y-108296574D01*
X129441197Y-108298001D01*
X129437015Y-108301640D01*
X129435542Y-108307809D01*
X129434981Y-108341808D01*
X129434443Y-108375928D01*
X129296058Y-108375928D01*
X129293588Y-108285168D01*
X129291000Y-108190304D01*
X129292661Y-108185640D01*
X129297838Y-108184027D01*
X129366690Y-108184027D01*
X129396195Y-108183758D01*
X129427067Y-108183489D01*
X129484427Y-108186147D01*
G37*
X150460152Y-104414503D02*
X150460152Y-104224027D01*
X150460152Y-104224027D02*
X150269676Y-104204979D01*
X150269676Y-104204979D02*
X150288723Y-104224027D01*
X150288723Y-104224027D02*
X150307771Y-104262122D01*
X150307771Y-104262122D02*
X150307771Y-104357360D01*
X150307771Y-104357360D02*
X150288723Y-104395455D01*
X150288723Y-104395455D02*
X150269676Y-104414503D01*
X150269676Y-104414503D02*
X150231580Y-104433550D01*
X150231580Y-104433550D02*
X150136342Y-104433550D01*
X150136342Y-104433550D02*
X150098247Y-104414503D01*
X150098247Y-104414503D02*
X150079200Y-104395455D01*
X150079200Y-104395455D02*
X150060152Y-104357360D01*
X150060152Y-104357360D02*
X150060152Y-104262122D01*
X150060152Y-104262122D02*
X150079200Y-104224027D01*
X150079200Y-104224027D02*
X150098247Y-104204979D01*
X139525180Y-104331496D02*
X139791847Y-104331496D01*
X139372800Y-104426734D02*
X139658514Y-104521972D01*
X139658514Y-104521972D02*
X139658514Y-104274353D01*
G36*
X185464591Y-119220516D02*
G01*
X185462314Y-119226586D01*
X185455016Y-119228747D01*
X185414863Y-119224326D01*
X185374685Y-119219368D01*
X185338430Y-119234636D01*
X185305297Y-119243215D01*
X185274692Y-119245942D01*
X185241979Y-119243522D01*
X185211707Y-119236430D01*
X185183442Y-119224739D01*
X185156835Y-119208287D01*
X185131639Y-119186688D01*
X185109869Y-119161643D01*
X185093297Y-119135171D01*
X185081524Y-119107023D01*
X185074383Y-119076846D01*
X185071946Y-119044197D01*
X185074380Y-119010653D01*
X185081489Y-118979886D01*
X185093151Y-118951431D01*
X185109483Y-118924914D01*
X185130833Y-118900069D01*
X185155647Y-118878676D01*
X185182123Y-118862316D01*
X185210524Y-118850638D01*
X185241226Y-118843522D01*
X185274692Y-118841085D01*
X185301341Y-118842981D01*
X185329115Y-118848821D01*
X185358296Y-118858939D01*
X185388234Y-118873859D01*
X185410656Y-118890479D01*
X185426879Y-118908715D01*
X185430968Y-118915936D01*
X185432082Y-118921147D01*
X185427409Y-118931392D01*
X185401747Y-118962547D01*
X185375046Y-118990166D01*
X185362961Y-119000136D01*
X185357371Y-119002811D01*
X185352019Y-119003653D01*
X185345769Y-119001662D01*
X185326740Y-118991147D01*
X185312544Y-118984213D01*
X185297463Y-118980053D01*
X185281237Y-118978642D01*
X185264569Y-118980796D01*
X185249948Y-118987111D01*
X185236834Y-118997840D01*
X185226714Y-119011526D01*
X185220712Y-119026689D01*
X185218662Y-119043831D01*
X185220792Y-119060942D01*
X185227113Y-119076531D01*
X185237933Y-119091067D01*
X185251814Y-119102588D01*
X185266811Y-119109264D01*
X185283436Y-119111510D01*
X185300555Y-119109816D01*
X185315407Y-119104940D01*
X185311035Y-119066325D01*
X185308300Y-119027979D01*
X185309399Y-119022484D01*
X185315138Y-119020847D01*
X185329891Y-119022191D01*
X185383697Y-119023974D01*
X185419772Y-119023192D01*
X185455847Y-119022411D01*
X185461901Y-119024155D01*
X185463760Y-119028981D01*
X185461171Y-119073384D01*
X185458582Y-119117763D01*
X185461586Y-119169982D01*
X185464591Y-119220516D01*
G37*
G36*
X185888327Y-118859403D02*
G01*
X185885323Y-118953168D01*
X185882319Y-119047201D01*
X185881757Y-119228722D01*
X185879683Y-119233206D01*
X185872183Y-119235000D01*
X185845267Y-119234218D01*
X185818376Y-119233436D01*
X185790215Y-119234218D01*
X185761810Y-119235000D01*
X185757355Y-119233275D01*
X185750599Y-119226085D01*
X185676006Y-119125590D01*
X185649376Y-119093657D01*
X185643230Y-119088967D01*
X185640592Y-119090509D01*
X185639395Y-119096880D01*
X185641032Y-119160896D01*
X185642668Y-119224888D01*
X185640425Y-119232616D01*
X185634193Y-119235000D01*
X185604542Y-119234218D01*
X185574891Y-119233436D01*
X185542797Y-119234218D01*
X185510679Y-119235000D01*
X185503827Y-119232931D01*
X185501667Y-119227062D01*
X185504402Y-119137449D01*
X185507138Y-119047812D01*
X185504549Y-118954364D01*
X185501960Y-118861186D01*
X185504226Y-118856980D01*
X185513170Y-118855153D01*
X185566440Y-118850537D01*
X185595676Y-118845921D01*
X185624643Y-118842648D01*
X185628347Y-118844751D01*
X185635829Y-118855275D01*
X185679817Y-118917801D01*
X185746227Y-119007341D01*
X185747968Y-119003631D01*
X185748963Y-118989609D01*
X185745397Y-118926130D01*
X185741855Y-118862676D01*
X185743534Y-118854145D01*
X185747326Y-118852027D01*
X185780103Y-118852808D01*
X185812905Y-118853590D01*
X185848150Y-118852808D01*
X185883418Y-118852027D01*
X185886931Y-118853633D01*
X185888327Y-118859403D01*
G37*
G36*
X186126427Y-118854147D02*
G01*
X186170883Y-118861287D01*
X186204816Y-118871857D01*
X186230292Y-118885122D01*
X186251859Y-118902574D01*
X186270878Y-118925348D01*
X186287396Y-118954291D01*
X186299082Y-118983818D01*
X186305909Y-119012877D01*
X186308157Y-119041779D01*
X186306493Y-119066849D01*
X186301417Y-119092481D01*
X186292720Y-119118886D01*
X186280998Y-119144064D01*
X186267107Y-119166104D01*
X186251053Y-119185321D01*
X186230768Y-119203200D01*
X186208192Y-119217094D01*
X186183003Y-119227190D01*
X186154754Y-119233455D01*
X186122898Y-119235635D01*
X186074807Y-119234535D01*
X186026715Y-119233436D01*
X185984071Y-119234218D01*
X185941719Y-119235000D01*
X185934864Y-119232936D01*
X185932706Y-119227086D01*
X185935442Y-119137693D01*
X185938177Y-119048300D01*
X185938058Y-119043928D01*
X186076443Y-119043928D01*
X186076981Y-119077096D01*
X186077542Y-119110265D01*
X186079169Y-119116919D01*
X186083830Y-119120884D01*
X186092832Y-119122452D01*
X186113598Y-119119694D01*
X186131379Y-119111668D01*
X186146932Y-119098077D01*
X186158092Y-119081593D01*
X186164827Y-119062936D01*
X186167155Y-119041486D01*
X186164669Y-119021082D01*
X186157403Y-119003151D01*
X186145149Y-118987069D01*
X186129332Y-118974540D01*
X186111567Y-118967117D01*
X186091196Y-118964574D01*
X186083197Y-118966001D01*
X186079015Y-118969640D01*
X186077542Y-118975809D01*
X186076981Y-119009808D01*
X186076443Y-119043928D01*
X185938058Y-119043928D01*
X185935588Y-118953168D01*
X185933000Y-118858304D01*
X185934661Y-118853640D01*
X185939838Y-118852027D01*
X186008690Y-118852027D01*
X186038195Y-118851758D01*
X186069067Y-118851489D01*
X186126427Y-118854147D01*
G37*
D11*
X182374901Y-119148880D02*
X182603473Y-119148880D01*
X182489187Y-119263165D02*
X182489187Y-119034594D01*
X182903473Y-119263165D02*
X182732044Y-119263165D01*
X182817759Y-119263165D02*
X182817759Y-118963165D01*
X182817759Y-118963165D02*
X182789187Y-119006022D01*
X182789187Y-119006022D02*
X182760616Y-119034594D01*
X182760616Y-119034594D02*
X182732044Y-119048880D01*
X183017758Y-118991737D02*
X183032044Y-118977451D01*
X183032044Y-118977451D02*
X183060616Y-118963165D01*
X183060616Y-118963165D02*
X183132044Y-118963165D01*
X183132044Y-118963165D02*
X183160616Y-118977451D01*
X183160616Y-118977451D02*
X183174901Y-118991737D01*
X183174901Y-118991737D02*
X183189187Y-119020308D01*
X183189187Y-119020308D02*
X183189187Y-119048880D01*
X183189187Y-119048880D02*
X183174901Y-119091737D01*
X183174901Y-119091737D02*
X183003473Y-119263165D01*
X183003473Y-119263165D02*
X183189187Y-119263165D01*
X183274901Y-118963165D02*
X183374901Y-119263165D01*
X183374901Y-119263165D02*
X183474901Y-118963165D01*
D10*
X150460152Y-101855455D02*
X150460152Y-101779265D01*
X150460152Y-101779265D02*
X150441104Y-101741169D01*
X150441104Y-101741169D02*
X150422057Y-101722122D01*
X150422057Y-101722122D02*
X150364914Y-101684027D01*
X150364914Y-101684027D02*
X150288723Y-101664979D01*
X150288723Y-101664979D02*
X150136342Y-101664979D01*
X150136342Y-101664979D02*
X150098247Y-101684027D01*
X150098247Y-101684027D02*
X150079200Y-101703074D01*
X150079200Y-101703074D02*
X150060152Y-101741169D01*
X150060152Y-101741169D02*
X150060152Y-101817360D01*
X150060152Y-101817360D02*
X150079200Y-101855455D01*
X150079200Y-101855455D02*
X150098247Y-101874503D01*
X150098247Y-101874503D02*
X150136342Y-101893550D01*
X150136342Y-101893550D02*
X150231580Y-101893550D01*
X150231580Y-101893550D02*
X150269676Y-101874503D01*
X150269676Y-101874503D02*
X150288723Y-101855455D01*
X150288723Y-101855455D02*
X150307771Y-101817360D01*
X150307771Y-101817360D02*
X150307771Y-101741169D01*
X150307771Y-101741169D02*
X150288723Y-101703074D01*
X150288723Y-101703074D02*
X150269676Y-101684027D01*
X150269676Y-101684027D02*
X150231580Y-101664979D01*
G36*
X158032591Y-95090516D02*
G01*
X158030314Y-95096586D01*
X158023016Y-95098747D01*
X157982863Y-95094326D01*
X157942685Y-95089368D01*
X157906430Y-95104636D01*
X157873297Y-95113215D01*
X157842692Y-95115942D01*
X157809979Y-95113522D01*
X157779707Y-95106430D01*
X157751442Y-95094739D01*
X157724835Y-95078287D01*
X157699639Y-95056688D01*
X157677869Y-95031643D01*
X157661297Y-95005171D01*
X157649524Y-94977023D01*
X157642383Y-94946846D01*
X157639946Y-94914197D01*
X157642380Y-94880653D01*
X157649489Y-94849886D01*
X157661151Y-94821431D01*
X157677483Y-94794914D01*
X157698833Y-94770069D01*
X157723647Y-94748676D01*
X157750123Y-94732316D01*
X157778524Y-94720638D01*
X157809226Y-94713522D01*
X157842692Y-94711085D01*
X157869341Y-94712981D01*
X157897115Y-94718821D01*
X157926296Y-94728939D01*
X157956234Y-94743859D01*
X157978656Y-94760479D01*
X157994879Y-94778715D01*
X157998968Y-94785936D01*
X158000082Y-94791147D01*
X157995409Y-94801392D01*
X157969747Y-94832547D01*
X157943046Y-94860166D01*
X157930961Y-94870136D01*
X157925371Y-94872811D01*
X157920019Y-94873653D01*
X157913769Y-94871662D01*
X157894740Y-94861147D01*
X157880544Y-94854213D01*
X157865463Y-94850053D01*
X157849237Y-94848642D01*
X157832569Y-94850796D01*
X157817948Y-94857111D01*
X157804834Y-94867840D01*
X157794714Y-94881526D01*
X157788712Y-94896689D01*
X157786662Y-94913831D01*
X157788792Y-94930942D01*
X157795113Y-94946531D01*
X157805933Y-94961067D01*
X157819814Y-94972588D01*
X157834811Y-94979264D01*
X157851436Y-94981510D01*
X157868555Y-94979816D01*
X157883407Y-94974940D01*
X157879035Y-94936325D01*
X157876300Y-94897979D01*
X157877399Y-94892484D01*
X157883138Y-94890847D01*
X157897891Y-94892191D01*
X157951697Y-94893974D01*
X157987772Y-94893192D01*
X158023847Y-94892411D01*
X158029901Y-94894155D01*
X158031760Y-94898981D01*
X158029171Y-94943384D01*
X158026582Y-94987763D01*
X158029586Y-95039982D01*
X158032591Y-95090516D01*
G37*
G36*
X158456327Y-94729403D02*
G01*
X158453323Y-94823168D01*
X158450319Y-94917201D01*
X158449757Y-95098722D01*
X158447683Y-95103206D01*
X158440183Y-95105000D01*
X158413267Y-95104218D01*
X158386376Y-95103436D01*
X158358215Y-95104218D01*
X158329810Y-95105000D01*
X158325355Y-95103275D01*
X158318599Y-95096085D01*
X158244006Y-94995590D01*
X158217376Y-94963657D01*
X158211230Y-94958967D01*
X158208592Y-94960509D01*
X158207395Y-94966880D01*
X158209032Y-95030896D01*
X158210668Y-95094888D01*
X158208425Y-95102616D01*
X158202193Y-95105000D01*
X158172542Y-95104218D01*
X158142891Y-95103436D01*
X158110797Y-95104218D01*
X158078679Y-95105000D01*
X158071827Y-95102931D01*
X158069667Y-95097062D01*
X158072402Y-95007449D01*
X158075138Y-94917812D01*
X158072549Y-94824364D01*
X158069960Y-94731186D01*
X158072226Y-94726980D01*
X158081170Y-94725153D01*
X158134440Y-94720537D01*
X158163676Y-94715921D01*
X158192643Y-94712648D01*
X158196347Y-94714751D01*
X158203829Y-94725275D01*
X158247817Y-94787801D01*
X158314227Y-94877341D01*
X158315968Y-94873631D01*
X158316963Y-94859609D01*
X158313397Y-94796130D01*
X158309855Y-94732676D01*
X158311534Y-94724145D01*
X158315326Y-94722027D01*
X158348103Y-94722808D01*
X158380905Y-94723590D01*
X158416150Y-94722808D01*
X158451418Y-94722027D01*
X158454931Y-94723633D01*
X158456327Y-94729403D01*
G37*
G36*
X158694427Y-94724147D02*
G01*
X158738883Y-94731287D01*
X158772816Y-94741857D01*
X158798292Y-94755122D01*
X158819859Y-94772574D01*
X158838878Y-94795348D01*
X158855396Y-94824291D01*
X158867082Y-94853818D01*
X158873909Y-94882877D01*
X158876157Y-94911779D01*
X158874493Y-94936849D01*
X158869417Y-94962481D01*
X158860720Y-94988886D01*
X158848998Y-95014064D01*
X158835107Y-95036104D01*
X158819053Y-95055321D01*
X158798768Y-95073200D01*
X158776192Y-95087094D01*
X158751003Y-95097190D01*
X158722754Y-95103455D01*
X158690898Y-95105635D01*
X158642807Y-95104535D01*
X158594715Y-95103436D01*
X158552071Y-95104218D01*
X158509719Y-95105000D01*
X158502864Y-95102936D01*
X158500706Y-95097086D01*
X158503442Y-95007693D01*
X158506177Y-94918300D01*
X158506058Y-94913928D01*
X158644443Y-94913928D01*
X158644981Y-94947096D01*
X158645542Y-94980265D01*
X158647169Y-94986919D01*
X158651830Y-94990884D01*
X158660832Y-94992452D01*
X158681598Y-94989694D01*
X158699379Y-94981668D01*
X158714932Y-94968077D01*
X158726092Y-94951593D01*
X158732827Y-94932936D01*
X158735155Y-94911486D01*
X158732669Y-94891082D01*
X158725403Y-94873151D01*
X158713149Y-94857069D01*
X158697332Y-94844540D01*
X158679567Y-94837117D01*
X158659196Y-94834574D01*
X158651197Y-94836001D01*
X158647015Y-94839640D01*
X158645542Y-94845809D01*
X158644981Y-94879808D01*
X158644443Y-94913928D01*
X158506058Y-94913928D01*
X158503588Y-94823168D01*
X158501000Y-94728304D01*
X158502661Y-94723640D01*
X158507838Y-94722027D01*
X158576690Y-94722027D01*
X158606195Y-94721758D01*
X158637067Y-94721489D01*
X158694427Y-94724147D01*
G37*
X139391847Y-102001020D02*
X139391847Y-101753401D01*
X139391847Y-101753401D02*
X139544228Y-101886734D01*
X139544228Y-101886734D02*
X139544228Y-101829591D01*
X139544228Y-101829591D02*
X139563276Y-101791496D01*
X139563276Y-101791496D02*
X139582323Y-101772448D01*
X139582323Y-101772448D02*
X139620419Y-101753401D01*
X139620419Y-101753401D02*
X139715657Y-101753401D01*
X139715657Y-101753401D02*
X139753752Y-101772448D01*
X139753752Y-101772448D02*
X139772800Y-101791496D01*
X139772800Y-101791496D02*
X139791847Y-101829591D01*
X139791847Y-101829591D02*
X139791847Y-101943877D01*
X139791847Y-101943877D02*
X139772800Y-101981972D01*
X139772800Y-101981972D02*
X139753752Y-102001020D01*
D12*
X168929333Y-103683700D02*
X168862666Y-103650366D01*
X168862666Y-103650366D02*
X168796000Y-103583700D01*
X168796000Y-103583700D02*
X168696000Y-103483700D01*
X168696000Y-103483700D02*
X168629333Y-103450366D01*
X168629333Y-103450366D02*
X168562666Y-103450366D01*
X168596000Y-103617033D02*
X168529333Y-103583700D01*
X168529333Y-103583700D02*
X168462666Y-103517033D01*
X168462666Y-103517033D02*
X168429333Y-103383700D01*
X168429333Y-103383700D02*
X168429333Y-103150366D01*
X168429333Y-103150366D02*
X168462666Y-103017033D01*
X168462666Y-103017033D02*
X168529333Y-102950366D01*
X168529333Y-102950366D02*
X168596000Y-102917033D01*
X168596000Y-102917033D02*
X168729333Y-102917033D01*
X168729333Y-102917033D02*
X168796000Y-102950366D01*
X168796000Y-102950366D02*
X168862666Y-103017033D01*
X168862666Y-103017033D02*
X168896000Y-103150366D01*
X168896000Y-103150366D02*
X168896000Y-103383700D01*
X168896000Y-103383700D02*
X168862666Y-103517033D01*
X168862666Y-103517033D02*
X168796000Y-103583700D01*
X168796000Y-103583700D02*
X168729333Y-103617033D01*
X168729333Y-103617033D02*
X168596000Y-103617033D01*
X169562666Y-103617033D02*
X169162666Y-103617033D01*
X169362666Y-103617033D02*
X169362666Y-102917033D01*
X169362666Y-102917033D02*
X169295999Y-103017033D01*
X169295999Y-103017033D02*
X169229333Y-103083700D01*
X169229333Y-103083700D02*
X169162666Y-103117033D01*
X166812666Y-109787834D02*
X166812666Y-109087834D01*
X166812666Y-109087834D02*
X167079333Y-109087834D01*
X167079333Y-109087834D02*
X167146000Y-109121167D01*
X167146000Y-109121167D02*
X167179333Y-109154501D01*
X167179333Y-109154501D02*
X167212666Y-109221167D01*
X167212666Y-109221167D02*
X167212666Y-109321167D01*
X167212666Y-109321167D02*
X167179333Y-109387834D01*
X167179333Y-109387834D02*
X167146000Y-109421167D01*
X167146000Y-109421167D02*
X167079333Y-109454501D01*
X167079333Y-109454501D02*
X166812666Y-109454501D01*
X167512666Y-109787834D02*
X167512666Y-109087834D01*
X167512666Y-109087834D02*
X167912666Y-109787834D01*
X167912666Y-109787834D02*
X167912666Y-109087834D01*
X168212666Y-109154501D02*
X168245999Y-109121167D01*
X168245999Y-109121167D02*
X168312666Y-109087834D01*
X168312666Y-109087834D02*
X168479333Y-109087834D01*
X168479333Y-109087834D02*
X168545999Y-109121167D01*
X168545999Y-109121167D02*
X168579333Y-109154501D01*
X168579333Y-109154501D02*
X168612666Y-109221167D01*
X168612666Y-109221167D02*
X168612666Y-109287834D01*
X168612666Y-109287834D02*
X168579333Y-109387834D01*
X168579333Y-109387834D02*
X168179333Y-109787834D01*
X168179333Y-109787834D02*
X168612666Y-109787834D01*
X168879333Y-109154501D02*
X168912666Y-109121167D01*
X168912666Y-109121167D02*
X168979333Y-109087834D01*
X168979333Y-109087834D02*
X169146000Y-109087834D01*
X169146000Y-109087834D02*
X169212666Y-109121167D01*
X169212666Y-109121167D02*
X169246000Y-109154501D01*
X169246000Y-109154501D02*
X169279333Y-109221167D01*
X169279333Y-109221167D02*
X169279333Y-109287834D01*
X169279333Y-109287834D02*
X169246000Y-109387834D01*
X169246000Y-109387834D02*
X168846000Y-109787834D01*
X168846000Y-109787834D02*
X169279333Y-109787834D01*
X169546000Y-109154501D02*
X169579333Y-109121167D01*
X169579333Y-109121167D02*
X169646000Y-109087834D01*
X169646000Y-109087834D02*
X169812667Y-109087834D01*
X169812667Y-109087834D02*
X169879333Y-109121167D01*
X169879333Y-109121167D02*
X169912667Y-109154501D01*
X169912667Y-109154501D02*
X169946000Y-109221167D01*
X169946000Y-109221167D02*
X169946000Y-109287834D01*
X169946000Y-109287834D02*
X169912667Y-109387834D01*
X169912667Y-109387834D02*
X169512667Y-109787834D01*
X169512667Y-109787834D02*
X169946000Y-109787834D01*
X170212667Y-109154501D02*
X170246000Y-109121167D01*
X170246000Y-109121167D02*
X170312667Y-109087834D01*
X170312667Y-109087834D02*
X170479334Y-109087834D01*
X170479334Y-109087834D02*
X170546000Y-109121167D01*
X170546000Y-109121167D02*
X170579334Y-109154501D01*
X170579334Y-109154501D02*
X170612667Y-109221167D01*
X170612667Y-109221167D02*
X170612667Y-109287834D01*
X170612667Y-109287834D02*
X170579334Y-109387834D01*
X170579334Y-109387834D02*
X170179334Y-109787834D01*
X170179334Y-109787834D02*
X170612667Y-109787834D01*
X170879334Y-109587834D02*
X171212667Y-109587834D01*
X170812667Y-109787834D02*
X171046001Y-109087834D01*
X171046001Y-109087834D02*
X171279334Y-109787834D01*
X180252666Y-117395033D02*
X180252666Y-117895033D01*
X180252666Y-117895033D02*
X180219333Y-117995033D01*
X180219333Y-117995033D02*
X180152666Y-118061700D01*
X180152666Y-118061700D02*
X180052666Y-118095033D01*
X180052666Y-118095033D02*
X179986000Y-118095033D01*
X180552666Y-117461700D02*
X180585999Y-117428366D01*
X180585999Y-117428366D02*
X180652666Y-117395033D01*
X180652666Y-117395033D02*
X180819333Y-117395033D01*
X180819333Y-117395033D02*
X180885999Y-117428366D01*
X180885999Y-117428366D02*
X180919333Y-117461700D01*
X180919333Y-117461700D02*
X180952666Y-117528366D01*
X180952666Y-117528366D02*
X180952666Y-117595033D01*
X180952666Y-117595033D02*
X180919333Y-117695033D01*
X180919333Y-117695033D02*
X180519333Y-118095033D01*
X180519333Y-118095033D02*
X180952666Y-118095033D01*
X182587667Y-114703033D02*
X182187667Y-114703033D01*
X182387667Y-114703033D02*
X182387667Y-114003033D01*
X182387667Y-114003033D02*
X182321000Y-114103033D01*
X182321000Y-114103033D02*
X182254334Y-114169700D01*
X182254334Y-114169700D02*
X182187667Y-114203033D01*
X182854334Y-114069700D02*
X182887667Y-114036366D01*
X182887667Y-114036366D02*
X182954334Y-114003033D01*
X182954334Y-114003033D02*
X183121001Y-114003033D01*
X183121001Y-114003033D02*
X183187667Y-114036366D01*
X183187667Y-114036366D02*
X183221001Y-114069700D01*
X183221001Y-114069700D02*
X183254334Y-114136366D01*
X183254334Y-114136366D02*
X183254334Y-114203033D01*
X183254334Y-114203033D02*
X183221001Y-114303033D01*
X183221001Y-114303033D02*
X182821001Y-114703033D01*
X182821001Y-114703033D02*
X183254334Y-114703033D01*
X183454334Y-114003033D02*
X183687668Y-114703033D01*
X183687668Y-114703033D02*
X183921001Y-114003033D01*
X184921001Y-114336366D02*
X185021001Y-114369700D01*
X185021001Y-114369700D02*
X185054334Y-114403033D01*
X185054334Y-114403033D02*
X185087667Y-114469700D01*
X185087667Y-114469700D02*
X185087667Y-114569700D01*
X185087667Y-114569700D02*
X185054334Y-114636366D01*
X185054334Y-114636366D02*
X185021001Y-114669700D01*
X185021001Y-114669700D02*
X184954334Y-114703033D01*
X184954334Y-114703033D02*
X184687667Y-114703033D01*
X184687667Y-114703033D02*
X184687667Y-114003033D01*
X184687667Y-114003033D02*
X184921001Y-114003033D01*
X184921001Y-114003033D02*
X184987667Y-114036366D01*
X184987667Y-114036366D02*
X185021001Y-114069700D01*
X185021001Y-114069700D02*
X185054334Y-114136366D01*
X185054334Y-114136366D02*
X185054334Y-114203033D01*
X185054334Y-114203033D02*
X185021001Y-114269700D01*
X185021001Y-114269700D02*
X184987667Y-114303033D01*
X184987667Y-114303033D02*
X184921001Y-114336366D01*
X184921001Y-114336366D02*
X184687667Y-114336366D01*
X185354334Y-114503033D02*
X185687667Y-114503033D01*
X185287667Y-114703033D02*
X185521001Y-114003033D01*
X185521001Y-114003033D02*
X185754334Y-114703033D01*
X185887667Y-114003033D02*
X186287667Y-114003033D01*
X186087667Y-114703033D02*
X186087667Y-114003033D01*
X186521000Y-114636366D02*
X186554334Y-114669700D01*
X186554334Y-114669700D02*
X186521000Y-114703033D01*
X186521000Y-114703033D02*
X186487667Y-114669700D01*
X186487667Y-114669700D02*
X186521000Y-114636366D01*
X186521000Y-114636366D02*
X186521000Y-114703033D01*
X144362666Y-94173033D02*
X144362666Y-94739700D01*
X144362666Y-94739700D02*
X144396000Y-94806366D01*
X144396000Y-94806366D02*
X144429333Y-94839700D01*
X144429333Y-94839700D02*
X144496000Y-94873033D01*
X144496000Y-94873033D02*
X144629333Y-94873033D01*
X144629333Y-94873033D02*
X144696000Y-94839700D01*
X144696000Y-94839700D02*
X144729333Y-94806366D01*
X144729333Y-94806366D02*
X144762666Y-94739700D01*
X144762666Y-94739700D02*
X144762666Y-94173033D01*
X145462666Y-94873033D02*
X145062666Y-94873033D01*
X145262666Y-94873033D02*
X145262666Y-94173033D01*
X145262666Y-94173033D02*
X145195999Y-94273033D01*
X145195999Y-94273033D02*
X145129333Y-94339700D01*
X145129333Y-94339700D02*
X145062666Y-94373033D01*
X143712666Y-107153033D02*
X143379332Y-107153033D01*
X143379332Y-107153033D02*
X143379332Y-106453033D01*
X143945999Y-107153033D02*
X143945999Y-106453033D01*
X143945999Y-106453033D02*
X144179333Y-106953033D01*
X144179333Y-106953033D02*
X144412666Y-106453033D01*
X144412666Y-106453033D02*
X144412666Y-107153033D01*
X144679333Y-106453033D02*
X145112666Y-106453033D01*
X145112666Y-106453033D02*
X144879333Y-106719700D01*
X144879333Y-106719700D02*
X144979333Y-106719700D01*
X144979333Y-106719700D02*
X145045999Y-106753033D01*
X145045999Y-106753033D02*
X145079333Y-106786366D01*
X145079333Y-106786366D02*
X145112666Y-106853033D01*
X145112666Y-106853033D02*
X145112666Y-107019700D01*
X145112666Y-107019700D02*
X145079333Y-107086366D01*
X145079333Y-107086366D02*
X145045999Y-107119700D01*
X145045999Y-107119700D02*
X144979333Y-107153033D01*
X144979333Y-107153033D02*
X144779333Y-107153033D01*
X144779333Y-107153033D02*
X144712666Y-107119700D01*
X144712666Y-107119700D02*
X144679333Y-107086366D01*
X145512666Y-106753033D02*
X145446000Y-106719700D01*
X145446000Y-106719700D02*
X145412666Y-106686366D01*
X145412666Y-106686366D02*
X145379333Y-106619700D01*
X145379333Y-106619700D02*
X145379333Y-106586366D01*
X145379333Y-106586366D02*
X145412666Y-106519700D01*
X145412666Y-106519700D02*
X145446000Y-106486366D01*
X145446000Y-106486366D02*
X145512666Y-106453033D01*
X145512666Y-106453033D02*
X145646000Y-106453033D01*
X145646000Y-106453033D02*
X145712666Y-106486366D01*
X145712666Y-106486366D02*
X145746000Y-106519700D01*
X145746000Y-106519700D02*
X145779333Y-106586366D01*
X145779333Y-106586366D02*
X145779333Y-106619700D01*
X145779333Y-106619700D02*
X145746000Y-106686366D01*
X145746000Y-106686366D02*
X145712666Y-106719700D01*
X145712666Y-106719700D02*
X145646000Y-106753033D01*
X145646000Y-106753033D02*
X145512666Y-106753033D01*
X145512666Y-106753033D02*
X145446000Y-106786366D01*
X145446000Y-106786366D02*
X145412666Y-106819700D01*
X145412666Y-106819700D02*
X145379333Y-106886366D01*
X145379333Y-106886366D02*
X145379333Y-107019700D01*
X145379333Y-107019700D02*
X145412666Y-107086366D01*
X145412666Y-107086366D02*
X145446000Y-107119700D01*
X145446000Y-107119700D02*
X145512666Y-107153033D01*
X145512666Y-107153033D02*
X145646000Y-107153033D01*
X145646000Y-107153033D02*
X145712666Y-107119700D01*
X145712666Y-107119700D02*
X145746000Y-107086366D01*
X145746000Y-107086366D02*
X145779333Y-107019700D01*
X145779333Y-107019700D02*
X145779333Y-106886366D01*
X145779333Y-106886366D02*
X145746000Y-106819700D01*
X145746000Y-106819700D02*
X145712666Y-106786366D01*
X145712666Y-106786366D02*
X145646000Y-106753033D01*
X146379333Y-106453033D02*
X146246000Y-106453033D01*
X146246000Y-106453033D02*
X146179333Y-106486366D01*
X146179333Y-106486366D02*
X146146000Y-106519700D01*
X146146000Y-106519700D02*
X146079333Y-106619700D01*
X146079333Y-106619700D02*
X146046000Y-106753033D01*
X146046000Y-106753033D02*
X146046000Y-107019700D01*
X146046000Y-107019700D02*
X146079333Y-107086366D01*
X146079333Y-107086366D02*
X146112667Y-107119700D01*
X146112667Y-107119700D02*
X146179333Y-107153033D01*
X146179333Y-107153033D02*
X146312667Y-107153033D01*
X146312667Y-107153033D02*
X146379333Y-107119700D01*
X146379333Y-107119700D02*
X146412667Y-107086366D01*
X146412667Y-107086366D02*
X146446000Y-107019700D01*
X146446000Y-107019700D02*
X146446000Y-106853033D01*
X146446000Y-106853033D02*
X146412667Y-106786366D01*
X146412667Y-106786366D02*
X146379333Y-106753033D01*
X146379333Y-106753033D02*
X146312667Y-106719700D01*
X146312667Y-106719700D02*
X146179333Y-106719700D01*
X146179333Y-106719700D02*
X146112667Y-106753033D01*
X146112667Y-106753033D02*
X146079333Y-106786366D01*
X146079333Y-106786366D02*
X146046000Y-106853033D01*
X165442033Y-107403666D02*
X164742033Y-107403666D01*
X164742033Y-107403666D02*
X164742033Y-107236999D01*
X164742033Y-107236999D02*
X164775366Y-107136999D01*
X164775366Y-107136999D02*
X164842033Y-107070333D01*
X164842033Y-107070333D02*
X164908700Y-107036999D01*
X164908700Y-107036999D02*
X165042033Y-107003666D01*
X165042033Y-107003666D02*
X165142033Y-107003666D01*
X165142033Y-107003666D02*
X165275366Y-107036999D01*
X165275366Y-107036999D02*
X165342033Y-107070333D01*
X165342033Y-107070333D02*
X165408700Y-107136999D01*
X165408700Y-107136999D02*
X165442033Y-107236999D01*
X165442033Y-107236999D02*
X165442033Y-107403666D01*
X165442033Y-106336999D02*
X165442033Y-106736999D01*
X165442033Y-106536999D02*
X164742033Y-106536999D01*
X164742033Y-106536999D02*
X164842033Y-106603666D01*
X164842033Y-106603666D02*
X164908700Y-106670333D01*
X164908700Y-106670333D02*
X164942033Y-106736999D01*
X165160819Y-104608904D02*
X164160819Y-104608904D01*
X165160819Y-104037476D02*
X164589390Y-104466047D01*
X164160819Y-104037476D02*
X164732247Y-104608904D01*
X160129333Y-110203033D02*
X159896000Y-109869700D01*
X159729333Y-110203033D02*
X159729333Y-109503033D01*
X159729333Y-109503033D02*
X159996000Y-109503033D01*
X159996000Y-109503033D02*
X160062667Y-109536366D01*
X160062667Y-109536366D02*
X160096000Y-109569700D01*
X160096000Y-109569700D02*
X160129333Y-109636366D01*
X160129333Y-109636366D02*
X160129333Y-109736366D01*
X160129333Y-109736366D02*
X160096000Y-109803033D01*
X160096000Y-109803033D02*
X160062667Y-109836366D01*
X160062667Y-109836366D02*
X159996000Y-109869700D01*
X159996000Y-109869700D02*
X159729333Y-109869700D01*
X160396000Y-109569700D02*
X160429333Y-109536366D01*
X160429333Y-109536366D02*
X160496000Y-109503033D01*
X160496000Y-109503033D02*
X160662667Y-109503033D01*
X160662667Y-109503033D02*
X160729333Y-109536366D01*
X160729333Y-109536366D02*
X160762667Y-109569700D01*
X160762667Y-109569700D02*
X160796000Y-109636366D01*
X160796000Y-109636366D02*
X160796000Y-109703033D01*
X160796000Y-109703033D02*
X160762667Y-109803033D01*
X160762667Y-109803033D02*
X160362667Y-110203033D01*
X160362667Y-110203033D02*
X160796000Y-110203033D01*
X155167428Y-107703033D02*
X154767428Y-107703033D01*
X154967428Y-107703033D02*
X154967428Y-107003033D01*
X154967428Y-107003033D02*
X154900761Y-107103033D01*
X154900761Y-107103033D02*
X154834095Y-107169700D01*
X154834095Y-107169700D02*
X154767428Y-107203033D01*
X155600762Y-107003033D02*
X155667428Y-107003033D01*
X155667428Y-107003033D02*
X155734095Y-107036366D01*
X155734095Y-107036366D02*
X155767428Y-107069700D01*
X155767428Y-107069700D02*
X155800762Y-107136366D01*
X155800762Y-107136366D02*
X155834095Y-107269700D01*
X155834095Y-107269700D02*
X155834095Y-107436366D01*
X155834095Y-107436366D02*
X155800762Y-107569700D01*
X155800762Y-107569700D02*
X155767428Y-107636366D01*
X155767428Y-107636366D02*
X155734095Y-107669700D01*
X155734095Y-107669700D02*
X155667428Y-107703033D01*
X155667428Y-107703033D02*
X155600762Y-107703033D01*
X155600762Y-107703033D02*
X155534095Y-107669700D01*
X155534095Y-107669700D02*
X155500762Y-107636366D01*
X155500762Y-107636366D02*
X155467428Y-107569700D01*
X155467428Y-107569700D02*
X155434095Y-107436366D01*
X155434095Y-107436366D02*
X155434095Y-107269700D01*
X155434095Y-107269700D02*
X155467428Y-107136366D01*
X155467428Y-107136366D02*
X155500762Y-107069700D01*
X155500762Y-107069700D02*
X155534095Y-107036366D01*
X155534095Y-107036366D02*
X155600762Y-107003033D01*
X156267429Y-107003033D02*
X156334095Y-107003033D01*
X156334095Y-107003033D02*
X156400762Y-107036366D01*
X156400762Y-107036366D02*
X156434095Y-107069700D01*
X156434095Y-107069700D02*
X156467429Y-107136366D01*
X156467429Y-107136366D02*
X156500762Y-107269700D01*
X156500762Y-107269700D02*
X156500762Y-107436366D01*
X156500762Y-107436366D02*
X156467429Y-107569700D01*
X156467429Y-107569700D02*
X156434095Y-107636366D01*
X156434095Y-107636366D02*
X156400762Y-107669700D01*
X156400762Y-107669700D02*
X156334095Y-107703033D01*
X156334095Y-107703033D02*
X156267429Y-107703033D01*
X156267429Y-107703033D02*
X156200762Y-107669700D01*
X156200762Y-107669700D02*
X156167429Y-107636366D01*
X156167429Y-107636366D02*
X156134095Y-107569700D01*
X156134095Y-107569700D02*
X156100762Y-107436366D01*
X156100762Y-107436366D02*
X156100762Y-107269700D01*
X156100762Y-107269700D02*
X156134095Y-107136366D01*
X156134095Y-107136366D02*
X156167429Y-107069700D01*
X156167429Y-107069700D02*
X156200762Y-107036366D01*
X156200762Y-107036366D02*
X156267429Y-107003033D01*
X156800762Y-107703033D02*
X156800762Y-107003033D01*
X157200762Y-107703033D02*
X156900762Y-107303033D01*
X157200762Y-107003033D02*
X156800762Y-107403033D01*
X160129333Y-114203033D02*
X159896000Y-113869700D01*
X159729333Y-114203033D02*
X159729333Y-113503033D01*
X159729333Y-113503033D02*
X159996000Y-113503033D01*
X159996000Y-113503033D02*
X160062667Y-113536366D01*
X160062667Y-113536366D02*
X160096000Y-113569700D01*
X160096000Y-113569700D02*
X160129333Y-113636366D01*
X160129333Y-113636366D02*
X160129333Y-113736366D01*
X160129333Y-113736366D02*
X160096000Y-113803033D01*
X160096000Y-113803033D02*
X160062667Y-113836366D01*
X160062667Y-113836366D02*
X159996000Y-113869700D01*
X159996000Y-113869700D02*
X159729333Y-113869700D01*
X160362667Y-113503033D02*
X160796000Y-113503033D01*
X160796000Y-113503033D02*
X160562667Y-113769700D01*
X160562667Y-113769700D02*
X160662667Y-113769700D01*
X160662667Y-113769700D02*
X160729333Y-113803033D01*
X160729333Y-113803033D02*
X160762667Y-113836366D01*
X160762667Y-113836366D02*
X160796000Y-113903033D01*
X160796000Y-113903033D02*
X160796000Y-114069700D01*
X160796000Y-114069700D02*
X160762667Y-114136366D01*
X160762667Y-114136366D02*
X160729333Y-114169700D01*
X160729333Y-114169700D02*
X160662667Y-114203033D01*
X160662667Y-114203033D02*
X160462667Y-114203033D01*
X160462667Y-114203033D02*
X160396000Y-114169700D01*
X160396000Y-114169700D02*
X160362667Y-114136366D01*
X155024571Y-111703033D02*
X154624571Y-111703033D01*
X154824571Y-111703033D02*
X154824571Y-111003033D01*
X154824571Y-111003033D02*
X154757904Y-111103033D01*
X154757904Y-111103033D02*
X154691238Y-111169700D01*
X154691238Y-111169700D02*
X154624571Y-111203033D01*
X155457905Y-111003033D02*
X155524571Y-111003033D01*
X155524571Y-111003033D02*
X155591238Y-111036366D01*
X155591238Y-111036366D02*
X155624571Y-111069700D01*
X155624571Y-111069700D02*
X155657905Y-111136366D01*
X155657905Y-111136366D02*
X155691238Y-111269700D01*
X155691238Y-111269700D02*
X155691238Y-111436366D01*
X155691238Y-111436366D02*
X155657905Y-111569700D01*
X155657905Y-111569700D02*
X155624571Y-111636366D01*
X155624571Y-111636366D02*
X155591238Y-111669700D01*
X155591238Y-111669700D02*
X155524571Y-111703033D01*
X155524571Y-111703033D02*
X155457905Y-111703033D01*
X155457905Y-111703033D02*
X155391238Y-111669700D01*
X155391238Y-111669700D02*
X155357905Y-111636366D01*
X155357905Y-111636366D02*
X155324571Y-111569700D01*
X155324571Y-111569700D02*
X155291238Y-111436366D01*
X155291238Y-111436366D02*
X155291238Y-111269700D01*
X155291238Y-111269700D02*
X155324571Y-111136366D01*
X155324571Y-111136366D02*
X155357905Y-111069700D01*
X155357905Y-111069700D02*
X155391238Y-111036366D01*
X155391238Y-111036366D02*
X155457905Y-111003033D01*
X155991238Y-111703033D02*
X155991238Y-111003033D01*
X156391238Y-111703033D02*
X156091238Y-111303033D01*
X156391238Y-111003033D02*
X155991238Y-111403033D01*
X181131333Y-113202366D02*
X181098000Y-113235700D01*
X181098000Y-113235700D02*
X180998000Y-113269033D01*
X180998000Y-113269033D02*
X180931333Y-113269033D01*
X180931333Y-113269033D02*
X180831333Y-113235700D01*
X180831333Y-113235700D02*
X180764667Y-113169033D01*
X180764667Y-113169033D02*
X180731333Y-113102366D01*
X180731333Y-113102366D02*
X180698000Y-112969033D01*
X180698000Y-112969033D02*
X180698000Y-112869033D01*
X180698000Y-112869033D02*
X180731333Y-112735700D01*
X180731333Y-112735700D02*
X180764667Y-112669033D01*
X180764667Y-112669033D02*
X180831333Y-112602366D01*
X180831333Y-112602366D02*
X180931333Y-112569033D01*
X180931333Y-112569033D02*
X180998000Y-112569033D01*
X180998000Y-112569033D02*
X181098000Y-112602366D01*
X181098000Y-112602366D02*
X181131333Y-112635700D01*
X181731333Y-112569033D02*
X181598000Y-112569033D01*
X181598000Y-112569033D02*
X181531333Y-112602366D01*
X181531333Y-112602366D02*
X181498000Y-112635700D01*
X181498000Y-112635700D02*
X181431333Y-112735700D01*
X181431333Y-112735700D02*
X181398000Y-112869033D01*
X181398000Y-112869033D02*
X181398000Y-113135700D01*
X181398000Y-113135700D02*
X181431333Y-113202366D01*
X181431333Y-113202366D02*
X181464667Y-113235700D01*
X181464667Y-113235700D02*
X181531333Y-113269033D01*
X181531333Y-113269033D02*
X181664667Y-113269033D01*
X181664667Y-113269033D02*
X181731333Y-113235700D01*
X181731333Y-113235700D02*
X181764667Y-113202366D01*
X181764667Y-113202366D02*
X181798000Y-113135700D01*
X181798000Y-113135700D02*
X181798000Y-112969033D01*
X181798000Y-112969033D02*
X181764667Y-112902366D01*
X181764667Y-112902366D02*
X181731333Y-112869033D01*
X181731333Y-112869033D02*
X181664667Y-112835700D01*
X181664667Y-112835700D02*
X181531333Y-112835700D01*
X181531333Y-112835700D02*
X181464667Y-112869033D01*
X181464667Y-112869033D02*
X181431333Y-112902366D01*
X181431333Y-112902366D02*
X181398000Y-112969033D01*
X176745333Y-115617033D02*
X177178666Y-115617033D01*
X177178666Y-115617033D02*
X176945333Y-115883700D01*
X176945333Y-115883700D02*
X177045333Y-115883700D01*
X177045333Y-115883700D02*
X177111999Y-115917033D01*
X177111999Y-115917033D02*
X177145333Y-115950366D01*
X177145333Y-115950366D02*
X177178666Y-116017033D01*
X177178666Y-116017033D02*
X177178666Y-116183700D01*
X177178666Y-116183700D02*
X177145333Y-116250366D01*
X177145333Y-116250366D02*
X177111999Y-116283700D01*
X177111999Y-116283700D02*
X177045333Y-116317033D01*
X177045333Y-116317033D02*
X176845333Y-116317033D01*
X176845333Y-116317033D02*
X176778666Y-116283700D01*
X176778666Y-116283700D02*
X176745333Y-116250366D01*
X177412000Y-115617033D02*
X177845333Y-115617033D01*
X177845333Y-115617033D02*
X177612000Y-115883700D01*
X177612000Y-115883700D02*
X177712000Y-115883700D01*
X177712000Y-115883700D02*
X177778666Y-115917033D01*
X177778666Y-115917033D02*
X177812000Y-115950366D01*
X177812000Y-115950366D02*
X177845333Y-116017033D01*
X177845333Y-116017033D02*
X177845333Y-116183700D01*
X177845333Y-116183700D02*
X177812000Y-116250366D01*
X177812000Y-116250366D02*
X177778666Y-116283700D01*
X177778666Y-116283700D02*
X177712000Y-116317033D01*
X177712000Y-116317033D02*
X177512000Y-116317033D01*
X177512000Y-116317033D02*
X177445333Y-116283700D01*
X177445333Y-116283700D02*
X177412000Y-116250366D01*
X178278667Y-115617033D02*
X178345333Y-115617033D01*
X178345333Y-115617033D02*
X178412000Y-115650366D01*
X178412000Y-115650366D02*
X178445333Y-115683700D01*
X178445333Y-115683700D02*
X178478667Y-115750366D01*
X178478667Y-115750366D02*
X178512000Y-115883700D01*
X178512000Y-115883700D02*
X178512000Y-116050366D01*
X178512000Y-116050366D02*
X178478667Y-116183700D01*
X178478667Y-116183700D02*
X178445333Y-116250366D01*
X178445333Y-116250366D02*
X178412000Y-116283700D01*
X178412000Y-116283700D02*
X178345333Y-116317033D01*
X178345333Y-116317033D02*
X178278667Y-116317033D01*
X178278667Y-116317033D02*
X178212000Y-116283700D01*
X178212000Y-116283700D02*
X178178667Y-116250366D01*
X178178667Y-116250366D02*
X178145333Y-116183700D01*
X178145333Y-116183700D02*
X178112000Y-116050366D01*
X178112000Y-116050366D02*
X178112000Y-115883700D01*
X178112000Y-115883700D02*
X178145333Y-115750366D01*
X178145333Y-115750366D02*
X178178667Y-115683700D01*
X178178667Y-115683700D02*
X178212000Y-115650366D01*
X178212000Y-115650366D02*
X178278667Y-115617033D01*
X178812000Y-115850366D02*
X178812000Y-116550366D01*
X178812000Y-115883700D02*
X178878667Y-115850366D01*
X178878667Y-115850366D02*
X179012000Y-115850366D01*
X179012000Y-115850366D02*
X179078667Y-115883700D01*
X179078667Y-115883700D02*
X179112000Y-115917033D01*
X179112000Y-115917033D02*
X179145334Y-115983700D01*
X179145334Y-115983700D02*
X179145334Y-116183700D01*
X179145334Y-116183700D02*
X179112000Y-116250366D01*
X179112000Y-116250366D02*
X179078667Y-116283700D01*
X179078667Y-116283700D02*
X179012000Y-116317033D01*
X179012000Y-116317033D02*
X178878667Y-116317033D01*
X178878667Y-116317033D02*
X178812000Y-116283700D01*
X178589333Y-104136366D02*
X178556000Y-104169700D01*
X178556000Y-104169700D02*
X178456000Y-104203033D01*
X178456000Y-104203033D02*
X178389333Y-104203033D01*
X178389333Y-104203033D02*
X178289333Y-104169700D01*
X178289333Y-104169700D02*
X178222667Y-104103033D01*
X178222667Y-104103033D02*
X178189333Y-104036366D01*
X178189333Y-104036366D02*
X178156000Y-103903033D01*
X178156000Y-103903033D02*
X178156000Y-103803033D01*
X178156000Y-103803033D02*
X178189333Y-103669700D01*
X178189333Y-103669700D02*
X178222667Y-103603033D01*
X178222667Y-103603033D02*
X178289333Y-103536366D01*
X178289333Y-103536366D02*
X178389333Y-103503033D01*
X178389333Y-103503033D02*
X178456000Y-103503033D01*
X178456000Y-103503033D02*
X178556000Y-103536366D01*
X178556000Y-103536366D02*
X178589333Y-103569700D01*
X179222667Y-103503033D02*
X178889333Y-103503033D01*
X178889333Y-103503033D02*
X178856000Y-103836366D01*
X178856000Y-103836366D02*
X178889333Y-103803033D01*
X178889333Y-103803033D02*
X178956000Y-103769700D01*
X178956000Y-103769700D02*
X179122667Y-103769700D01*
X179122667Y-103769700D02*
X179189333Y-103803033D01*
X179189333Y-103803033D02*
X179222667Y-103836366D01*
X179222667Y-103836366D02*
X179256000Y-103903033D01*
X179256000Y-103903033D02*
X179256000Y-104069700D01*
X179256000Y-104069700D02*
X179222667Y-104136366D01*
X179222667Y-104136366D02*
X179189333Y-104169700D01*
X179189333Y-104169700D02*
X179122667Y-104203033D01*
X179122667Y-104203033D02*
X178956000Y-104203033D01*
X178956000Y-104203033D02*
X178889333Y-104169700D01*
X178889333Y-104169700D02*
X178856000Y-104136366D01*
X181634667Y-105965033D02*
X182068000Y-105965033D01*
X182068000Y-105965033D02*
X181834667Y-106231700D01*
X181834667Y-106231700D02*
X181934667Y-106231700D01*
X181934667Y-106231700D02*
X182001333Y-106265033D01*
X182001333Y-106265033D02*
X182034667Y-106298366D01*
X182034667Y-106298366D02*
X182068000Y-106365033D01*
X182068000Y-106365033D02*
X182068000Y-106531700D01*
X182068000Y-106531700D02*
X182034667Y-106598366D01*
X182034667Y-106598366D02*
X182001333Y-106631700D01*
X182001333Y-106631700D02*
X181934667Y-106665033D01*
X181934667Y-106665033D02*
X181734667Y-106665033D01*
X181734667Y-106665033D02*
X181668000Y-106631700D01*
X181668000Y-106631700D02*
X181634667Y-106598366D01*
X182301334Y-105965033D02*
X182734667Y-105965033D01*
X182734667Y-105965033D02*
X182501334Y-106231700D01*
X182501334Y-106231700D02*
X182601334Y-106231700D01*
X182601334Y-106231700D02*
X182668000Y-106265033D01*
X182668000Y-106265033D02*
X182701334Y-106298366D01*
X182701334Y-106298366D02*
X182734667Y-106365033D01*
X182734667Y-106365033D02*
X182734667Y-106531700D01*
X182734667Y-106531700D02*
X182701334Y-106598366D01*
X182701334Y-106598366D02*
X182668000Y-106631700D01*
X182668000Y-106631700D02*
X182601334Y-106665033D01*
X182601334Y-106665033D02*
X182401334Y-106665033D01*
X182401334Y-106665033D02*
X182334667Y-106631700D01*
X182334667Y-106631700D02*
X182301334Y-106598366D01*
X183034667Y-106198366D02*
X183034667Y-106898366D01*
X183034667Y-106231700D02*
X183101334Y-106198366D01*
X183101334Y-106198366D02*
X183234667Y-106198366D01*
X183234667Y-106198366D02*
X183301334Y-106231700D01*
X183301334Y-106231700D02*
X183334667Y-106265033D01*
X183334667Y-106265033D02*
X183368001Y-106331700D01*
X183368001Y-106331700D02*
X183368001Y-106531700D01*
X183368001Y-106531700D02*
X183334667Y-106598366D01*
X183334667Y-106598366D02*
X183301334Y-106631700D01*
X183301334Y-106631700D02*
X183234667Y-106665033D01*
X183234667Y-106665033D02*
X183101334Y-106665033D01*
X183101334Y-106665033D02*
X183034667Y-106631700D01*
X160129333Y-117703033D02*
X159896000Y-117369700D01*
X159729333Y-117703033D02*
X159729333Y-117003033D01*
X159729333Y-117003033D02*
X159996000Y-117003033D01*
X159996000Y-117003033D02*
X160062667Y-117036366D01*
X160062667Y-117036366D02*
X160096000Y-117069700D01*
X160096000Y-117069700D02*
X160129333Y-117136366D01*
X160129333Y-117136366D02*
X160129333Y-117236366D01*
X160129333Y-117236366D02*
X160096000Y-117303033D01*
X160096000Y-117303033D02*
X160062667Y-117336366D01*
X160062667Y-117336366D02*
X159996000Y-117369700D01*
X159996000Y-117369700D02*
X159729333Y-117369700D01*
X160729333Y-117236366D02*
X160729333Y-117703033D01*
X160562667Y-116969700D02*
X160396000Y-117469700D01*
X160396000Y-117469700D02*
X160829333Y-117469700D01*
X155029333Y-115316366D02*
X155029333Y-115783033D01*
X154862667Y-115049700D02*
X154696000Y-115549700D01*
X154696000Y-115549700D02*
X155129333Y-115549700D01*
X155396000Y-115716366D02*
X155429334Y-115749700D01*
X155429334Y-115749700D02*
X155396000Y-115783033D01*
X155396000Y-115783033D02*
X155362667Y-115749700D01*
X155362667Y-115749700D02*
X155396000Y-115716366D01*
X155396000Y-115716366D02*
X155396000Y-115783033D01*
X155662667Y-115083033D02*
X156129333Y-115083033D01*
X156129333Y-115083033D02*
X155829333Y-115783033D01*
X156396000Y-115783033D02*
X156396000Y-115083033D01*
X156796000Y-115783033D02*
X156496000Y-115383033D01*
X156796000Y-115083033D02*
X156396000Y-115483033D01*
X133686682Y-94914366D02*
X133653349Y-94947700D01*
X133653349Y-94947700D02*
X133553349Y-94981033D01*
X133553349Y-94981033D02*
X133486682Y-94981033D01*
X133486682Y-94981033D02*
X133386682Y-94947700D01*
X133386682Y-94947700D02*
X133320016Y-94881033D01*
X133320016Y-94881033D02*
X133286682Y-94814366D01*
X133286682Y-94814366D02*
X133253349Y-94681033D01*
X133253349Y-94681033D02*
X133253349Y-94581033D01*
X133253349Y-94581033D02*
X133286682Y-94447700D01*
X133286682Y-94447700D02*
X133320016Y-94381033D01*
X133320016Y-94381033D02*
X133386682Y-94314366D01*
X133386682Y-94314366D02*
X133486682Y-94281033D01*
X133486682Y-94281033D02*
X133553349Y-94281033D01*
X133553349Y-94281033D02*
X133653349Y-94314366D01*
X133653349Y-94314366D02*
X133686682Y-94347700D01*
X134353349Y-94981033D02*
X133953349Y-94981033D01*
X134153349Y-94981033D02*
X134153349Y-94281033D01*
X134153349Y-94281033D02*
X134086682Y-94381033D01*
X134086682Y-94381033D02*
X134020016Y-94447700D01*
X134020016Y-94447700D02*
X133953349Y-94481033D01*
X132220015Y-105183033D02*
X131820015Y-105183033D01*
X132020015Y-105183033D02*
X132020015Y-104483033D01*
X132020015Y-104483033D02*
X131953348Y-104583033D01*
X131953348Y-104583033D02*
X131886682Y-104649700D01*
X131886682Y-104649700D02*
X131820015Y-104683033D01*
X132653349Y-104483033D02*
X132720015Y-104483033D01*
X132720015Y-104483033D02*
X132786682Y-104516366D01*
X132786682Y-104516366D02*
X132820015Y-104549700D01*
X132820015Y-104549700D02*
X132853349Y-104616366D01*
X132853349Y-104616366D02*
X132886682Y-104749700D01*
X132886682Y-104749700D02*
X132886682Y-104916366D01*
X132886682Y-104916366D02*
X132853349Y-105049700D01*
X132853349Y-105049700D02*
X132820015Y-105116366D01*
X132820015Y-105116366D02*
X132786682Y-105149700D01*
X132786682Y-105149700D02*
X132720015Y-105183033D01*
X132720015Y-105183033D02*
X132653349Y-105183033D01*
X132653349Y-105183033D02*
X132586682Y-105149700D01*
X132586682Y-105149700D02*
X132553349Y-105116366D01*
X132553349Y-105116366D02*
X132520015Y-105049700D01*
X132520015Y-105049700D02*
X132486682Y-104916366D01*
X132486682Y-104916366D02*
X132486682Y-104749700D01*
X132486682Y-104749700D02*
X132520015Y-104616366D01*
X132520015Y-104616366D02*
X132553349Y-104549700D01*
X132553349Y-104549700D02*
X132586682Y-104516366D01*
X132586682Y-104516366D02*
X132653349Y-104483033D01*
X133486682Y-104716366D02*
X133486682Y-105183033D01*
X133186682Y-104716366D02*
X133186682Y-105083033D01*
X133186682Y-105083033D02*
X133220016Y-105149700D01*
X133220016Y-105149700D02*
X133286682Y-105183033D01*
X133286682Y-105183033D02*
X133386682Y-105183033D01*
X133386682Y-105183033D02*
X133453349Y-105149700D01*
X133453349Y-105149700D02*
X133486682Y-105116366D01*
X133853349Y-105149700D02*
X133853349Y-105183033D01*
X133853349Y-105183033D02*
X133820015Y-105249700D01*
X133820015Y-105249700D02*
X133786682Y-105283033D01*
X134086682Y-104483033D02*
X134520015Y-104483033D01*
X134520015Y-104483033D02*
X134286682Y-104749700D01*
X134286682Y-104749700D02*
X134386682Y-104749700D01*
X134386682Y-104749700D02*
X134453348Y-104783033D01*
X134453348Y-104783033D02*
X134486682Y-104816366D01*
X134486682Y-104816366D02*
X134520015Y-104883033D01*
X134520015Y-104883033D02*
X134520015Y-105049700D01*
X134520015Y-105049700D02*
X134486682Y-105116366D01*
X134486682Y-105116366D02*
X134453348Y-105149700D01*
X134453348Y-105149700D02*
X134386682Y-105183033D01*
X134386682Y-105183033D02*
X134186682Y-105183033D01*
X134186682Y-105183033D02*
X134120015Y-105149700D01*
X134120015Y-105149700D02*
X134086682Y-105116366D01*
X135153349Y-104483033D02*
X134820015Y-104483033D01*
X134820015Y-104483033D02*
X134786682Y-104816366D01*
X134786682Y-104816366D02*
X134820015Y-104783033D01*
X134820015Y-104783033D02*
X134886682Y-104749700D01*
X134886682Y-104749700D02*
X135053349Y-104749700D01*
X135053349Y-104749700D02*
X135120015Y-104783033D01*
X135120015Y-104783033D02*
X135153349Y-104816366D01*
X135153349Y-104816366D02*
X135186682Y-104883033D01*
X135186682Y-104883033D02*
X135186682Y-105049700D01*
X135186682Y-105049700D02*
X135153349Y-105116366D01*
X135153349Y-105116366D02*
X135120015Y-105149700D01*
X135120015Y-105149700D02*
X135053349Y-105183033D01*
X135053349Y-105183033D02*
X134886682Y-105183033D01*
X134886682Y-105183033D02*
X134820015Y-105149700D01*
X134820015Y-105149700D02*
X134786682Y-105116366D01*
X135386682Y-104483033D02*
X135620016Y-105183033D01*
X135620016Y-105183033D02*
X135853349Y-104483033D01*
X185049333Y-106852366D02*
X185016000Y-106885700D01*
X185016000Y-106885700D02*
X184916000Y-106919033D01*
X184916000Y-106919033D02*
X184849333Y-106919033D01*
X184849333Y-106919033D02*
X184749333Y-106885700D01*
X184749333Y-106885700D02*
X184682667Y-106819033D01*
X184682667Y-106819033D02*
X184649333Y-106752366D01*
X184649333Y-106752366D02*
X184616000Y-106619033D01*
X184616000Y-106619033D02*
X184616000Y-106519033D01*
X184616000Y-106519033D02*
X184649333Y-106385700D01*
X184649333Y-106385700D02*
X184682667Y-106319033D01*
X184682667Y-106319033D02*
X184749333Y-106252366D01*
X184749333Y-106252366D02*
X184849333Y-106219033D01*
X184849333Y-106219033D02*
X184916000Y-106219033D01*
X184916000Y-106219033D02*
X185016000Y-106252366D01*
X185016000Y-106252366D02*
X185049333Y-106285700D01*
X185649333Y-106452366D02*
X185649333Y-106919033D01*
X185482667Y-106185700D02*
X185316000Y-106685700D01*
X185316000Y-106685700D02*
X185749333Y-106685700D01*
X184716000Y-112761033D02*
X184316000Y-112761033D01*
X184516000Y-112761033D02*
X184516000Y-112061033D01*
X184516000Y-112061033D02*
X184449333Y-112161033D01*
X184449333Y-112161033D02*
X184382667Y-112227700D01*
X184382667Y-112227700D02*
X184316000Y-112261033D01*
X185149334Y-112061033D02*
X185216000Y-112061033D01*
X185216000Y-112061033D02*
X185282667Y-112094366D01*
X185282667Y-112094366D02*
X185316000Y-112127700D01*
X185316000Y-112127700D02*
X185349334Y-112194366D01*
X185349334Y-112194366D02*
X185382667Y-112327700D01*
X185382667Y-112327700D02*
X185382667Y-112494366D01*
X185382667Y-112494366D02*
X185349334Y-112627700D01*
X185349334Y-112627700D02*
X185316000Y-112694366D01*
X185316000Y-112694366D02*
X185282667Y-112727700D01*
X185282667Y-112727700D02*
X185216000Y-112761033D01*
X185216000Y-112761033D02*
X185149334Y-112761033D01*
X185149334Y-112761033D02*
X185082667Y-112727700D01*
X185082667Y-112727700D02*
X185049334Y-112694366D01*
X185049334Y-112694366D02*
X185016000Y-112627700D01*
X185016000Y-112627700D02*
X184982667Y-112494366D01*
X184982667Y-112494366D02*
X184982667Y-112327700D01*
X184982667Y-112327700D02*
X185016000Y-112194366D01*
X185016000Y-112194366D02*
X185049334Y-112127700D01*
X185049334Y-112127700D02*
X185082667Y-112094366D01*
X185082667Y-112094366D02*
X185149334Y-112061033D01*
X185682667Y-112294366D02*
X185682667Y-112994366D01*
X185682667Y-112327700D02*
X185749334Y-112294366D01*
X185749334Y-112294366D02*
X185882667Y-112294366D01*
X185882667Y-112294366D02*
X185949334Y-112327700D01*
X185949334Y-112327700D02*
X185982667Y-112361033D01*
X185982667Y-112361033D02*
X186016001Y-112427700D01*
X186016001Y-112427700D02*
X186016001Y-112627700D01*
X186016001Y-112627700D02*
X185982667Y-112694366D01*
X185982667Y-112694366D02*
X185949334Y-112727700D01*
X185949334Y-112727700D02*
X185882667Y-112761033D01*
X185882667Y-112761033D02*
X185749334Y-112761033D01*
X185749334Y-112761033D02*
X185682667Y-112727700D01*
X178570033Y-99703666D02*
X178570033Y-99370333D01*
X178770033Y-99770333D02*
X178070033Y-99537000D01*
X178070033Y-99537000D02*
X178770033Y-99303666D01*
X178403366Y-99070333D02*
X178403366Y-98837000D01*
X178770033Y-98737000D02*
X178770033Y-99070333D01*
X178770033Y-99070333D02*
X178070033Y-99070333D01*
X178070033Y-99070333D02*
X178070033Y-98737000D01*
X178770033Y-98070333D02*
X178770033Y-98470333D01*
X178770033Y-98270333D02*
X178070033Y-98270333D01*
X178070033Y-98270333D02*
X178170033Y-98337000D01*
X178170033Y-98337000D02*
X178236700Y-98403667D01*
X178236700Y-98403667D02*
X178270033Y-98470333D01*
X181312667Y-103925033D02*
X181646000Y-103925033D01*
X181246000Y-104125033D02*
X181479334Y-103425033D01*
X181479334Y-103425033D02*
X181712667Y-104125033D01*
X181946000Y-103658366D02*
X181946000Y-104125033D01*
X181946000Y-103725033D02*
X181979334Y-103691700D01*
X181979334Y-103691700D02*
X182046000Y-103658366D01*
X182046000Y-103658366D02*
X182146000Y-103658366D01*
X182146000Y-103658366D02*
X182212667Y-103691700D01*
X182212667Y-103691700D02*
X182246000Y-103758366D01*
X182246000Y-103758366D02*
X182246000Y-104125033D01*
X182479333Y-103658366D02*
X182746000Y-103658366D01*
X182579333Y-103425033D02*
X182579333Y-104025033D01*
X182579333Y-104025033D02*
X182612667Y-104091700D01*
X182612667Y-104091700D02*
X182679333Y-104125033D01*
X182679333Y-104125033D02*
X182746000Y-104125033D01*
X183246000Y-104091700D02*
X183179333Y-104125033D01*
X183179333Y-104125033D02*
X183046000Y-104125033D01*
X183046000Y-104125033D02*
X182979333Y-104091700D01*
X182979333Y-104091700D02*
X182946000Y-104025033D01*
X182946000Y-104025033D02*
X182946000Y-103758366D01*
X182946000Y-103758366D02*
X182979333Y-103691700D01*
X182979333Y-103691700D02*
X183046000Y-103658366D01*
X183046000Y-103658366D02*
X183179333Y-103658366D01*
X183179333Y-103658366D02*
X183246000Y-103691700D01*
X183246000Y-103691700D02*
X183279333Y-103758366D01*
X183279333Y-103758366D02*
X183279333Y-103825033D01*
X183279333Y-103825033D02*
X182946000Y-103891700D01*
X183579333Y-103658366D02*
X183579333Y-104125033D01*
X183579333Y-103725033D02*
X183612667Y-103691700D01*
X183612667Y-103691700D02*
X183679333Y-103658366D01*
X183679333Y-103658366D02*
X183779333Y-103658366D01*
X183779333Y-103658366D02*
X183846000Y-103691700D01*
X183846000Y-103691700D02*
X183879333Y-103758366D01*
X183879333Y-103758366D02*
X183879333Y-104125033D01*
X184212666Y-103658366D02*
X184212666Y-104125033D01*
X184212666Y-103725033D02*
X184246000Y-103691700D01*
X184246000Y-103691700D02*
X184312666Y-103658366D01*
X184312666Y-103658366D02*
X184412666Y-103658366D01*
X184412666Y-103658366D02*
X184479333Y-103691700D01*
X184479333Y-103691700D02*
X184512666Y-103758366D01*
X184512666Y-103758366D02*
X184512666Y-104125033D01*
X185145999Y-104125033D02*
X185145999Y-103758366D01*
X185145999Y-103758366D02*
X185112666Y-103691700D01*
X185112666Y-103691700D02*
X185045999Y-103658366D01*
X185045999Y-103658366D02*
X184912666Y-103658366D01*
X184912666Y-103658366D02*
X184845999Y-103691700D01*
X185145999Y-104091700D02*
X185079333Y-104125033D01*
X185079333Y-104125033D02*
X184912666Y-104125033D01*
X184912666Y-104125033D02*
X184845999Y-104091700D01*
X184845999Y-104091700D02*
X184812666Y-104025033D01*
X184812666Y-104025033D02*
X184812666Y-103958366D01*
X184812666Y-103958366D02*
X184845999Y-103891700D01*
X184845999Y-103891700D02*
X184912666Y-103858366D01*
X184912666Y-103858366D02*
X185079333Y-103858366D01*
X185079333Y-103858366D02*
X185145999Y-103825033D01*
X173606571Y-109743033D02*
X173273237Y-109743033D01*
X173273237Y-109743033D02*
X173273237Y-109043033D01*
X174206571Y-109743033D02*
X173806571Y-109743033D01*
X174006571Y-109743033D02*
X174006571Y-109043033D01*
X174006571Y-109043033D02*
X173939904Y-109143033D01*
X173939904Y-109143033D02*
X173873238Y-109209700D01*
X173873238Y-109209700D02*
X173806571Y-109243033D01*
X161789333Y-98613033D02*
X161556000Y-98279700D01*
X161389333Y-98613033D02*
X161389333Y-97913033D01*
X161389333Y-97913033D02*
X161656000Y-97913033D01*
X161656000Y-97913033D02*
X161722667Y-97946366D01*
X161722667Y-97946366D02*
X161756000Y-97979700D01*
X161756000Y-97979700D02*
X161789333Y-98046366D01*
X161789333Y-98046366D02*
X161789333Y-98146366D01*
X161789333Y-98146366D02*
X161756000Y-98213033D01*
X161756000Y-98213033D02*
X161722667Y-98246366D01*
X161722667Y-98246366D02*
X161656000Y-98279700D01*
X161656000Y-98279700D02*
X161389333Y-98279700D01*
X161989333Y-97913033D02*
X162222667Y-98613033D01*
X162222667Y-98613033D02*
X162456000Y-97913033D01*
X163056000Y-98613033D02*
X162656000Y-98613033D01*
X162856000Y-98613033D02*
X162856000Y-97913033D01*
X162856000Y-97913033D02*
X162789333Y-98013033D01*
X162789333Y-98013033D02*
X162722667Y-98079700D01*
X162722667Y-98079700D02*
X162656000Y-98113033D01*
D13*
X155024571Y-94982333D02*
X154624571Y-94982333D01*
X154824571Y-94982333D02*
X154824571Y-94282333D01*
X154824571Y-94282333D02*
X154757904Y-94382333D01*
X154757904Y-94382333D02*
X154691238Y-94449000D01*
X154691238Y-94449000D02*
X154624571Y-94482333D01*
X155457905Y-94282333D02*
X155524571Y-94282333D01*
X155524571Y-94282333D02*
X155591238Y-94315666D01*
X155591238Y-94315666D02*
X155624571Y-94349000D01*
X155624571Y-94349000D02*
X155657905Y-94415666D01*
X155657905Y-94415666D02*
X155691238Y-94549000D01*
X155691238Y-94549000D02*
X155691238Y-94715666D01*
X155691238Y-94715666D02*
X155657905Y-94849000D01*
X155657905Y-94849000D02*
X155624571Y-94915666D01*
X155624571Y-94915666D02*
X155591238Y-94949000D01*
X155591238Y-94949000D02*
X155524571Y-94982333D01*
X155524571Y-94982333D02*
X155457905Y-94982333D01*
X155457905Y-94982333D02*
X155391238Y-94949000D01*
X155391238Y-94949000D02*
X155357905Y-94915666D01*
X155357905Y-94915666D02*
X155324571Y-94849000D01*
X155324571Y-94849000D02*
X155291238Y-94715666D01*
X155291238Y-94715666D02*
X155291238Y-94549000D01*
X155291238Y-94549000D02*
X155324571Y-94415666D01*
X155324571Y-94415666D02*
X155357905Y-94349000D01*
X155357905Y-94349000D02*
X155391238Y-94315666D01*
X155391238Y-94315666D02*
X155457905Y-94282333D01*
X155991238Y-94982333D02*
X155991238Y-94282333D01*
X156391238Y-94982333D02*
X156091238Y-94582333D01*
X156391238Y-94282333D02*
X155991238Y-94682333D01*
D12*
X122972666Y-118003033D02*
X122972666Y-118503033D01*
X122972666Y-118503033D02*
X122939333Y-118603033D01*
X122939333Y-118603033D02*
X122872666Y-118669700D01*
X122872666Y-118669700D02*
X122772666Y-118703033D01*
X122772666Y-118703033D02*
X122706000Y-118703033D01*
X123672666Y-118703033D02*
X123272666Y-118703033D01*
X123472666Y-118703033D02*
X123472666Y-118003033D01*
X123472666Y-118003033D02*
X123405999Y-118103033D01*
X123405999Y-118103033D02*
X123339333Y-118169700D01*
X123339333Y-118169700D02*
X123272666Y-118203033D01*
X130922667Y-108003033D02*
X131256000Y-108003033D01*
X130856000Y-108203033D02*
X131089334Y-107503033D01*
X131089334Y-107503033D02*
X131322667Y-108203033D01*
X131856000Y-107736366D02*
X131856000Y-108203033D01*
X131556000Y-107736366D02*
X131556000Y-108103033D01*
X131556000Y-108103033D02*
X131589334Y-108169700D01*
X131589334Y-108169700D02*
X131656000Y-108203033D01*
X131656000Y-108203033D02*
X131756000Y-108203033D01*
X131756000Y-108203033D02*
X131822667Y-108169700D01*
X131822667Y-108169700D02*
X131856000Y-108136366D01*
X132489333Y-108203033D02*
X132489333Y-107503033D01*
X132489333Y-108169700D02*
X132422667Y-108203033D01*
X132422667Y-108203033D02*
X132289333Y-108203033D01*
X132289333Y-108203033D02*
X132222667Y-108169700D01*
X132222667Y-108169700D02*
X132189333Y-108136366D01*
X132189333Y-108136366D02*
X132156000Y-108069700D01*
X132156000Y-108069700D02*
X132156000Y-107869700D01*
X132156000Y-107869700D02*
X132189333Y-107803033D01*
X132189333Y-107803033D02*
X132222667Y-107769700D01*
X132222667Y-107769700D02*
X132289333Y-107736366D01*
X132289333Y-107736366D02*
X132422667Y-107736366D01*
X132422667Y-107736366D02*
X132489333Y-107769700D01*
X132822666Y-108203033D02*
X132822666Y-107736366D01*
X132822666Y-107503033D02*
X132789333Y-107536366D01*
X132789333Y-107536366D02*
X132822666Y-107569700D01*
X132822666Y-107569700D02*
X132856000Y-107536366D01*
X132856000Y-107536366D02*
X132822666Y-107503033D01*
X132822666Y-107503033D02*
X132822666Y-107569700D01*
X133255999Y-108203033D02*
X133189333Y-108169700D01*
X133189333Y-108169700D02*
X133155999Y-108136366D01*
X133155999Y-108136366D02*
X133122666Y-108069700D01*
X133122666Y-108069700D02*
X133122666Y-107869700D01*
X133122666Y-107869700D02*
X133155999Y-107803033D01*
X133155999Y-107803033D02*
X133189333Y-107769700D01*
X133189333Y-107769700D02*
X133255999Y-107736366D01*
X133255999Y-107736366D02*
X133355999Y-107736366D01*
X133355999Y-107736366D02*
X133422666Y-107769700D01*
X133422666Y-107769700D02*
X133455999Y-107803033D01*
X133455999Y-107803033D02*
X133489333Y-107869700D01*
X133489333Y-107869700D02*
X133489333Y-108069700D01*
X133489333Y-108069700D02*
X133455999Y-108136366D01*
X133455999Y-108136366D02*
X133422666Y-108169700D01*
X133422666Y-108169700D02*
X133355999Y-108203033D01*
X133355999Y-108203033D02*
X133255999Y-108203033D01*
X133989332Y-107503033D02*
X133989332Y-108003033D01*
X133989332Y-108003033D02*
X133955999Y-108103033D01*
X133955999Y-108103033D02*
X133889332Y-108169700D01*
X133889332Y-108169700D02*
X133789332Y-108203033D01*
X133789332Y-108203033D02*
X133722666Y-108203033D01*
X134622665Y-108203033D02*
X134622665Y-107836366D01*
X134622665Y-107836366D02*
X134589332Y-107769700D01*
X134589332Y-107769700D02*
X134522665Y-107736366D01*
X134522665Y-107736366D02*
X134389332Y-107736366D01*
X134389332Y-107736366D02*
X134322665Y-107769700D01*
X134622665Y-108169700D02*
X134555999Y-108203033D01*
X134555999Y-108203033D02*
X134389332Y-108203033D01*
X134389332Y-108203033D02*
X134322665Y-108169700D01*
X134322665Y-108169700D02*
X134289332Y-108103033D01*
X134289332Y-108103033D02*
X134289332Y-108036366D01*
X134289332Y-108036366D02*
X134322665Y-107969700D01*
X134322665Y-107969700D02*
X134389332Y-107936366D01*
X134389332Y-107936366D02*
X134555999Y-107936366D01*
X134555999Y-107936366D02*
X134622665Y-107903033D01*
X135255998Y-108169700D02*
X135189332Y-108203033D01*
X135189332Y-108203033D02*
X135055998Y-108203033D01*
X135055998Y-108203033D02*
X134989332Y-108169700D01*
X134989332Y-108169700D02*
X134955998Y-108136366D01*
X134955998Y-108136366D02*
X134922665Y-108069700D01*
X134922665Y-108069700D02*
X134922665Y-107869700D01*
X134922665Y-107869700D02*
X134955998Y-107803033D01*
X134955998Y-107803033D02*
X134989332Y-107769700D01*
X134989332Y-107769700D02*
X135055998Y-107736366D01*
X135055998Y-107736366D02*
X135189332Y-107736366D01*
X135189332Y-107736366D02*
X135255998Y-107769700D01*
X135555998Y-108203033D02*
X135555998Y-107503033D01*
X135622665Y-107936366D02*
X135822665Y-108203033D01*
X135822665Y-107736366D02*
X135555998Y-108003033D01*
X136089332Y-107569700D02*
X136122665Y-107536366D01*
X136122665Y-107536366D02*
X136189332Y-107503033D01*
X136189332Y-107503033D02*
X136355999Y-107503033D01*
X136355999Y-107503033D02*
X136422665Y-107536366D01*
X136422665Y-107536366D02*
X136455999Y-107569700D01*
X136455999Y-107569700D02*
X136489332Y-107636366D01*
X136489332Y-107636366D02*
X136489332Y-107703033D01*
X136489332Y-107703033D02*
X136455999Y-107803033D01*
X136455999Y-107803033D02*
X136055999Y-108203033D01*
X136055999Y-108203033D02*
X136489332Y-108203033D01*
X160089333Y-105203033D02*
X159856000Y-104869700D01*
X159689333Y-105203033D02*
X159689333Y-104503033D01*
X159689333Y-104503033D02*
X159956000Y-104503033D01*
X159956000Y-104503033D02*
X160022667Y-104536366D01*
X160022667Y-104536366D02*
X160056000Y-104569700D01*
X160056000Y-104569700D02*
X160089333Y-104636366D01*
X160089333Y-104636366D02*
X160089333Y-104736366D01*
X160089333Y-104736366D02*
X160056000Y-104803033D01*
X160056000Y-104803033D02*
X160022667Y-104836366D01*
X160022667Y-104836366D02*
X159956000Y-104869700D01*
X159956000Y-104869700D02*
X159689333Y-104869700D01*
X160756000Y-105203033D02*
X160356000Y-105203033D01*
X160556000Y-105203033D02*
X160556000Y-104503033D01*
X160556000Y-104503033D02*
X160489333Y-104603033D01*
X160489333Y-104603033D02*
X160422667Y-104669700D01*
X160422667Y-104669700D02*
X160356000Y-104703033D01*
X154719809Y-102503033D02*
X155153142Y-102503033D01*
X155153142Y-102503033D02*
X154919809Y-102769700D01*
X154919809Y-102769700D02*
X155019809Y-102769700D01*
X155019809Y-102769700D02*
X155086475Y-102803033D01*
X155086475Y-102803033D02*
X155119809Y-102836366D01*
X155119809Y-102836366D02*
X155153142Y-102903033D01*
X155153142Y-102903033D02*
X155153142Y-103069700D01*
X155153142Y-103069700D02*
X155119809Y-103136366D01*
X155119809Y-103136366D02*
X155086475Y-103169700D01*
X155086475Y-103169700D02*
X155019809Y-103203033D01*
X155019809Y-103203033D02*
X154819809Y-103203033D01*
X154819809Y-103203033D02*
X154753142Y-103169700D01*
X154753142Y-103169700D02*
X154719809Y-103136366D01*
X155386476Y-102503033D02*
X155819809Y-102503033D01*
X155819809Y-102503033D02*
X155586476Y-102769700D01*
X155586476Y-102769700D02*
X155686476Y-102769700D01*
X155686476Y-102769700D02*
X155753142Y-102803033D01*
X155753142Y-102803033D02*
X155786476Y-102836366D01*
X155786476Y-102836366D02*
X155819809Y-102903033D01*
X155819809Y-102903033D02*
X155819809Y-103069700D01*
X155819809Y-103069700D02*
X155786476Y-103136366D01*
X155786476Y-103136366D02*
X155753142Y-103169700D01*
X155753142Y-103169700D02*
X155686476Y-103203033D01*
X155686476Y-103203033D02*
X155486476Y-103203033D01*
X155486476Y-103203033D02*
X155419809Y-103169700D01*
X155419809Y-103169700D02*
X155386476Y-103136366D01*
X156253143Y-102503033D02*
X156319809Y-102503033D01*
X156319809Y-102503033D02*
X156386476Y-102536366D01*
X156386476Y-102536366D02*
X156419809Y-102569700D01*
X156419809Y-102569700D02*
X156453143Y-102636366D01*
X156453143Y-102636366D02*
X156486476Y-102769700D01*
X156486476Y-102769700D02*
X156486476Y-102936366D01*
X156486476Y-102936366D02*
X156453143Y-103069700D01*
X156453143Y-103069700D02*
X156419809Y-103136366D01*
X156419809Y-103136366D02*
X156386476Y-103169700D01*
X156386476Y-103169700D02*
X156319809Y-103203033D01*
X156319809Y-103203033D02*
X156253143Y-103203033D01*
X156253143Y-103203033D02*
X156186476Y-103169700D01*
X156186476Y-103169700D02*
X156153143Y-103136366D01*
X156153143Y-103136366D02*
X156119809Y-103069700D01*
X156119809Y-103069700D02*
X156086476Y-102936366D01*
X156086476Y-102936366D02*
X156086476Y-102769700D01*
X156086476Y-102769700D02*
X156119809Y-102636366D01*
X156119809Y-102636366D02*
X156153143Y-102569700D01*
X156153143Y-102569700D02*
X156186476Y-102536366D01*
X156186476Y-102536366D02*
X156253143Y-102503033D01*
X156786476Y-102836366D02*
X157019810Y-102836366D01*
X157119810Y-103203033D02*
X156786476Y-103203033D01*
X156786476Y-103203033D02*
X156786476Y-102503033D01*
X156786476Y-102503033D02*
X157119810Y-102503033D01*
X167772667Y-110849700D02*
X167772667Y-111183033D01*
X167539333Y-110483033D02*
X167772667Y-110849700D01*
X167772667Y-110849700D02*
X168006000Y-110483033D01*
X168606000Y-111183033D02*
X168206000Y-111183033D01*
X168406000Y-111183033D02*
X168406000Y-110483033D01*
X168406000Y-110483033D02*
X168339333Y-110583033D01*
X168339333Y-110583033D02*
X168272667Y-110649700D01*
X168272667Y-110649700D02*
X168206000Y-110683033D01*
X166489333Y-117523033D02*
X166922666Y-117523033D01*
X166922666Y-117523033D02*
X166689333Y-117789700D01*
X166689333Y-117789700D02*
X166789333Y-117789700D01*
X166789333Y-117789700D02*
X166855999Y-117823033D01*
X166855999Y-117823033D02*
X166889333Y-117856366D01*
X166889333Y-117856366D02*
X166922666Y-117923033D01*
X166922666Y-117923033D02*
X166922666Y-118089700D01*
X166922666Y-118089700D02*
X166889333Y-118156366D01*
X166889333Y-118156366D02*
X166855999Y-118189700D01*
X166855999Y-118189700D02*
X166789333Y-118223033D01*
X166789333Y-118223033D02*
X166589333Y-118223033D01*
X166589333Y-118223033D02*
X166522666Y-118189700D01*
X166522666Y-118189700D02*
X166489333Y-118156366D01*
X167356000Y-117523033D02*
X167422666Y-117523033D01*
X167422666Y-117523033D02*
X167489333Y-117556366D01*
X167489333Y-117556366D02*
X167522666Y-117589700D01*
X167522666Y-117589700D02*
X167556000Y-117656366D01*
X167556000Y-117656366D02*
X167589333Y-117789700D01*
X167589333Y-117789700D02*
X167589333Y-117956366D01*
X167589333Y-117956366D02*
X167556000Y-118089700D01*
X167556000Y-118089700D02*
X167522666Y-118156366D01*
X167522666Y-118156366D02*
X167489333Y-118189700D01*
X167489333Y-118189700D02*
X167422666Y-118223033D01*
X167422666Y-118223033D02*
X167356000Y-118223033D01*
X167356000Y-118223033D02*
X167289333Y-118189700D01*
X167289333Y-118189700D02*
X167256000Y-118156366D01*
X167256000Y-118156366D02*
X167222666Y-118089700D01*
X167222666Y-118089700D02*
X167189333Y-117956366D01*
X167189333Y-117956366D02*
X167189333Y-117789700D01*
X167189333Y-117789700D02*
X167222666Y-117656366D01*
X167222666Y-117656366D02*
X167256000Y-117589700D01*
X167256000Y-117589700D02*
X167289333Y-117556366D01*
X167289333Y-117556366D02*
X167356000Y-117523033D01*
X167889333Y-118223033D02*
X167889333Y-117523033D01*
X167889333Y-117523033D02*
X168122667Y-118023033D01*
X168122667Y-118023033D02*
X168356000Y-117523033D01*
X168356000Y-117523033D02*
X168356000Y-118223033D01*
X168689333Y-118223033D02*
X168689333Y-117523033D01*
X168689333Y-117856366D02*
X169089333Y-117856366D01*
X169089333Y-118223033D02*
X169089333Y-117523033D01*
X169356000Y-117756366D02*
X169722666Y-117756366D01*
X169722666Y-117756366D02*
X169356000Y-118223033D01*
X169356000Y-118223033D02*
X169722666Y-118223033D01*
X166003366Y-100003666D02*
X166036700Y-100036999D01*
X166036700Y-100036999D02*
X166070033Y-100136999D01*
X166070033Y-100136999D02*
X166070033Y-100203666D01*
X166070033Y-100203666D02*
X166036700Y-100303666D01*
X166036700Y-100303666D02*
X165970033Y-100370333D01*
X165970033Y-100370333D02*
X165903366Y-100403666D01*
X165903366Y-100403666D02*
X165770033Y-100436999D01*
X165770033Y-100436999D02*
X165670033Y-100436999D01*
X165670033Y-100436999D02*
X165536700Y-100403666D01*
X165536700Y-100403666D02*
X165470033Y-100370333D01*
X165470033Y-100370333D02*
X165403366Y-100303666D01*
X165403366Y-100303666D02*
X165370033Y-100203666D01*
X165370033Y-100203666D02*
X165370033Y-100136999D01*
X165370033Y-100136999D02*
X165403366Y-100036999D01*
X165403366Y-100036999D02*
X165436700Y-100003666D01*
X165370033Y-99770333D02*
X165370033Y-99336999D01*
X165370033Y-99336999D02*
X165636700Y-99570333D01*
X165636700Y-99570333D02*
X165636700Y-99470333D01*
X165636700Y-99470333D02*
X165670033Y-99403666D01*
X165670033Y-99403666D02*
X165703366Y-99370333D01*
X165703366Y-99370333D02*
X165770033Y-99336999D01*
X165770033Y-99336999D02*
X165936700Y-99336999D01*
X165936700Y-99336999D02*
X166003366Y-99370333D01*
X166003366Y-99370333D02*
X166036700Y-99403666D01*
X166036700Y-99403666D02*
X166070033Y-99470333D01*
X166070033Y-99470333D02*
X166070033Y-99670333D01*
X166070033Y-99670333D02*
X166036700Y-99736999D01*
X166036700Y-99736999D02*
X166003366Y-99770333D01*
X167489333Y-96567033D02*
X167922666Y-96567033D01*
X167922666Y-96567033D02*
X167689333Y-96833700D01*
X167689333Y-96833700D02*
X167789333Y-96833700D01*
X167789333Y-96833700D02*
X167855999Y-96867033D01*
X167855999Y-96867033D02*
X167889333Y-96900366D01*
X167889333Y-96900366D02*
X167922666Y-96967033D01*
X167922666Y-96967033D02*
X167922666Y-97133700D01*
X167922666Y-97133700D02*
X167889333Y-97200366D01*
X167889333Y-97200366D02*
X167855999Y-97233700D01*
X167855999Y-97233700D02*
X167789333Y-97267033D01*
X167789333Y-97267033D02*
X167589333Y-97267033D01*
X167589333Y-97267033D02*
X167522666Y-97233700D01*
X167522666Y-97233700D02*
X167489333Y-97200366D01*
X168156000Y-96567033D02*
X168589333Y-96567033D01*
X168589333Y-96567033D02*
X168356000Y-96833700D01*
X168356000Y-96833700D02*
X168456000Y-96833700D01*
X168456000Y-96833700D02*
X168522666Y-96867033D01*
X168522666Y-96867033D02*
X168556000Y-96900366D01*
X168556000Y-96900366D02*
X168589333Y-96967033D01*
X168589333Y-96967033D02*
X168589333Y-97133700D01*
X168589333Y-97133700D02*
X168556000Y-97200366D01*
X168556000Y-97200366D02*
X168522666Y-97233700D01*
X168522666Y-97233700D02*
X168456000Y-97267033D01*
X168456000Y-97267033D02*
X168256000Y-97267033D01*
X168256000Y-97267033D02*
X168189333Y-97233700D01*
X168189333Y-97233700D02*
X168156000Y-97200366D01*
X169022667Y-96567033D02*
X169089333Y-96567033D01*
X169089333Y-96567033D02*
X169156000Y-96600366D01*
X169156000Y-96600366D02*
X169189333Y-96633700D01*
X169189333Y-96633700D02*
X169222667Y-96700366D01*
X169222667Y-96700366D02*
X169256000Y-96833700D01*
X169256000Y-96833700D02*
X169256000Y-97000366D01*
X169256000Y-97000366D02*
X169222667Y-97133700D01*
X169222667Y-97133700D02*
X169189333Y-97200366D01*
X169189333Y-97200366D02*
X169156000Y-97233700D01*
X169156000Y-97233700D02*
X169089333Y-97267033D01*
X169089333Y-97267033D02*
X169022667Y-97267033D01*
X169022667Y-97267033D02*
X168956000Y-97233700D01*
X168956000Y-97233700D02*
X168922667Y-97200366D01*
X168922667Y-97200366D02*
X168889333Y-97133700D01*
X168889333Y-97133700D02*
X168856000Y-97000366D01*
X168856000Y-97000366D02*
X168856000Y-96833700D01*
X168856000Y-96833700D02*
X168889333Y-96700366D01*
X168889333Y-96700366D02*
X168922667Y-96633700D01*
X168922667Y-96633700D02*
X168956000Y-96600366D01*
X168956000Y-96600366D02*
X169022667Y-96567033D01*
X169556000Y-96800366D02*
X169556000Y-97500366D01*
X169556000Y-96833700D02*
X169622667Y-96800366D01*
X169622667Y-96800366D02*
X169756000Y-96800366D01*
X169756000Y-96800366D02*
X169822667Y-96833700D01*
X169822667Y-96833700D02*
X169856000Y-96867033D01*
X169856000Y-96867033D02*
X169889334Y-96933700D01*
X169889334Y-96933700D02*
X169889334Y-97133700D01*
X169889334Y-97133700D02*
X169856000Y-97200366D01*
X169856000Y-97200366D02*
X169822667Y-97233700D01*
X169822667Y-97233700D02*
X169756000Y-97267033D01*
X169756000Y-97267033D02*
X169622667Y-97267033D01*
X169622667Y-97267033D02*
X169556000Y-97233700D01*
X145339333Y-108884366D02*
X145306000Y-108917700D01*
X145306000Y-108917700D02*
X145206000Y-108951033D01*
X145206000Y-108951033D02*
X145139333Y-108951033D01*
X145139333Y-108951033D02*
X145039333Y-108917700D01*
X145039333Y-108917700D02*
X144972667Y-108851033D01*
X144972667Y-108851033D02*
X144939333Y-108784366D01*
X144939333Y-108784366D02*
X144906000Y-108651033D01*
X144906000Y-108651033D02*
X144906000Y-108551033D01*
X144906000Y-108551033D02*
X144939333Y-108417700D01*
X144939333Y-108417700D02*
X144972667Y-108351033D01*
X144972667Y-108351033D02*
X145039333Y-108284366D01*
X145039333Y-108284366D02*
X145139333Y-108251033D01*
X145139333Y-108251033D02*
X145206000Y-108251033D01*
X145206000Y-108251033D02*
X145306000Y-108284366D01*
X145306000Y-108284366D02*
X145339333Y-108317700D01*
X145606000Y-108317700D02*
X145639333Y-108284366D01*
X145639333Y-108284366D02*
X145706000Y-108251033D01*
X145706000Y-108251033D02*
X145872667Y-108251033D01*
X145872667Y-108251033D02*
X145939333Y-108284366D01*
X145939333Y-108284366D02*
X145972667Y-108317700D01*
X145972667Y-108317700D02*
X146006000Y-108384366D01*
X146006000Y-108384366D02*
X146006000Y-108451033D01*
X146006000Y-108451033D02*
X145972667Y-108551033D01*
X145972667Y-108551033D02*
X145572667Y-108951033D01*
X145572667Y-108951033D02*
X146006000Y-108951033D01*
X143517333Y-118857033D02*
X143117333Y-118857033D01*
X143317333Y-118857033D02*
X143317333Y-118157033D01*
X143317333Y-118157033D02*
X143250666Y-118257033D01*
X143250666Y-118257033D02*
X143184000Y-118323700D01*
X143184000Y-118323700D02*
X143117333Y-118357033D01*
X143950667Y-118157033D02*
X144017333Y-118157033D01*
X144017333Y-118157033D02*
X144084000Y-118190366D01*
X144084000Y-118190366D02*
X144117333Y-118223700D01*
X144117333Y-118223700D02*
X144150667Y-118290366D01*
X144150667Y-118290366D02*
X144184000Y-118423700D01*
X144184000Y-118423700D02*
X144184000Y-118590366D01*
X144184000Y-118590366D02*
X144150667Y-118723700D01*
X144150667Y-118723700D02*
X144117333Y-118790366D01*
X144117333Y-118790366D02*
X144084000Y-118823700D01*
X144084000Y-118823700D02*
X144017333Y-118857033D01*
X144017333Y-118857033D02*
X143950667Y-118857033D01*
X143950667Y-118857033D02*
X143884000Y-118823700D01*
X143884000Y-118823700D02*
X143850667Y-118790366D01*
X143850667Y-118790366D02*
X143817333Y-118723700D01*
X143817333Y-118723700D02*
X143784000Y-118590366D01*
X143784000Y-118590366D02*
X143784000Y-118423700D01*
X143784000Y-118423700D02*
X143817333Y-118290366D01*
X143817333Y-118290366D02*
X143850667Y-118223700D01*
X143850667Y-118223700D02*
X143884000Y-118190366D01*
X143884000Y-118190366D02*
X143950667Y-118157033D01*
X144617334Y-118157033D02*
X144684000Y-118157033D01*
X144684000Y-118157033D02*
X144750667Y-118190366D01*
X144750667Y-118190366D02*
X144784000Y-118223700D01*
X144784000Y-118223700D02*
X144817334Y-118290366D01*
X144817334Y-118290366D02*
X144850667Y-118423700D01*
X144850667Y-118423700D02*
X144850667Y-118590366D01*
X144850667Y-118590366D02*
X144817334Y-118723700D01*
X144817334Y-118723700D02*
X144784000Y-118790366D01*
X144784000Y-118790366D02*
X144750667Y-118823700D01*
X144750667Y-118823700D02*
X144684000Y-118857033D01*
X144684000Y-118857033D02*
X144617334Y-118857033D01*
X144617334Y-118857033D02*
X144550667Y-118823700D01*
X144550667Y-118823700D02*
X144517334Y-118790366D01*
X144517334Y-118790366D02*
X144484000Y-118723700D01*
X144484000Y-118723700D02*
X144450667Y-118590366D01*
X144450667Y-118590366D02*
X144450667Y-118423700D01*
X144450667Y-118423700D02*
X144484000Y-118290366D01*
X144484000Y-118290366D02*
X144517334Y-118223700D01*
X144517334Y-118223700D02*
X144550667Y-118190366D01*
X144550667Y-118190366D02*
X144617334Y-118157033D01*
X145450667Y-118390366D02*
X145450667Y-118857033D01*
X145150667Y-118390366D02*
X145150667Y-118757033D01*
X145150667Y-118757033D02*
X145184001Y-118823700D01*
X145184001Y-118823700D02*
X145250667Y-118857033D01*
X145250667Y-118857033D02*
X145350667Y-118857033D01*
X145350667Y-118857033D02*
X145417334Y-118823700D01*
X145417334Y-118823700D02*
X145450667Y-118790366D01*
X145817334Y-118823700D02*
X145817334Y-118857033D01*
X145817334Y-118857033D02*
X145784000Y-118923700D01*
X145784000Y-118923700D02*
X145750667Y-118957033D01*
X146050667Y-118157033D02*
X146484000Y-118157033D01*
X146484000Y-118157033D02*
X146250667Y-118423700D01*
X146250667Y-118423700D02*
X146350667Y-118423700D01*
X146350667Y-118423700D02*
X146417333Y-118457033D01*
X146417333Y-118457033D02*
X146450667Y-118490366D01*
X146450667Y-118490366D02*
X146484000Y-118557033D01*
X146484000Y-118557033D02*
X146484000Y-118723700D01*
X146484000Y-118723700D02*
X146450667Y-118790366D01*
X146450667Y-118790366D02*
X146417333Y-118823700D01*
X146417333Y-118823700D02*
X146350667Y-118857033D01*
X146350667Y-118857033D02*
X146150667Y-118857033D01*
X146150667Y-118857033D02*
X146084000Y-118823700D01*
X146084000Y-118823700D02*
X146050667Y-118790366D01*
X147117334Y-118157033D02*
X146784000Y-118157033D01*
X146784000Y-118157033D02*
X146750667Y-118490366D01*
X146750667Y-118490366D02*
X146784000Y-118457033D01*
X146784000Y-118457033D02*
X146850667Y-118423700D01*
X146850667Y-118423700D02*
X147017334Y-118423700D01*
X147017334Y-118423700D02*
X147084000Y-118457033D01*
X147084000Y-118457033D02*
X147117334Y-118490366D01*
X147117334Y-118490366D02*
X147150667Y-118557033D01*
X147150667Y-118557033D02*
X147150667Y-118723700D01*
X147150667Y-118723700D02*
X147117334Y-118790366D01*
X147117334Y-118790366D02*
X147084000Y-118823700D01*
X147084000Y-118823700D02*
X147017334Y-118857033D01*
X147017334Y-118857033D02*
X146850667Y-118857033D01*
X146850667Y-118857033D02*
X146784000Y-118823700D01*
X146784000Y-118823700D02*
X146750667Y-118790366D01*
X147350667Y-118157033D02*
X147584001Y-118857033D01*
X147584001Y-118857033D02*
X147817334Y-118157033D01*
X173511333Y-95997033D02*
X173278000Y-95663700D01*
X173111333Y-95997033D02*
X173111333Y-95297033D01*
X173111333Y-95297033D02*
X173378000Y-95297033D01*
X173378000Y-95297033D02*
X173444667Y-95330366D01*
X173444667Y-95330366D02*
X173478000Y-95363700D01*
X173478000Y-95363700D02*
X173511333Y-95430366D01*
X173511333Y-95430366D02*
X173511333Y-95530366D01*
X173511333Y-95530366D02*
X173478000Y-95597033D01*
X173478000Y-95597033D02*
X173444667Y-95630366D01*
X173444667Y-95630366D02*
X173378000Y-95663700D01*
X173378000Y-95663700D02*
X173111333Y-95663700D01*
X174144667Y-95297033D02*
X173811333Y-95297033D01*
X173811333Y-95297033D02*
X173778000Y-95630366D01*
X173778000Y-95630366D02*
X173811333Y-95597033D01*
X173811333Y-95597033D02*
X173878000Y-95563700D01*
X173878000Y-95563700D02*
X174044667Y-95563700D01*
X174044667Y-95563700D02*
X174111333Y-95597033D01*
X174111333Y-95597033D02*
X174144667Y-95630366D01*
X174144667Y-95630366D02*
X174178000Y-95697033D01*
X174178000Y-95697033D02*
X174178000Y-95863700D01*
X174178000Y-95863700D02*
X174144667Y-95930366D01*
X174144667Y-95930366D02*
X174111333Y-95963700D01*
X174111333Y-95963700D02*
X174044667Y-95997033D01*
X174044667Y-95997033D02*
X173878000Y-95997033D01*
X173878000Y-95997033D02*
X173811333Y-95963700D01*
X173811333Y-95963700D02*
X173778000Y-95930366D01*
X175722033Y-100710333D02*
X175722033Y-101110333D01*
X175722033Y-100910333D02*
X175022033Y-100910333D01*
X175022033Y-100910333D02*
X175122033Y-100977000D01*
X175122033Y-100977000D02*
X175188700Y-101043667D01*
X175188700Y-101043667D02*
X175222033Y-101110333D01*
X175022033Y-100077000D02*
X175022033Y-100410333D01*
X175022033Y-100410333D02*
X175355366Y-100443666D01*
X175355366Y-100443666D02*
X175322033Y-100410333D01*
X175322033Y-100410333D02*
X175288700Y-100343666D01*
X175288700Y-100343666D02*
X175288700Y-100177000D01*
X175288700Y-100177000D02*
X175322033Y-100110333D01*
X175322033Y-100110333D02*
X175355366Y-100077000D01*
X175355366Y-100077000D02*
X175422033Y-100043666D01*
X175422033Y-100043666D02*
X175588700Y-100043666D01*
X175588700Y-100043666D02*
X175655366Y-100077000D01*
X175655366Y-100077000D02*
X175688700Y-100110333D01*
X175688700Y-100110333D02*
X175722033Y-100177000D01*
X175722033Y-100177000D02*
X175722033Y-100343666D01*
X175722033Y-100343666D02*
X175688700Y-100410333D01*
X175688700Y-100410333D02*
X175655366Y-100443666D01*
X175022033Y-99610333D02*
X175022033Y-99543666D01*
X175022033Y-99543666D02*
X175055366Y-99476999D01*
X175055366Y-99476999D02*
X175088700Y-99443666D01*
X175088700Y-99443666D02*
X175155366Y-99410333D01*
X175155366Y-99410333D02*
X175288700Y-99376999D01*
X175288700Y-99376999D02*
X175455366Y-99376999D01*
X175455366Y-99376999D02*
X175588700Y-99410333D01*
X175588700Y-99410333D02*
X175655366Y-99443666D01*
X175655366Y-99443666D02*
X175688700Y-99476999D01*
X175688700Y-99476999D02*
X175722033Y-99543666D01*
X175722033Y-99543666D02*
X175722033Y-99610333D01*
X175722033Y-99610333D02*
X175688700Y-99676999D01*
X175688700Y-99676999D02*
X175655366Y-99710333D01*
X175655366Y-99710333D02*
X175588700Y-99743666D01*
X175588700Y-99743666D02*
X175455366Y-99776999D01*
X175455366Y-99776999D02*
X175288700Y-99776999D01*
X175288700Y-99776999D02*
X175155366Y-99743666D01*
X175155366Y-99743666D02*
X175088700Y-99710333D01*
X175088700Y-99710333D02*
X175055366Y-99676999D01*
X175055366Y-99676999D02*
X175022033Y-99610333D01*
X175355366Y-99076999D02*
X175355366Y-98843666D01*
X175722033Y-98743666D02*
X175722033Y-99076999D01*
X175722033Y-99076999D02*
X175022033Y-99076999D01*
X175022033Y-99076999D02*
X175022033Y-98743666D01*
D14*
%TO.C,Q1*%
X167196000Y-108531801D02*
X170796000Y-108531801D01*
X167157522Y-108520279D02*
G75*
G02*
X168996000Y-104081800I1838478J1838478D01*
G01*
X168996000Y-104081801D02*
G75*
G02*
X170834478Y-108520279I0J-2600000D01*
G01*
%TO.C,J2*%
X181716000Y-118267000D02*
X181716000Y-116887000D01*
X183096000Y-118267000D02*
X181716000Y-118267000D01*
X184366000Y-115507000D02*
X187016000Y-115507000D01*
X184366000Y-118267000D02*
X184366000Y-115507000D01*
X184366000Y-118267000D02*
X187016000Y-118267000D01*
X187016000Y-118267000D02*
X187016000Y-115507000D01*
%TO.C,U1*%
X142246000Y-95557000D02*
X142246000Y-105837000D01*
X142246000Y-105837000D02*
X147546000Y-105837000D01*
X143896000Y-95557000D02*
X142246000Y-95557000D01*
X147546000Y-95557000D02*
X145896000Y-95557000D01*
X147546000Y-105837000D02*
X147546000Y-95557000D01*
X145896000Y-95557000D02*
G75*
G02*
X143896000Y-95557000I-1000000J0D01*
G01*
%TO.C,D1*%
X161286000Y-105167000D02*
X161286000Y-108607000D01*
X161286000Y-108607000D02*
X161466000Y-108607000D01*
X161466000Y-105167000D02*
X161286000Y-105167000D01*
X163946000Y-105167000D02*
X164126000Y-105167000D01*
X164126000Y-105167000D02*
X164126000Y-108607000D01*
X164126000Y-105647000D02*
X161286000Y-105647000D01*
X164126000Y-105767000D02*
X161286000Y-105767000D01*
X164126000Y-105887000D02*
X161286000Y-105887000D01*
X164126000Y-108607000D02*
X163946000Y-108607000D01*
%TO.C,R2*%
X153826000Y-108467000D02*
X157666000Y-108467000D01*
X153826000Y-110307000D02*
X157666000Y-110307000D01*
%TO.C,R3*%
X153826000Y-112467000D02*
X157666000Y-112467000D01*
X153826000Y-114307000D02*
X157666000Y-114307000D01*
%TO.C,C6*%
X175692199Y-111758000D02*
X176092199Y-111758000D01*
X175892199Y-111558000D02*
X175892199Y-111958000D01*
X177962000Y-110873000D02*
X177962000Y-115033000D01*
X178002000Y-110873000D02*
X178002000Y-115033000D01*
X178042000Y-110875000D02*
X178042000Y-115031000D01*
X178082000Y-110876000D02*
X178082000Y-115030000D01*
X178122000Y-110879000D02*
X178122000Y-115027000D01*
X178162000Y-110882000D02*
X178162000Y-112113000D01*
X178162000Y-113793000D02*
X178162000Y-115024000D01*
X178202000Y-110887000D02*
X178202000Y-112113000D01*
X178202000Y-113793000D02*
X178202000Y-115019000D01*
X178242000Y-110892000D02*
X178242000Y-112113000D01*
X178242000Y-113793000D02*
X178242000Y-115014000D01*
X178282000Y-110897000D02*
X178282000Y-112113000D01*
X178282000Y-113793000D02*
X178282000Y-115009000D01*
X178322000Y-110904000D02*
X178322000Y-112113000D01*
X178322000Y-113793000D02*
X178322000Y-115002000D01*
X178362000Y-110911000D02*
X178362000Y-112113000D01*
X178362000Y-113793000D02*
X178362000Y-114995000D01*
X178402000Y-110919000D02*
X178402000Y-112113000D01*
X178402000Y-113793000D02*
X178402000Y-114987000D01*
X178442000Y-110928000D02*
X178442000Y-112113000D01*
X178442000Y-113793000D02*
X178442000Y-114978000D01*
X178482000Y-110938000D02*
X178482000Y-112113000D01*
X178482000Y-113793000D02*
X178482000Y-114968000D01*
X178522000Y-110948000D02*
X178522000Y-112113000D01*
X178522000Y-113793000D02*
X178522000Y-114958000D01*
X178562000Y-110960000D02*
X178562000Y-112113000D01*
X178562000Y-113793000D02*
X178562000Y-114946000D01*
X178602000Y-110972000D02*
X178602000Y-112113000D01*
X178602000Y-113793000D02*
X178602000Y-114934000D01*
X178642000Y-110985000D02*
X178642000Y-112113000D01*
X178642000Y-113793000D02*
X178642000Y-114921000D01*
X178682000Y-110999000D02*
X178682000Y-112113000D01*
X178682000Y-113793000D02*
X178682000Y-114907000D01*
X178722000Y-111014000D02*
X178722000Y-112113000D01*
X178722000Y-113793000D02*
X178722000Y-114892000D01*
X178762000Y-111030000D02*
X178762000Y-112113000D01*
X178762000Y-113793000D02*
X178762000Y-114876000D01*
X178802000Y-111047000D02*
X178802000Y-112113000D01*
X178802000Y-113793000D02*
X178802000Y-114859000D01*
X178842000Y-111064000D02*
X178842000Y-112113000D01*
X178842000Y-113793000D02*
X178842000Y-114842000D01*
X178882000Y-111083000D02*
X178882000Y-112113000D01*
X178882000Y-113793000D02*
X178882000Y-114823000D01*
X178922000Y-111103000D02*
X178922000Y-112113000D01*
X178922000Y-113793000D02*
X178922000Y-114803000D01*
X178962000Y-111124000D02*
X178962000Y-112113000D01*
X178962000Y-113793000D02*
X178962000Y-114782000D01*
X179002000Y-111146000D02*
X179002000Y-112113000D01*
X179002000Y-113793000D02*
X179002000Y-114760000D01*
X179042000Y-111169000D02*
X179042000Y-112113000D01*
X179042000Y-113793000D02*
X179042000Y-114737000D01*
X179082000Y-111193000D02*
X179082000Y-112113000D01*
X179082000Y-113793000D02*
X179082000Y-114713000D01*
X179122000Y-111219000D02*
X179122000Y-112113000D01*
X179122000Y-113793000D02*
X179122000Y-114687000D01*
X179162000Y-111245000D02*
X179162000Y-112113000D01*
X179162000Y-113793000D02*
X179162000Y-114661000D01*
X179202000Y-111273000D02*
X179202000Y-112113000D01*
X179202000Y-113793000D02*
X179202000Y-114633000D01*
X179242000Y-111303000D02*
X179242000Y-112113000D01*
X179242000Y-113793000D02*
X179242000Y-114603000D01*
X179282000Y-111334000D02*
X179282000Y-112113000D01*
X179282000Y-113793000D02*
X179282000Y-114572000D01*
X179322000Y-111367000D02*
X179322000Y-112113000D01*
X179322000Y-113793000D02*
X179322000Y-114539000D01*
X179362000Y-111401000D02*
X179362000Y-112113000D01*
X179362000Y-113793000D02*
X179362000Y-114505000D01*
X179402000Y-111437000D02*
X179402000Y-112113000D01*
X179402000Y-113793000D02*
X179402000Y-114469000D01*
X179442000Y-111475000D02*
X179442000Y-112113000D01*
X179442000Y-113793000D02*
X179442000Y-114431000D01*
X179482000Y-111515000D02*
X179482000Y-112113000D01*
X179482000Y-113793000D02*
X179482000Y-114391000D01*
X179522000Y-111557000D02*
X179522000Y-112113000D01*
X179522000Y-113793000D02*
X179522000Y-114349000D01*
X179562000Y-111602000D02*
X179562000Y-112113000D01*
X179562000Y-113793000D02*
X179562000Y-114304000D01*
X179602000Y-111650000D02*
X179602000Y-112113000D01*
X179602000Y-113793000D02*
X179602000Y-114256000D01*
X179642000Y-111700000D02*
X179642000Y-112113000D01*
X179642000Y-113793000D02*
X179642000Y-114206000D01*
X179682000Y-111754000D02*
X179682000Y-112113000D01*
X179682000Y-113793000D02*
X179682000Y-114152000D01*
X179722000Y-111811000D02*
X179722000Y-112113000D01*
X179722000Y-113793000D02*
X179722000Y-114095000D01*
X179762000Y-111873000D02*
X179762000Y-112113000D01*
X179762000Y-113793000D02*
X179762000Y-114033000D01*
X179802000Y-111940000D02*
X179802000Y-113966000D01*
X179842000Y-112013000D02*
X179842000Y-113893000D01*
X179882000Y-112094000D02*
X179882000Y-113812000D01*
X179922000Y-112185000D02*
X179922000Y-113721000D01*
X179962000Y-112290000D02*
X179962000Y-113616000D01*
X180002000Y-112416000D02*
X180002000Y-113490000D01*
X180042000Y-112583000D02*
X180042000Y-113323000D01*
X180082000Y-112953000D02*
G75*
G02*
X175842000Y-112953000I-2120000J0D01*
G01*
X175842000Y-112953000D02*
G75*
G02*
X180082000Y-112953000I2120000J0D01*
G01*
%TO.C,C5*%
X176626000Y-106847000D02*
X180786000Y-106847000D01*
X176626000Y-106887000D02*
X180786000Y-106887000D01*
X176628000Y-106807000D02*
X180784000Y-106807000D01*
X176629000Y-106767000D02*
X180783000Y-106767000D01*
X176632000Y-106727000D02*
X180780000Y-106727000D01*
X176635000Y-106687000D02*
X177866000Y-106687000D01*
X176640000Y-106647000D02*
X177866000Y-106647000D01*
X176645000Y-106607000D02*
X177866000Y-106607000D01*
X176650000Y-106567000D02*
X177866000Y-106567000D01*
X176657000Y-106527000D02*
X177866000Y-106527000D01*
X176664000Y-106487000D02*
X177866000Y-106487000D01*
X176672000Y-106447000D02*
X177866000Y-106447000D01*
X176681000Y-106407000D02*
X177866000Y-106407000D01*
X176691000Y-106367000D02*
X177866000Y-106367000D01*
X176701000Y-106327000D02*
X177866000Y-106327000D01*
X176713000Y-106287000D02*
X177866000Y-106287000D01*
X176725000Y-106247000D02*
X177866000Y-106247000D01*
X176738000Y-106207000D02*
X177866000Y-106207000D01*
X176752000Y-106167000D02*
X177866000Y-106167000D01*
X176767000Y-106127000D02*
X177866000Y-106127000D01*
X176783000Y-106087000D02*
X177866000Y-106087000D01*
X176800000Y-106047000D02*
X177866000Y-106047000D01*
X176817000Y-106007000D02*
X177866000Y-106007000D01*
X176836000Y-105967000D02*
X177866000Y-105967000D01*
X176856000Y-105927000D02*
X177866000Y-105927000D01*
X176877000Y-105887000D02*
X177866000Y-105887000D01*
X176899000Y-105847000D02*
X177866000Y-105847000D01*
X176922000Y-105807000D02*
X177866000Y-105807000D01*
X176946000Y-105767000D02*
X177866000Y-105767000D01*
X176972000Y-105727000D02*
X177866000Y-105727000D01*
X176998000Y-105687000D02*
X177866000Y-105687000D01*
X177026000Y-105647000D02*
X177866000Y-105647000D01*
X177056000Y-105607000D02*
X177866000Y-105607000D01*
X177087000Y-105567000D02*
X177866000Y-105567000D01*
X177120000Y-105527000D02*
X177866000Y-105527000D01*
X177154000Y-105487000D02*
X177866000Y-105487000D01*
X177190000Y-105447000D02*
X177866000Y-105447000D01*
X177228000Y-105407000D02*
X177866000Y-105407000D01*
X177268000Y-105367000D02*
X177866000Y-105367000D01*
X177310000Y-105327000D02*
X177866000Y-105327000D01*
X177311000Y-108956801D02*
X177711000Y-108956801D01*
X177355000Y-105287000D02*
X177866000Y-105287000D01*
X177403000Y-105247000D02*
X177866000Y-105247000D01*
X177453000Y-105207000D02*
X177866000Y-105207000D01*
X177507000Y-105167000D02*
X177866000Y-105167000D01*
X177511000Y-109156801D02*
X177511000Y-108756801D01*
X177564000Y-105127000D02*
X177866000Y-105127000D01*
X177626000Y-105087000D02*
X177866000Y-105087000D01*
X177693000Y-105047000D02*
X179719000Y-105047000D01*
X177766000Y-105007000D02*
X179646000Y-105007000D01*
X177847000Y-104967000D02*
X179565000Y-104967000D01*
X177938000Y-104927000D02*
X179474000Y-104927000D01*
X178043000Y-104887000D02*
X179369000Y-104887000D01*
X178169000Y-104847000D02*
X179243000Y-104847000D01*
X178336000Y-104807000D02*
X179076000Y-104807000D01*
X179546000Y-105087000D02*
X179786000Y-105087000D01*
X179546000Y-105127000D02*
X179848000Y-105127000D01*
X179546000Y-105167000D02*
X179905000Y-105167000D01*
X179546000Y-105207000D02*
X179959000Y-105207000D01*
X179546000Y-105247000D02*
X180009000Y-105247000D01*
X179546000Y-105287000D02*
X180057000Y-105287000D01*
X179546000Y-105327000D02*
X180102000Y-105327000D01*
X179546000Y-105367000D02*
X180144000Y-105367000D01*
X179546000Y-105407000D02*
X180184000Y-105407000D01*
X179546000Y-105447000D02*
X180222000Y-105447000D01*
X179546000Y-105487000D02*
X180258000Y-105487000D01*
X179546000Y-105527000D02*
X180292000Y-105527000D01*
X179546000Y-105567000D02*
X180325000Y-105567000D01*
X179546000Y-105607000D02*
X180356000Y-105607000D01*
X179546000Y-105647000D02*
X180386000Y-105647000D01*
X179546000Y-105687000D02*
X180414000Y-105687000D01*
X179546000Y-105727000D02*
X180440000Y-105727000D01*
X179546000Y-105767000D02*
X180466000Y-105767000D01*
X179546000Y-105807000D02*
X180490000Y-105807000D01*
X179546000Y-105847000D02*
X180513000Y-105847000D01*
X179546000Y-105887000D02*
X180535000Y-105887000D01*
X179546000Y-105927000D02*
X180556000Y-105927000D01*
X179546000Y-105967000D02*
X180576000Y-105967000D01*
X179546000Y-106007000D02*
X180595000Y-106007000D01*
X179546000Y-106047000D02*
X180612000Y-106047000D01*
X179546000Y-106087000D02*
X180629000Y-106087000D01*
X179546000Y-106127000D02*
X180645000Y-106127000D01*
X179546000Y-106167000D02*
X180660000Y-106167000D01*
X179546000Y-106207000D02*
X180674000Y-106207000D01*
X179546000Y-106247000D02*
X180687000Y-106247000D01*
X179546000Y-106287000D02*
X180699000Y-106287000D01*
X179546000Y-106327000D02*
X180711000Y-106327000D01*
X179546000Y-106367000D02*
X180721000Y-106367000D01*
X179546000Y-106407000D02*
X180731000Y-106407000D01*
X179546000Y-106447000D02*
X180740000Y-106447000D01*
X179546000Y-106487000D02*
X180748000Y-106487000D01*
X179546000Y-106527000D02*
X180755000Y-106527000D01*
X179546000Y-106567000D02*
X180762000Y-106567000D01*
X179546000Y-106607000D02*
X180767000Y-106607000D01*
X179546000Y-106647000D02*
X180772000Y-106647000D01*
X179546000Y-106687000D02*
X180777000Y-106687000D01*
X180826000Y-106887000D02*
G75*
G02*
X176586000Y-106887000I-2120000J0D01*
G01*
X176586000Y-106887000D02*
G75*
G02*
X180826000Y-106887000I2120000J0D01*
G01*
%TO.C,R4*%
X157666000Y-116467000D02*
X153826000Y-116467000D01*
X157666000Y-118307000D02*
X153826000Y-118307000D01*
%TO.C,C1*%
X129393651Y-97302000D02*
X130193651Y-97302000D01*
X129793651Y-96902000D02*
X129793651Y-97702000D01*
X133803349Y-95537000D02*
X133803349Y-103697000D01*
X133843349Y-95537000D02*
X133843349Y-103697000D01*
X133883349Y-95538000D02*
X133883349Y-103696000D01*
X133923349Y-95539000D02*
X133923349Y-103695000D01*
X133963349Y-95540000D02*
X133963349Y-103694000D01*
X134003349Y-95542000D02*
X134003349Y-103692000D01*
X134043349Y-95544000D02*
X134043349Y-98577000D01*
X134043349Y-100657000D02*
X134043349Y-103690000D01*
X134083349Y-95547000D02*
X134083349Y-98577000D01*
X134083349Y-100657000D02*
X134083349Y-103687000D01*
X134123349Y-95549000D02*
X134123349Y-98577000D01*
X134123349Y-100657000D02*
X134123349Y-103685000D01*
X134163349Y-95553000D02*
X134163349Y-98577000D01*
X134163349Y-100657000D02*
X134163349Y-103681000D01*
X134203349Y-95556000D02*
X134203349Y-98577000D01*
X134203349Y-100657000D02*
X134203349Y-103678000D01*
X134243349Y-95561000D02*
X134243349Y-98577000D01*
X134243349Y-100657000D02*
X134243349Y-103673000D01*
X134283349Y-95565000D02*
X134283349Y-98577000D01*
X134283349Y-100657000D02*
X134283349Y-103669000D01*
X134323349Y-95570000D02*
X134323349Y-98577000D01*
X134323349Y-100657000D02*
X134323349Y-103664000D01*
X134363349Y-95575000D02*
X134363349Y-98577000D01*
X134363349Y-100657000D02*
X134363349Y-103659000D01*
X134403349Y-95581000D02*
X134403349Y-98577000D01*
X134403349Y-100657000D02*
X134403349Y-103653000D01*
X134443349Y-95587000D02*
X134443349Y-98577000D01*
X134443349Y-100657000D02*
X134443349Y-103647000D01*
X134483349Y-95594000D02*
X134483349Y-98577000D01*
X134483349Y-100657000D02*
X134483349Y-103640000D01*
X134523349Y-95600000D02*
X134523349Y-98577000D01*
X134523349Y-100657000D02*
X134523349Y-103634000D01*
X134563349Y-95608000D02*
X134563349Y-98577000D01*
X134563349Y-100657000D02*
X134563349Y-103626000D01*
X134603349Y-95615000D02*
X134603349Y-98577000D01*
X134603349Y-100657000D02*
X134603349Y-103619000D01*
X134643349Y-95624000D02*
X134643349Y-98577000D01*
X134643349Y-100657000D02*
X134643349Y-103610000D01*
X134683349Y-95632000D02*
X134683349Y-98577000D01*
X134683349Y-100657000D02*
X134683349Y-103602000D01*
X134723349Y-95641000D02*
X134723349Y-98577000D01*
X134723349Y-100657000D02*
X134723349Y-103593000D01*
X134763349Y-95650000D02*
X134763349Y-98577000D01*
X134763349Y-100657000D02*
X134763349Y-103584000D01*
X134803349Y-95660000D02*
X134803349Y-98577000D01*
X134803349Y-100657000D02*
X134803349Y-103574000D01*
X134843349Y-95670000D02*
X134843349Y-98577000D01*
X134843349Y-100657000D02*
X134843349Y-103564000D01*
X134883349Y-95681000D02*
X134883349Y-98577000D01*
X134883349Y-100657000D02*
X134883349Y-103553000D01*
X134923349Y-95692000D02*
X134923349Y-98577000D01*
X134923349Y-100657000D02*
X134923349Y-103542000D01*
X134963349Y-95704000D02*
X134963349Y-98577000D01*
X134963349Y-100657000D02*
X134963349Y-103530000D01*
X135003349Y-95716000D02*
X135003349Y-98577000D01*
X135003349Y-100657000D02*
X135003349Y-103518000D01*
X135043349Y-95728000D02*
X135043349Y-98577000D01*
X135043349Y-100657000D02*
X135043349Y-103506000D01*
X135083349Y-95741000D02*
X135083349Y-98577000D01*
X135083349Y-100657000D02*
X135083349Y-103493000D01*
X135123349Y-95754000D02*
X135123349Y-98577000D01*
X135123349Y-100657000D02*
X135123349Y-103480000D01*
X135163349Y-95768000D02*
X135163349Y-98577000D01*
X135163349Y-100657000D02*
X135163349Y-103466000D01*
X135203349Y-95782000D02*
X135203349Y-98577000D01*
X135203349Y-100657000D02*
X135203349Y-103452000D01*
X135243349Y-95797000D02*
X135243349Y-98577000D01*
X135243349Y-100657000D02*
X135243349Y-103437000D01*
X135283349Y-95812000D02*
X135283349Y-98577000D01*
X135283349Y-100657000D02*
X135283349Y-103422000D01*
X135323349Y-95828000D02*
X135323349Y-98577000D01*
X135323349Y-100657000D02*
X135323349Y-103406000D01*
X135363349Y-95844000D02*
X135363349Y-98577000D01*
X135363349Y-100657000D02*
X135363349Y-103390000D01*
X135403349Y-95860000D02*
X135403349Y-98577000D01*
X135403349Y-100657000D02*
X135403349Y-103374000D01*
X135443349Y-95877000D02*
X135443349Y-98577000D01*
X135443349Y-100657000D02*
X135443349Y-103357000D01*
X135483349Y-95895000D02*
X135483349Y-98577000D01*
X135483349Y-100657000D02*
X135483349Y-103339000D01*
X135523349Y-95913000D02*
X135523349Y-98577000D01*
X135523349Y-100657000D02*
X135523349Y-103321000D01*
X135563349Y-95932000D02*
X135563349Y-98577000D01*
X135563349Y-100657000D02*
X135563349Y-103302000D01*
X135603349Y-95951000D02*
X135603349Y-98577000D01*
X135603349Y-100657000D02*
X135603349Y-103283000D01*
X135643349Y-95971000D02*
X135643349Y-98577000D01*
X135643349Y-100657000D02*
X135643349Y-103263000D01*
X135683349Y-95991000D02*
X135683349Y-98577000D01*
X135683349Y-100657000D02*
X135683349Y-103243000D01*
X135723349Y-96012000D02*
X135723349Y-98577000D01*
X135723349Y-100657000D02*
X135723349Y-103222000D01*
X135763349Y-96033000D02*
X135763349Y-98577000D01*
X135763349Y-100657000D02*
X135763349Y-103201000D01*
X135803349Y-96055000D02*
X135803349Y-98577000D01*
X135803349Y-100657000D02*
X135803349Y-103179000D01*
X135843349Y-96078000D02*
X135843349Y-98577000D01*
X135843349Y-100657000D02*
X135843349Y-103156000D01*
X135883349Y-96101000D02*
X135883349Y-98577000D01*
X135883349Y-100657000D02*
X135883349Y-103133000D01*
X135923349Y-96124000D02*
X135923349Y-98577000D01*
X135923349Y-100657000D02*
X135923349Y-103110000D01*
X135963349Y-96149000D02*
X135963349Y-98577000D01*
X135963349Y-100657000D02*
X135963349Y-103085000D01*
X136003349Y-96174000D02*
X136003349Y-98577000D01*
X136003349Y-100657000D02*
X136003349Y-103060000D01*
X136043349Y-96199000D02*
X136043349Y-98577000D01*
X136043349Y-100657000D02*
X136043349Y-103035000D01*
X136083349Y-96225000D02*
X136083349Y-98577000D01*
X136083349Y-100657000D02*
X136083349Y-103009000D01*
X136123349Y-96252000D02*
X136123349Y-102982000D01*
X136163349Y-96280000D02*
X136163349Y-102954000D01*
X136203349Y-96308000D02*
X136203349Y-102926000D01*
X136243349Y-96337000D02*
X136243349Y-102897000D01*
X136283349Y-96367000D02*
X136283349Y-102867000D01*
X136323349Y-96398000D02*
X136323349Y-102836000D01*
X136363349Y-96429000D02*
X136363349Y-102805000D01*
X136403349Y-96461000D02*
X136403349Y-102773000D01*
X136443349Y-96494000D02*
X136443349Y-102740000D01*
X136483349Y-96528000D02*
X136483349Y-102706000D01*
X136523349Y-96562000D02*
X136523349Y-102672000D01*
X136563349Y-96598000D02*
X136563349Y-102636000D01*
X136603349Y-96635000D02*
X136603349Y-102599000D01*
X136643349Y-96672000D02*
X136643349Y-102562000D01*
X136683349Y-96711000D02*
X136683349Y-102523000D01*
X136723349Y-96750000D02*
X136723349Y-102484000D01*
X136763349Y-96791000D02*
X136763349Y-102443000D01*
X136803349Y-96833000D02*
X136803349Y-102401000D01*
X136843349Y-96876000D02*
X136843349Y-102358000D01*
X136883349Y-96921000D02*
X136883349Y-102313000D01*
X136923349Y-96966000D02*
X136923349Y-102268000D01*
X136963349Y-97013000D02*
X136963349Y-102221000D01*
X137003349Y-97062000D02*
X137003349Y-102172000D01*
X137043349Y-97112000D02*
X137043349Y-102122000D01*
X137083349Y-97164000D02*
X137083349Y-102070000D01*
X137123349Y-97217000D02*
X137123349Y-102017000D01*
X137163349Y-97273000D02*
X137163349Y-101961000D01*
X137203349Y-97330000D02*
X137203349Y-101904000D01*
X137243349Y-97390000D02*
X137243349Y-101844000D01*
X137283349Y-97452000D02*
X137283349Y-101782000D01*
X137323349Y-97516000D02*
X137323349Y-101718000D01*
X137363349Y-97583000D02*
X137363349Y-101651000D01*
X137403349Y-97653000D02*
X137403349Y-101581000D01*
X137443349Y-97727000D02*
X137443349Y-101507000D01*
X137483349Y-97804000D02*
X137483349Y-101430000D01*
X137523349Y-97886000D02*
X137523349Y-101348000D01*
X137563349Y-97973000D02*
X137563349Y-101261000D01*
X137603349Y-98065000D02*
X137603349Y-101169000D01*
X137643349Y-98164000D02*
X137643349Y-101070000D01*
X137683349Y-98271000D02*
X137683349Y-100963000D01*
X137723349Y-98389000D02*
X137723349Y-100845000D01*
X137763349Y-98520000D02*
X137763349Y-100714000D01*
X137803349Y-98670000D02*
X137803349Y-100564000D01*
X137843349Y-98849000D02*
X137843349Y-100385000D01*
X137883349Y-99084000D02*
X137883349Y-100150000D01*
X137923349Y-99617000D02*
G75*
G02*
X129683349Y-99617000I-4120000J0D01*
G01*
X129683349Y-99617000D02*
G75*
G02*
X137923349Y-99617000I4120000J0D01*
G01*
%TO.C,C4*%
X182896199Y-108192000D02*
X183296199Y-108192000D01*
X183096199Y-107992000D02*
X183096199Y-108392000D01*
X185166000Y-107307000D02*
X185166000Y-111467000D01*
X185206000Y-107307000D02*
X185206000Y-111467000D01*
X185246000Y-107309000D02*
X185246000Y-111465000D01*
X185286000Y-107310000D02*
X185286000Y-111464000D01*
X185326000Y-107313000D02*
X185326000Y-111461000D01*
X185366000Y-107316000D02*
X185366000Y-108547000D01*
X185366000Y-110227000D02*
X185366000Y-111458000D01*
X185406000Y-107321000D02*
X185406000Y-108547000D01*
X185406000Y-110227000D02*
X185406000Y-111453000D01*
X185446000Y-107326000D02*
X185446000Y-108547000D01*
X185446000Y-110227000D02*
X185446000Y-111448000D01*
X185486000Y-107331000D02*
X185486000Y-108547000D01*
X185486000Y-110227000D02*
X185486000Y-111443000D01*
X185526000Y-107338000D02*
X185526000Y-108547000D01*
X185526000Y-110227000D02*
X185526000Y-111436000D01*
X185566000Y-107345000D02*
X185566000Y-108547000D01*
X185566000Y-110227000D02*
X185566000Y-111429000D01*
X185606000Y-107353000D02*
X185606000Y-108547000D01*
X185606000Y-110227000D02*
X185606000Y-111421000D01*
X185646000Y-107362000D02*
X185646000Y-108547000D01*
X185646000Y-110227000D02*
X185646000Y-111412000D01*
X185686000Y-107372000D02*
X185686000Y-108547000D01*
X185686000Y-110227000D02*
X185686000Y-111402000D01*
X185726000Y-107382000D02*
X185726000Y-108547000D01*
X185726000Y-110227000D02*
X185726000Y-111392000D01*
X185766000Y-107394000D02*
X185766000Y-108547000D01*
X185766000Y-110227000D02*
X185766000Y-111380000D01*
X185806000Y-107406000D02*
X185806000Y-108547000D01*
X185806000Y-110227000D02*
X185806000Y-111368000D01*
X185846000Y-107419000D02*
X185846000Y-108547000D01*
X185846000Y-110227000D02*
X185846000Y-111355000D01*
X185886000Y-107433000D02*
X185886000Y-108547000D01*
X185886000Y-110227000D02*
X185886000Y-111341000D01*
X185926000Y-107448000D02*
X185926000Y-108547000D01*
X185926000Y-110227000D02*
X185926000Y-111326000D01*
X185966000Y-107464000D02*
X185966000Y-108547000D01*
X185966000Y-110227000D02*
X185966000Y-111310000D01*
X186006000Y-107481000D02*
X186006000Y-108547000D01*
X186006000Y-110227000D02*
X186006000Y-111293000D01*
X186046000Y-107498000D02*
X186046000Y-108547000D01*
X186046000Y-110227000D02*
X186046000Y-111276000D01*
X186086000Y-107517000D02*
X186086000Y-108547000D01*
X186086000Y-110227000D02*
X186086000Y-111257000D01*
X186126000Y-107537000D02*
X186126000Y-108547000D01*
X186126000Y-110227000D02*
X186126000Y-111237000D01*
X186166000Y-107558000D02*
X186166000Y-108547000D01*
X186166000Y-110227000D02*
X186166000Y-111216000D01*
X186206000Y-107580000D02*
X186206000Y-108547000D01*
X186206000Y-110227000D02*
X186206000Y-111194000D01*
X186246000Y-107603000D02*
X186246000Y-108547000D01*
X186246000Y-110227000D02*
X186246000Y-111171000D01*
X186286000Y-107627000D02*
X186286000Y-108547000D01*
X186286000Y-110227000D02*
X186286000Y-111147000D01*
X186326000Y-107653000D02*
X186326000Y-108547000D01*
X186326000Y-110227000D02*
X186326000Y-111121000D01*
X186366000Y-107679000D02*
X186366000Y-108547000D01*
X186366000Y-110227000D02*
X186366000Y-111095000D01*
X186406000Y-107707000D02*
X186406000Y-108547000D01*
X186406000Y-110227000D02*
X186406000Y-111067000D01*
X186446000Y-107737000D02*
X186446000Y-108547000D01*
X186446000Y-110227000D02*
X186446000Y-111037000D01*
X186486000Y-107768000D02*
X186486000Y-108547000D01*
X186486000Y-110227000D02*
X186486000Y-111006000D01*
X186526000Y-107801000D02*
X186526000Y-108547000D01*
X186526000Y-110227000D02*
X186526000Y-110973000D01*
X186566000Y-107835000D02*
X186566000Y-108547000D01*
X186566000Y-110227000D02*
X186566000Y-110939000D01*
X186606000Y-107871000D02*
X186606000Y-108547000D01*
X186606000Y-110227000D02*
X186606000Y-110903000D01*
X186646000Y-107909000D02*
X186646000Y-108547000D01*
X186646000Y-110227000D02*
X186646000Y-110865000D01*
X186686000Y-107949000D02*
X186686000Y-108547000D01*
X186686000Y-110227000D02*
X186686000Y-110825000D01*
X186726000Y-107991000D02*
X186726000Y-108547000D01*
X186726000Y-110227000D02*
X186726000Y-110783000D01*
X186766000Y-108036000D02*
X186766000Y-108547000D01*
X186766000Y-110227000D02*
X186766000Y-110738000D01*
X186806000Y-108084000D02*
X186806000Y-108547000D01*
X186806000Y-110227000D02*
X186806000Y-110690000D01*
X186846000Y-108134000D02*
X186846000Y-108547000D01*
X186846000Y-110227000D02*
X186846000Y-110640000D01*
X186886000Y-108188000D02*
X186886000Y-108547000D01*
X186886000Y-110227000D02*
X186886000Y-110586000D01*
X186926000Y-108245000D02*
X186926000Y-108547000D01*
X186926000Y-110227000D02*
X186926000Y-110529000D01*
X186966000Y-108307000D02*
X186966000Y-108547000D01*
X186966000Y-110227000D02*
X186966000Y-110467000D01*
X187006000Y-108374000D02*
X187006000Y-110400000D01*
X187046000Y-108447000D02*
X187046000Y-110327000D01*
X187086000Y-108528000D02*
X187086000Y-110246000D01*
X187126000Y-108619000D02*
X187126000Y-110155000D01*
X187166000Y-108724000D02*
X187166000Y-110050000D01*
X187206000Y-108850000D02*
X187206000Y-109924000D01*
X187246000Y-109017000D02*
X187246000Y-109757000D01*
X187286000Y-109387000D02*
G75*
G02*
X183046000Y-109387000I-2120000J0D01*
G01*
X183046000Y-109387000D02*
G75*
G02*
X187286000Y-109387000I2120000J0D01*
G01*
%TO.C,AE1*%
X179566000Y-97127000D02*
X179566000Y-100727000D01*
X181446000Y-95247000D02*
X185046000Y-95247000D01*
X181446000Y-102607000D02*
X185046000Y-102607000D01*
X186926000Y-97127000D02*
X186926000Y-100727000D01*
%TO.C,L1*%
X173706000Y-106121801D02*
X173706000Y-105901801D01*
X174926000Y-107341801D02*
G75*
G02*
X172486000Y-107341801I-1220000J0D01*
G01*
X172486000Y-107341801D02*
G75*
G02*
X174926000Y-107341801I1220000J0D01*
G01*
%TO.C,RV1*%
X150831000Y-95507000D02*
X160581000Y-95507000D01*
X150831000Y-100557000D02*
X150831000Y-95507000D01*
X160581000Y-95507000D02*
X160581000Y-100557000D01*
X160581000Y-100557000D02*
X150831000Y-100557000D01*
%TO.C,J1*%
X121486000Y-109367000D02*
X125486000Y-109367000D01*
X121486000Y-115607000D02*
X121486000Y-109367000D01*
X125486000Y-109067000D02*
X139726000Y-109067000D01*
X125486000Y-109367000D02*
X125486000Y-109067000D01*
X125486000Y-115607000D02*
X121486000Y-115607000D01*
X125486000Y-117507000D02*
X125486000Y-115607000D01*
X139726000Y-109067000D02*
X139726000Y-117507000D01*
X139726000Y-117507000D02*
X125486000Y-117507000D01*
%TO.C,R1*%
X153786000Y-103967000D02*
X157626000Y-103967000D01*
X153786000Y-105807000D02*
X157626000Y-105807000D01*
%TO.C,Y1*%
X164981000Y-111952000D02*
X171231000Y-111952000D01*
X171231000Y-116822000D02*
X164981000Y-116822000D01*
X164981000Y-116822000D02*
G75*
G02*
X164981000Y-111952000I0J2435000D01*
G01*
X171231000Y-111952000D02*
G75*
G02*
X171231000Y-116822000I0J-2435000D01*
G01*
%TO.C,C3*%
X166626000Y-99847000D02*
X170786000Y-99847000D01*
X166626000Y-99887000D02*
X170786000Y-99887000D01*
X166628000Y-99807000D02*
X170784000Y-99807000D01*
X166629000Y-99767000D02*
X170783000Y-99767000D01*
X166632000Y-99727000D02*
X170780000Y-99727000D01*
X166635000Y-99687000D02*
X167866000Y-99687000D01*
X166640000Y-99647000D02*
X167866000Y-99647000D01*
X166645000Y-99607000D02*
X167866000Y-99607000D01*
X166650000Y-99567000D02*
X167866000Y-99567000D01*
X166657000Y-99527000D02*
X167866000Y-99527000D01*
X166664000Y-99487000D02*
X167866000Y-99487000D01*
X166672000Y-99447000D02*
X167866000Y-99447000D01*
X166681000Y-99407000D02*
X167866000Y-99407000D01*
X166691000Y-99367000D02*
X167866000Y-99367000D01*
X166701000Y-99327000D02*
X167866000Y-99327000D01*
X166713000Y-99287000D02*
X167866000Y-99287000D01*
X166725000Y-99247000D02*
X167866000Y-99247000D01*
X166738000Y-99207000D02*
X167866000Y-99207000D01*
X166752000Y-99167000D02*
X167866000Y-99167000D01*
X166767000Y-99127000D02*
X167866000Y-99127000D01*
X166783000Y-99087000D02*
X167866000Y-99087000D01*
X166800000Y-99047000D02*
X167866000Y-99047000D01*
X166817000Y-99007000D02*
X167866000Y-99007000D01*
X166836000Y-98967000D02*
X167866000Y-98967000D01*
X166856000Y-98927000D02*
X167866000Y-98927000D01*
X166877000Y-98887000D02*
X167866000Y-98887000D01*
X166899000Y-98847000D02*
X167866000Y-98847000D01*
X166922000Y-98807000D02*
X167866000Y-98807000D01*
X166946000Y-98767000D02*
X167866000Y-98767000D01*
X166972000Y-98727000D02*
X167866000Y-98727000D01*
X166998000Y-98687000D02*
X167866000Y-98687000D01*
X167026000Y-98647000D02*
X167866000Y-98647000D01*
X167056000Y-98607000D02*
X167866000Y-98607000D01*
X167087000Y-98567000D02*
X167866000Y-98567000D01*
X167120000Y-98527000D02*
X167866000Y-98527000D01*
X167154000Y-98487000D02*
X167866000Y-98487000D01*
X167190000Y-98447000D02*
X167866000Y-98447000D01*
X167228000Y-98407000D02*
X167866000Y-98407000D01*
X167268000Y-98367000D02*
X167866000Y-98367000D01*
X167310000Y-98327000D02*
X167866000Y-98327000D01*
X167311000Y-101956801D02*
X167711000Y-101956801D01*
X167355000Y-98287000D02*
X167866000Y-98287000D01*
X167403000Y-98247000D02*
X167866000Y-98247000D01*
X167453000Y-98207000D02*
X167866000Y-98207000D01*
X167507000Y-98167000D02*
X167866000Y-98167000D01*
X167511000Y-102156801D02*
X167511000Y-101756801D01*
X167564000Y-98127000D02*
X167866000Y-98127000D01*
X167626000Y-98087000D02*
X167866000Y-98087000D01*
X167693000Y-98047000D02*
X169719000Y-98047000D01*
X167766000Y-98007000D02*
X169646000Y-98007000D01*
X167847000Y-97967000D02*
X169565000Y-97967000D01*
X167938000Y-97927000D02*
X169474000Y-97927000D01*
X168043000Y-97887000D02*
X169369000Y-97887000D01*
X168169000Y-97847000D02*
X169243000Y-97847000D01*
X168336000Y-97807000D02*
X169076000Y-97807000D01*
X169546000Y-98087000D02*
X169786000Y-98087000D01*
X169546000Y-98127000D02*
X169848000Y-98127000D01*
X169546000Y-98167000D02*
X169905000Y-98167000D01*
X169546000Y-98207000D02*
X169959000Y-98207000D01*
X169546000Y-98247000D02*
X170009000Y-98247000D01*
X169546000Y-98287000D02*
X170057000Y-98287000D01*
X169546000Y-98327000D02*
X170102000Y-98327000D01*
X169546000Y-98367000D02*
X170144000Y-98367000D01*
X169546000Y-98407000D02*
X170184000Y-98407000D01*
X169546000Y-98447000D02*
X170222000Y-98447000D01*
X169546000Y-98487000D02*
X170258000Y-98487000D01*
X169546000Y-98527000D02*
X170292000Y-98527000D01*
X169546000Y-98567000D02*
X170325000Y-98567000D01*
X169546000Y-98607000D02*
X170356000Y-98607000D01*
X169546000Y-98647000D02*
X170386000Y-98647000D01*
X169546000Y-98687000D02*
X170414000Y-98687000D01*
X169546000Y-98727000D02*
X170440000Y-98727000D01*
X169546000Y-98767000D02*
X170466000Y-98767000D01*
X169546000Y-98807000D02*
X170490000Y-98807000D01*
X169546000Y-98847000D02*
X170513000Y-98847000D01*
X169546000Y-98887000D02*
X170535000Y-98887000D01*
X169546000Y-98927000D02*
X170556000Y-98927000D01*
X169546000Y-98967000D02*
X170576000Y-98967000D01*
X169546000Y-99007000D02*
X170595000Y-99007000D01*
X169546000Y-99047000D02*
X170612000Y-99047000D01*
X169546000Y-99087000D02*
X170629000Y-99087000D01*
X169546000Y-99127000D02*
X170645000Y-99127000D01*
X169546000Y-99167000D02*
X170660000Y-99167000D01*
X169546000Y-99207000D02*
X170674000Y-99207000D01*
X169546000Y-99247000D02*
X170687000Y-99247000D01*
X169546000Y-99287000D02*
X170699000Y-99287000D01*
X169546000Y-99327000D02*
X170711000Y-99327000D01*
X169546000Y-99367000D02*
X170721000Y-99367000D01*
X169546000Y-99407000D02*
X170731000Y-99407000D01*
X169546000Y-99447000D02*
X170740000Y-99447000D01*
X169546000Y-99487000D02*
X170748000Y-99487000D01*
X169546000Y-99527000D02*
X170755000Y-99527000D01*
X169546000Y-99567000D02*
X170762000Y-99567000D01*
X169546000Y-99607000D02*
X170767000Y-99607000D01*
X169546000Y-99647000D02*
X170772000Y-99647000D01*
X169546000Y-99687000D02*
X170777000Y-99687000D01*
X170826000Y-99887000D02*
G75*
G02*
X166586000Y-99887000I-2120000J0D01*
G01*
X166586000Y-99887000D02*
G75*
G02*
X170826000Y-99887000I2120000J0D01*
G01*
%TO.C,C2*%
X141046302Y-111322000D02*
X141846302Y-111322000D01*
X141446302Y-110922000D02*
X141446302Y-111722000D01*
X145456000Y-109557000D02*
X145456000Y-117717000D01*
X145496000Y-109557000D02*
X145496000Y-117717000D01*
X145536000Y-109558000D02*
X145536000Y-117716000D01*
X145576000Y-109559000D02*
X145576000Y-117715000D01*
X145616000Y-109560000D02*
X145616000Y-117714000D01*
X145656000Y-109562000D02*
X145656000Y-117712000D01*
X145696000Y-109564000D02*
X145696000Y-112597000D01*
X145696000Y-114677000D02*
X145696000Y-117710000D01*
X145736000Y-109567000D02*
X145736000Y-112597000D01*
X145736000Y-114677000D02*
X145736000Y-117707000D01*
X145776000Y-109569000D02*
X145776000Y-112597000D01*
X145776000Y-114677000D02*
X145776000Y-117705000D01*
X145816000Y-109573000D02*
X145816000Y-112597000D01*
X145816000Y-114677000D02*
X145816000Y-117701000D01*
X145856000Y-109576000D02*
X145856000Y-112597000D01*
X145856000Y-114677000D02*
X145856000Y-117698000D01*
X145896000Y-109581000D02*
X145896000Y-112597000D01*
X145896000Y-114677000D02*
X145896000Y-117693000D01*
X145936000Y-109585000D02*
X145936000Y-112597000D01*
X145936000Y-114677000D02*
X145936000Y-117689000D01*
X145976000Y-109590000D02*
X145976000Y-112597000D01*
X145976000Y-114677000D02*
X145976000Y-117684000D01*
X146016000Y-109595000D02*
X146016000Y-112597000D01*
X146016000Y-114677000D02*
X146016000Y-117679000D01*
X146056000Y-109601000D02*
X146056000Y-112597000D01*
X146056000Y-114677000D02*
X146056000Y-117673000D01*
X146096000Y-109607000D02*
X146096000Y-112597000D01*
X146096000Y-114677000D02*
X146096000Y-117667000D01*
X146136000Y-109614000D02*
X146136000Y-112597000D01*
X146136000Y-114677000D02*
X146136000Y-117660000D01*
X146176000Y-109620000D02*
X146176000Y-112597000D01*
X146176000Y-114677000D02*
X146176000Y-117654000D01*
X146216000Y-109628000D02*
X146216000Y-112597000D01*
X146216000Y-114677000D02*
X146216000Y-117646000D01*
X146256000Y-109635000D02*
X146256000Y-112597000D01*
X146256000Y-114677000D02*
X146256000Y-117639000D01*
X146296000Y-109644000D02*
X146296000Y-112597000D01*
X146296000Y-114677000D02*
X146296000Y-117630000D01*
X146336000Y-109652000D02*
X146336000Y-112597000D01*
X146336000Y-114677000D02*
X146336000Y-117622000D01*
X146376000Y-109661000D02*
X146376000Y-112597000D01*
X146376000Y-114677000D02*
X146376000Y-117613000D01*
X146416000Y-109670000D02*
X146416000Y-112597000D01*
X146416000Y-114677000D02*
X146416000Y-117604000D01*
X146456000Y-109680000D02*
X146456000Y-112597000D01*
X146456000Y-114677000D02*
X146456000Y-117594000D01*
X146496000Y-109690000D02*
X146496000Y-112597000D01*
X146496000Y-114677000D02*
X146496000Y-117584000D01*
X146536000Y-109701000D02*
X146536000Y-112597000D01*
X146536000Y-114677000D02*
X146536000Y-117573000D01*
X146576000Y-109712000D02*
X146576000Y-112597000D01*
X146576000Y-114677000D02*
X146576000Y-117562000D01*
X146616000Y-109724000D02*
X146616000Y-112597000D01*
X146616000Y-114677000D02*
X146616000Y-117550000D01*
X146656000Y-109736000D02*
X146656000Y-112597000D01*
X146656000Y-114677000D02*
X146656000Y-117538000D01*
X146696000Y-109748000D02*
X146696000Y-112597000D01*
X146696000Y-114677000D02*
X146696000Y-117526000D01*
X146736000Y-109761000D02*
X146736000Y-112597000D01*
X146736000Y-114677000D02*
X146736000Y-117513000D01*
X146776000Y-109774000D02*
X146776000Y-112597000D01*
X146776000Y-114677000D02*
X146776000Y-117500000D01*
X146816000Y-109788000D02*
X146816000Y-112597000D01*
X146816000Y-114677000D02*
X146816000Y-117486000D01*
X146856000Y-109802000D02*
X146856000Y-112597000D01*
X146856000Y-114677000D02*
X146856000Y-117472000D01*
X146896000Y-109817000D02*
X146896000Y-112597000D01*
X146896000Y-114677000D02*
X146896000Y-117457000D01*
X146936000Y-109832000D02*
X146936000Y-112597000D01*
X146936000Y-114677000D02*
X146936000Y-117442000D01*
X146976000Y-109848000D02*
X146976000Y-112597000D01*
X146976000Y-114677000D02*
X146976000Y-117426000D01*
X147016000Y-109864000D02*
X147016000Y-112597000D01*
X147016000Y-114677000D02*
X147016000Y-117410000D01*
X147056000Y-109880000D02*
X147056000Y-112597000D01*
X147056000Y-114677000D02*
X147056000Y-117394000D01*
X147096000Y-109897000D02*
X147096000Y-112597000D01*
X147096000Y-114677000D02*
X147096000Y-117377000D01*
X147136000Y-109915000D02*
X147136000Y-112597000D01*
X147136000Y-114677000D02*
X147136000Y-117359000D01*
X147176000Y-109933000D02*
X147176000Y-112597000D01*
X147176000Y-114677000D02*
X147176000Y-117341000D01*
X147216000Y-109952000D02*
X147216000Y-112597000D01*
X147216000Y-114677000D02*
X147216000Y-117322000D01*
X147256000Y-109971000D02*
X147256000Y-112597000D01*
X147256000Y-114677000D02*
X147256000Y-117303000D01*
X147296000Y-109991000D02*
X147296000Y-112597000D01*
X147296000Y-114677000D02*
X147296000Y-117283000D01*
X147336000Y-110011000D02*
X147336000Y-112597000D01*
X147336000Y-114677000D02*
X147336000Y-117263000D01*
X147376000Y-110032000D02*
X147376000Y-112597000D01*
X147376000Y-114677000D02*
X147376000Y-117242000D01*
X147416000Y-110053000D02*
X147416000Y-112597000D01*
X147416000Y-114677000D02*
X147416000Y-117221000D01*
X147456000Y-110075000D02*
X147456000Y-112597000D01*
X147456000Y-114677000D02*
X147456000Y-117199000D01*
X147496000Y-110098000D02*
X147496000Y-112597000D01*
X147496000Y-114677000D02*
X147496000Y-117176000D01*
X147536000Y-110121000D02*
X147536000Y-112597000D01*
X147536000Y-114677000D02*
X147536000Y-117153000D01*
X147576000Y-110144000D02*
X147576000Y-112597000D01*
X147576000Y-114677000D02*
X147576000Y-117130000D01*
X147616000Y-110169000D02*
X147616000Y-112597000D01*
X147616000Y-114677000D02*
X147616000Y-117105000D01*
X147656000Y-110194000D02*
X147656000Y-112597000D01*
X147656000Y-114677000D02*
X147656000Y-117080000D01*
X147696000Y-110219000D02*
X147696000Y-112597000D01*
X147696000Y-114677000D02*
X147696000Y-117055000D01*
X147736000Y-110245000D02*
X147736000Y-112597000D01*
X147736000Y-114677000D02*
X147736000Y-117029000D01*
X147776000Y-110272000D02*
X147776000Y-117002000D01*
X147816000Y-110300000D02*
X147816000Y-116974000D01*
X147856000Y-110328000D02*
X147856000Y-116946000D01*
X147896000Y-110357000D02*
X147896000Y-116917000D01*
X147936000Y-110387000D02*
X147936000Y-116887000D01*
X147976000Y-110418000D02*
X147976000Y-116856000D01*
X148016000Y-110449000D02*
X148016000Y-116825000D01*
X148056000Y-110481000D02*
X148056000Y-116793000D01*
X148096000Y-110514000D02*
X148096000Y-116760000D01*
X148136000Y-110548000D02*
X148136000Y-116726000D01*
X148176000Y-110582000D02*
X148176000Y-116692000D01*
X148216000Y-110618000D02*
X148216000Y-116656000D01*
X148256000Y-110655000D02*
X148256000Y-116619000D01*
X148296000Y-110692000D02*
X148296000Y-116582000D01*
X148336000Y-110731000D02*
X148336000Y-116543000D01*
X148376000Y-110770000D02*
X148376000Y-116504000D01*
X148416000Y-110811000D02*
X148416000Y-116463000D01*
X148456000Y-110853000D02*
X148456000Y-116421000D01*
X148496000Y-110896000D02*
X148496000Y-116378000D01*
X148536000Y-110941000D02*
X148536000Y-116333000D01*
X148576000Y-110986000D02*
X148576000Y-116288000D01*
X148616000Y-111033000D02*
X148616000Y-116241000D01*
X148656000Y-111082000D02*
X148656000Y-116192000D01*
X148696000Y-111132000D02*
X148696000Y-116142000D01*
X148736000Y-111184000D02*
X148736000Y-116090000D01*
X148776000Y-111237000D02*
X148776000Y-116037000D01*
X148816000Y-111293000D02*
X148816000Y-115981000D01*
X148856000Y-111350000D02*
X148856000Y-115924000D01*
X148896000Y-111410000D02*
X148896000Y-115864000D01*
X148936000Y-111472000D02*
X148936000Y-115802000D01*
X148976000Y-111536000D02*
X148976000Y-115738000D01*
X149016000Y-111603000D02*
X149016000Y-115671000D01*
X149056000Y-111673000D02*
X149056000Y-115601000D01*
X149096000Y-111747000D02*
X149096000Y-115527000D01*
X149136000Y-111824000D02*
X149136000Y-115450000D01*
X149176000Y-111906000D02*
X149176000Y-115368000D01*
X149216000Y-111993000D02*
X149216000Y-115281000D01*
X149256000Y-112085000D02*
X149256000Y-115189000D01*
X149296000Y-112184000D02*
X149296000Y-115090000D01*
X149336000Y-112291000D02*
X149336000Y-114983000D01*
X149376000Y-112409000D02*
X149376000Y-114865000D01*
X149416000Y-112540000D02*
X149416000Y-114734000D01*
X149456000Y-112690000D02*
X149456000Y-114584000D01*
X149496000Y-112869000D02*
X149496000Y-114405000D01*
X149536000Y-113104000D02*
X149536000Y-114170000D01*
X149576000Y-113637000D02*
G75*
G02*
X141336000Y-113637000I-4120000J0D01*
G01*
X141336000Y-113637000D02*
G75*
G02*
X149576000Y-113637000I4120000J0D01*
G01*
%TO.C,R5*%
X172786000Y-101847000D02*
X172786000Y-98007000D01*
X174626000Y-101847000D02*
X174626000Y-98007000D01*
%TD*%
%LPC*%
D15*
%TO.C,Q1*%
X167726000Y-106681801D03*
D16*
X168996000Y-106681801D03*
X170266000Y-106681801D03*
%TD*%
D17*
%TO.C,J2*%
X183096000Y-116887000D03*
D18*
X185636000Y-116887000D03*
%TD*%
D19*
%TO.C,U1*%
X141086000Y-96887000D03*
D20*
X141086000Y-99427000D03*
X141086000Y-101967000D03*
X141086000Y-104507000D03*
X148706000Y-104507000D03*
X148706000Y-101967000D03*
X148706000Y-99427000D03*
X148706000Y-96887000D03*
%TD*%
D21*
%TO.C,D1*%
X162706000Y-104347000D03*
D22*
X162706000Y-109427000D03*
%TD*%
D23*
%TO.C,R2*%
X153206000Y-109387000D03*
X158286000Y-109387000D03*
%TD*%
%TO.C,R3*%
X153206000Y-113387000D03*
X158286000Y-113387000D03*
%TD*%
D24*
%TO.C,C6*%
X176962000Y-112953000D03*
D25*
X178962000Y-112953000D03*
%TD*%
D26*
%TO.C,C5*%
X178706000Y-107887000D03*
D25*
X178706000Y-105887000D03*
%TD*%
D23*
%TO.C,R4*%
X158286000Y-117387000D03*
X153206000Y-117387000D03*
%TD*%
D19*
%TO.C,C1*%
X132553349Y-99617000D03*
D20*
X135053349Y-99617000D03*
%TD*%
D24*
%TO.C,C4*%
X184166000Y-109387000D03*
D25*
X186166000Y-109387000D03*
%TD*%
D27*
%TO.C,AE1*%
X183246000Y-98927000D03*
D28*
X180706000Y-96387000D03*
X180706000Y-101467000D03*
X185786000Y-96387000D03*
X185786000Y-101467000D03*
%TD*%
D20*
%TO.C,L1*%
X173706000Y-107341801D03*
X173706000Y-104801801D03*
%TD*%
D29*
%TO.C,RV1*%
X158246000Y-96757000D03*
X155706000Y-99297000D03*
X153166000Y-96757000D03*
%TD*%
D30*
%TO.C,J1*%
X134706000Y-111387000D03*
X126806000Y-113387000D03*
X129206000Y-111387000D03*
%TD*%
D23*
%TO.C,R1*%
X153166000Y-104887000D03*
X158246000Y-104887000D03*
%TD*%
D31*
%TO.C,Y1*%
X165666000Y-114387000D03*
X170546000Y-114387000D03*
%TD*%
D26*
%TO.C,C3*%
X168706000Y-100887000D03*
D25*
X168706000Y-98887000D03*
%TD*%
D19*
%TO.C,C2*%
X144206000Y-113637000D03*
D20*
X146706000Y-113637000D03*
%TD*%
D23*
%TO.C,R5*%
X173706000Y-102467000D03*
X173706000Y-97387000D03*
%TD*%
%LPD*%
M02*
