%TF.GenerationSoftware,KiCad,Pcbnew,9.0.7*%
%TF.CreationDate,2026-03-06T10:06:46+03:00*%
%TF.ProjectId,FM Transmitter System,464d2054-7261-46e7-936d-697474657220,V2.0*%
%TF.SameCoordinates,Original*%
%TF.FileFunction,Copper,L1,Top*%
%TF.FilePolarity,Positive*%
%FSLAX46Y46*%
G04 Gerber Fmt 4.6, Leading zero omitted, Abs format (unit mm)*
G04 Created by KiCad (PCBNEW 9.0.7) date 2026-03-06 10:06:46*
%MOMM*%
%LPD*%
G01*
G04 APERTURE LIST*
G04 Aperture macros list*
%AMRoundRect*
0 Rectangle with rounded corners*
0 $1 Rounding radius*
0 $2 $3 $4 $5 $6 $7 $8 $9 X,Y pos of 4 corners*
0 Add a 4 corners polygon primitive as box body*
4,1,4,$2,$3,$4,$5,$6,$7,$8,$9,$2,$3,0*
0 Add four circle primitives for the rounded corners*
1,1,$1+$1,$2,$3*
1,1,$1+$1,$4,$5*
1,1,$1+$1,$6,$7*
1,1,$1+$1,$8,$9*
0 Add four rect primitives between the rounded corners*
20,1,$1+$1,$2,$3,$4,$5,0*
20,1,$1+$1,$4,$5,$6,$7,0*
20,1,$1+$1,$6,$7,$8,$9,0*
20,1,$1+$1,$8,$9,$2,$3,0*%
G04 Aperture macros list end*
%TA.AperFunction,ComponentPad*%
%ADD10R,1.050000X1.500000*%
%TD*%
%TA.AperFunction,ComponentPad*%
%ADD11O,1.050000X1.500000*%
%TD*%
%TA.AperFunction,ComponentPad*%
%ADD12R,1.700000X1.700000*%
%TD*%
%TA.AperFunction,ComponentPad*%
%ADD13C,1.700000*%
%TD*%
%TA.AperFunction,ComponentPad*%
%ADD14RoundRect,0.250000X-0.550000X-0.550000X0.550000X-0.550000X0.550000X0.550000X-0.550000X0.550000X0*%
%TD*%
%TA.AperFunction,ComponentPad*%
%ADD15C,1.600000*%
%TD*%
%TA.AperFunction,ComponentPad*%
%ADD16RoundRect,0.250000X-0.750000X0.750000X-0.750000X-0.750000X0.750000X-0.750000X0.750000X0.750000X0*%
%TD*%
%TA.AperFunction,ComponentPad*%
%ADD17C,2.000000*%
%TD*%
%TA.AperFunction,ComponentPad*%
%ADD18C,1.400000*%
%TD*%
%TA.AperFunction,ComponentPad*%
%ADD19RoundRect,0.250000X-0.350000X-0.350000X0.350000X-0.350000X0.350000X0.350000X-0.350000X0.350000X0*%
%TD*%
%TA.AperFunction,ComponentPad*%
%ADD20C,1.200000*%
%TD*%
%TA.AperFunction,ComponentPad*%
%ADD21RoundRect,0.250000X0.350000X-0.350000X0.350000X0.350000X-0.350000X0.350000X-0.350000X-0.350000X0*%
%TD*%
%TA.AperFunction,ComponentPad*%
%ADD22C,2.050000*%
%TD*%
%TA.AperFunction,ComponentPad*%
%ADD23C,2.250000*%
%TD*%
%TA.AperFunction,ComponentPad*%
%ADD24C,1.440000*%
%TD*%
%TA.AperFunction,ComponentPad*%
%ADD25C,2.800000*%
%TD*%
%TA.AperFunction,ComponentPad*%
%ADD26C,1.500000*%
%TD*%
%TA.AperFunction,ViaPad*%
%ADD27C,0.800000*%
%TD*%
%TA.AperFunction,ViaPad*%
%ADD28C,0.500000*%
%TD*%
%TA.AperFunction,Conductor*%
%ADD29C,0.500000*%
%TD*%
%TA.AperFunction,Conductor*%
%ADD30C,0.250000*%
%TD*%
%TA.AperFunction,Conductor*%
%ADD31C,0.800000*%
%TD*%
G04 APERTURE END LIST*
D10*
%TO.P,Q1,1,E*%
%TO.N,Net-(Q1-E)*%
X167726000Y-106681801D03*
D11*
%TO.P,Q1,2,B*%
%TO.N,/XTAL NODE*%
X168996000Y-106681801D03*
%TO.P,Q1,3,C*%
%TO.N,/RF TANK*%
X170266000Y-106681801D03*
%TD*%
D12*
%TO.P,J2,1,Pin_1*%
%TO.N,/+12V*%
X183096000Y-116887000D03*
D13*
%TO.P,J2,2,Pin_2*%
%TO.N,GND*%
X185636000Y-116887000D03*
%TD*%
D14*
%TO.P,U1,1,GAIN*%
%TO.N,unconnected-(U1-GAIN-Pad1)*%
X141086000Y-96887000D03*
D15*
%TO.P,U1,2,-*%
%TO.N,GND*%
X141086000Y-99427000D03*
%TO.P,U1,3,+*%
%TO.N,/Audio PREAMP*%
X141086000Y-101967000D03*
%TO.P,U1,4,GND*%
%TO.N,GND*%
X141086000Y-104507000D03*
%TO.P,U1,5*%
%TO.N,/Audio MOD*%
X148706000Y-104507000D03*
%TO.P,U1,6,V+*%
%TO.N,Net-(U1-V+)*%
X148706000Y-101967000D03*
%TO.P,U1,7,BYPASS*%
%TO.N,unconnected-(U1-BYPASS-Pad7)*%
X148706000Y-99427000D03*
%TO.P,U1,8,GAIN*%
%TO.N,unconnected-(U1-GAIN-Pad8)*%
X148706000Y-96887000D03*
%TD*%
D16*
%TO.P,D1,1,K*%
%TO.N,/+12V*%
X162706000Y-104347000D03*
D17*
%TO.P,D1,2,A*%
%TO.N,/BIAS VARACTOR*%
X162706000Y-109427000D03*
%TD*%
D18*
%TO.P,R2,1*%
%TO.N,/Audio MOD*%
X153206000Y-109387000D03*
%TO.P,R2,2*%
%TO.N,/BIAS VARACTOR*%
X158286000Y-109387000D03*
%TD*%
%TO.P,R3,1*%
%TO.N,/+12V*%
X153206000Y-113387000D03*
%TO.P,R3,2*%
%TO.N,/XTAL NODE*%
X158286000Y-113387000D03*
%TD*%
D19*
%TO.P,C6,1*%
%TO.N,/+12V*%
X176962000Y-112953000D03*
D20*
%TO.P,C6,2*%
%TO.N,GND*%
X178962000Y-112953000D03*
%TD*%
D21*
%TO.P,C5,1*%
%TO.N,/+12V*%
X178706000Y-107887000D03*
D20*
%TO.P,C5,2*%
%TO.N,/RF TANK*%
X178706000Y-105887000D03*
%TD*%
D18*
%TO.P,R4,1*%
%TO.N,/XTAL NODE*%
X158286000Y-117387000D03*
%TO.P,R4,2*%
%TO.N,GND*%
X153206000Y-117387000D03*
%TD*%
D14*
%TO.P,C1,1*%
%TO.N,/Audio IN*%
X132553349Y-99617000D03*
D15*
%TO.P,C1,2*%
%TO.N,Net-(C1-Pad2)*%
X135053349Y-99617000D03*
%TD*%
D19*
%TO.P,C4,1*%
%TO.N,/RF TANK*%
X184166000Y-109387000D03*
D20*
%TO.P,C4,2*%
%TO.N,/RF OUT*%
X186166000Y-109387000D03*
%TD*%
D22*
%TO.P,AE1,1,A*%
%TO.N,/RF OUT*%
X183246000Y-98927000D03*
D23*
%TO.P,AE1,2*%
%TO.N,N/C*%
X180706000Y-96387000D03*
X180706000Y-101467000D03*
X185786000Y-96387000D03*
X185786000Y-101467000D03*
%TD*%
D15*
%TO.P,L1,1*%
%TO.N,/+12V*%
X173706000Y-107341801D03*
%TO.P,L1,2*%
%TO.N,/RF TANK*%
X173706000Y-104801801D03*
%TD*%
D24*
%TO.P,RV1,1,1*%
%TO.N,GND*%
X158246000Y-96757000D03*
%TO.P,RV1,2,2*%
%TO.N,/Audio PREAMP*%
X155706000Y-99297000D03*
%TO.P,RV1,3,3*%
%TO.N,Net-(C1-Pad2)*%
X153166000Y-96757000D03*
%TD*%
D25*
%TO.P,J1,R*%
%TO.N,N/C*%
X134706000Y-111387000D03*
%TO.P,J1,S*%
%TO.N,/Audio IN*%
X126806000Y-113387000D03*
%TO.P,J1,T*%
%TO.N,GND*%
X129206000Y-111387000D03*
%TD*%
D18*
%TO.P,R1,1*%
%TO.N,Net-(U1-V+)*%
X153166000Y-104887000D03*
%TO.P,R1,2*%
%TO.N,/+12V*%
X158246000Y-104887000D03*
%TD*%
D26*
%TO.P,Y1,1,1*%
%TO.N,/BIAS VARACTOR*%
X165666000Y-114387000D03*
%TO.P,Y1,2,2*%
%TO.N,/XTAL NODE*%
X170546000Y-114387000D03*
%TD*%
D21*
%TO.P,C3,1*%
%TO.N,Net-(Q1-E)*%
X168706000Y-100887000D03*
D20*
%TO.P,C3,2*%
%TO.N,GND*%
X168706000Y-98887000D03*
%TD*%
D14*
%TO.P,C2,1*%
%TO.N,GND*%
X144206000Y-113637000D03*
D15*
%TO.P,C2,2*%
%TO.N,Net-(U1-V+)*%
X146706000Y-113637000D03*
%TD*%
D18*
%TO.P,R5,1*%
%TO.N,Net-(Q1-E)*%
X173706000Y-102467000D03*
%TO.P,R5,2*%
%TO.N,GND*%
X173706000Y-97387000D03*
%TD*%
D27*
%TO.N,/+12V*%
X165500000Y-110667000D03*
D28*
%TO.N,/BIAS VARACTOR*%
X161182000Y-111937000D03*
%TD*%
D29*
%TO.N,/RF OUT*%
X183246000Y-104283000D02*
X186166000Y-107203000D01*
X183246000Y-98927000D02*
X183246000Y-104283000D01*
X186166000Y-107203000D02*
X186166000Y-109387000D01*
D30*
%TO.N,/Audio IN*%
X132553349Y-110593651D02*
X129760000Y-113387000D01*
X129760000Y-113387000D02*
X126806000Y-113387000D01*
X132553349Y-99617000D02*
X132553349Y-110593651D01*
%TO.N,Net-(C1-Pad2)*%
X151074000Y-94665000D02*
X153166000Y-96757000D01*
X135053349Y-99617000D02*
X140005349Y-94665000D01*
X140005349Y-94665000D02*
X151074000Y-94665000D01*
%TO.N,Net-(U1-V+)*%
X151610000Y-103331000D02*
X153166000Y-104887000D01*
X150246000Y-101967000D02*
X153166000Y-104887000D01*
X146706000Y-113637000D02*
X146706000Y-104843884D01*
X148218884Y-103331000D02*
X151610000Y-103331000D01*
X146706000Y-104843884D02*
X148218884Y-103331000D01*
X148706000Y-101967000D02*
X150246000Y-101967000D01*
%TO.N,Net-(Q1-E)*%
X167726000Y-101867000D02*
X167726000Y-106681801D01*
X172126000Y-100887000D02*
X173706000Y-102467000D01*
X168706000Y-100887000D02*
X172126000Y-100887000D01*
X168706000Y-100887000D02*
X167726000Y-101867000D01*
D29*
%TO.N,/RF TANK*%
X170266000Y-106681801D02*
X171826000Y-106681801D01*
X178706000Y-105887000D02*
X182564000Y-105887000D01*
X177620801Y-104801801D02*
X178706000Y-105887000D01*
X182564000Y-105887000D02*
X184166000Y-107489000D01*
X184166000Y-107489000D02*
X184166000Y-109387000D01*
X173706000Y-104801801D02*
X177620801Y-104801801D01*
X171826000Y-106681801D02*
X173706000Y-104801801D01*
D31*
%TO.N,/+12V*%
X178706000Y-107887000D02*
X178706000Y-111209000D01*
X178706000Y-111209000D02*
X176962000Y-112953000D01*
X183096000Y-113023000D02*
X181282000Y-111209000D01*
X183096000Y-116887000D02*
X183096000Y-113023000D01*
X155086000Y-108047000D02*
X155768000Y-107365000D01*
X158246000Y-103951000D02*
X158246000Y-104887000D01*
X155768000Y-107365000D02*
X158246000Y-104887000D01*
X165500000Y-105333000D02*
X165500000Y-110667000D01*
X164514000Y-104347000D02*
X165500000Y-105333000D01*
X162706000Y-104347000D02*
X161660000Y-103301000D01*
X178160801Y-107341801D02*
X178706000Y-107887000D01*
X162706000Y-104347000D02*
X164514000Y-104347000D01*
X153206000Y-113387000D02*
X155086000Y-111507000D01*
X181282000Y-111209000D02*
X178706000Y-111209000D01*
X158896000Y-103301000D02*
X158246000Y-103951000D01*
X161660000Y-103301000D02*
X158896000Y-103301000D01*
X173706000Y-107341801D02*
X178160801Y-107341801D01*
X155086000Y-111507000D02*
X155086000Y-108047000D01*
D30*
%TO.N,/BIAS VARACTOR*%
X162706000Y-109427000D02*
X162706000Y-109651000D01*
X162666000Y-109387000D02*
X162706000Y-109427000D01*
X158286000Y-109387000D02*
X162666000Y-109387000D01*
X161182000Y-110951000D02*
X161182000Y-111937000D01*
X162706000Y-109427000D02*
X161182000Y-110951000D01*
D29*
%TO.N,/XTAL NODE*%
X158986000Y-112687000D02*
X167278000Y-112687000D01*
X168996000Y-106681801D02*
X168996000Y-110969000D01*
X158286000Y-113387000D02*
X158986000Y-112687000D01*
X167278000Y-112687000D02*
X168846000Y-112687000D01*
X168846000Y-112687000D02*
X170546000Y-114387000D01*
X168996000Y-110969000D02*
X167278000Y-112687000D01*
X168996000Y-112837000D02*
X170546000Y-114387000D01*
X158286000Y-117387000D02*
X158286000Y-113387000D01*
D30*
%TO.N,/Audio MOD*%
X148706000Y-106319000D02*
X151774000Y-109387000D01*
X148706000Y-104507000D02*
X148706000Y-106319000D01*
X151774000Y-109387000D02*
X153206000Y-109387000D01*
%TO.N,/Audio PREAMP*%
X154630000Y-98221000D02*
X155706000Y-99297000D01*
X144832000Y-98221000D02*
X154630000Y-98221000D01*
X141086000Y-101967000D02*
X144832000Y-98221000D01*
%TD*%
M02*
