%TF.GenerationSoftware,KiCad,Pcbnew,9.0.7*%
%TF.CreationDate,2026-03-06T10:06:46+03:00*%
%TF.ProjectId,FM Transmitter System,464d2054-7261-46e7-936d-697474657220,V2.0*%
%TF.SameCoordinates,Original*%
%TF.FileFunction,Copper,L2,Bot*%
%TF.FilePolarity,Positive*%
%FSLAX46Y46*%
G04 Gerber Fmt 4.6, Leading zero omitted, Abs format (unit mm)*
G04 Created by KiCad (PCBNEW 9.0.7) date 2026-03-06 10:06:46*
%MOMM*%
%LPD*%
G01*
G04 APERTURE LIST*
G04 Aperture macros list*
%AMRoundRect*
0 Rectangle with rounded corners*
0 $1 Rounding radius*
0 $2 $3 $4 $5 $6 $7 $8 $9 X,Y pos of 4 corners*
0 Add a 4 corners polygon primitive as box body*
4,1,4,$2,$3,$4,$5,$6,$7,$8,$9,$2,$3,0*
0 Add four circle primitives for the rounded corners*
1,1,$1+$1,$2,$3*
1,1,$1+$1,$4,$5*
1,1,$1+$1,$6,$7*
1,1,$1+$1,$8,$9*
0 Add four rect primitives between the rounded corners*
20,1,$1+$1,$2,$3,$4,$5,0*
20,1,$1+$1,$4,$5,$6,$7,0*
20,1,$1+$1,$6,$7,$8,$9,0*
20,1,$1+$1,$8,$9,$2,$3,0*%
G04 Aperture macros list end*
%TA.AperFunction,ComponentPad*%
%ADD10R,1.050000X1.500000*%
%TD*%
%TA.AperFunction,ComponentPad*%
%ADD11O,1.050000X1.500000*%
%TD*%
%TA.AperFunction,ComponentPad*%
%ADD12R,1.700000X1.700000*%
%TD*%
%TA.AperFunction,ComponentPad*%
%ADD13C,1.700000*%
%TD*%
%TA.AperFunction,ComponentPad*%
%ADD14RoundRect,0.250000X-0.550000X-0.550000X0.550000X-0.550000X0.550000X0.550000X-0.550000X0.550000X0*%
%TD*%
%TA.AperFunction,ComponentPad*%
%ADD15C,1.600000*%
%TD*%
%TA.AperFunction,ComponentPad*%
%ADD16RoundRect,0.250000X-0.750000X0.750000X-0.750000X-0.750000X0.750000X-0.750000X0.750000X0.750000X0*%
%TD*%
%TA.AperFunction,ComponentPad*%
%ADD17C,2.000000*%
%TD*%
%TA.AperFunction,ComponentPad*%
%ADD18C,1.400000*%
%TD*%
%TA.AperFunction,ComponentPad*%
%ADD19RoundRect,0.250000X-0.350000X-0.350000X0.350000X-0.350000X0.350000X0.350000X-0.350000X0.350000X0*%
%TD*%
%TA.AperFunction,ComponentPad*%
%ADD20C,1.200000*%
%TD*%
%TA.AperFunction,ComponentPad*%
%ADD21RoundRect,0.250000X0.350000X-0.350000X0.350000X0.350000X-0.350000X0.350000X-0.350000X-0.350000X0*%
%TD*%
%TA.AperFunction,ComponentPad*%
%ADD22C,2.050000*%
%TD*%
%TA.AperFunction,ComponentPad*%
%ADD23C,2.250000*%
%TD*%
%TA.AperFunction,ComponentPad*%
%ADD24C,1.440000*%
%TD*%
%TA.AperFunction,ComponentPad*%
%ADD25C,2.800000*%
%TD*%
%TA.AperFunction,ComponentPad*%
%ADD26C,1.500000*%
%TD*%
%TA.AperFunction,ViaPad*%
%ADD27C,0.800000*%
%TD*%
%TA.AperFunction,ViaPad*%
%ADD28C,0.500000*%
%TD*%
%TA.AperFunction,Conductor*%
%ADD29C,0.800000*%
%TD*%
%TA.AperFunction,Conductor*%
%ADD30C,0.250000*%
%TD*%
G04 APERTURE END LIST*
D10*
%TO.P,Q1,1,E*%
%TO.N,Net-(Q1-E)*%
X167726000Y-106681801D03*
D11*
%TO.P,Q1,2,B*%
%TO.N,/XTAL NODE*%
X168996000Y-106681801D03*
%TO.P,Q1,3,C*%
%TO.N,/RF TANK*%
X170266000Y-106681801D03*
%TD*%
D12*
%TO.P,J2,1,Pin_1*%
%TO.N,/+12V*%
X183096000Y-116887000D03*
D13*
%TO.P,J2,2,Pin_2*%
%TO.N,GND*%
X185636000Y-116887000D03*
%TD*%
D14*
%TO.P,U1,1,GAIN*%
%TO.N,unconnected-(U1-GAIN-Pad1)*%
X141086000Y-96887000D03*
D15*
%TO.P,U1,2,-*%
%TO.N,GND*%
X141086000Y-99427000D03*
%TO.P,U1,3,+*%
%TO.N,/Audio PREAMP*%
X141086000Y-101967000D03*
%TO.P,U1,4,GND*%
%TO.N,GND*%
X141086000Y-104507000D03*
%TO.P,U1,5*%
%TO.N,/Audio MOD*%
X148706000Y-104507000D03*
%TO.P,U1,6,V+*%
%TO.N,Net-(U1-V+)*%
X148706000Y-101967000D03*
%TO.P,U1,7,BYPASS*%
%TO.N,unconnected-(U1-BYPASS-Pad7)*%
X148706000Y-99427000D03*
%TO.P,U1,8,GAIN*%
%TO.N,unconnected-(U1-GAIN-Pad8)*%
X148706000Y-96887000D03*
%TD*%
D16*
%TO.P,D1,1,K*%
%TO.N,/+12V*%
X162706000Y-104347000D03*
D17*
%TO.P,D1,2,A*%
%TO.N,/BIAS VARACTOR*%
X162706000Y-109427000D03*
%TD*%
D18*
%TO.P,R2,1*%
%TO.N,/Audio MOD*%
X153206000Y-109387000D03*
%TO.P,R2,2*%
%TO.N,/BIAS VARACTOR*%
X158286000Y-109387000D03*
%TD*%
%TO.P,R3,1*%
%TO.N,/+12V*%
X153206000Y-113387000D03*
%TO.P,R3,2*%
%TO.N,/XTAL NODE*%
X158286000Y-113387000D03*
%TD*%
D19*
%TO.P,C6,1*%
%TO.N,/+12V*%
X176962000Y-112953000D03*
D20*
%TO.P,C6,2*%
%TO.N,GND*%
X178962000Y-112953000D03*
%TD*%
D21*
%TO.P,C5,1*%
%TO.N,/+12V*%
X178706000Y-107887000D03*
D20*
%TO.P,C5,2*%
%TO.N,/RF TANK*%
X178706000Y-105887000D03*
%TD*%
D18*
%TO.P,R4,1*%
%TO.N,/XTAL NODE*%
X158286000Y-117387000D03*
%TO.P,R4,2*%
%TO.N,GND*%
X153206000Y-117387000D03*
%TD*%
D14*
%TO.P,C1,1*%
%TO.N,/Audio IN*%
X132553349Y-99617000D03*
D15*
%TO.P,C1,2*%
%TO.N,Net-(C1-Pad2)*%
X135053349Y-99617000D03*
%TD*%
D19*
%TO.P,C4,1*%
%TO.N,/RF TANK*%
X184166000Y-109387000D03*
D20*
%TO.P,C4,2*%
%TO.N,/RF OUT*%
X186166000Y-109387000D03*
%TD*%
D22*
%TO.P,AE1,1,A*%
%TO.N,/RF OUT*%
X183246000Y-98927000D03*
D23*
%TO.P,AE1,2*%
%TO.N,N/C*%
X180706000Y-96387000D03*
X180706000Y-101467000D03*
X185786000Y-96387000D03*
X185786000Y-101467000D03*
%TD*%
D15*
%TO.P,L1,1*%
%TO.N,/+12V*%
X173706000Y-107341801D03*
%TO.P,L1,2*%
%TO.N,/RF TANK*%
X173706000Y-104801801D03*
%TD*%
D24*
%TO.P,RV1,1,1*%
%TO.N,GND*%
X158246000Y-96757000D03*
%TO.P,RV1,2,2*%
%TO.N,/Audio PREAMP*%
X155706000Y-99297000D03*
%TO.P,RV1,3,3*%
%TO.N,Net-(C1-Pad2)*%
X153166000Y-96757000D03*
%TD*%
D25*
%TO.P,J1,R*%
%TO.N,N/C*%
X134706000Y-111387000D03*
%TO.P,J1,S*%
%TO.N,/Audio IN*%
X126806000Y-113387000D03*
%TO.P,J1,T*%
%TO.N,GND*%
X129206000Y-111387000D03*
%TD*%
D18*
%TO.P,R1,1*%
%TO.N,Net-(U1-V+)*%
X153166000Y-104887000D03*
%TO.P,R1,2*%
%TO.N,/+12V*%
X158246000Y-104887000D03*
%TD*%
D26*
%TO.P,Y1,1,1*%
%TO.N,/BIAS VARACTOR*%
X165666000Y-114387000D03*
%TO.P,Y1,2,2*%
%TO.N,/XTAL NODE*%
X170546000Y-114387000D03*
%TD*%
D21*
%TO.P,C3,1*%
%TO.N,Net-(Q1-E)*%
X168706000Y-100887000D03*
D20*
%TO.P,C3,2*%
%TO.N,GND*%
X168706000Y-98887000D03*
%TD*%
D14*
%TO.P,C2,1*%
%TO.N,GND*%
X144206000Y-113637000D03*
D15*
%TO.P,C2,2*%
%TO.N,Net-(U1-V+)*%
X146706000Y-113637000D03*
%TD*%
D18*
%TO.P,R5,1*%
%TO.N,Net-(Q1-E)*%
X173706000Y-102467000D03*
%TO.P,R5,2*%
%TO.N,GND*%
X173706000Y-97387000D03*
%TD*%
D27*
%TO.N,/+12V*%
X165500000Y-110667000D03*
D28*
%TO.N,/BIAS VARACTOR*%
X161182000Y-111937000D03*
%TD*%
D29*
%TO.N,/+12V*%
X170380801Y-110667000D02*
X173706000Y-107341801D01*
X165500000Y-110667000D02*
X170380801Y-110667000D01*
D30*
%TO.N,/BIAS VARACTOR*%
X161182000Y-111937000D02*
X163632000Y-114387000D01*
X163632000Y-114387000D02*
X165666000Y-114387000D01*
%TD*%
%TA.AperFunction,Conductor*%
%TO.N,GND*%
G36*
X152981428Y-94362673D02*
G01*
X152981874Y-94362675D01*
X186974587Y-94659555D01*
X187041448Y-94679823D01*
X187086740Y-94733025D01*
X187097500Y-94783549D01*
X187097500Y-95555415D01*
X187077815Y-95622454D01*
X187025011Y-95668209D01*
X186955853Y-95678153D01*
X186892297Y-95649128D01*
X186873183Y-95628301D01*
X186797039Y-95523501D01*
X186797035Y-95523495D01*
X186649505Y-95375965D01*
X186480714Y-95253330D01*
X186294820Y-95158612D01*
X186096389Y-95094137D01*
X185890324Y-95061500D01*
X185890319Y-95061500D01*
X185681681Y-95061500D01*
X185681676Y-95061500D01*
X185475610Y-95094137D01*
X185277179Y-95158612D01*
X185091285Y-95253330D01*
X184922493Y-95375966D01*
X184774966Y-95523493D01*
X184652330Y-95692285D01*
X184557612Y-95878179D01*
X184493137Y-96076610D01*
X184460500Y-96282675D01*
X184460500Y-96491324D01*
X184493137Y-96697389D01*
X184557612Y-96895820D01*
X184627736Y-97033446D01*
X184652330Y-97081714D01*
X184774965Y-97250505D01*
X184922495Y-97398035D01*
X185091286Y-97520670D01*
X185179116Y-97565421D01*
X185277179Y-97615387D01*
X185277181Y-97615387D01*
X185277184Y-97615389D01*
X185331065Y-97632896D01*
X185475610Y-97679862D01*
X185681676Y-97712500D01*
X185681681Y-97712500D01*
X185890324Y-97712500D01*
X186096389Y-97679862D01*
X186103658Y-97677500D01*
X186294816Y-97615389D01*
X186480714Y-97520670D01*
X186649505Y-97398035D01*
X186797035Y-97250505D01*
X186873183Y-97145697D01*
X186928513Y-97103033D01*
X186998126Y-97097054D01*
X187059921Y-97129660D01*
X187094278Y-97190499D01*
X187097500Y-97218584D01*
X187097500Y-100635415D01*
X187077815Y-100702454D01*
X187025011Y-100748209D01*
X186955853Y-100758153D01*
X186892297Y-100729128D01*
X186873183Y-100708301D01*
X186802340Y-100610797D01*
X186797035Y-100603495D01*
X186649505Y-100455965D01*
X186480714Y-100333330D01*
X186462634Y-100324118D01*
X186294820Y-100238612D01*
X186096389Y-100174137D01*
X185890324Y-100141500D01*
X185890319Y-100141500D01*
X185681681Y-100141500D01*
X185681676Y-100141500D01*
X185475610Y-100174137D01*
X185277179Y-100238612D01*
X185091285Y-100333330D01*
X184922493Y-100455966D01*
X184774966Y-100603493D01*
X184652330Y-100772285D01*
X184557612Y-100958179D01*
X184493137Y-101156610D01*
X184460500Y-101362675D01*
X184460500Y-101571324D01*
X184493137Y-101777389D01*
X184557612Y-101975820D01*
X184640739Y-102138966D01*
X184652330Y-102161714D01*
X184774965Y-102330505D01*
X184922495Y-102478035D01*
X185091286Y-102600670D01*
X185161713Y-102636554D01*
X185277179Y-102695387D01*
X185277181Y-102695387D01*
X185277184Y-102695389D01*
X185382681Y-102729667D01*
X185475610Y-102759862D01*
X185681676Y-102792500D01*
X185681681Y-102792500D01*
X185890324Y-102792500D01*
X186096389Y-102759862D01*
X186144779Y-102744139D01*
X186294816Y-102695389D01*
X186480714Y-102600670D01*
X186649505Y-102478035D01*
X186797035Y-102330505D01*
X186873183Y-102225697D01*
X186928513Y-102183033D01*
X186998126Y-102177054D01*
X187059921Y-102209660D01*
X187094278Y-102270499D01*
X187097500Y-102298584D01*
X187097500Y-108931452D01*
X187077815Y-108998491D01*
X187025011Y-109044246D01*
X186955853Y-109054190D01*
X186892297Y-109025165D01*
X186870398Y-109000343D01*
X186787789Y-108876711D01*
X186787786Y-108876707D01*
X186676292Y-108765213D01*
X186676288Y-108765210D01*
X186545185Y-108677609D01*
X186545172Y-108677602D01*
X186399501Y-108617264D01*
X186399489Y-108617261D01*
X186244845Y-108586500D01*
X186244842Y-108586500D01*
X186087158Y-108586500D01*
X186087155Y-108586500D01*
X185932510Y-108617261D01*
X185932498Y-108617264D01*
X185786827Y-108677602D01*
X185786814Y-108677609D01*
X185655711Y-108765210D01*
X185655707Y-108765213D01*
X185544213Y-108876707D01*
X185544210Y-108876711D01*
X185456609Y-109007814D01*
X185456602Y-109007827D01*
X185396264Y-109153498D01*
X185396261Y-109153510D01*
X185365500Y-109308153D01*
X185365500Y-109465846D01*
X185396261Y-109620489D01*
X185396264Y-109620501D01*
X185456602Y-109766172D01*
X185456609Y-109766185D01*
X185544210Y-109897288D01*
X185544213Y-109897292D01*
X185655707Y-110008786D01*
X185655711Y-110008789D01*
X185786814Y-110096390D01*
X185786827Y-110096397D01*
X185932440Y-110156711D01*
X185932503Y-110156737D01*
X186072810Y-110184646D01*
X186087153Y-110187499D01*
X186087156Y-110187500D01*
X186087158Y-110187500D01*
X186244844Y-110187500D01*
X186244845Y-110187499D01*
X186399497Y-110156737D01*
X186545179Y-110096394D01*
X186676289Y-110008789D01*
X186787789Y-109897289D01*
X186870398Y-109773655D01*
X186924010Y-109728851D01*
X186993335Y-109720144D01*
X187056362Y-109750298D01*
X187093082Y-109809741D01*
X187097500Y-109842547D01*
X187097500Y-116265227D01*
X187077815Y-116332266D01*
X187025011Y-116378021D01*
X186955853Y-116387965D01*
X186892297Y-116358940D01*
X186863015Y-116321522D01*
X186790624Y-116179450D01*
X186751270Y-116125282D01*
X186751269Y-116125282D01*
X186118962Y-116757590D01*
X186101925Y-116694007D01*
X186036099Y-116579993D01*
X185943007Y-116486901D01*
X185828993Y-116421075D01*
X185765409Y-116404037D01*
X186397716Y-115771728D01*
X186343550Y-115732375D01*
X186154217Y-115635904D01*
X185952129Y-115570242D01*
X185742246Y-115537000D01*
X185529754Y-115537000D01*
X185319872Y-115570242D01*
X185319869Y-115570242D01*
X185117782Y-115635904D01*
X184928439Y-115732380D01*
X184874282Y-115771727D01*
X184874282Y-115771728D01*
X185506591Y-116404037D01*
X185443007Y-116421075D01*
X185328993Y-116486901D01*
X185235901Y-116579993D01*
X185170075Y-116694007D01*
X185153037Y-116757591D01*
X184520728Y-116125282D01*
X184480229Y-116128470D01*
X184411851Y-116114106D01*
X184362094Y-116065055D01*
X184347898Y-116010253D01*
X184346881Y-116010333D01*
X184346499Y-116005488D01*
X184346499Y-116005482D01*
X184331646Y-115911696D01*
X184274050Y-115798658D01*
X184274046Y-115798654D01*
X184274045Y-115798652D01*
X184184347Y-115708954D01*
X184184344Y-115708952D01*
X184184342Y-115708950D01*
X184087910Y-115659815D01*
X184071301Y-115651352D01*
X183977524Y-115636500D01*
X182214482Y-115636500D01*
X182133519Y-115649323D01*
X182120696Y-115651354D01*
X182007658Y-115708950D01*
X182007657Y-115708951D01*
X182007652Y-115708954D01*
X181917954Y-115798652D01*
X181917951Y-115798657D01*
X181860352Y-115911698D01*
X181845500Y-116005475D01*
X181845500Y-117768517D01*
X181852631Y-117813540D01*
X181860354Y-117862304D01*
X181917950Y-117975342D01*
X181917952Y-117975344D01*
X181917954Y-117975347D01*
X182007652Y-118065045D01*
X182007654Y-118065046D01*
X182007658Y-118065050D01*
X182120694Y-118122645D01*
X182120698Y-118122647D01*
X182214475Y-118137499D01*
X182214481Y-118137500D01*
X183977518Y-118137499D01*
X184071304Y-118122646D01*
X184184342Y-118065050D01*
X184274050Y-117975342D01*
X184331646Y-117862304D01*
X184331646Y-117862302D01*
X184331647Y-117862301D01*
X184346500Y-117768522D01*
X184346882Y-117763669D01*
X184348086Y-117763763D01*
X184366168Y-117702131D01*
X184418961Y-117656364D01*
X184480230Y-117645528D01*
X184520729Y-117648715D01*
X185153037Y-117016408D01*
X185170075Y-117079993D01*
X185235901Y-117194007D01*
X185328993Y-117287099D01*
X185443007Y-117352925D01*
X185506590Y-117369962D01*
X184874282Y-118002269D01*
X184874282Y-118002270D01*
X184928449Y-118041624D01*
X185117782Y-118138095D01*
X185319870Y-118203757D01*
X185529754Y-118237000D01*
X185742246Y-118237000D01*
X185952127Y-118203757D01*
X185952130Y-118203757D01*
X186154217Y-118138095D01*
X186343554Y-118041622D01*
X186397716Y-118002270D01*
X186397717Y-118002270D01*
X185765408Y-117369962D01*
X185828993Y-117352925D01*
X185943007Y-117287099D01*
X186036099Y-117194007D01*
X186101925Y-117079993D01*
X186118962Y-117016408D01*
X186751270Y-117648717D01*
X186751270Y-117648716D01*
X186790622Y-117594554D01*
X186863015Y-117452477D01*
X186910990Y-117401681D01*
X186978811Y-117384886D01*
X187044946Y-117407423D01*
X187088397Y-117462139D01*
X187097500Y-117508772D01*
X187097500Y-118678500D01*
X187077815Y-118745539D01*
X187025011Y-118791294D01*
X186973500Y-118802500D01*
X153513973Y-118802500D01*
X153446934Y-118782815D01*
X153401179Y-118730011D01*
X153391235Y-118660853D01*
X153420260Y-118597297D01*
X153479038Y-118559523D01*
X153485033Y-118557924D01*
X153487009Y-118557449D01*
X153666637Y-118499085D01*
X153834937Y-118413331D01*
X153860328Y-118394883D01*
X153860328Y-118394882D01*
X153206001Y-117740554D01*
X153206000Y-117740554D01*
X152551669Y-118394882D01*
X152551670Y-118394883D01*
X152577059Y-118413329D01*
X152745362Y-118499085D01*
X152924990Y-118557449D01*
X152926967Y-118557924D01*
X152927640Y-118558310D01*
X152929633Y-118558958D01*
X152929497Y-118559376D01*
X152987561Y-118592712D01*
X153019729Y-118654736D01*
X153013257Y-118724305D01*
X152970200Y-118779332D01*
X152904229Y-118802345D01*
X152898027Y-118802500D01*
X123007714Y-118802500D01*
X123007239Y-118802499D01*
X121420025Y-118796417D01*
X121353061Y-118776476D01*
X121307509Y-118723497D01*
X121296500Y-118672418D01*
X121296500Y-117778249D01*
X149044500Y-117778249D01*
X150546500Y-117784004D01*
X150546500Y-117292552D01*
X152006000Y-117292552D01*
X152006000Y-117481447D01*
X152035548Y-117668002D01*
X152093914Y-117847637D01*
X152179666Y-118015933D01*
X152198116Y-118041328D01*
X152852446Y-117387000D01*
X152852446Y-117386999D01*
X152806369Y-117340922D01*
X152856000Y-117340922D01*
X152856000Y-117433078D01*
X152879852Y-117522095D01*
X152925930Y-117601905D01*
X152991095Y-117667070D01*
X153070905Y-117713148D01*
X153159922Y-117737000D01*
X153252078Y-117737000D01*
X153341095Y-117713148D01*
X153420905Y-117667070D01*
X153486070Y-117601905D01*
X153532148Y-117522095D01*
X153556000Y-117433078D01*
X153556000Y-117386999D01*
X153559554Y-117386999D01*
X153559554Y-117387000D01*
X154213882Y-118041328D01*
X154213883Y-118041328D01*
X154232331Y-118015937D01*
X154318085Y-117847637D01*
X154376451Y-117668002D01*
X154406000Y-117481447D01*
X154406000Y-117298304D01*
X157385500Y-117298304D01*
X157385500Y-117475695D01*
X157420103Y-117649658D01*
X157420106Y-117649667D01*
X157487983Y-117813540D01*
X157487990Y-117813553D01*
X157586535Y-117961034D01*
X157586538Y-117961038D01*
X157711961Y-118086461D01*
X157711965Y-118086464D01*
X157859446Y-118185009D01*
X157859459Y-118185016D01*
X157982363Y-118235923D01*
X158023334Y-118252894D01*
X158023336Y-118252894D01*
X158023341Y-118252896D01*
X158197304Y-118287499D01*
X158197307Y-118287500D01*
X158197309Y-118287500D01*
X158374693Y-118287500D01*
X158374694Y-118287499D01*
X158432682Y-118275964D01*
X158548658Y-118252896D01*
X158548661Y-118252894D01*
X158548666Y-118252894D01*
X158712547Y-118185013D01*
X158860035Y-118086464D01*
X158985464Y-117961035D01*
X159084013Y-117813547D01*
X159087760Y-117804500D01*
X161544500Y-117804500D01*
X163046500Y-117804500D01*
X164044500Y-117804500D01*
X165546500Y-117804500D01*
X166544500Y-117804500D01*
X168046500Y-117804500D01*
X169044500Y-117804500D01*
X170546500Y-117804500D01*
X171544500Y-117804500D01*
X173046500Y-117804500D01*
X174044500Y-117804500D01*
X175546500Y-117804500D01*
X176544500Y-117804500D01*
X178046500Y-117804500D01*
X179044500Y-117804500D01*
X180546500Y-117804500D01*
X180546500Y-117083359D01*
X179044500Y-117083359D01*
X179044500Y-117804500D01*
X178046500Y-117804500D01*
X178046500Y-117083359D01*
X176544500Y-117083359D01*
X176544500Y-117804500D01*
X175546500Y-117804500D01*
X175546500Y-117083359D01*
X174044500Y-117083359D01*
X174044500Y-117804500D01*
X173046500Y-117804500D01*
X173046500Y-117083359D01*
X171544500Y-117083359D01*
X171544500Y-117804500D01*
X170546500Y-117804500D01*
X170546500Y-117083359D01*
X169044500Y-117083359D01*
X169044500Y-117804500D01*
X168046500Y-117804500D01*
X168046500Y-117083359D01*
X166544500Y-117083359D01*
X166544500Y-117804500D01*
X165546500Y-117804500D01*
X165546500Y-117083359D01*
X164044500Y-117083359D01*
X164044500Y-117804500D01*
X163046500Y-117804500D01*
X163046500Y-117083359D01*
X161544500Y-117083359D01*
X161544500Y-117804500D01*
X159087760Y-117804500D01*
X159151894Y-117649666D01*
X159152084Y-117648715D01*
X159186499Y-117475695D01*
X159186500Y-117475693D01*
X159186500Y-117298306D01*
X159186499Y-117298304D01*
X159151896Y-117124341D01*
X159151893Y-117124332D01*
X159084016Y-116960459D01*
X159084009Y-116960446D01*
X158985464Y-116812965D01*
X158985461Y-116812961D01*
X158860038Y-116687538D01*
X158860034Y-116687535D01*
X158712553Y-116588990D01*
X158712540Y-116588983D01*
X158548667Y-116521106D01*
X158548658Y-116521103D01*
X158374694Y-116486500D01*
X158374691Y-116486500D01*
X158197309Y-116486500D01*
X158197306Y-116486500D01*
X158023341Y-116521103D01*
X158023332Y-116521106D01*
X157859459Y-116588983D01*
X157859446Y-116588990D01*
X157711965Y-116687535D01*
X157711961Y-116687538D01*
X157586538Y-116812961D01*
X157586535Y-116812965D01*
X157487990Y-116960446D01*
X157487983Y-116960459D01*
X157420106Y-117124332D01*
X157420103Y-117124341D01*
X157385500Y-117298304D01*
X154406000Y-117298304D01*
X154406000Y-117292552D01*
X154376451Y-117105997D01*
X154318085Y-116926362D01*
X154232329Y-116758059D01*
X154213883Y-116732670D01*
X154213882Y-116732669D01*
X153559554Y-117386999D01*
X153556000Y-117386999D01*
X153556000Y-117340922D01*
X153532148Y-117251905D01*
X153486070Y-117172095D01*
X153420905Y-117106930D01*
X153341095Y-117060852D01*
X153252078Y-117037000D01*
X153159922Y-117037000D01*
X153070905Y-117060852D01*
X152991095Y-117106930D01*
X152925930Y-117172095D01*
X152879852Y-117251905D01*
X152856000Y-117340922D01*
X152806369Y-117340922D01*
X152198116Y-116732669D01*
X152198116Y-116732670D01*
X152179669Y-116758060D01*
X152093914Y-116926362D01*
X152035548Y-117105997D01*
X152006000Y-117292552D01*
X150546500Y-117292552D01*
X150546500Y-117083359D01*
X149044500Y-117083359D01*
X149044500Y-117778249D01*
X121296500Y-117778249D01*
X121296500Y-117768670D01*
X146544500Y-117768670D01*
X148046500Y-117774425D01*
X148046500Y-117083359D01*
X146544500Y-117083359D01*
X146544500Y-117768670D01*
X121296500Y-117768670D01*
X121296500Y-117759092D01*
X144044500Y-117759092D01*
X145546500Y-117764846D01*
X145546500Y-117083359D01*
X144044500Y-117083359D01*
X144044500Y-117759092D01*
X121296500Y-117759092D01*
X121296500Y-117749513D01*
X141544500Y-117749513D01*
X143046500Y-117755268D01*
X143046500Y-117083359D01*
X141544500Y-117083359D01*
X141544500Y-117749513D01*
X121296500Y-117749513D01*
X121296500Y-117739934D01*
X139044500Y-117739934D01*
X140546500Y-117745689D01*
X140546500Y-117083359D01*
X139044500Y-117083359D01*
X139044500Y-117739934D01*
X121296500Y-117739934D01*
X121296500Y-117730356D01*
X136544500Y-117730356D01*
X138046500Y-117736111D01*
X138046500Y-117083359D01*
X136544500Y-117083359D01*
X136544500Y-117730356D01*
X121296500Y-117730356D01*
X121296500Y-117720777D01*
X134044500Y-117720777D01*
X135546500Y-117726532D01*
X135546500Y-117083359D01*
X134044500Y-117083359D01*
X134044500Y-117720777D01*
X121296500Y-117720777D01*
X121296500Y-117711199D01*
X131544500Y-117711199D01*
X133046500Y-117716954D01*
X133046500Y-117083359D01*
X131544500Y-117083359D01*
X131544500Y-117711199D01*
X121296500Y-117711199D01*
X121296500Y-117701620D01*
X129044500Y-117701620D01*
X130546500Y-117707375D01*
X130546500Y-117083359D01*
X129044500Y-117083359D01*
X129044500Y-117701620D01*
X121296500Y-117701620D01*
X121296500Y-117692042D01*
X126544500Y-117692042D01*
X128046500Y-117697797D01*
X128046500Y-117083359D01*
X126544500Y-117083359D01*
X126544500Y-117692042D01*
X121296500Y-117692042D01*
X121296500Y-117682463D01*
X124044500Y-117682463D01*
X125546500Y-117688218D01*
X125546500Y-117083359D01*
X124044500Y-117083359D01*
X124044500Y-117682463D01*
X121296500Y-117682463D01*
X121296500Y-116379116D01*
X152551669Y-116379116D01*
X153206000Y-117033446D01*
X153206001Y-117033446D01*
X153860328Y-116379116D01*
X153834933Y-116360666D01*
X153666637Y-116274914D01*
X153487002Y-116216548D01*
X153300447Y-116187000D01*
X153111553Y-116187000D01*
X152924997Y-116216548D01*
X152745362Y-116274914D01*
X152577060Y-116360669D01*
X152551670Y-116379116D01*
X152551669Y-116379116D01*
X121296500Y-116379116D01*
X121296500Y-116085359D01*
X122294500Y-116085359D01*
X123046500Y-116085359D01*
X124044500Y-116085359D01*
X125546500Y-116085359D01*
X125546500Y-115717734D01*
X125470403Y-115678961D01*
X125466109Y-115676665D01*
X125440414Y-115662275D01*
X125436216Y-115659815D01*
X125402792Y-115639334D01*
X125398687Y-115636707D01*
X125374191Y-115620339D01*
X125370197Y-115617555D01*
X125128302Y-115441807D01*
X125124421Y-115438869D01*
X125101286Y-115420631D01*
X125097521Y-115417541D01*
X125067714Y-115392083D01*
X125064074Y-115388848D01*
X125042446Y-115368855D01*
X125038937Y-115365481D01*
X124827519Y-115154063D01*
X124824145Y-115150554D01*
X124804152Y-115128926D01*
X124800917Y-115125286D01*
X124775459Y-115095479D01*
X124772369Y-115091714D01*
X124754131Y-115068579D01*
X124751193Y-115064698D01*
X124575445Y-114822803D01*
X124572661Y-114818809D01*
X124556293Y-114794313D01*
X124553666Y-114790208D01*
X124533185Y-114756784D01*
X124530725Y-114752586D01*
X124516335Y-114726891D01*
X124514039Y-114722597D01*
X124443093Y-114583359D01*
X124044500Y-114583359D01*
X124044500Y-116085359D01*
X123046500Y-116085359D01*
X123046500Y-114583359D01*
X122294500Y-114583359D01*
X122294500Y-116085359D01*
X121296500Y-116085359D01*
X121296500Y-113585359D01*
X122294500Y-113585359D01*
X123046500Y-113585359D01*
X123046500Y-113257097D01*
X125155500Y-113257097D01*
X125155500Y-113516902D01*
X125196140Y-113773493D01*
X125276422Y-114020576D01*
X125357534Y-114179764D01*
X125381303Y-114226414D01*
X125394368Y-114252054D01*
X125512127Y-114414136D01*
X125547069Y-114462229D01*
X125730771Y-114645931D01*
X125940949Y-114798634D01*
X126082068Y-114870538D01*
X126172423Y-114916577D01*
X126172425Y-114916577D01*
X126172428Y-114916579D01*
X126419507Y-114996860D01*
X126551706Y-115017797D01*
X126676098Y-115037500D01*
X126676103Y-115037500D01*
X126935902Y-115037500D01*
X127050500Y-115019349D01*
X127192493Y-114996860D01*
X127439572Y-114916579D01*
X127646615Y-114811085D01*
X129044500Y-114811085D01*
X129044500Y-116085359D01*
X130546500Y-116085359D01*
X131544500Y-116085359D01*
X133046500Y-116085359D01*
X134044500Y-116085359D01*
X135546500Y-116085359D01*
X136544500Y-116085359D01*
X138046500Y-116085359D01*
X139044500Y-116085359D01*
X140546500Y-116085359D01*
X141544500Y-116085359D01*
X143046500Y-116085359D01*
X143046500Y-115826501D01*
X142995395Y-115809567D01*
X142988618Y-115807100D01*
X142948066Y-115790990D01*
X142941445Y-115788135D01*
X142888798Y-115763587D01*
X142882351Y-115760349D01*
X142843926Y-115739631D01*
X142837678Y-115736024D01*
X142671881Y-115633760D01*
X146544500Y-115633760D01*
X146544500Y-116085359D01*
X148046500Y-116085359D01*
X149044500Y-116085359D01*
X150546500Y-116085359D01*
X150546500Y-115945836D01*
X151544500Y-115945836D01*
X151560750Y-115931395D01*
X151682312Y-115863312D01*
X151750395Y-115741750D01*
X151785701Y-115702022D01*
X152006336Y-115541731D01*
X152010330Y-115538947D01*
X152034828Y-115522579D01*
X152038932Y-115519952D01*
X152072350Y-115499476D01*
X152076546Y-115497017D01*
X152102229Y-115482634D01*
X152106522Y-115480339D01*
X152309734Y-115376796D01*
X152314112Y-115374673D01*
X152340856Y-115362343D01*
X152345319Y-115360390D01*
X152381536Y-115345388D01*
X152386071Y-115343614D01*
X152413086Y-115333647D01*
X152383574Y-115321425D01*
X152379108Y-115319471D01*
X152367500Y-115314120D01*
X154044500Y-115314120D01*
X154044500Y-115351202D01*
X154066681Y-115360391D01*
X154071139Y-115362341D01*
X154097883Y-115374670D01*
X154102266Y-115376796D01*
X154305493Y-115480347D01*
X154309788Y-115482643D01*
X154335500Y-115497043D01*
X154339702Y-115499506D01*
X154373123Y-115519988D01*
X154377224Y-115522613D01*
X154401701Y-115538969D01*
X154405692Y-115541750D01*
X154626309Y-115702035D01*
X154661613Y-115741764D01*
X154729683Y-115863311D01*
X154851232Y-115931382D01*
X154890961Y-115966686D01*
X154977181Y-116085359D01*
X155546500Y-116085359D01*
X156544500Y-116085359D01*
X156902757Y-116085359D01*
X157023600Y-115964516D01*
X157028009Y-115960318D01*
X157055296Y-115935587D01*
X157059903Y-115931613D01*
X157097785Y-115900524D01*
X157102583Y-115896779D01*
X157132155Y-115874847D01*
X157137131Y-115871343D01*
X157325368Y-115745566D01*
X157330512Y-115742309D01*
X157362106Y-115723373D01*
X157367401Y-115720373D01*
X157410623Y-115697271D01*
X157416062Y-115694534D01*
X157449344Y-115678794D01*
X157454905Y-115676329D01*
X157664051Y-115589699D01*
X157669728Y-115587509D01*
X157704380Y-115575110D01*
X157710155Y-115573202D01*
X157757048Y-115558975D01*
X157762916Y-115557351D01*
X157798651Y-115548399D01*
X157804592Y-115547065D01*
X158026643Y-115502896D01*
X158032640Y-115501855D01*
X158046500Y-115499799D01*
X158046500Y-115274200D01*
X158032640Y-115272145D01*
X158026643Y-115271104D01*
X157804592Y-115226935D01*
X157798651Y-115225601D01*
X157762916Y-115216649D01*
X157757048Y-115215025D01*
X157710155Y-115200798D01*
X157704380Y-115198890D01*
X157669728Y-115186491D01*
X157664051Y-115184301D01*
X157527499Y-115127740D01*
X159044500Y-115127740D01*
X159044500Y-115646258D01*
X159117096Y-115676329D01*
X159122656Y-115678794D01*
X159155938Y-115694534D01*
X159161377Y-115697271D01*
X159204599Y-115720373D01*
X159209894Y-115723373D01*
X159241488Y-115742309D01*
X159246632Y-115745566D01*
X159434869Y-115871343D01*
X159439845Y-115874847D01*
X159469417Y-115896779D01*
X159474215Y-115900524D01*
X159512097Y-115931613D01*
X159516704Y-115935587D01*
X159543991Y-115960318D01*
X159548400Y-115964516D01*
X159669243Y-116085359D01*
X160546500Y-116085359D01*
X161544500Y-116085359D01*
X163046500Y-116085359D01*
X166629557Y-116085359D01*
X168046500Y-116085359D01*
X168046500Y-116063265D01*
X171544500Y-116063265D01*
X171544500Y-116085359D01*
X173046500Y-116085359D01*
X174044500Y-116085359D01*
X175546500Y-116085359D01*
X175546500Y-114951500D01*
X176544500Y-114951500D01*
X176544500Y-116085359D01*
X178046500Y-116085359D01*
X178046500Y-115051000D01*
X179044500Y-115051000D01*
X179044500Y-116085359D01*
X180546500Y-116085359D01*
X180546500Y-114583359D01*
X180287305Y-114583359D01*
X180109337Y-114712683D01*
X180105341Y-114715468D01*
X180080835Y-114731845D01*
X180076729Y-114734474D01*
X180043289Y-114754967D01*
X180039087Y-114757430D01*
X180013376Y-114771829D01*
X180009081Y-114774125D01*
X179819862Y-114870538D01*
X179815478Y-114872664D01*
X179788702Y-114885007D01*
X179784237Y-114886960D01*
X179748020Y-114901959D01*
X179743489Y-114903732D01*
X179715879Y-114913917D01*
X179711282Y-114915511D01*
X179509331Y-114981129D01*
X179504669Y-114982543D01*
X179476290Y-114990546D01*
X179471571Y-114991777D01*
X179433453Y-115000925D01*
X179428702Y-115001967D01*
X179399839Y-115007707D01*
X179395051Y-115008562D01*
X179185345Y-115041777D01*
X179180521Y-115042445D01*
X179151287Y-115045905D01*
X179146450Y-115046381D01*
X179107371Y-115049459D01*
X179102506Y-115049746D01*
X179073054Y-115050904D01*
X179068182Y-115051000D01*
X179044500Y-115051000D01*
X178046500Y-115051000D01*
X178046500Y-114841169D01*
X177989030Y-114811887D01*
X177939984Y-114833113D01*
X177932739Y-114835982D01*
X177888374Y-114851955D01*
X177880964Y-114854362D01*
X177668535Y-114916079D01*
X177662414Y-114917690D01*
X177625149Y-114926482D01*
X177618957Y-114927777D01*
X177568817Y-114936936D01*
X177562561Y-114937914D01*
X177524574Y-114942865D01*
X177518276Y-114943523D01*
X177438868Y-114949772D01*
X177434003Y-114950059D01*
X177399706Y-114951405D01*
X177394843Y-114951500D01*
X176544500Y-114951500D01*
X175546500Y-114951500D01*
X175546500Y-114583359D01*
X174044500Y-114583359D01*
X174044500Y-116085359D01*
X173046500Y-116085359D01*
X173046500Y-114583359D01*
X172489210Y-114583359D01*
X172487294Y-114602815D01*
X172486549Y-114608858D01*
X172481145Y-114645286D01*
X172480104Y-114651281D01*
X172434015Y-114882987D01*
X172432682Y-114888924D01*
X172423733Y-114924652D01*
X172422109Y-114930522D01*
X172407882Y-114977418D01*
X172405973Y-114983197D01*
X172393570Y-115017859D01*
X172391380Y-115023535D01*
X172300979Y-115241783D01*
X172298513Y-115247346D01*
X172282773Y-115280626D01*
X172280037Y-115286061D01*
X172256936Y-115329282D01*
X172253936Y-115334578D01*
X172235001Y-115366170D01*
X172231744Y-115371314D01*
X172100496Y-115567740D01*
X172096993Y-115572714D01*
X172075060Y-115602288D01*
X172071314Y-115607088D01*
X172040225Y-115644970D01*
X172036251Y-115649577D01*
X172011520Y-115676864D01*
X172007322Y-115681273D01*
X171840273Y-115848322D01*
X171835864Y-115852520D01*
X171808577Y-115877251D01*
X171803970Y-115881225D01*
X171766088Y-115912314D01*
X171761288Y-115916060D01*
X171731714Y-115937993D01*
X171726740Y-115941496D01*
X171544500Y-116063265D01*
X168046500Y-116063265D01*
X168046500Y-114583359D01*
X167609210Y-114583359D01*
X167607294Y-114602815D01*
X167606549Y-114608858D01*
X167601145Y-114645286D01*
X167600104Y-114651281D01*
X167554015Y-114882987D01*
X167552682Y-114888924D01*
X167543733Y-114924652D01*
X167542109Y-114930522D01*
X167527882Y-114977418D01*
X167525973Y-114983197D01*
X167513570Y-115017859D01*
X167511380Y-115023535D01*
X167420979Y-115241783D01*
X167418513Y-115247346D01*
X167402773Y-115280626D01*
X167400037Y-115286061D01*
X167376936Y-115329282D01*
X167373936Y-115334578D01*
X167355001Y-115366170D01*
X167351744Y-115371314D01*
X167220496Y-115567740D01*
X167216993Y-115572714D01*
X167195060Y-115602288D01*
X167191314Y-115607088D01*
X167160225Y-115644970D01*
X167156251Y-115649577D01*
X167131520Y-115676864D01*
X167127322Y-115681273D01*
X166960273Y-115848322D01*
X166955864Y-115852520D01*
X166928577Y-115877251D01*
X166923970Y-115881225D01*
X166886088Y-115912314D01*
X166881288Y-115916060D01*
X166851714Y-115937993D01*
X166846740Y-115941496D01*
X166650314Y-116072744D01*
X166645170Y-116076001D01*
X166629557Y-116085359D01*
X163046500Y-116085359D01*
X163046500Y-115576593D01*
X163042823Y-115574780D01*
X163035663Y-115570952D01*
X162904829Y-115495413D01*
X162897939Y-115491129D01*
X162857107Y-115463846D01*
X162850510Y-115459119D01*
X162798659Y-115419331D01*
X162792386Y-115414183D01*
X162755472Y-115381809D01*
X162749552Y-115376263D01*
X161956648Y-114583359D01*
X161544500Y-114583359D01*
X161544500Y-116085359D01*
X160546500Y-116085359D01*
X160546500Y-114583359D01*
X159765792Y-114583359D01*
X159741387Y-114613097D01*
X159737413Y-114617704D01*
X159712682Y-114644991D01*
X159708484Y-114649400D01*
X159548400Y-114809484D01*
X159543991Y-114813682D01*
X159516704Y-114838413D01*
X159512097Y-114842387D01*
X159474215Y-114873476D01*
X159469417Y-114877221D01*
X159439845Y-114899153D01*
X159434869Y-114902657D01*
X159246632Y-115028434D01*
X159241488Y-115031691D01*
X159209894Y-115050627D01*
X159204599Y-115053627D01*
X159161377Y-115076729D01*
X159155938Y-115079466D01*
X159122656Y-115095206D01*
X159117095Y-115097671D01*
X159044500Y-115127740D01*
X157527499Y-115127740D01*
X157454905Y-115097671D01*
X157449344Y-115095206D01*
X157416062Y-115079466D01*
X157410623Y-115076729D01*
X157367401Y-115053627D01*
X157362106Y-115050627D01*
X157330512Y-115031691D01*
X157325368Y-115028434D01*
X157137131Y-114902657D01*
X157132155Y-114899153D01*
X157102583Y-114877221D01*
X157097785Y-114873476D01*
X157059903Y-114842387D01*
X157055296Y-114838413D01*
X157028009Y-114813682D01*
X157023600Y-114809484D01*
X156863516Y-114649400D01*
X156859318Y-114644991D01*
X156834587Y-114617704D01*
X156830613Y-114613097D01*
X156806208Y-114583359D01*
X156544500Y-114583359D01*
X156544500Y-116085359D01*
X155546500Y-116085359D01*
X155546500Y-114583359D01*
X154930684Y-114583359D01*
X154841289Y-114706399D01*
X154838349Y-114710282D01*
X154820112Y-114733415D01*
X154817024Y-114737178D01*
X154791566Y-114766985D01*
X154788331Y-114770625D01*
X154768338Y-114792253D01*
X154764964Y-114795762D01*
X154614762Y-114945964D01*
X154611253Y-114949338D01*
X154589625Y-114969331D01*
X154585985Y-114972566D01*
X154556178Y-114998024D01*
X154552415Y-115001112D01*
X154529282Y-115019349D01*
X154525399Y-115022289D01*
X154353542Y-115147152D01*
X154349544Y-115149938D01*
X154325046Y-115166306D01*
X154320946Y-115168931D01*
X154287521Y-115189413D01*
X154283324Y-115191873D01*
X154257628Y-115206264D01*
X154253332Y-115208560D01*
X154064051Y-115305003D01*
X154059666Y-115307129D01*
X154044500Y-115314120D01*
X152367500Y-115314120D01*
X152352334Y-115307129D01*
X152347949Y-115305003D01*
X152158668Y-115208560D01*
X152154372Y-115206264D01*
X152128676Y-115191873D01*
X152124479Y-115189413D01*
X152091054Y-115168931D01*
X152086954Y-115166306D01*
X152062456Y-115149938D01*
X152058458Y-115147152D01*
X151886601Y-115022289D01*
X151882718Y-115019349D01*
X151859585Y-115001112D01*
X151855822Y-114998024D01*
X151826015Y-114972566D01*
X151822375Y-114969331D01*
X151800747Y-114949338D01*
X151797238Y-114945964D01*
X151647036Y-114795762D01*
X151643662Y-114792253D01*
X151623669Y-114770625D01*
X151620434Y-114766985D01*
X151594976Y-114737178D01*
X151591888Y-114733415D01*
X151573651Y-114710282D01*
X151570711Y-114706399D01*
X151544500Y-114670323D01*
X151544500Y-115945836D01*
X150546500Y-115945836D01*
X150546500Y-114583359D01*
X149044500Y-114583359D01*
X149044500Y-116085359D01*
X148046500Y-116085359D01*
X148046500Y-115122806D01*
X148032147Y-115137159D01*
X148027738Y-115141357D01*
X148000451Y-115166088D01*
X147995844Y-115170062D01*
X147957962Y-115201151D01*
X147953162Y-115204897D01*
X147923588Y-115226830D01*
X147918614Y-115230333D01*
X147713997Y-115367054D01*
X147708853Y-115370311D01*
X147677261Y-115389246D01*
X147671965Y-115392246D01*
X147628744Y-115415347D01*
X147623309Y-115418083D01*
X147590027Y-115433824D01*
X147584463Y-115436290D01*
X147357116Y-115530459D01*
X147351439Y-115532649D01*
X147316778Y-115545051D01*
X147311000Y-115546960D01*
X147264105Y-115561186D01*
X147258241Y-115562809D01*
X147222515Y-115571759D01*
X147216573Y-115573093D01*
X146975208Y-115621104D01*
X146969211Y-115622145D01*
X146932779Y-115627549D01*
X146926738Y-115628294D01*
X146877966Y-115633097D01*
X146871896Y-115633545D01*
X146835124Y-115635351D01*
X146829041Y-115635500D01*
X146582959Y-115635500D01*
X146576876Y-115635351D01*
X146544500Y-115633760D01*
X142671881Y-115633760D01*
X142639007Y-115613483D01*
X142632979Y-115609518D01*
X142597219Y-115584478D01*
X142591433Y-115580170D01*
X142545867Y-115544140D01*
X142540341Y-115539503D01*
X142507743Y-115510492D01*
X142502499Y-115505544D01*
X142337456Y-115340501D01*
X142332508Y-115335257D01*
X142303497Y-115302659D01*
X142298860Y-115297133D01*
X142262830Y-115251567D01*
X142258522Y-115245781D01*
X142233482Y-115210021D01*
X142229517Y-115203993D01*
X142106976Y-115005322D01*
X142103369Y-114999074D01*
X142082651Y-114960649D01*
X142079414Y-114954203D01*
X142054866Y-114901557D01*
X142052009Y-114894933D01*
X142035900Y-114854382D01*
X142033434Y-114847607D01*
X141960584Y-114627764D01*
X141958632Y-114621287D01*
X141948322Y-114583359D01*
X141544500Y-114583359D01*
X141544500Y-116085359D01*
X140546500Y-116085359D01*
X140546500Y-114583359D01*
X139044500Y-114583359D01*
X139044500Y-116085359D01*
X138046500Y-116085359D01*
X138046500Y-114583359D01*
X136544500Y-114583359D01*
X136544500Y-116085359D01*
X135546500Y-116085359D01*
X135546500Y-114583359D01*
X134044500Y-114583359D01*
X134044500Y-116085359D01*
X133046500Y-116085359D01*
X133046500Y-114583359D01*
X131544500Y-114583359D01*
X131544500Y-116085359D01*
X130546500Y-116085359D01*
X130546500Y-114583359D01*
X129168907Y-114583359D01*
X129097961Y-114722597D01*
X129095665Y-114726891D01*
X129081275Y-114752586D01*
X129078815Y-114756784D01*
X129058334Y-114790208D01*
X129055707Y-114794313D01*
X129044500Y-114811085D01*
X127646615Y-114811085D01*
X127671051Y-114798634D01*
X127881229Y-114645931D01*
X128064931Y-114462229D01*
X128217634Y-114252051D01*
X128335579Y-114020572D01*
X128415860Y-113773493D01*
X128445657Y-113585359D01*
X128456500Y-113516902D01*
X128456500Y-113314796D01*
X128476185Y-113247757D01*
X128528989Y-113202002D01*
X128598147Y-113192058D01*
X128612594Y-113195021D01*
X128834536Y-113254491D01*
X129081466Y-113287000D01*
X129330534Y-113287000D01*
X129577463Y-113254491D01*
X129818049Y-113190026D01*
X130035652Y-113099892D01*
X131544500Y-113099892D01*
X131544500Y-113585359D01*
X133046500Y-113585359D01*
X133046500Y-113392459D01*
X133033821Y-113382463D01*
X133030055Y-113379372D01*
X133000248Y-113353911D01*
X132996609Y-113350677D01*
X132975004Y-113330703D01*
X132971500Y-113327333D01*
X132867500Y-113223333D01*
X136544500Y-113223333D01*
X136544500Y-113585359D01*
X138046500Y-113585359D01*
X139044500Y-113585359D01*
X140546500Y-113585359D01*
X141544500Y-113585359D01*
X141908000Y-113585359D01*
X141908000Y-113037013D01*
X142906000Y-113037013D01*
X142906000Y-113387000D01*
X143890314Y-113387000D01*
X143885920Y-113391394D01*
X143833259Y-113482606D01*
X143806000Y-113584339D01*
X143806000Y-113689661D01*
X143833259Y-113791394D01*
X143885920Y-113882606D01*
X143890314Y-113887000D01*
X142906001Y-113887000D01*
X142906001Y-114236986D01*
X142916494Y-114339697D01*
X142971641Y-114506119D01*
X142971643Y-114506124D01*
X143063684Y-114655345D01*
X143187654Y-114779315D01*
X143336875Y-114871356D01*
X143336880Y-114871358D01*
X143503302Y-114926505D01*
X143503309Y-114926506D01*
X143606019Y-114936999D01*
X143955999Y-114936999D01*
X143956000Y-114936998D01*
X143956000Y-113952686D01*
X143960394Y-113957080D01*
X144051606Y-114009741D01*
X144153339Y-114037000D01*
X144258661Y-114037000D01*
X144360394Y-114009741D01*
X144451606Y-113957080D01*
X144456000Y-113952686D01*
X144456000Y-114936999D01*
X144805972Y-114936999D01*
X144805986Y-114936998D01*
X144908697Y-114926505D01*
X145075119Y-114871358D01*
X145075124Y-114871356D01*
X145224345Y-114779315D01*
X145348315Y-114655345D01*
X145440356Y-114506124D01*
X145440358Y-114506119D01*
X145495505Y-114339697D01*
X145495506Y-114339690D01*
X145505999Y-114236986D01*
X145505999Y-113977764D01*
X145525683Y-113910725D01*
X145578487Y-113864970D01*
X145647646Y-113855026D01*
X145711201Y-113884051D01*
X145744560Y-113930311D01*
X145819366Y-114110911D01*
X145819371Y-114110920D01*
X145928860Y-114274781D01*
X145928863Y-114274785D01*
X146068214Y-114414136D01*
X146068218Y-114414139D01*
X146232079Y-114523628D01*
X146232092Y-114523635D01*
X146414160Y-114599049D01*
X146414165Y-114599051D01*
X146414169Y-114599051D01*
X146414170Y-114599052D01*
X146607456Y-114637500D01*
X146607459Y-114637500D01*
X146804543Y-114637500D01*
X146978912Y-114602815D01*
X146997835Y-114599051D01*
X147179914Y-114523632D01*
X147343782Y-114414139D01*
X147483139Y-114274782D01*
X147592632Y-114110914D01*
X147668051Y-113928835D01*
X147690982Y-113813553D01*
X147706500Y-113735543D01*
X147706500Y-113585359D01*
X149044500Y-113585359D01*
X150546500Y-113585359D01*
X150546500Y-113300389D01*
X152105500Y-113300389D01*
X152105500Y-113473611D01*
X152105830Y-113475693D01*
X152123037Y-113584339D01*
X152132598Y-113644701D01*
X152186127Y-113809445D01*
X152264768Y-113963788D01*
X152366586Y-114103928D01*
X152489072Y-114226414D01*
X152629212Y-114328232D01*
X152783555Y-114406873D01*
X152948299Y-114460402D01*
X153119389Y-114487500D01*
X153119390Y-114487500D01*
X153292610Y-114487500D01*
X153292611Y-114487500D01*
X153463701Y-114460402D01*
X153628445Y-114406873D01*
X153782788Y-114328232D01*
X153922928Y-114226414D01*
X154045414Y-114103928D01*
X154147232Y-113963788D01*
X154225873Y-113809445D01*
X154279402Y-113644701D01*
X154306500Y-113473611D01*
X154306500Y-113300389D01*
X154279402Y-113129299D01*
X154225873Y-112964555D01*
X154147232Y-112810212D01*
X154045414Y-112670072D01*
X153922928Y-112547586D01*
X153782788Y-112445768D01*
X153628445Y-112367127D01*
X153463701Y-112313598D01*
X153463699Y-112313597D01*
X153463698Y-112313597D01*
X153313768Y-112289851D01*
X153292611Y-112286500D01*
X153119389Y-112286500D01*
X153098232Y-112289851D01*
X152948302Y-112313597D01*
X152902713Y-112328410D01*
X152799070Y-112362086D01*
X152783552Y-112367128D01*
X152629211Y-112445768D01*
X152573149Y-112486500D01*
X152489072Y-112547586D01*
X152489070Y-112547588D01*
X152489069Y-112547588D01*
X152366588Y-112670069D01*
X152366588Y-112670070D01*
X152366586Y-112670072D01*
X152334665Y-112714008D01*
X152264768Y-112810211D01*
X152186128Y-112964552D01*
X152132597Y-113129302D01*
X152108606Y-113280779D01*
X152105500Y-113300389D01*
X150546500Y-113300389D01*
X150546500Y-112083359D01*
X154852738Y-112083359D01*
X154966152Y-112239458D01*
X154968938Y-112243456D01*
X154985306Y-112267954D01*
X154987931Y-112272054D01*
X155008413Y-112305479D01*
X155010873Y-112309676D01*
X155025264Y-112335372D01*
X155027560Y-112339668D01*
X155124003Y-112528949D01*
X155126129Y-112533334D01*
X155138471Y-112560108D01*
X155140425Y-112564574D01*
X155155423Y-112600790D01*
X155157195Y-112605320D01*
X155167380Y-112632931D01*
X155168974Y-112637527D01*
X155234611Y-112839535D01*
X155236025Y-112844195D01*
X155244018Y-112872537D01*
X155245245Y-112877242D01*
X155254398Y-112915359D01*
X155255443Y-112920120D01*
X155261192Y-112949021D01*
X155262048Y-112953815D01*
X155295277Y-113163617D01*
X155295944Y-113168436D01*
X155299405Y-113197669D01*
X155299882Y-113202515D01*
X155302959Y-113241594D01*
X155303246Y-113246455D01*
X155304404Y-113275907D01*
X155304500Y-113280779D01*
X155304500Y-113493221D01*
X155304404Y-113498093D01*
X155303246Y-113527545D01*
X155302959Y-113532406D01*
X155299882Y-113571485D01*
X155299405Y-113576331D01*
X155298336Y-113585359D01*
X155546500Y-113585359D01*
X155546500Y-113298304D01*
X157385500Y-113298304D01*
X157385500Y-113475695D01*
X157420103Y-113649658D01*
X157420106Y-113649667D01*
X157487983Y-113813540D01*
X157487990Y-113813553D01*
X157586535Y-113961034D01*
X157586538Y-113961038D01*
X157711961Y-114086461D01*
X157711965Y-114086464D01*
X157859446Y-114185009D01*
X157859459Y-114185016D01*
X157959405Y-114226414D01*
X158023334Y-114252894D01*
X158023336Y-114252894D01*
X158023341Y-114252896D01*
X158197304Y-114287499D01*
X158197307Y-114287500D01*
X158197309Y-114287500D01*
X158374693Y-114287500D01*
X158374694Y-114287499D01*
X158438633Y-114274781D01*
X158548658Y-114252896D01*
X158548661Y-114252894D01*
X158548666Y-114252894D01*
X158712547Y-114185013D01*
X158860035Y-114086464D01*
X158985464Y-113961035D01*
X159084013Y-113813547D01*
X159151894Y-113649666D01*
X159152087Y-113648700D01*
X159182044Y-113498093D01*
X159186500Y-113475691D01*
X159186500Y-113298309D01*
X159186500Y-113298306D01*
X159186499Y-113298304D01*
X159151896Y-113124341D01*
X159151893Y-113124332D01*
X159084016Y-112960459D01*
X159084009Y-112960446D01*
X158985464Y-112812965D01*
X158985461Y-112812961D01*
X158860038Y-112687538D01*
X158860034Y-112687535D01*
X158712553Y-112588990D01*
X158712540Y-112588983D01*
X158548667Y-112521106D01*
X158548658Y-112521103D01*
X158374694Y-112486500D01*
X158374691Y-112486500D01*
X158197309Y-112486500D01*
X158197306Y-112486500D01*
X158023341Y-112521103D01*
X158023332Y-112521106D01*
X157859459Y-112588983D01*
X157859446Y-112588990D01*
X157711965Y-112687535D01*
X157711961Y-112687538D01*
X157586538Y-112812961D01*
X157586535Y-112812965D01*
X157487990Y-112960446D01*
X157487983Y-112960459D01*
X157420106Y-113124332D01*
X157420103Y-113124341D01*
X157385500Y-113298304D01*
X155546500Y-113298304D01*
X155546500Y-112083359D01*
X154852738Y-112083359D01*
X150546500Y-112083359D01*
X149044500Y-112083359D01*
X149044500Y-113585359D01*
X147706500Y-113585359D01*
X147706500Y-113538456D01*
X147668052Y-113345170D01*
X147668051Y-113345169D01*
X147668051Y-113345165D01*
X147647784Y-113296236D01*
X147592635Y-113163092D01*
X147592628Y-113163079D01*
X147483139Y-112999218D01*
X147483136Y-112999214D01*
X147343785Y-112859863D01*
X147343781Y-112859860D01*
X147179920Y-112750371D01*
X147179907Y-112750364D01*
X146997839Y-112674950D01*
X146997829Y-112674947D01*
X146804543Y-112636500D01*
X146804541Y-112636500D01*
X146607459Y-112636500D01*
X146607457Y-112636500D01*
X146414170Y-112674947D01*
X146414160Y-112674950D01*
X146232092Y-112750364D01*
X146232079Y-112750371D01*
X146068218Y-112859860D01*
X146068214Y-112859863D01*
X145928863Y-112999214D01*
X145928860Y-112999218D01*
X145819371Y-113163079D01*
X145819366Y-113163088D01*
X145744560Y-113343689D01*
X145700719Y-113398092D01*
X145634425Y-113420157D01*
X145566726Y-113402878D01*
X145519115Y-113351741D01*
X145505999Y-113296236D01*
X145505999Y-113037028D01*
X145505998Y-113037012D01*
X145495505Y-112934302D01*
X145440358Y-112767880D01*
X145440354Y-112767872D01*
X145348315Y-112618654D01*
X145224345Y-112494684D01*
X145075124Y-112402643D01*
X145075119Y-112402641D01*
X144908697Y-112347494D01*
X144908690Y-112347493D01*
X144805986Y-112337000D01*
X144456000Y-112337000D01*
X144456000Y-113321314D01*
X144451606Y-113316920D01*
X144360394Y-113264259D01*
X144258661Y-113237000D01*
X144153339Y-113237000D01*
X144051606Y-113264259D01*
X143960394Y-113316920D01*
X143956000Y-113321314D01*
X143956000Y-112337000D01*
X143606028Y-112337000D01*
X143606012Y-112337001D01*
X143503302Y-112347494D01*
X143336880Y-112402641D01*
X143336875Y-112402643D01*
X143187654Y-112494684D01*
X143063684Y-112618654D01*
X142971646Y-112767872D01*
X142971641Y-112767880D01*
X142916494Y-112934302D01*
X142916493Y-112934309D01*
X142906000Y-113037013D01*
X141908000Y-113037013D01*
X141908000Y-113024326D01*
X141908040Y-113021174D01*
X141908525Y-113002103D01*
X141908645Y-112998949D01*
X141909937Y-112973578D01*
X141910138Y-112970427D01*
X141911595Y-112951378D01*
X141911876Y-112948232D01*
X141926430Y-112805776D01*
X141927301Y-112799067D01*
X141933676Y-112758633D01*
X141934912Y-112751982D01*
X141946314Y-112698733D01*
X141947908Y-112692165D01*
X141958638Y-112652697D01*
X141960589Y-112646224D01*
X142033433Y-112426395D01*
X142035900Y-112419618D01*
X142052010Y-112379066D01*
X142054865Y-112372445D01*
X142079413Y-112319798D01*
X142082651Y-112313351D01*
X142103369Y-112274926D01*
X142106976Y-112268678D01*
X142221281Y-112083359D01*
X141544500Y-112083359D01*
X141544500Y-113585359D01*
X140546500Y-113585359D01*
X140546500Y-112083359D01*
X139044500Y-112083359D01*
X139044500Y-113585359D01*
X138046500Y-113585359D01*
X138046500Y-112083359D01*
X137211964Y-112083359D01*
X137132341Y-112328410D01*
X137130748Y-112333004D01*
X137120564Y-112360613D01*
X137118791Y-112365144D01*
X137103793Y-112401360D01*
X137101838Y-112405828D01*
X137089495Y-112432603D01*
X137087370Y-112436986D01*
X136955197Y-112696390D01*
X136952902Y-112700683D01*
X136938512Y-112726379D01*
X136936050Y-112730579D01*
X136915569Y-112764002D01*
X136912945Y-112768103D01*
X136896578Y-112792599D01*
X136893792Y-112796595D01*
X136722663Y-113032134D01*
X136719721Y-113036021D01*
X136701463Y-113059179D01*
X136698372Y-113062945D01*
X136672911Y-113092752D01*
X136669677Y-113096391D01*
X136649703Y-113117996D01*
X136646333Y-113121500D01*
X136544500Y-113223333D01*
X132867500Y-113223333D01*
X132765667Y-113121500D01*
X132762297Y-113117996D01*
X132742323Y-113096391D01*
X132739089Y-113092752D01*
X132713628Y-113062945D01*
X132710537Y-113059179D01*
X132692279Y-113036021D01*
X132689337Y-113032134D01*
X132518208Y-112796595D01*
X132515422Y-112792599D01*
X132499055Y-112768103D01*
X132496431Y-112764002D01*
X132475950Y-112730579D01*
X132473488Y-112726379D01*
X132459098Y-112700683D01*
X132456803Y-112696390D01*
X132324630Y-112436986D01*
X132322505Y-112432603D01*
X132310162Y-112405828D01*
X132308207Y-112401360D01*
X132293209Y-112365144D01*
X132291436Y-112360613D01*
X132281252Y-112333004D01*
X132279659Y-112328410D01*
X132200036Y-112083359D01*
X132019641Y-112083359D01*
X131968797Y-112273114D01*
X131967683Y-112277014D01*
X131960563Y-112300487D01*
X131959323Y-112304348D01*
X131948825Y-112335278D01*
X131947458Y-112339098D01*
X131938807Y-112362086D01*
X131937314Y-112365865D01*
X131829498Y-112626157D01*
X131827884Y-112629880D01*
X131817755Y-112652235D01*
X131816022Y-112655899D01*
X131801575Y-112685197D01*
X131799719Y-112688811D01*
X131788146Y-112710462D01*
X131786175Y-112714008D01*
X131645316Y-112957981D01*
X131643231Y-112961459D01*
X131630288Y-112982274D01*
X131628097Y-112985674D01*
X131609952Y-113012837D01*
X131607634Y-113016187D01*
X131593315Y-113036169D01*
X131590897Y-113039428D01*
X131544500Y-113099892D01*
X130035652Y-113099892D01*
X130048148Y-113094716D01*
X130048159Y-113094711D01*
X130263855Y-112970178D01*
X130361045Y-112895600D01*
X130361045Y-112895597D01*
X129715020Y-112249573D01*
X129843463Y-112163751D01*
X129982751Y-112024463D01*
X130068573Y-111896021D01*
X130714597Y-112542045D01*
X130714600Y-112542045D01*
X130789178Y-112444855D01*
X130913711Y-112229159D01*
X130913716Y-112229148D01*
X131009026Y-111999049D01*
X131073491Y-111758463D01*
X131106000Y-111511533D01*
X131106000Y-111262466D01*
X131105812Y-111261038D01*
X133105500Y-111261038D01*
X133105500Y-111512962D01*
X133106172Y-111517202D01*
X133144910Y-111761785D01*
X133222760Y-112001383D01*
X133278556Y-112110887D01*
X133335718Y-112223074D01*
X133337132Y-112225848D01*
X133485201Y-112429649D01*
X133485205Y-112429654D01*
X133663345Y-112607794D01*
X133663350Y-112607798D01*
X133787502Y-112697999D01*
X133867155Y-112755870D01*
X134010184Y-112828747D01*
X134091616Y-112870239D01*
X134091618Y-112870239D01*
X134091621Y-112870241D01*
X134331215Y-112948090D01*
X134580038Y-112987500D01*
X134580039Y-112987500D01*
X134831961Y-112987500D01*
X134831962Y-112987500D01*
X135080785Y-112948090D01*
X135320379Y-112870241D01*
X135544845Y-112755870D01*
X135748656Y-112607793D01*
X135926793Y-112429656D01*
X136074870Y-112225845D01*
X136189241Y-112001379D01*
X136229430Y-111877691D01*
X160731500Y-111877691D01*
X160731500Y-111996309D01*
X160762201Y-112110886D01*
X160821511Y-112213613D01*
X160905387Y-112297489D01*
X161008114Y-112356799D01*
X161122691Y-112387500D01*
X161122694Y-112387500D01*
X161130751Y-112388561D01*
X161130515Y-112390349D01*
X161187850Y-112407185D01*
X161208492Y-112423819D01*
X163432138Y-114647465D01*
X163506361Y-114690318D01*
X163589147Y-114712500D01*
X164689158Y-114712500D01*
X164756197Y-114732185D01*
X164801952Y-114784989D01*
X164803719Y-114789047D01*
X164823676Y-114837227D01*
X164823681Y-114837237D01*
X164927697Y-114992907D01*
X164927700Y-114992911D01*
X165060088Y-115125299D01*
X165060092Y-115125302D01*
X165215762Y-115229318D01*
X165215771Y-115229323D01*
X165245852Y-115241783D01*
X165388749Y-115300973D01*
X165531069Y-115329282D01*
X165572379Y-115337499D01*
X165572383Y-115337500D01*
X165572384Y-115337500D01*
X165759617Y-115337500D01*
X165759618Y-115337499D01*
X165943251Y-115300973D01*
X166116231Y-115229322D01*
X166271908Y-115125302D01*
X166404302Y-114992908D01*
X166508322Y-114837231D01*
X166579973Y-114664251D01*
X166616500Y-114480616D01*
X166616500Y-114293384D01*
X166616499Y-114293379D01*
X169595500Y-114293379D01*
X169595500Y-114480620D01*
X169632025Y-114664243D01*
X169632027Y-114664251D01*
X169703676Y-114837228D01*
X169703681Y-114837237D01*
X169807697Y-114992907D01*
X169807700Y-114992911D01*
X169940088Y-115125299D01*
X169940092Y-115125302D01*
X170095762Y-115229318D01*
X170095771Y-115229323D01*
X170125852Y-115241783D01*
X170268749Y-115300973D01*
X170411069Y-115329282D01*
X170452379Y-115337499D01*
X170452383Y-115337500D01*
X170452384Y-115337500D01*
X170639617Y-115337500D01*
X170639618Y-115337499D01*
X170823251Y-115300973D01*
X170996231Y-115229322D01*
X171151908Y-115125302D01*
X171284302Y-114992908D01*
X171388322Y-114837231D01*
X171459973Y-114664251D01*
X171496500Y-114480616D01*
X171496500Y-114293384D01*
X171459973Y-114109749D01*
X171388322Y-113936769D01*
X171388321Y-113936768D01*
X171388318Y-113936762D01*
X171284302Y-113781092D01*
X171284299Y-113781088D01*
X171151911Y-113648700D01*
X171151907Y-113648697D01*
X170996237Y-113544681D01*
X170996228Y-113544676D01*
X170823251Y-113473027D01*
X170823243Y-113473025D01*
X170639620Y-113436500D01*
X170639616Y-113436500D01*
X170452384Y-113436500D01*
X170452379Y-113436500D01*
X170268756Y-113473025D01*
X170268748Y-113473027D01*
X170095771Y-113544676D01*
X170095762Y-113544681D01*
X169940092Y-113648697D01*
X169940088Y-113648700D01*
X169807700Y-113781088D01*
X169807697Y-113781092D01*
X169703681Y-113936762D01*
X169703676Y-113936771D01*
X169632027Y-114109748D01*
X169632025Y-114109756D01*
X169595500Y-114293379D01*
X166616499Y-114293379D01*
X166579973Y-114109749D01*
X166508322Y-113936769D01*
X166508321Y-113936768D01*
X166508318Y-113936762D01*
X166404302Y-113781092D01*
X166404299Y-113781088D01*
X166271911Y-113648700D01*
X166271907Y-113648697D01*
X166116237Y-113544681D01*
X166116228Y-113544676D01*
X165943251Y-113473027D01*
X165943243Y-113473025D01*
X165759620Y-113436500D01*
X165759616Y-113436500D01*
X165572384Y-113436500D01*
X165572379Y-113436500D01*
X165388756Y-113473025D01*
X165388748Y-113473027D01*
X165215771Y-113544676D01*
X165215762Y-113544681D01*
X165060092Y-113648697D01*
X165060088Y-113648700D01*
X164927700Y-113781088D01*
X164927697Y-113781092D01*
X164823681Y-113936762D01*
X164823676Y-113936772D01*
X164803719Y-113984953D01*
X164759877Y-114039357D01*
X164693583Y-114061421D01*
X164689158Y-114061500D01*
X163818189Y-114061500D01*
X163751150Y-114041815D01*
X163730508Y-114025181D01*
X162633116Y-112927789D01*
X164044500Y-112927789D01*
X164180211Y-113063500D01*
X164233905Y-113063500D01*
X164371727Y-112925678D01*
X164376136Y-112921480D01*
X164403423Y-112896749D01*
X164408030Y-112892775D01*
X164445912Y-112861686D01*
X164450712Y-112857940D01*
X164480286Y-112836007D01*
X164485260Y-112832504D01*
X164681686Y-112701256D01*
X164686830Y-112697999D01*
X164718422Y-112679064D01*
X164723718Y-112676064D01*
X164766939Y-112652963D01*
X164772374Y-112650227D01*
X164787500Y-112643073D01*
X166544500Y-112643073D01*
X166559626Y-112650227D01*
X166565061Y-112652963D01*
X166608282Y-112676064D01*
X166613578Y-112679064D01*
X166645170Y-112697999D01*
X166650314Y-112701256D01*
X166846740Y-112832504D01*
X166851714Y-112836007D01*
X166881288Y-112857940D01*
X166886088Y-112861686D01*
X166923970Y-112892775D01*
X166928577Y-112896749D01*
X166955864Y-112921480D01*
X166960273Y-112925678D01*
X167127322Y-113092727D01*
X167131520Y-113097136D01*
X167156251Y-113124423D01*
X167160225Y-113129030D01*
X167191314Y-113166912D01*
X167195060Y-113171712D01*
X167216993Y-113201286D01*
X167220496Y-113206260D01*
X167351744Y-113402686D01*
X167355001Y-113407830D01*
X167373936Y-113439422D01*
X167376936Y-113444718D01*
X167400037Y-113487939D01*
X167402773Y-113493374D01*
X167418513Y-113526654D01*
X167420979Y-113532217D01*
X167442991Y-113585359D01*
X168046500Y-113585359D01*
X168046500Y-112710734D01*
X171544500Y-112710734D01*
X171726740Y-112832504D01*
X171731714Y-112836007D01*
X171761288Y-112857940D01*
X171766088Y-112861686D01*
X171803970Y-112892775D01*
X171808577Y-112896749D01*
X171835864Y-112921480D01*
X171840273Y-112925678D01*
X172007322Y-113092727D01*
X172011520Y-113097136D01*
X172036251Y-113124423D01*
X172040225Y-113129030D01*
X172071314Y-113166912D01*
X172075060Y-113171712D01*
X172096993Y-113201286D01*
X172100496Y-113206260D01*
X172231744Y-113402686D01*
X172235001Y-113407830D01*
X172253936Y-113439422D01*
X172256936Y-113444718D01*
X172280037Y-113487939D01*
X172282773Y-113493374D01*
X172298513Y-113526654D01*
X172300979Y-113532217D01*
X172322991Y-113585359D01*
X173046500Y-113585359D01*
X174044500Y-113585359D01*
X174982730Y-113585359D01*
X174978064Y-113559817D01*
X174977086Y-113553561D01*
X174972135Y-113515574D01*
X174971477Y-113509276D01*
X174965228Y-113429868D01*
X174964941Y-113425003D01*
X174963595Y-113390706D01*
X174963500Y-113385843D01*
X174963500Y-112537298D01*
X175961500Y-112537298D01*
X175961500Y-113368701D01*
X175964401Y-113405567D01*
X175964402Y-113405573D01*
X176010254Y-113563393D01*
X176010255Y-113563396D01*
X176010256Y-113563398D01*
X176023244Y-113585359D01*
X176061274Y-113649666D01*
X176093918Y-113704864D01*
X176093923Y-113704870D01*
X176210129Y-113821076D01*
X176210133Y-113821079D01*
X176210135Y-113821081D01*
X176351602Y-113904744D01*
X176372189Y-113910725D01*
X176509426Y-113950597D01*
X176509429Y-113950597D01*
X176509431Y-113950598D01*
X176546306Y-113953500D01*
X176546314Y-113953500D01*
X177377686Y-113953500D01*
X177377694Y-113953500D01*
X177414569Y-113950598D01*
X177414571Y-113950597D01*
X177414573Y-113950597D01*
X177462192Y-113936762D01*
X177572398Y-113904744D01*
X177598531Y-113889289D01*
X178379261Y-113889289D01*
X178379262Y-113889290D01*
X178385471Y-113893801D01*
X178539742Y-113972408D01*
X178704415Y-114025914D01*
X178875429Y-114053000D01*
X179048571Y-114053000D01*
X179219584Y-114025914D01*
X179384257Y-113972408D01*
X179538525Y-113893803D01*
X179544736Y-113889289D01*
X179544737Y-113889289D01*
X179240807Y-113585359D01*
X181544500Y-113585359D01*
X183046500Y-113585359D01*
X184044500Y-113585359D01*
X185546500Y-113585359D01*
X185546500Y-112083359D01*
X184044500Y-112083359D01*
X184044500Y-113585359D01*
X183046500Y-113585359D01*
X183046500Y-112083359D01*
X181544500Y-112083359D01*
X181544500Y-113585359D01*
X179240807Y-113585359D01*
X178962001Y-113306553D01*
X178962000Y-113306553D01*
X178379261Y-113889289D01*
X177598531Y-113889289D01*
X177713865Y-113821081D01*
X177830081Y-113704865D01*
X177894990Y-113595108D01*
X177946056Y-113547428D01*
X178011452Y-113534614D01*
X178025710Y-113535736D01*
X178608446Y-112953001D01*
X178608446Y-112952999D01*
X178568951Y-112913504D01*
X178662000Y-112913504D01*
X178662000Y-112992496D01*
X178682444Y-113068796D01*
X178721940Y-113137205D01*
X178777795Y-113193060D01*
X178846204Y-113232556D01*
X178922504Y-113253000D01*
X179001496Y-113253000D01*
X179077796Y-113232556D01*
X179146205Y-113193060D01*
X179202060Y-113137205D01*
X179241556Y-113068796D01*
X179262000Y-112992496D01*
X179262000Y-112952999D01*
X179315553Y-112952999D01*
X179315553Y-112953000D01*
X179898289Y-113535736D01*
X179902803Y-113529525D01*
X179981408Y-113375257D01*
X180034914Y-113210584D01*
X180062000Y-113039571D01*
X180062000Y-112866428D01*
X180034914Y-112695415D01*
X179981408Y-112530742D01*
X179902801Y-112376471D01*
X179898290Y-112370262D01*
X179898289Y-112370261D01*
X179315553Y-112952999D01*
X179262000Y-112952999D01*
X179262000Y-112913504D01*
X179241556Y-112837204D01*
X179202060Y-112768795D01*
X179146205Y-112712940D01*
X179077796Y-112673444D01*
X179001496Y-112653000D01*
X178922504Y-112653000D01*
X178846204Y-112673444D01*
X178777795Y-112712940D01*
X178721940Y-112768795D01*
X178682444Y-112837204D01*
X178662000Y-112913504D01*
X178568951Y-112913504D01*
X178025709Y-112370261D01*
X178011456Y-112371384D01*
X177943078Y-112357024D01*
X177894988Y-112310887D01*
X177830085Y-112201141D01*
X177830076Y-112201129D01*
X177713870Y-112084923D01*
X177713862Y-112084917D01*
X177598526Y-112016708D01*
X178379261Y-112016708D01*
X178379261Y-112016709D01*
X178962000Y-112599446D01*
X178962001Y-112599446D01*
X179544737Y-112016709D01*
X179538525Y-112012196D01*
X179384259Y-111933592D01*
X179219584Y-111880085D01*
X179048571Y-111853000D01*
X178875429Y-111853000D01*
X178704415Y-111880085D01*
X178539740Y-111933592D01*
X178385480Y-112012193D01*
X178385463Y-112012203D01*
X178379261Y-112016708D01*
X177598526Y-112016708D01*
X177590908Y-112012203D01*
X177572398Y-112001256D01*
X177572397Y-112001255D01*
X177572396Y-112001255D01*
X177572393Y-112001254D01*
X177414573Y-111955402D01*
X177414567Y-111955401D01*
X177377701Y-111952500D01*
X177377694Y-111952500D01*
X176546306Y-111952500D01*
X176546298Y-111952500D01*
X176509432Y-111955401D01*
X176509426Y-111955402D01*
X176351606Y-112001254D01*
X176351603Y-112001255D01*
X176210137Y-112084917D01*
X176210129Y-112084923D01*
X176093923Y-112201129D01*
X176093917Y-112201137D01*
X176010255Y-112342603D01*
X176010254Y-112342606D01*
X175964402Y-112500426D01*
X175964401Y-112500432D01*
X175961500Y-112537298D01*
X174963500Y-112537298D01*
X174963500Y-112520157D01*
X174963595Y-112515294D01*
X174964941Y-112480997D01*
X174965228Y-112476132D01*
X174971477Y-112396724D01*
X174972135Y-112390426D01*
X174977086Y-112352439D01*
X174978064Y-112346183D01*
X174987223Y-112296043D01*
X174988518Y-112289851D01*
X174997310Y-112252586D01*
X174998921Y-112246465D01*
X175046308Y-112083359D01*
X174044500Y-112083359D01*
X174044500Y-113585359D01*
X173046500Y-113585359D01*
X173046500Y-112083359D01*
X171544500Y-112083359D01*
X171544500Y-112710734D01*
X168046500Y-112710734D01*
X168046500Y-112465500D01*
X166544500Y-112465500D01*
X166544500Y-112643073D01*
X164787500Y-112643073D01*
X164805654Y-112634487D01*
X164811217Y-112632021D01*
X165029465Y-112541620D01*
X165035141Y-112539430D01*
X165069803Y-112527027D01*
X165075582Y-112525118D01*
X165122478Y-112510891D01*
X165128348Y-112509267D01*
X165164076Y-112500318D01*
X165170013Y-112498985D01*
X165349703Y-112463242D01*
X165347733Y-112463097D01*
X165298961Y-112458294D01*
X165292920Y-112457549D01*
X165256489Y-112452145D01*
X165250492Y-112451104D01*
X165047765Y-112410779D01*
X165041823Y-112409445D01*
X165006097Y-112400495D01*
X165000233Y-112398872D01*
X164953338Y-112384646D01*
X164947560Y-112382737D01*
X164912899Y-112370335D01*
X164907222Y-112368145D01*
X164716272Y-112289052D01*
X164710708Y-112286586D01*
X164677426Y-112270845D01*
X164671991Y-112268109D01*
X164628770Y-112245008D01*
X164623475Y-112242009D01*
X164591882Y-112223074D01*
X164586737Y-112219816D01*
X164414878Y-112104983D01*
X164409902Y-112101478D01*
X164385472Y-112083359D01*
X164044500Y-112083359D01*
X164044500Y-112927789D01*
X162633116Y-112927789D01*
X161668819Y-111963492D01*
X161635334Y-111902169D01*
X161633568Y-111885749D01*
X161633561Y-111885751D01*
X161632500Y-111877694D01*
X161632500Y-111877693D01*
X161632500Y-111877691D01*
X161601799Y-111763114D01*
X161542489Y-111660387D01*
X161458613Y-111576511D01*
X161355886Y-111517201D01*
X161241309Y-111486500D01*
X161122691Y-111486500D01*
X161008114Y-111517201D01*
X161008112Y-111517201D01*
X161008112Y-111517202D01*
X160905387Y-111576511D01*
X160905384Y-111576513D01*
X160821513Y-111660384D01*
X160821511Y-111660387D01*
X160762201Y-111763114D01*
X160731500Y-111877691D01*
X136229430Y-111877691D01*
X136267090Y-111761785D01*
X136306500Y-111512962D01*
X136306500Y-111261038D01*
X136267090Y-111012215D01*
X136189241Y-110772621D01*
X136189239Y-110772618D01*
X136189239Y-110772616D01*
X136124210Y-110644991D01*
X136074870Y-110548155D01*
X136020640Y-110473513D01*
X135926798Y-110344350D01*
X135926794Y-110344345D01*
X135748654Y-110166205D01*
X135748649Y-110166201D01*
X135544848Y-110018132D01*
X135544847Y-110018131D01*
X135544845Y-110018130D01*
X135426060Y-109957606D01*
X135320383Y-109903760D01*
X135080785Y-109825910D01*
X135054198Y-109821699D01*
X134831962Y-109786500D01*
X134580038Y-109786500D01*
X134476291Y-109802932D01*
X134331214Y-109825910D01*
X134091616Y-109903760D01*
X133867151Y-110018132D01*
X133663350Y-110166201D01*
X133663345Y-110166205D01*
X133485205Y-110344345D01*
X133485201Y-110344350D01*
X133337132Y-110548151D01*
X133222760Y-110772616D01*
X133144910Y-111012214D01*
X133133325Y-111085359D01*
X133105500Y-111261038D01*
X131105812Y-111261038D01*
X131073491Y-111015536D01*
X131009026Y-110774950D01*
X130913716Y-110544851D01*
X130913711Y-110544840D01*
X130789186Y-110329158D01*
X130789180Y-110329150D01*
X130714598Y-110231953D01*
X130068573Y-110877978D01*
X129982751Y-110749537D01*
X129843463Y-110610249D01*
X129715019Y-110524425D01*
X130361045Y-109878400D01*
X130263849Y-109803819D01*
X130263841Y-109803813D01*
X130048159Y-109679288D01*
X130048148Y-109679283D01*
X130035645Y-109674104D01*
X131544500Y-109674104D01*
X131590893Y-109734565D01*
X131593313Y-109737829D01*
X131607615Y-109757789D01*
X131609921Y-109761121D01*
X131628068Y-109788280D01*
X131630268Y-109791692D01*
X131643225Y-109812529D01*
X131645310Y-109816008D01*
X131786175Y-110059992D01*
X131788146Y-110063538D01*
X131799719Y-110085189D01*
X131801575Y-110088803D01*
X131816022Y-110118101D01*
X131817755Y-110121765D01*
X131827884Y-110144120D01*
X131829498Y-110147843D01*
X131937314Y-110408135D01*
X131938807Y-110411914D01*
X131947458Y-110434902D01*
X131948825Y-110438722D01*
X131959323Y-110469652D01*
X131960563Y-110473513D01*
X131967683Y-110496986D01*
X131968797Y-110500886D01*
X132041711Y-110773006D01*
X132042696Y-110776938D01*
X132048270Y-110800840D01*
X132049127Y-110804809D01*
X132055500Y-110836847D01*
X132056227Y-110840839D01*
X132060226Y-110865060D01*
X132060821Y-110869075D01*
X132089295Y-111085359D01*
X132122885Y-111085359D01*
X132162262Y-110836748D01*
X132163117Y-110831960D01*
X132168857Y-110803097D01*
X132169899Y-110798346D01*
X132179047Y-110760228D01*
X132180278Y-110755509D01*
X132188281Y-110727130D01*
X132189695Y-110722467D01*
X132279659Y-110445590D01*
X132281252Y-110440996D01*
X132291436Y-110413387D01*
X132293209Y-110408856D01*
X132308207Y-110372640D01*
X132310162Y-110368172D01*
X132322505Y-110341397D01*
X132324630Y-110337014D01*
X132456803Y-110077610D01*
X132459098Y-110073317D01*
X132473488Y-110047621D01*
X132475950Y-110043421D01*
X132496431Y-110009998D01*
X132499055Y-110005897D01*
X132515422Y-109981401D01*
X132518208Y-109977405D01*
X132689337Y-109741866D01*
X132692279Y-109737979D01*
X132710537Y-109714821D01*
X132713628Y-109711055D01*
X132739089Y-109681248D01*
X132742323Y-109677609D01*
X132762297Y-109656004D01*
X132765667Y-109652500D01*
X132834808Y-109583359D01*
X136577192Y-109583359D01*
X136646333Y-109652500D01*
X136649703Y-109656004D01*
X136669677Y-109677609D01*
X136672911Y-109681248D01*
X136698372Y-109711055D01*
X136701463Y-109714821D01*
X136719721Y-109737979D01*
X136722663Y-109741866D01*
X136893792Y-109977405D01*
X136896578Y-109981401D01*
X136912945Y-110005897D01*
X136915569Y-110009998D01*
X136936050Y-110043421D01*
X136938512Y-110047621D01*
X136952902Y-110073317D01*
X136955197Y-110077610D01*
X137087370Y-110337014D01*
X137089495Y-110341397D01*
X137101838Y-110368172D01*
X137103793Y-110372640D01*
X137118791Y-110408856D01*
X137120564Y-110413387D01*
X137130748Y-110440996D01*
X137132341Y-110445590D01*
X137222305Y-110722467D01*
X137223719Y-110727130D01*
X137231722Y-110755509D01*
X137232953Y-110760228D01*
X137242101Y-110798346D01*
X137243143Y-110803097D01*
X137248883Y-110831960D01*
X137249738Y-110836748D01*
X137289115Y-111085359D01*
X138046500Y-111085359D01*
X139044500Y-111085359D01*
X140546500Y-111085359D01*
X141544500Y-111085359D01*
X143046500Y-111085359D01*
X144044500Y-111085359D01*
X145546500Y-111085359D01*
X146544500Y-111085359D01*
X148046500Y-111085359D01*
X149044500Y-111085359D01*
X150546500Y-111085359D01*
X154169557Y-111085359D01*
X155546500Y-111085359D01*
X159143477Y-111085359D01*
X160005128Y-111085359D01*
X160005130Y-111085356D01*
X160009857Y-111078759D01*
X160049645Y-111026908D01*
X160054793Y-111020635D01*
X160087167Y-110983721D01*
X160092713Y-110977801D01*
X160222801Y-110847713D01*
X160228721Y-110842167D01*
X160265635Y-110809793D01*
X160271908Y-110804645D01*
X160323759Y-110764857D01*
X160330356Y-110760130D01*
X160371188Y-110732847D01*
X160378078Y-110728562D01*
X160537416Y-110636566D01*
X160544576Y-110632739D01*
X160546500Y-110631790D01*
X160546500Y-109846259D01*
X160516719Y-109658235D01*
X160516051Y-109653405D01*
X160512588Y-109624133D01*
X160512111Y-109619289D01*
X160509285Y-109583359D01*
X160178725Y-109583359D01*
X160177294Y-109597888D01*
X160176549Y-109603929D01*
X160171145Y-109640360D01*
X160170104Y-109646357D01*
X160125935Y-109868408D01*
X160124601Y-109874349D01*
X160115649Y-109910084D01*
X160114025Y-109915952D01*
X160099798Y-109962845D01*
X160097890Y-109968620D01*
X160085491Y-110003272D01*
X160083301Y-110008949D01*
X159996671Y-110218095D01*
X159994206Y-110223656D01*
X159978466Y-110256938D01*
X159975729Y-110262377D01*
X159952627Y-110305599D01*
X159949627Y-110310894D01*
X159930691Y-110342488D01*
X159927434Y-110347632D01*
X159801657Y-110535869D01*
X159798153Y-110540845D01*
X159776221Y-110570417D01*
X159772476Y-110575215D01*
X159741387Y-110613097D01*
X159737413Y-110617704D01*
X159712682Y-110644991D01*
X159708484Y-110649400D01*
X159548400Y-110809484D01*
X159543991Y-110813682D01*
X159516704Y-110838413D01*
X159512097Y-110842387D01*
X159474215Y-110873476D01*
X159469417Y-110877221D01*
X159439845Y-110899153D01*
X159434869Y-110902657D01*
X159246632Y-111028434D01*
X159241488Y-111031691D01*
X159209894Y-111050627D01*
X159204599Y-111053627D01*
X159161377Y-111076729D01*
X159155938Y-111079466D01*
X159143477Y-111085359D01*
X155546500Y-111085359D01*
X155546500Y-109583359D01*
X155149210Y-109583359D01*
X155147294Y-109602815D01*
X155146549Y-109608858D01*
X155141145Y-109645286D01*
X155140104Y-109651281D01*
X155094015Y-109882987D01*
X155092682Y-109888924D01*
X155083733Y-109924652D01*
X155082109Y-109930522D01*
X155067882Y-109977418D01*
X155065973Y-109983197D01*
X155053570Y-110017859D01*
X155051380Y-110023535D01*
X154960979Y-110241783D01*
X154958513Y-110247346D01*
X154942773Y-110280626D01*
X154940037Y-110286061D01*
X154916936Y-110329282D01*
X154913936Y-110334578D01*
X154895001Y-110366170D01*
X154891744Y-110371314D01*
X154760496Y-110567740D01*
X154756993Y-110572714D01*
X154735060Y-110602288D01*
X154731314Y-110607088D01*
X154700225Y-110644970D01*
X154696251Y-110649577D01*
X154671520Y-110676864D01*
X154667322Y-110681273D01*
X154500273Y-110848322D01*
X154495864Y-110852520D01*
X154468577Y-110877251D01*
X154463970Y-110881225D01*
X154426088Y-110912314D01*
X154421288Y-110916060D01*
X154391714Y-110937993D01*
X154386740Y-110941496D01*
X154190314Y-111072744D01*
X154185170Y-111076001D01*
X154169557Y-111085359D01*
X150546500Y-111085359D01*
X150546500Y-109583359D01*
X149044500Y-109583359D01*
X149044500Y-111085359D01*
X148046500Y-111085359D01*
X148046500Y-109583359D01*
X146544500Y-109583359D01*
X146544500Y-111085359D01*
X145546500Y-111085359D01*
X145546500Y-109583359D01*
X144044500Y-109583359D01*
X144044500Y-111085359D01*
X143046500Y-111085359D01*
X143046500Y-109583359D01*
X141544500Y-109583359D01*
X141544500Y-111085359D01*
X140546500Y-111085359D01*
X140546500Y-109583359D01*
X139044500Y-109583359D01*
X139044500Y-111085359D01*
X138046500Y-111085359D01*
X138046500Y-109583359D01*
X136577192Y-109583359D01*
X132834808Y-109583359D01*
X131544500Y-109583359D01*
X131544500Y-109674104D01*
X130035645Y-109674104D01*
X129818049Y-109583973D01*
X129577463Y-109519508D01*
X129330534Y-109487000D01*
X129081466Y-109487000D01*
X128834536Y-109519508D01*
X128593950Y-109583973D01*
X128363851Y-109679283D01*
X128363847Y-109679285D01*
X128148143Y-109803823D01*
X128050953Y-109878399D01*
X128050953Y-109878400D01*
X128696979Y-110524426D01*
X128568537Y-110610249D01*
X128429249Y-110749537D01*
X128343426Y-110877979D01*
X127697400Y-110231953D01*
X127697399Y-110231953D01*
X127622823Y-110329143D01*
X127498285Y-110544847D01*
X127498283Y-110544851D01*
X127402973Y-110774950D01*
X127338508Y-111015536D01*
X127306000Y-111262466D01*
X127306000Y-111511534D01*
X127322454Y-111636522D01*
X127311688Y-111705557D01*
X127265308Y-111757812D01*
X127198039Y-111776697D01*
X127180118Y-111775179D01*
X126935903Y-111736500D01*
X126935897Y-111736500D01*
X126676103Y-111736500D01*
X126676098Y-111736500D01*
X126419506Y-111777140D01*
X126172423Y-111857422D01*
X125940945Y-111975368D01*
X125730774Y-112128066D01*
X125730768Y-112128071D01*
X125547071Y-112311768D01*
X125547066Y-112311774D01*
X125394368Y-112521945D01*
X125276422Y-112753423D01*
X125196140Y-113000506D01*
X125155500Y-113257097D01*
X123046500Y-113257097D01*
X123046500Y-112083359D01*
X122294500Y-112083359D01*
X122294500Y-113585359D01*
X121296500Y-113585359D01*
X121296500Y-111085359D01*
X122294500Y-111085359D01*
X123046500Y-111085359D01*
X124044500Y-111085359D01*
X125489402Y-111085359D01*
X125546500Y-111056265D01*
X125546500Y-109583359D01*
X124044500Y-109583359D01*
X124044500Y-111085359D01*
X123046500Y-111085359D01*
X123046500Y-109583359D01*
X122294500Y-109583359D01*
X122294500Y-111085359D01*
X121296500Y-111085359D01*
X121296500Y-109293379D01*
X152255500Y-109293379D01*
X152255500Y-109480620D01*
X152292025Y-109664243D01*
X152292027Y-109664251D01*
X152363676Y-109837228D01*
X152363681Y-109837237D01*
X152467697Y-109992907D01*
X152467700Y-109992911D01*
X152600088Y-110125299D01*
X152600092Y-110125302D01*
X152755762Y-110229318D01*
X152755771Y-110229323D01*
X152785852Y-110241783D01*
X152928749Y-110300973D01*
X153070446Y-110329158D01*
X153112379Y-110337499D01*
X153112383Y-110337500D01*
X153112384Y-110337500D01*
X153299617Y-110337500D01*
X153299618Y-110337499D01*
X153483251Y-110300973D01*
X153656231Y-110229322D01*
X153811908Y-110125302D01*
X153944302Y-109992908D01*
X154048322Y-109837231D01*
X154119973Y-109664251D01*
X154156500Y-109480616D01*
X154156500Y-109298304D01*
X157385500Y-109298304D01*
X157385500Y-109475695D01*
X157420103Y-109649658D01*
X157420106Y-109649667D01*
X157487983Y-109813540D01*
X157487990Y-109813553D01*
X157586535Y-109961034D01*
X157586538Y-109961038D01*
X157711961Y-110086461D01*
X157711965Y-110086464D01*
X157859446Y-110185009D01*
X157859459Y-110185016D01*
X157966428Y-110229323D01*
X158023334Y-110252894D01*
X158023336Y-110252894D01*
X158023341Y-110252896D01*
X158197304Y-110287499D01*
X158197307Y-110287500D01*
X158197309Y-110287500D01*
X158374693Y-110287500D01*
X158374694Y-110287499D01*
X158432682Y-110275964D01*
X158548658Y-110252896D01*
X158548661Y-110252894D01*
X158548666Y-110252894D01*
X158712547Y-110185013D01*
X158860035Y-110086464D01*
X158985464Y-109961035D01*
X159084013Y-109813547D01*
X159085590Y-109809741D01*
X159113704Y-109741866D01*
X159151894Y-109649666D01*
X159152553Y-109646357D01*
X159184250Y-109487000D01*
X159186500Y-109475691D01*
X159186500Y-109332513D01*
X161505500Y-109332513D01*
X161505500Y-109521486D01*
X161535059Y-109708118D01*
X161593454Y-109887836D01*
X161646993Y-109992911D01*
X161679240Y-110056199D01*
X161790310Y-110209073D01*
X161923927Y-110342690D01*
X162076801Y-110453760D01*
X162107991Y-110469652D01*
X162245163Y-110539545D01*
X162245165Y-110539545D01*
X162245168Y-110539547D01*
X162271661Y-110548155D01*
X162424881Y-110597940D01*
X162611514Y-110627500D01*
X162611519Y-110627500D01*
X162800486Y-110627500D01*
X162987118Y-110597940D01*
X163017239Y-110588153D01*
X164699500Y-110588153D01*
X164699500Y-110745846D01*
X164730261Y-110900489D01*
X164730264Y-110900501D01*
X164790602Y-111046172D01*
X164790609Y-111046185D01*
X164878210Y-111177288D01*
X164878213Y-111177292D01*
X164989707Y-111288786D01*
X164989711Y-111288789D01*
X165120814Y-111376390D01*
X165120827Y-111376397D01*
X165266498Y-111436735D01*
X165266503Y-111436737D01*
X165421153Y-111467499D01*
X165421156Y-111467500D01*
X165421158Y-111467500D01*
X170459645Y-111467500D01*
X170459646Y-111467499D01*
X170614298Y-111436737D01*
X170759980Y-111376394D01*
X170891090Y-111288789D01*
X171094520Y-111085359D01*
X174044500Y-111085359D01*
X175546500Y-111085359D01*
X175546500Y-110954500D01*
X176544500Y-110954500D01*
X177394843Y-110954500D01*
X177399706Y-110954595D01*
X177434003Y-110955941D01*
X177438868Y-110956228D01*
X177518276Y-110962477D01*
X177524574Y-110963135D01*
X177562561Y-110968086D01*
X177568817Y-110969064D01*
X177618957Y-110978223D01*
X177625149Y-110979518D01*
X177662414Y-110988310D01*
X177668535Y-110989921D01*
X177880964Y-111051638D01*
X177888374Y-111054045D01*
X177932739Y-111070018D01*
X177939983Y-111072887D01*
X177968802Y-111085359D01*
X178006209Y-111085359D01*
X178046500Y-111064829D01*
X178046500Y-109885500D01*
X179044500Y-109885500D01*
X179044500Y-110855000D01*
X179068182Y-110855000D01*
X179073054Y-110855096D01*
X179102506Y-110856254D01*
X179107371Y-110856541D01*
X179146450Y-110859619D01*
X179151287Y-110860095D01*
X179180521Y-110863555D01*
X179185345Y-110864223D01*
X179395051Y-110897438D01*
X179399839Y-110898293D01*
X179428702Y-110904033D01*
X179433453Y-110905075D01*
X179471571Y-110914223D01*
X179476290Y-110915454D01*
X179504669Y-110923457D01*
X179509331Y-110924871D01*
X179711282Y-110990489D01*
X179715879Y-110992083D01*
X179743489Y-111002268D01*
X179748020Y-111004041D01*
X179784237Y-111019040D01*
X179788700Y-111020992D01*
X179815477Y-111033335D01*
X179819864Y-111035463D01*
X179917789Y-111085359D01*
X180546500Y-111085359D01*
X181544500Y-111085359D01*
X183046500Y-111085359D01*
X183046500Y-110969026D01*
X183040546Y-110964967D01*
X182871162Y-110839956D01*
X182863913Y-110834175D01*
X182821371Y-110797565D01*
X182814573Y-110791257D01*
X182761743Y-110738427D01*
X182755435Y-110731629D01*
X182718825Y-110689087D01*
X182713044Y-110681838D01*
X182588033Y-110512454D01*
X182582808Y-110504790D01*
X182552943Y-110457258D01*
X182548306Y-110449227D01*
X182513398Y-110383174D01*
X182509376Y-110374821D01*
X182486937Y-110323389D01*
X182483550Y-110314758D01*
X182416337Y-110122678D01*
X182414065Y-110115494D01*
X182401645Y-110071614D01*
X182399814Y-110064301D01*
X182386865Y-110005012D01*
X182385482Y-109997608D01*
X182378477Y-109952561D01*
X182377546Y-109945083D01*
X182370771Y-109872830D01*
X182370534Y-109869947D01*
X182369305Y-109852459D01*
X182369135Y-109849559D01*
X182368045Y-109826254D01*
X182367944Y-109823361D01*
X182367534Y-109805832D01*
X182367500Y-109802932D01*
X182367500Y-109583359D01*
X181544500Y-109583359D01*
X181544500Y-111085359D01*
X180546500Y-111085359D01*
X180546500Y-109583359D01*
X180015065Y-109583359D01*
X179999461Y-109593963D01*
X179992886Y-109598135D01*
X179797423Y-109713731D01*
X179790599Y-109717483D01*
X179748611Y-109738878D01*
X179741564Y-109742194D01*
X179683984Y-109767113D01*
X179676739Y-109769982D01*
X179632374Y-109785955D01*
X179624964Y-109788362D01*
X179412535Y-109850079D01*
X179406414Y-109851690D01*
X179369149Y-109860482D01*
X179362957Y-109861777D01*
X179312817Y-109870936D01*
X179306561Y-109871914D01*
X179268574Y-109876865D01*
X179262276Y-109877523D01*
X179182868Y-109883772D01*
X179178003Y-109884059D01*
X179143706Y-109885405D01*
X179138843Y-109885500D01*
X179044500Y-109885500D01*
X178046500Y-109885500D01*
X178046500Y-109861245D01*
X178042851Y-109860482D01*
X178005586Y-109851690D01*
X177999465Y-109850079D01*
X177787036Y-109788362D01*
X177779626Y-109785955D01*
X177735261Y-109769982D01*
X177728016Y-109767113D01*
X177670436Y-109742194D01*
X177663389Y-109738878D01*
X177621401Y-109717483D01*
X177614577Y-109713731D01*
X177419114Y-109598135D01*
X177412539Y-109593963D01*
X177396935Y-109583359D01*
X176544500Y-109583359D01*
X176544500Y-110954500D01*
X175546500Y-110954500D01*
X175546500Y-109583359D01*
X174044500Y-109583359D01*
X174044500Y-111085359D01*
X171094520Y-111085359D01*
X173197149Y-108982730D01*
X183365500Y-108982730D01*
X183365500Y-109791269D01*
X183368353Y-109821699D01*
X183368353Y-109821701D01*
X183413206Y-109949880D01*
X183413207Y-109949882D01*
X183493850Y-110059150D01*
X183603118Y-110139793D01*
X183626124Y-110147843D01*
X183731299Y-110184646D01*
X183761730Y-110187500D01*
X183761734Y-110187500D01*
X184570270Y-110187500D01*
X184600699Y-110184646D01*
X184600701Y-110184646D01*
X184664790Y-110162219D01*
X184728882Y-110139793D01*
X184838150Y-110059150D01*
X184918793Y-109949882D01*
X184941926Y-109883772D01*
X184963646Y-109821701D01*
X184963646Y-109821699D01*
X184966500Y-109791269D01*
X184966500Y-108982730D01*
X184963646Y-108952300D01*
X184963646Y-108952298D01*
X184918793Y-108824119D01*
X184918792Y-108824117D01*
X184838150Y-108714850D01*
X184728882Y-108634207D01*
X184728880Y-108634206D01*
X184600700Y-108589353D01*
X184570270Y-108586500D01*
X184570266Y-108586500D01*
X183761734Y-108586500D01*
X183761730Y-108586500D01*
X183731300Y-108589353D01*
X183731298Y-108589353D01*
X183603119Y-108634206D01*
X183603117Y-108634207D01*
X183493850Y-108714850D01*
X183413207Y-108824117D01*
X183413206Y-108824119D01*
X183368353Y-108952298D01*
X183368353Y-108952300D01*
X183365500Y-108982730D01*
X173197149Y-108982730D01*
X173601259Y-108578620D01*
X173662582Y-108545135D01*
X173688940Y-108542301D01*
X173800486Y-108542301D01*
X173987118Y-108512741D01*
X173991522Y-108511310D01*
X174166832Y-108454348D01*
X174335199Y-108368561D01*
X174488073Y-108257491D01*
X174621690Y-108123874D01*
X174732760Y-107971000D01*
X174818547Y-107802633D01*
X174876940Y-107622919D01*
X174881911Y-107591534D01*
X174900955Y-107471298D01*
X177705500Y-107471298D01*
X177705500Y-108302701D01*
X177708401Y-108339567D01*
X177708402Y-108339573D01*
X177754254Y-108497393D01*
X177754255Y-108497396D01*
X177754256Y-108497398D01*
X177785568Y-108550344D01*
X177837917Y-108638862D01*
X177837923Y-108638870D01*
X177954129Y-108755076D01*
X177954133Y-108755079D01*
X177954135Y-108755081D01*
X178095602Y-108838744D01*
X178137224Y-108850836D01*
X178253426Y-108884597D01*
X178253429Y-108884597D01*
X178253431Y-108884598D01*
X178290306Y-108887500D01*
X178290314Y-108887500D01*
X179121686Y-108887500D01*
X179121694Y-108887500D01*
X179158569Y-108884598D01*
X179158571Y-108884597D01*
X179158573Y-108884597D01*
X179200191Y-108872505D01*
X179316398Y-108838744D01*
X179457865Y-108755081D01*
X179574081Y-108638865D01*
X179605724Y-108585359D01*
X181544500Y-108585359D01*
X182439419Y-108585359D01*
X182483550Y-108459242D01*
X182486937Y-108450611D01*
X182509376Y-108399179D01*
X182513398Y-108390826D01*
X182548306Y-108324773D01*
X182552943Y-108316742D01*
X182582808Y-108269210D01*
X182588033Y-108261546D01*
X182713044Y-108092162D01*
X182718825Y-108084913D01*
X182755435Y-108042371D01*
X182761743Y-108035573D01*
X182814573Y-107982743D01*
X182821371Y-107976435D01*
X182863913Y-107939825D01*
X182871162Y-107934044D01*
X183040546Y-107809033D01*
X183046500Y-107804973D01*
X183046500Y-107588500D01*
X184044500Y-107588500D01*
X184581932Y-107588500D01*
X184584832Y-107588534D01*
X184602361Y-107588944D01*
X184605254Y-107589045D01*
X184628559Y-107590135D01*
X184631459Y-107590305D01*
X184648947Y-107591534D01*
X184651830Y-107591771D01*
X184724083Y-107598546D01*
X184731561Y-107599477D01*
X184776608Y-107606482D01*
X184784012Y-107607865D01*
X184843301Y-107620814D01*
X184850614Y-107622645D01*
X184894494Y-107635065D01*
X184901678Y-107637337D01*
X185093758Y-107704550D01*
X185102389Y-107707937D01*
X185153821Y-107730376D01*
X185162174Y-107734398D01*
X185228227Y-107769306D01*
X185236258Y-107773943D01*
X185283790Y-107803808D01*
X185291453Y-107809033D01*
X185292861Y-107810072D01*
X185294770Y-107808992D01*
X185337991Y-107785891D01*
X185343426Y-107783155D01*
X185376708Y-107767414D01*
X185382272Y-107764948D01*
X185546500Y-107696923D01*
X185546500Y-107083359D01*
X184044500Y-107083359D01*
X184044500Y-107588500D01*
X183046500Y-107588500D01*
X183046500Y-107083359D01*
X181544500Y-107083359D01*
X181544500Y-108585359D01*
X179605724Y-108585359D01*
X179657744Y-108497398D01*
X179703598Y-108339569D01*
X179706500Y-108302694D01*
X179706500Y-107471306D01*
X179703598Y-107434431D01*
X179701119Y-107425900D01*
X179657745Y-107276606D01*
X179657744Y-107276603D01*
X179657744Y-107276602D01*
X179574081Y-107135135D01*
X179574079Y-107135133D01*
X179574076Y-107135129D01*
X179457870Y-107018923D01*
X179457862Y-107018917D01*
X179316396Y-106935255D01*
X179316393Y-106935254D01*
X179158573Y-106889402D01*
X179158567Y-106889401D01*
X179121701Y-106886500D01*
X179121694Y-106886500D01*
X179008190Y-106886500D01*
X178941151Y-106866815D01*
X178895396Y-106814011D01*
X178885452Y-106744853D01*
X178914477Y-106681297D01*
X178960738Y-106647939D01*
X179085172Y-106596397D01*
X179085172Y-106596396D01*
X179085179Y-106596394D01*
X179216289Y-106508789D01*
X179327789Y-106397289D01*
X179415394Y-106266179D01*
X179475737Y-106120497D01*
X179482726Y-106085359D01*
X181544500Y-106085359D01*
X183046500Y-106085359D01*
X184044500Y-106085359D01*
X185546500Y-106085359D01*
X185546500Y-104583359D01*
X184044500Y-104583359D01*
X184044500Y-106085359D01*
X183046500Y-106085359D01*
X183046500Y-104583359D01*
X181544500Y-104583359D01*
X181544500Y-106085359D01*
X179482726Y-106085359D01*
X179506500Y-105965842D01*
X179506500Y-105808158D01*
X179506500Y-105808155D01*
X179506499Y-105808153D01*
X179497687Y-105763852D01*
X179475737Y-105653503D01*
X179459820Y-105615076D01*
X179415397Y-105507827D01*
X179415390Y-105507814D01*
X179327789Y-105376711D01*
X179327786Y-105376707D01*
X179216292Y-105265213D01*
X179216288Y-105265210D01*
X179085185Y-105177609D01*
X179085172Y-105177602D01*
X178939501Y-105117264D01*
X178939489Y-105117261D01*
X178784845Y-105086500D01*
X178784842Y-105086500D01*
X178627158Y-105086500D01*
X178627155Y-105086500D01*
X178472510Y-105117261D01*
X178472498Y-105117264D01*
X178326827Y-105177602D01*
X178326814Y-105177609D01*
X178195711Y-105265210D01*
X178195707Y-105265213D01*
X178084213Y-105376707D01*
X178084210Y-105376711D01*
X177996609Y-105507814D01*
X177996602Y-105507827D01*
X177936264Y-105653498D01*
X177936261Y-105653510D01*
X177905500Y-105808153D01*
X177905500Y-105965846D01*
X177936261Y-106120489D01*
X177936264Y-106120501D01*
X177996602Y-106266172D01*
X177996609Y-106266185D01*
X178084210Y-106397288D01*
X178084213Y-106397292D01*
X178195707Y-106508786D01*
X178195711Y-106508789D01*
X178326814Y-106596390D01*
X178326827Y-106596397D01*
X178451262Y-106647939D01*
X178505666Y-106691779D01*
X178527731Y-106758074D01*
X178510452Y-106825773D01*
X178459315Y-106873384D01*
X178403810Y-106886500D01*
X178290298Y-106886500D01*
X178253432Y-106889401D01*
X178253426Y-106889402D01*
X178095606Y-106935254D01*
X178095603Y-106935255D01*
X177954137Y-107018917D01*
X177954129Y-107018923D01*
X177837923Y-107135129D01*
X177837917Y-107135137D01*
X177754255Y-107276603D01*
X177754254Y-107276606D01*
X177708402Y-107434426D01*
X177708401Y-107434432D01*
X177705500Y-107471298D01*
X174900955Y-107471298D01*
X174906500Y-107436287D01*
X174906500Y-107247314D01*
X174876940Y-107060682D01*
X174821287Y-106889402D01*
X174818547Y-106880969D01*
X174818545Y-106880966D01*
X174818545Y-106880964D01*
X174755929Y-106758074D01*
X174732760Y-106712602D01*
X174621690Y-106559728D01*
X174488073Y-106426111D01*
X174335199Y-106315041D01*
X174166836Y-106229255D01*
X173987118Y-106170860D01*
X173800486Y-106141301D01*
X173800481Y-106141301D01*
X173611519Y-106141301D01*
X173611514Y-106141301D01*
X173424881Y-106170860D01*
X173245163Y-106229255D01*
X173076800Y-106315041D01*
X172989579Y-106378411D01*
X172923927Y-106426111D01*
X172923925Y-106426113D01*
X172923924Y-106426113D01*
X172790312Y-106559725D01*
X172790312Y-106559726D01*
X172790310Y-106559728D01*
X172742610Y-106625380D01*
X172679240Y-106712601D01*
X172593454Y-106880964D01*
X172535059Y-107060682D01*
X172505500Y-107247314D01*
X172505500Y-107358861D01*
X172485815Y-107425900D01*
X172469181Y-107446542D01*
X170085542Y-109830181D01*
X170024219Y-109863666D01*
X169997861Y-109866500D01*
X165421155Y-109866500D01*
X165266510Y-109897261D01*
X165266498Y-109897264D01*
X165120827Y-109957602D01*
X165120814Y-109957609D01*
X164989711Y-110045210D01*
X164989707Y-110045213D01*
X164878213Y-110156707D01*
X164878210Y-110156711D01*
X164790609Y-110287814D01*
X164790602Y-110287827D01*
X164730264Y-110433498D01*
X164730261Y-110433510D01*
X164699500Y-110588153D01*
X163017239Y-110588153D01*
X163166832Y-110539547D01*
X163335199Y-110453760D01*
X163488073Y-110342690D01*
X163621690Y-110209073D01*
X163732760Y-110056199D01*
X163818547Y-109887832D01*
X163876940Y-109708118D01*
X163886722Y-109646357D01*
X163906500Y-109521486D01*
X163906500Y-109332513D01*
X163876940Y-109145881D01*
X163832081Y-109007821D01*
X163818547Y-108966168D01*
X163818545Y-108966165D01*
X163818545Y-108966163D01*
X163753621Y-108838744D01*
X163732760Y-108797801D01*
X163621690Y-108644927D01*
X163488073Y-108511310D01*
X163335199Y-108400240D01*
X163316723Y-108390826D01*
X163166836Y-108314454D01*
X162987118Y-108256059D01*
X162800486Y-108226500D01*
X162800481Y-108226500D01*
X162611519Y-108226500D01*
X162611514Y-108226500D01*
X162424881Y-108256059D01*
X162245163Y-108314454D01*
X162076800Y-108400240D01*
X162002331Y-108454346D01*
X161923927Y-108511310D01*
X161923925Y-108511312D01*
X161923924Y-108511312D01*
X161790312Y-108644924D01*
X161790312Y-108644925D01*
X161790310Y-108644927D01*
X161759353Y-108687536D01*
X161679240Y-108797800D01*
X161593454Y-108966163D01*
X161535059Y-109145881D01*
X161505500Y-109332513D01*
X159186500Y-109332513D01*
X159186500Y-109298309D01*
X159186500Y-109298306D01*
X159186499Y-109298304D01*
X159151896Y-109124341D01*
X159151893Y-109124332D01*
X159084016Y-108960459D01*
X159084009Y-108960446D01*
X158985464Y-108812965D01*
X158985461Y-108812961D01*
X158860038Y-108687538D01*
X158860034Y-108687535D01*
X158712553Y-108588990D01*
X158712540Y-108588983D01*
X158548667Y-108521106D01*
X158548658Y-108521103D01*
X158374694Y-108486500D01*
X158374691Y-108486500D01*
X158197309Y-108486500D01*
X158197306Y-108486500D01*
X158023341Y-108521103D01*
X158023332Y-108521106D01*
X157859459Y-108588983D01*
X157859446Y-108588990D01*
X157711965Y-108687535D01*
X157711961Y-108687538D01*
X157586538Y-108812961D01*
X157586535Y-108812965D01*
X157487990Y-108960446D01*
X157487983Y-108960459D01*
X157420106Y-109124332D01*
X157420103Y-109124341D01*
X157385500Y-109298304D01*
X154156500Y-109298304D01*
X154156500Y-109293384D01*
X154119973Y-109109749D01*
X154048322Y-108936769D01*
X154048321Y-108936768D01*
X154048318Y-108936762D01*
X153944302Y-108781092D01*
X153944299Y-108781088D01*
X153811911Y-108648700D01*
X153811907Y-108648697D01*
X153656237Y-108544681D01*
X153656228Y-108544676D01*
X153483251Y-108473027D01*
X153483243Y-108473025D01*
X153299620Y-108436500D01*
X153299616Y-108436500D01*
X153112384Y-108436500D01*
X153112379Y-108436500D01*
X152928756Y-108473025D01*
X152928748Y-108473027D01*
X152755771Y-108544676D01*
X152755762Y-108544681D01*
X152600092Y-108648697D01*
X152600088Y-108648700D01*
X152467700Y-108781088D01*
X152467697Y-108781092D01*
X152363681Y-108936762D01*
X152363676Y-108936771D01*
X152292027Y-109109748D01*
X152292025Y-109109756D01*
X152255500Y-109293379D01*
X121296500Y-109293379D01*
X121296500Y-108585359D01*
X131544500Y-108585359D01*
X133046500Y-108585359D01*
X134044500Y-108585359D01*
X135546500Y-108585359D01*
X136544500Y-108585359D01*
X138046500Y-108585359D01*
X139044500Y-108585359D01*
X140546500Y-108585359D01*
X141544500Y-108585359D01*
X143046500Y-108585359D01*
X144044500Y-108585359D01*
X145546500Y-108585359D01*
X146544500Y-108585359D01*
X148046500Y-108585359D01*
X149044500Y-108585359D01*
X150546500Y-108585359D01*
X150546500Y-108366402D01*
X151544500Y-108366402D01*
X151651504Y-108206260D01*
X151655007Y-108201286D01*
X151676940Y-108171712D01*
X151680686Y-108166912D01*
X151711775Y-108129030D01*
X151715749Y-108124423D01*
X151740480Y-108097136D01*
X151744678Y-108092727D01*
X151911727Y-107925678D01*
X151916136Y-107921480D01*
X151943423Y-107896749D01*
X151948030Y-107892775D01*
X151985912Y-107861686D01*
X151990712Y-107857940D01*
X152020286Y-107836007D01*
X152025260Y-107832504D01*
X152221686Y-107701256D01*
X152226830Y-107697999D01*
X152258422Y-107679064D01*
X152263718Y-107676064D01*
X152306939Y-107652963D01*
X152312374Y-107650227D01*
X152345654Y-107634487D01*
X152351217Y-107632021D01*
X152367501Y-107625276D01*
X154044500Y-107625276D01*
X154060783Y-107632021D01*
X154066346Y-107634487D01*
X154099626Y-107650227D01*
X154105061Y-107652963D01*
X154148282Y-107676064D01*
X154153578Y-107679064D01*
X154185170Y-107697999D01*
X154190314Y-107701256D01*
X154386740Y-107832504D01*
X154391714Y-107836007D01*
X154421288Y-107857940D01*
X154426088Y-107861686D01*
X154463970Y-107892775D01*
X154468577Y-107896749D01*
X154495864Y-107921480D01*
X154500273Y-107925678D01*
X154667322Y-108092727D01*
X154671520Y-108097136D01*
X154696251Y-108124423D01*
X154700225Y-108129030D01*
X154731314Y-108166912D01*
X154735060Y-108171712D01*
X154756993Y-108201286D01*
X154760496Y-108206260D01*
X154891744Y-108402686D01*
X154895001Y-108407830D01*
X154913936Y-108439422D01*
X154916936Y-108444718D01*
X154940037Y-108487939D01*
X154942773Y-108493374D01*
X154958513Y-108526654D01*
X154960979Y-108532217D01*
X154982991Y-108585359D01*
X155546500Y-108585359D01*
X156544500Y-108585359D01*
X156563129Y-108585359D01*
X156575329Y-108555905D01*
X156577794Y-108550344D01*
X156593534Y-108517062D01*
X156596271Y-108511623D01*
X156619373Y-108468401D01*
X156622373Y-108463106D01*
X156641309Y-108431512D01*
X156644566Y-108426368D01*
X156770343Y-108238131D01*
X156773847Y-108233155D01*
X156795779Y-108203583D01*
X156799524Y-108198785D01*
X156830613Y-108160903D01*
X156834587Y-108156296D01*
X156859318Y-108129009D01*
X156863516Y-108124600D01*
X157023600Y-107964516D01*
X157028009Y-107960318D01*
X157055296Y-107935587D01*
X157059903Y-107931613D01*
X157097785Y-107900524D01*
X157102583Y-107896779D01*
X157132155Y-107874847D01*
X157137131Y-107871343D01*
X157325368Y-107745566D01*
X157330512Y-107742309D01*
X157362106Y-107723373D01*
X157367401Y-107720373D01*
X157410623Y-107697271D01*
X157416062Y-107694534D01*
X157449344Y-107678794D01*
X157454905Y-107676329D01*
X157527504Y-107646258D01*
X159044500Y-107646258D01*
X159117096Y-107676329D01*
X159122656Y-107678794D01*
X159155938Y-107694534D01*
X159161377Y-107697271D01*
X159204599Y-107720373D01*
X159209894Y-107723373D01*
X159241488Y-107742309D01*
X159246632Y-107745566D01*
X159434869Y-107871343D01*
X159439845Y-107874847D01*
X159469417Y-107896779D01*
X159474215Y-107900524D01*
X159512097Y-107931613D01*
X159516704Y-107935587D01*
X159543991Y-107960318D01*
X159548400Y-107964516D01*
X159708484Y-108124600D01*
X159712682Y-108129009D01*
X159737413Y-108156296D01*
X159741387Y-108160903D01*
X159772476Y-108198785D01*
X159776221Y-108203583D01*
X159798153Y-108233155D01*
X159801657Y-108238131D01*
X159927434Y-108426368D01*
X159930691Y-108431512D01*
X159949627Y-108463106D01*
X159952627Y-108468401D01*
X159975729Y-108511623D01*
X159978466Y-108517062D01*
X159994206Y-108550344D01*
X159996671Y-108555905D01*
X160008871Y-108585359D01*
X160546500Y-108585359D01*
X160546500Y-107681982D01*
X164044500Y-107681982D01*
X164090544Y-107715436D01*
X164094427Y-107718375D01*
X164117560Y-107736612D01*
X164121323Y-107739700D01*
X164151130Y-107765158D01*
X164154770Y-107768393D01*
X164176398Y-107788386D01*
X164179907Y-107791760D01*
X164341240Y-107953093D01*
X164344614Y-107956602D01*
X164364607Y-107978230D01*
X164367842Y-107981870D01*
X164393300Y-108011677D01*
X164396388Y-108015440D01*
X164414625Y-108038573D01*
X164417565Y-108042456D01*
X164551680Y-108227047D01*
X164554466Y-108231045D01*
X164570834Y-108255543D01*
X164573458Y-108259642D01*
X164593940Y-108293066D01*
X164596401Y-108297264D01*
X164610792Y-108322960D01*
X164613088Y-108327257D01*
X164716676Y-108530562D01*
X164718801Y-108534944D01*
X164731144Y-108561719D01*
X164733099Y-108566187D01*
X164741039Y-108585359D01*
X165546500Y-108585359D01*
X165546500Y-107083359D01*
X164044500Y-107083359D01*
X164044500Y-107681982D01*
X160546500Y-107681982D01*
X160546500Y-107083359D01*
X159044500Y-107083359D01*
X159044500Y-107646258D01*
X157527504Y-107646258D01*
X157664051Y-107589699D01*
X157669728Y-107587509D01*
X157704380Y-107575110D01*
X157710155Y-107573202D01*
X157757048Y-107558975D01*
X157762916Y-107557351D01*
X157798651Y-107548399D01*
X157804592Y-107547065D01*
X158026643Y-107502896D01*
X158032640Y-107501855D01*
X158046500Y-107499799D01*
X158046500Y-107083359D01*
X156544500Y-107083359D01*
X156544500Y-108585359D01*
X155546500Y-108585359D01*
X155546500Y-107083359D01*
X154044500Y-107083359D01*
X154044500Y-107625276D01*
X152367501Y-107625276D01*
X152569465Y-107541620D01*
X152575141Y-107539430D01*
X152609803Y-107527027D01*
X152615582Y-107525118D01*
X152662478Y-107510891D01*
X152668348Y-107509267D01*
X152704076Y-107500318D01*
X152710013Y-107498985D01*
X152941719Y-107452896D01*
X152947714Y-107451855D01*
X152984142Y-107446451D01*
X152990185Y-107445706D01*
X153038954Y-107440903D01*
X153045025Y-107440455D01*
X153046500Y-107440382D01*
X153046500Y-107083359D01*
X151544500Y-107083359D01*
X151544500Y-108366402D01*
X150546500Y-108366402D01*
X150546500Y-107083359D01*
X149044500Y-107083359D01*
X149044500Y-108585359D01*
X148046500Y-108585359D01*
X148046500Y-107083359D01*
X146544500Y-107083359D01*
X146544500Y-108585359D01*
X145546500Y-108585359D01*
X145546500Y-107083359D01*
X144044500Y-107083359D01*
X144044500Y-108585359D01*
X143046500Y-108585359D01*
X143046500Y-107083359D01*
X141544500Y-107083359D01*
X141544500Y-108585359D01*
X140546500Y-108585359D01*
X140546500Y-107083359D01*
X139044500Y-107083359D01*
X139044500Y-108585359D01*
X138046500Y-108585359D01*
X138046500Y-107083359D01*
X136544500Y-107083359D01*
X136544500Y-108585359D01*
X135546500Y-108585359D01*
X135546500Y-107083359D01*
X134044500Y-107083359D01*
X134044500Y-108585359D01*
X133046500Y-108585359D01*
X133046500Y-107083359D01*
X131544500Y-107083359D01*
X131544500Y-108585359D01*
X121296500Y-108585359D01*
X121296500Y-108214921D01*
X121316185Y-108147882D01*
X121368989Y-108102127D01*
X121420954Y-108090922D01*
X129121817Y-108119225D01*
X129125889Y-108119500D01*
X129131578Y-108119500D01*
X129196309Y-108119500D01*
X129196765Y-108119501D01*
X129261522Y-108119739D01*
X129261522Y-108119738D01*
X129261539Y-108119739D01*
X129262231Y-108119648D01*
X129262706Y-108119586D01*
X129263343Y-108119504D01*
X129263358Y-108119500D01*
X129263362Y-108119500D01*
X129326063Y-108102699D01*
X129388941Y-108086099D01*
X129388942Y-108086097D01*
X129388954Y-108086095D01*
X129389708Y-108085783D01*
X129390042Y-108085646D01*
X129390647Y-108085397D01*
X129390656Y-108085392D01*
X129446859Y-108052942D01*
X129503310Y-108020627D01*
X129503314Y-108020622D01*
X129503331Y-108020613D01*
X129503943Y-108020145D01*
X129504257Y-108019905D01*
X129504768Y-108019515D01*
X129504781Y-108019501D01*
X129504784Y-108019500D01*
X129550688Y-107973595D01*
X129596838Y-107927784D01*
X129596839Y-107927781D01*
X129596842Y-107927779D01*
X129597158Y-107927369D01*
X129597411Y-107927041D01*
X129597960Y-107926329D01*
X129597966Y-107926317D01*
X129597970Y-107926314D01*
X129630425Y-107870099D01*
X129663149Y-107813899D01*
X129663149Y-107813895D01*
X129663155Y-107813887D01*
X129663399Y-107813301D01*
X129663544Y-107812951D01*
X129663857Y-107812200D01*
X129663859Y-107812190D01*
X129663862Y-107812186D01*
X129680652Y-107749522D01*
X129697725Y-107686731D01*
X129697725Y-107686728D01*
X129697729Y-107686714D01*
X129697816Y-107686056D01*
X129697870Y-107685650D01*
X129697970Y-107684910D01*
X129697970Y-107620204D01*
X129697971Y-107619748D01*
X129698230Y-107549272D01*
X129697970Y-107545185D01*
X129697970Y-106085359D01*
X131544500Y-106085359D01*
X133046500Y-106085359D01*
X134044500Y-106085359D01*
X135546500Y-106085359D01*
X136544500Y-106085359D01*
X138046500Y-106085359D01*
X144044500Y-106085359D01*
X145546500Y-106085359D01*
X146544500Y-106085359D01*
X147392153Y-106085359D01*
X154644151Y-106085359D01*
X155546500Y-106085359D01*
X164782174Y-106085359D01*
X165546500Y-106085359D01*
X165546500Y-105912048D01*
X167000500Y-105912048D01*
X167000500Y-107451553D01*
X167012131Y-107510030D01*
X167012132Y-107510031D01*
X167056447Y-107576353D01*
X167122769Y-107620668D01*
X167122770Y-107620669D01*
X167181247Y-107632300D01*
X167181250Y-107632301D01*
X167181252Y-107632301D01*
X168270750Y-107632301D01*
X168270751Y-107632300D01*
X168285568Y-107629353D01*
X168329229Y-107620669D01*
X168329229Y-107620668D01*
X168329231Y-107620668D01*
X168395552Y-107576353D01*
X168418222Y-107542425D01*
X168471832Y-107497622D01*
X168541157Y-107488913D01*
X168590213Y-107508215D01*
X168652335Y-107549723D01*
X168652345Y-107549729D01*
X168652347Y-107549730D01*
X168784380Y-107604420D01*
X168784384Y-107604420D01*
X168784385Y-107604421D01*
X168924542Y-107632301D01*
X168924545Y-107632301D01*
X169067457Y-107632301D01*
X169161751Y-107613543D01*
X169207620Y-107604420D01*
X169339653Y-107549730D01*
X169458479Y-107470333D01*
X169494386Y-107434426D01*
X169543319Y-107385494D01*
X169604642Y-107352009D01*
X169674334Y-107356993D01*
X169718681Y-107385494D01*
X169803517Y-107470330D01*
X169803521Y-107470333D01*
X169922340Y-107549726D01*
X169922346Y-107549729D01*
X169922347Y-107549730D01*
X170054380Y-107604420D01*
X170054384Y-107604420D01*
X170054385Y-107604421D01*
X170194542Y-107632301D01*
X170194545Y-107632301D01*
X170337457Y-107632301D01*
X170431751Y-107613543D01*
X170477620Y-107604420D01*
X170609653Y-107549730D01*
X170728479Y-107470333D01*
X170829532Y-107369280D01*
X170908929Y-107250454D01*
X170963619Y-107118421D01*
X170983411Y-107018923D01*
X170991500Y-106978258D01*
X170991500Y-106385343D01*
X170963620Y-106245186D01*
X170963619Y-106245185D01*
X170963619Y-106245181D01*
X170908929Y-106113148D01*
X170908928Y-106113147D01*
X170908925Y-106113141D01*
X170890362Y-106085359D01*
X176544500Y-106085359D01*
X176914442Y-106085359D01*
X176909903Y-106039267D01*
X176909455Y-106033197D01*
X176907649Y-105996425D01*
X176907500Y-105990342D01*
X176907500Y-105783658D01*
X176907649Y-105777575D01*
X176909455Y-105740803D01*
X176909903Y-105734733D01*
X176914706Y-105685961D01*
X176915451Y-105679920D01*
X176920855Y-105643489D01*
X176921896Y-105637492D01*
X176962221Y-105434765D01*
X176963555Y-105428823D01*
X176972505Y-105393097D01*
X176974128Y-105387233D01*
X176988354Y-105340338D01*
X176990263Y-105334560D01*
X177002665Y-105299899D01*
X177004855Y-105294222D01*
X177083948Y-105103272D01*
X177086414Y-105097708D01*
X177102155Y-105064426D01*
X177104891Y-105058991D01*
X177127992Y-105015770D01*
X177130991Y-105010475D01*
X177149926Y-104978882D01*
X177153184Y-104973737D01*
X177268017Y-104801878D01*
X177271522Y-104796902D01*
X177293455Y-104767329D01*
X177297199Y-104762531D01*
X177328288Y-104724649D01*
X177332262Y-104720042D01*
X177356993Y-104692755D01*
X177361191Y-104688346D01*
X177466178Y-104583359D01*
X176544500Y-104583359D01*
X176544500Y-106085359D01*
X170890362Y-106085359D01*
X170829532Y-105994322D01*
X170829529Y-105994318D01*
X170728482Y-105893271D01*
X170728478Y-105893268D01*
X170609659Y-105813875D01*
X170609650Y-105813870D01*
X170477620Y-105759182D01*
X170477614Y-105759180D01*
X170337457Y-105731301D01*
X170337455Y-105731301D01*
X170194545Y-105731301D01*
X170194543Y-105731301D01*
X170054385Y-105759180D01*
X170054379Y-105759182D01*
X169922349Y-105813870D01*
X169922340Y-105813875D01*
X169803521Y-105893268D01*
X169803517Y-105893271D01*
X169718681Y-105978108D01*
X169657358Y-106011593D01*
X169587666Y-106006609D01*
X169543319Y-105978108D01*
X169458482Y-105893271D01*
X169458478Y-105893268D01*
X169339659Y-105813875D01*
X169339650Y-105813870D01*
X169207620Y-105759182D01*
X169207614Y-105759180D01*
X169067457Y-105731301D01*
X169067455Y-105731301D01*
X168924545Y-105731301D01*
X168924543Y-105731301D01*
X168784385Y-105759180D01*
X168784379Y-105759182D01*
X168652349Y-105813870D01*
X168652337Y-105813877D01*
X168590212Y-105855387D01*
X168523535Y-105876264D01*
X168456155Y-105857779D01*
X168418221Y-105821175D01*
X168395552Y-105787248D01*
X168329230Y-105742933D01*
X168329229Y-105742932D01*
X168270752Y-105731301D01*
X168270748Y-105731301D01*
X167181252Y-105731301D01*
X167181247Y-105731301D01*
X167122770Y-105742932D01*
X167122769Y-105742933D01*
X167056447Y-105787248D01*
X167012132Y-105853570D01*
X167012131Y-105853571D01*
X167000500Y-105912048D01*
X165546500Y-105912048D01*
X165546500Y-104900344D01*
X172705499Y-104900344D01*
X172743947Y-105093630D01*
X172743950Y-105093640D01*
X172819364Y-105275708D01*
X172819371Y-105275721D01*
X172928860Y-105439582D01*
X172928863Y-105439586D01*
X173068214Y-105578937D01*
X173068218Y-105578940D01*
X173232079Y-105688429D01*
X173232092Y-105688436D01*
X173410604Y-105762377D01*
X173414165Y-105763852D01*
X173414169Y-105763852D01*
X173414170Y-105763853D01*
X173607456Y-105802301D01*
X173607459Y-105802301D01*
X173804543Y-105802301D01*
X173941841Y-105774990D01*
X173997835Y-105763852D01*
X174138655Y-105705522D01*
X174179907Y-105688436D01*
X174179907Y-105688435D01*
X174179914Y-105688433D01*
X174343782Y-105578940D01*
X174483139Y-105439583D01*
X174592632Y-105275715D01*
X174668051Y-105093636D01*
X174706500Y-104900342D01*
X174706500Y-104703260D01*
X174706500Y-104703257D01*
X174668052Y-104509971D01*
X174668051Y-104509970D01*
X174668051Y-104509966D01*
X174666823Y-104507001D01*
X174592635Y-104327893D01*
X174592628Y-104327880D01*
X174483139Y-104164019D01*
X174483136Y-104164015D01*
X174343785Y-104024664D01*
X174343781Y-104024661D01*
X174179920Y-103915172D01*
X174179907Y-103915165D01*
X173997839Y-103839751D01*
X173997829Y-103839748D01*
X173804543Y-103801301D01*
X173804541Y-103801301D01*
X173607459Y-103801301D01*
X173607457Y-103801301D01*
X173414170Y-103839748D01*
X173414160Y-103839751D01*
X173232092Y-103915165D01*
X173232079Y-103915172D01*
X173068218Y-104024661D01*
X173068214Y-104024664D01*
X172928863Y-104164015D01*
X172928860Y-104164019D01*
X172819371Y-104327880D01*
X172819364Y-104327893D01*
X172743950Y-104509961D01*
X172743947Y-104509971D01*
X172705500Y-104703257D01*
X172705500Y-104703260D01*
X172705500Y-104900342D01*
X172705500Y-104900344D01*
X172705499Y-104900344D01*
X165546500Y-104900344D01*
X165546500Y-104583359D01*
X165104500Y-104583359D01*
X165104500Y-105179843D01*
X165104405Y-105184706D01*
X165103059Y-105219003D01*
X165102772Y-105223868D01*
X165096523Y-105303276D01*
X165095865Y-105309574D01*
X165090914Y-105347561D01*
X165089936Y-105353817D01*
X165080777Y-105403957D01*
X165079482Y-105410149D01*
X165070690Y-105447414D01*
X165069079Y-105453535D01*
X165007362Y-105665964D01*
X165004955Y-105673374D01*
X164988982Y-105717739D01*
X164986113Y-105724984D01*
X164961194Y-105782564D01*
X164957878Y-105789611D01*
X164936483Y-105831599D01*
X164932731Y-105838423D01*
X164817135Y-106033886D01*
X164812963Y-106040461D01*
X164786471Y-106079445D01*
X164782174Y-106085359D01*
X155546500Y-106085359D01*
X155546500Y-104800389D01*
X157145500Y-104800389D01*
X157145500Y-104973611D01*
X157145830Y-104975693D01*
X157165183Y-105097888D01*
X157172598Y-105144701D01*
X157223025Y-105299899D01*
X157226128Y-105309447D01*
X157250559Y-105357396D01*
X157304768Y-105463788D01*
X157406586Y-105603928D01*
X157529072Y-105726414D01*
X157669212Y-105828232D01*
X157823555Y-105906873D01*
X157988299Y-105960402D01*
X158159389Y-105987500D01*
X158159390Y-105987500D01*
X158332610Y-105987500D01*
X158332611Y-105987500D01*
X158503701Y-105960402D01*
X158668445Y-105906873D01*
X158822788Y-105828232D01*
X158962928Y-105726414D01*
X159085414Y-105603928D01*
X159187232Y-105463788D01*
X159265873Y-105309445D01*
X159319402Y-105144701D01*
X159346500Y-104973611D01*
X159346500Y-104800389D01*
X159319402Y-104629299D01*
X159265873Y-104464555D01*
X159187232Y-104310212D01*
X159085414Y-104170072D01*
X158962928Y-104047586D01*
X158822788Y-103945768D01*
X158668445Y-103867127D01*
X158503701Y-103813598D01*
X158503699Y-103813597D01*
X158503698Y-103813597D01*
X158372271Y-103792781D01*
X158332611Y-103786500D01*
X158159389Y-103786500D01*
X158119728Y-103792781D01*
X157988302Y-103813597D01*
X157823552Y-103867128D01*
X157669211Y-103945768D01*
X157613149Y-103986500D01*
X157529072Y-104047586D01*
X157529070Y-104047588D01*
X157529069Y-104047588D01*
X157406588Y-104170069D01*
X157406588Y-104170070D01*
X157406586Y-104170072D01*
X157382966Y-104202582D01*
X157304768Y-104310211D01*
X157226128Y-104464552D01*
X157172597Y-104629302D01*
X157155269Y-104738707D01*
X157145500Y-104800389D01*
X155546500Y-104800389D01*
X155546500Y-104583359D01*
X155041295Y-104583359D01*
X155050104Y-104627643D01*
X155051145Y-104633640D01*
X155056549Y-104670071D01*
X155057294Y-104676112D01*
X155062097Y-104724884D01*
X155062545Y-104730954D01*
X155064351Y-104767726D01*
X155064500Y-104773809D01*
X155064500Y-105000191D01*
X155064351Y-105006274D01*
X155062545Y-105043046D01*
X155062097Y-105049116D01*
X155057294Y-105097888D01*
X155056549Y-105103929D01*
X155051145Y-105140360D01*
X155050104Y-105146357D01*
X155005935Y-105368408D01*
X155004601Y-105374349D01*
X154995649Y-105410084D01*
X154994025Y-105415952D01*
X154979798Y-105462845D01*
X154977890Y-105468620D01*
X154965491Y-105503272D01*
X154963301Y-105508949D01*
X154876671Y-105718095D01*
X154874206Y-105723656D01*
X154858466Y-105756938D01*
X154855729Y-105762377D01*
X154832627Y-105805599D01*
X154829627Y-105810894D01*
X154810691Y-105842488D01*
X154807434Y-105847632D01*
X154681657Y-106035869D01*
X154678153Y-106040845D01*
X154656221Y-106070417D01*
X154652476Y-106075215D01*
X154644151Y-106085359D01*
X147392153Y-106085359D01*
X147384283Y-106078900D01*
X147379676Y-106074926D01*
X147352389Y-106050195D01*
X147347980Y-106045997D01*
X147167003Y-105865020D01*
X147162805Y-105860611D01*
X147138074Y-105833324D01*
X147134100Y-105828717D01*
X147103010Y-105790834D01*
X147099265Y-105786035D01*
X147077331Y-105756460D01*
X147073826Y-105751484D01*
X146931638Y-105538682D01*
X146928383Y-105533542D01*
X146909456Y-105501965D01*
X146906456Y-105496669D01*
X146883355Y-105453451D01*
X146880619Y-105448015D01*
X146864872Y-105414722D01*
X146862405Y-105409157D01*
X146764463Y-105172705D01*
X146762273Y-105167027D01*
X146749870Y-105132364D01*
X146747961Y-105126587D01*
X146733734Y-105079691D01*
X146732110Y-105073821D01*
X146723161Y-105038093D01*
X146721828Y-105032156D01*
X146671896Y-104781130D01*
X146670855Y-104775135D01*
X146665451Y-104738707D01*
X146664706Y-104732664D01*
X146659903Y-104683895D01*
X146659455Y-104677824D01*
X146657649Y-104641049D01*
X146657500Y-104634967D01*
X146657500Y-104583359D01*
X146544500Y-104583359D01*
X146544500Y-106085359D01*
X145546500Y-106085359D01*
X145546500Y-104583359D01*
X144044500Y-104583359D01*
X144044500Y-106085359D01*
X138046500Y-106085359D01*
X138046500Y-104583359D01*
X136544500Y-104583359D01*
X136544500Y-106085359D01*
X135546500Y-106085359D01*
X135546500Y-104583359D01*
X134044500Y-104583359D01*
X134044500Y-106085359D01*
X133046500Y-106085359D01*
X133046500Y-104583359D01*
X131544500Y-104583359D01*
X131544500Y-106085359D01*
X129697970Y-106085359D01*
X129697970Y-103585359D01*
X131544500Y-103585359D01*
X133046500Y-103585359D01*
X134044500Y-103585359D01*
X135546500Y-103585359D01*
X136544500Y-103585359D01*
X138046500Y-103585359D01*
X138046500Y-102083359D01*
X136544500Y-102083359D01*
X136544500Y-103585359D01*
X135546500Y-103585359D01*
X135546500Y-102083359D01*
X134044500Y-102083359D01*
X134044500Y-103585359D01*
X133046500Y-103585359D01*
X133046500Y-102083359D01*
X131544500Y-102083359D01*
X131544500Y-103585359D01*
X129697970Y-103585359D01*
X129697970Y-100952155D01*
X136544500Y-100952155D01*
X136544500Y-101085359D01*
X138046500Y-101085359D01*
X138046500Y-99583359D01*
X137051849Y-99583359D01*
X137051849Y-99740041D01*
X137051700Y-99746124D01*
X137049894Y-99782896D01*
X137049446Y-99788966D01*
X137044643Y-99837738D01*
X137043898Y-99843779D01*
X137038494Y-99880211D01*
X137037453Y-99886208D01*
X136989442Y-100127573D01*
X136988108Y-100133515D01*
X136979158Y-100169241D01*
X136977535Y-100175105D01*
X136963309Y-100222000D01*
X136961400Y-100227778D01*
X136948998Y-100262439D01*
X136946808Y-100268116D01*
X136852639Y-100495463D01*
X136850173Y-100501027D01*
X136834432Y-100534309D01*
X136831696Y-100539744D01*
X136808595Y-100582965D01*
X136805595Y-100588261D01*
X136786660Y-100619853D01*
X136783403Y-100624997D01*
X136646682Y-100829614D01*
X136643179Y-100834588D01*
X136621246Y-100864162D01*
X136617500Y-100868962D01*
X136586411Y-100906844D01*
X136582437Y-100911451D01*
X136557706Y-100938738D01*
X136553508Y-100943147D01*
X136544500Y-100952155D01*
X129697970Y-100952155D01*
X129697970Y-99019135D01*
X131502849Y-99019135D01*
X131502849Y-100214870D01*
X131502850Y-100214876D01*
X131509257Y-100274483D01*
X131559551Y-100409328D01*
X131559555Y-100409335D01*
X131645801Y-100524544D01*
X131645804Y-100524547D01*
X131761013Y-100610793D01*
X131761020Y-100610797D01*
X131895866Y-100661091D01*
X131895865Y-100661091D01*
X131902793Y-100661835D01*
X131955476Y-100667500D01*
X133151221Y-100667499D01*
X133210832Y-100661091D01*
X133345680Y-100610796D01*
X133460895Y-100524546D01*
X133547145Y-100409331D01*
X133597440Y-100274483D01*
X133603849Y-100214873D01*
X133603849Y-99715543D01*
X134052848Y-99715543D01*
X134091296Y-99908829D01*
X134091299Y-99908839D01*
X134166713Y-100090907D01*
X134166720Y-100090920D01*
X134276209Y-100254781D01*
X134276212Y-100254785D01*
X134415563Y-100394136D01*
X134415567Y-100394139D01*
X134579428Y-100503628D01*
X134579441Y-100503635D01*
X134761509Y-100579049D01*
X134761514Y-100579051D01*
X134761518Y-100579051D01*
X134761519Y-100579052D01*
X134954805Y-100617500D01*
X134954808Y-100617500D01*
X135151892Y-100617500D01*
X135281931Y-100591632D01*
X135345184Y-100579051D01*
X135527263Y-100503632D01*
X135691131Y-100394139D01*
X135830488Y-100254782D01*
X135939981Y-100090914D01*
X136015400Y-99908835D01*
X136029542Y-99837738D01*
X136053849Y-99715543D01*
X136053849Y-99518456D01*
X136015401Y-99325170D01*
X136015400Y-99325169D01*
X136015400Y-99325165D01*
X136015200Y-99324682D01*
X139786000Y-99324682D01*
X139786000Y-99529317D01*
X139818009Y-99731417D01*
X139881244Y-99926031D01*
X139974141Y-100108350D01*
X139974147Y-100108359D01*
X140006523Y-100152921D01*
X140006524Y-100152922D01*
X140686000Y-99473446D01*
X140686000Y-99479661D01*
X140713259Y-99581394D01*
X140765920Y-99672606D01*
X140840394Y-99747080D01*
X140931606Y-99799741D01*
X141033339Y-99827000D01*
X141039553Y-99827000D01*
X140360076Y-100506474D01*
X140404650Y-100538859D01*
X140586968Y-100631755D01*
X140781577Y-100694988D01*
X140827586Y-100702275D01*
X140890722Y-100732204D01*
X140927653Y-100791515D01*
X140926657Y-100861378D01*
X140888047Y-100919611D01*
X140832383Y-100946366D01*
X140779584Y-100956868D01*
X140779579Y-100956870D01*
X140588403Y-101036058D01*
X140416342Y-101151024D01*
X140270024Y-101297342D01*
X140155058Y-101469403D01*
X140075870Y-101660579D01*
X140075868Y-101660587D01*
X140035500Y-101863530D01*
X140035500Y-102070469D01*
X140075868Y-102273412D01*
X140075870Y-102273420D01*
X140099515Y-102330505D01*
X140155059Y-102464598D01*
X140167699Y-102483515D01*
X140270024Y-102636657D01*
X140416342Y-102782975D01*
X140416345Y-102782977D01*
X140588402Y-102897941D01*
X140779580Y-102977130D01*
X140809696Y-102983120D01*
X140832381Y-102987633D01*
X140894292Y-103020017D01*
X140928866Y-103080733D01*
X140925127Y-103150502D01*
X140884261Y-103207175D01*
X140827589Y-103231723D01*
X140781581Y-103239010D01*
X140586968Y-103302244D01*
X140404644Y-103395143D01*
X140360077Y-103427523D01*
X140360077Y-103427524D01*
X141039554Y-104107000D01*
X141033339Y-104107000D01*
X140931606Y-104134259D01*
X140840394Y-104186920D01*
X140765920Y-104261394D01*
X140713259Y-104352606D01*
X140686000Y-104454339D01*
X140686000Y-104460553D01*
X140006524Y-103781077D01*
X140006523Y-103781077D01*
X139974143Y-103825644D01*
X139881244Y-104007968D01*
X139818009Y-104202582D01*
X139786000Y-104404682D01*
X139786000Y-104609317D01*
X139818009Y-104811417D01*
X139881244Y-105006031D01*
X139974141Y-105188350D01*
X139974147Y-105188359D01*
X140006523Y-105232921D01*
X140006524Y-105232922D01*
X140686000Y-104553446D01*
X140686000Y-104559661D01*
X140713259Y-104661394D01*
X140765920Y-104752606D01*
X140840394Y-104827080D01*
X140931606Y-104879741D01*
X141033339Y-104907000D01*
X141039553Y-104907000D01*
X140360076Y-105586474D01*
X140404650Y-105618859D01*
X140586968Y-105711755D01*
X140781582Y-105774990D01*
X140983683Y-105807000D01*
X141188317Y-105807000D01*
X141390417Y-105774990D01*
X141585031Y-105711755D01*
X141767349Y-105618859D01*
X141811921Y-105586474D01*
X141132447Y-104907000D01*
X141138661Y-104907000D01*
X141240394Y-104879741D01*
X141331606Y-104827080D01*
X141406080Y-104752606D01*
X141458741Y-104661394D01*
X141486000Y-104559661D01*
X141486000Y-104553447D01*
X142165474Y-105232921D01*
X142197859Y-105188349D01*
X142290755Y-105006031D01*
X142353990Y-104811417D01*
X142386000Y-104609317D01*
X142386000Y-104404682D01*
X142385818Y-104403530D01*
X147655500Y-104403530D01*
X147655500Y-104610469D01*
X147695868Y-104813412D01*
X147695870Y-104813420D01*
X147773233Y-105000191D01*
X147775059Y-105004598D01*
X147800749Y-105043046D01*
X147890024Y-105176657D01*
X148036342Y-105322975D01*
X148036345Y-105322977D01*
X148208402Y-105437941D01*
X148399580Y-105517130D01*
X148602530Y-105557499D01*
X148602534Y-105557500D01*
X148602535Y-105557500D01*
X148809466Y-105557500D01*
X148809467Y-105557499D01*
X149012420Y-105517130D01*
X149203598Y-105437941D01*
X149375655Y-105322977D01*
X149521977Y-105176655D01*
X149636941Y-105004598D01*
X149716130Y-104813420D01*
X149719137Y-104798304D01*
X152265500Y-104798304D01*
X152265500Y-104975695D01*
X152300103Y-105149658D01*
X152300106Y-105149667D01*
X152367983Y-105313540D01*
X152367990Y-105313553D01*
X152466535Y-105461034D01*
X152466538Y-105461038D01*
X152591961Y-105586461D01*
X152591965Y-105586464D01*
X152739446Y-105685009D01*
X152739459Y-105685016D01*
X152839405Y-105726414D01*
X152903334Y-105752894D01*
X152903336Y-105752894D01*
X152903341Y-105752896D01*
X153077304Y-105787499D01*
X153077307Y-105787500D01*
X153077309Y-105787500D01*
X153254693Y-105787500D01*
X153254694Y-105787499D01*
X153317583Y-105774990D01*
X153428658Y-105752896D01*
X153428661Y-105752894D01*
X153428666Y-105752894D01*
X153584300Y-105688429D01*
X153592540Y-105685016D01*
X153592540Y-105685015D01*
X153592547Y-105685013D01*
X153740035Y-105586464D01*
X153865464Y-105461035D01*
X153964013Y-105313547D01*
X154031894Y-105149666D01*
X154032553Y-105146357D01*
X154060750Y-105004596D01*
X154066500Y-104975691D01*
X154066500Y-104798309D01*
X154066500Y-104798306D01*
X154066499Y-104798304D01*
X154031896Y-104624341D01*
X154031893Y-104624332D01*
X153964016Y-104460459D01*
X153964009Y-104460446D01*
X153865464Y-104312965D01*
X153865461Y-104312961D01*
X153740038Y-104187538D01*
X153740034Y-104187535D01*
X153592553Y-104088990D01*
X153592540Y-104088983D01*
X153428667Y-104021106D01*
X153428658Y-104021103D01*
X153254694Y-103986500D01*
X153254691Y-103986500D01*
X153077309Y-103986500D01*
X153077306Y-103986500D01*
X152903341Y-104021103D01*
X152903332Y-104021106D01*
X152739459Y-104088983D01*
X152739446Y-104088990D01*
X152591965Y-104187535D01*
X152591961Y-104187538D01*
X152466538Y-104312961D01*
X152466535Y-104312965D01*
X152367990Y-104460446D01*
X152367983Y-104460459D01*
X152300106Y-104624332D01*
X152300103Y-104624341D01*
X152265500Y-104798304D01*
X149719137Y-104798304D01*
X149756500Y-104610465D01*
X149756500Y-104403535D01*
X149716130Y-104200580D01*
X149636941Y-104009402D01*
X149521977Y-103837345D01*
X149521975Y-103837342D01*
X149375657Y-103691024D01*
X149289626Y-103633541D01*
X149217516Y-103585359D01*
X151544500Y-103585359D01*
X151782757Y-103585359D01*
X151903600Y-103464516D01*
X151908009Y-103460318D01*
X151935296Y-103435587D01*
X151939903Y-103431613D01*
X151977785Y-103400524D01*
X151982583Y-103396779D01*
X152012155Y-103374847D01*
X152017131Y-103371343D01*
X152205368Y-103245566D01*
X152210512Y-103242309D01*
X152242106Y-103223373D01*
X152247401Y-103220373D01*
X152287500Y-103198940D01*
X154044500Y-103198940D01*
X154084599Y-103220373D01*
X154089894Y-103223373D01*
X154121488Y-103242309D01*
X154126632Y-103245566D01*
X154314869Y-103371343D01*
X154319845Y-103374847D01*
X154349417Y-103396779D01*
X154354215Y-103400524D01*
X154392097Y-103431613D01*
X154396704Y-103435587D01*
X154423991Y-103460318D01*
X154428400Y-103464516D01*
X154549243Y-103585359D01*
X155546500Y-103585359D01*
X156544500Y-103585359D01*
X156597809Y-103585359D01*
X156610711Y-103567601D01*
X156613651Y-103563718D01*
X156631888Y-103540585D01*
X156634976Y-103536822D01*
X156660434Y-103507015D01*
X156663669Y-103503375D01*
X156683662Y-103481747D01*
X156687036Y-103478238D01*
X156837238Y-103328036D01*
X156840747Y-103324662D01*
X156862375Y-103304669D01*
X156866015Y-103301434D01*
X156895822Y-103275976D01*
X156899585Y-103272888D01*
X156922718Y-103254651D01*
X156926601Y-103251711D01*
X157098458Y-103126848D01*
X157102456Y-103124062D01*
X157126954Y-103107694D01*
X157131054Y-103105069D01*
X157164479Y-103084587D01*
X157168676Y-103082127D01*
X157194372Y-103067736D01*
X157198668Y-103065440D01*
X157387949Y-102968997D01*
X157392334Y-102966871D01*
X157419108Y-102954529D01*
X157423574Y-102952575D01*
X157447501Y-102942666D01*
X159044500Y-102942666D01*
X159068426Y-102952575D01*
X159072892Y-102954529D01*
X159099666Y-102966871D01*
X159104051Y-102968997D01*
X159293332Y-103065440D01*
X159297628Y-103067736D01*
X159323324Y-103082127D01*
X159327521Y-103084587D01*
X159360946Y-103105069D01*
X159365046Y-103107694D01*
X159389544Y-103124062D01*
X159393542Y-103126848D01*
X159565399Y-103251711D01*
X159569282Y-103254651D01*
X159592415Y-103272888D01*
X159596178Y-103275976D01*
X159625985Y-103301434D01*
X159629625Y-103304669D01*
X159651253Y-103324662D01*
X159654762Y-103328036D01*
X159804964Y-103478238D01*
X159808338Y-103481747D01*
X159828331Y-103503375D01*
X159831566Y-103507015D01*
X159857024Y-103536822D01*
X159860112Y-103540585D01*
X159878349Y-103563718D01*
X159881289Y-103567601D01*
X159894191Y-103585359D01*
X160307500Y-103585359D01*
X160307500Y-103531298D01*
X161305500Y-103531298D01*
X161305500Y-105162701D01*
X161308401Y-105199567D01*
X161308402Y-105199573D01*
X161354254Y-105357393D01*
X161354255Y-105357396D01*
X161437917Y-105498862D01*
X161437923Y-105498870D01*
X161554129Y-105615076D01*
X161554133Y-105615079D01*
X161554135Y-105615081D01*
X161695602Y-105698744D01*
X161737224Y-105710836D01*
X161853426Y-105744597D01*
X161853429Y-105744597D01*
X161853431Y-105744598D01*
X161890306Y-105747500D01*
X161890314Y-105747500D01*
X163521686Y-105747500D01*
X163521694Y-105747500D01*
X163558569Y-105744598D01*
X163558571Y-105744597D01*
X163558573Y-105744597D01*
X163630651Y-105723656D01*
X163716398Y-105698744D01*
X163857865Y-105615081D01*
X163974081Y-105498865D01*
X164057744Y-105357398D01*
X164103598Y-105199569D01*
X164106500Y-105162694D01*
X164106500Y-103531306D01*
X164103598Y-103494431D01*
X164099695Y-103480998D01*
X164058784Y-103340183D01*
X164057744Y-103336602D01*
X163974081Y-103195135D01*
X163974079Y-103195133D01*
X163974076Y-103195129D01*
X163857870Y-103078923D01*
X163857862Y-103078917D01*
X163762193Y-103022339D01*
X163716398Y-102995256D01*
X163716397Y-102995255D01*
X163716396Y-102995255D01*
X163716393Y-102995254D01*
X163558573Y-102949402D01*
X163558567Y-102949401D01*
X163521701Y-102946500D01*
X163521694Y-102946500D01*
X161890306Y-102946500D01*
X161890298Y-102946500D01*
X161853432Y-102949401D01*
X161853426Y-102949402D01*
X161695606Y-102995254D01*
X161695603Y-102995255D01*
X161554137Y-103078917D01*
X161554129Y-103078923D01*
X161437923Y-103195129D01*
X161437917Y-103195137D01*
X161354255Y-103336603D01*
X161354254Y-103336606D01*
X161308402Y-103494426D01*
X161308401Y-103494432D01*
X161305500Y-103531298D01*
X160307500Y-103531298D01*
X160307500Y-103514157D01*
X160307595Y-103509294D01*
X160308941Y-103474997D01*
X160309228Y-103470132D01*
X160315477Y-103390724D01*
X160316135Y-103384426D01*
X160321086Y-103346439D01*
X160322064Y-103340183D01*
X160331223Y-103290043D01*
X160332518Y-103283851D01*
X160341310Y-103246586D01*
X160342921Y-103240465D01*
X160404638Y-103028036D01*
X160407045Y-103020626D01*
X160423018Y-102976261D01*
X160425887Y-102969016D01*
X160450806Y-102911436D01*
X160454122Y-102904389D01*
X160475517Y-102862401D01*
X160479269Y-102855577D01*
X160546500Y-102741894D01*
X160546500Y-102083359D01*
X164122046Y-102083359D01*
X164141564Y-102091806D01*
X164148611Y-102095122D01*
X164190599Y-102116517D01*
X164197423Y-102120269D01*
X164392886Y-102235865D01*
X164399461Y-102240037D01*
X164438445Y-102266529D01*
X164444748Y-102271109D01*
X164494325Y-102309564D01*
X164500328Y-102314530D01*
X164535693Y-102345708D01*
X164541372Y-102351041D01*
X164701959Y-102511628D01*
X164707292Y-102517307D01*
X164738470Y-102552672D01*
X164743436Y-102558675D01*
X164781891Y-102608252D01*
X164786471Y-102614555D01*
X164812963Y-102653539D01*
X164817135Y-102660114D01*
X164932731Y-102855577D01*
X164936483Y-102862401D01*
X164957878Y-102904389D01*
X164961194Y-102911436D01*
X164986113Y-102969016D01*
X164988982Y-102976261D01*
X165004955Y-103020626D01*
X165007362Y-103028036D01*
X165069079Y-103240465D01*
X165070690Y-103246586D01*
X165079482Y-103283851D01*
X165080777Y-103290043D01*
X165089936Y-103340183D01*
X165090914Y-103346439D01*
X165095865Y-103384426D01*
X165096523Y-103390724D01*
X165102772Y-103470132D01*
X165103059Y-103474997D01*
X165104405Y-103509294D01*
X165104500Y-103514157D01*
X165104500Y-103585359D01*
X165546500Y-103585359D01*
X166544500Y-103585359D01*
X168046500Y-103585359D01*
X168046500Y-102685500D01*
X169044500Y-102685500D01*
X169044500Y-103585359D01*
X170546500Y-103585359D01*
X171544500Y-103585359D01*
X172115363Y-103585359D01*
X176544500Y-103585359D01*
X178046500Y-103585359D01*
X181666437Y-103585359D01*
X183046500Y-103585359D01*
X183046500Y-102083359D01*
X182948806Y-102083359D01*
X182877489Y-102302847D01*
X182875896Y-102307441D01*
X182865712Y-102335050D01*
X182863939Y-102339581D01*
X182848941Y-102375797D01*
X182846987Y-102380263D01*
X182834645Y-102407037D01*
X182832519Y-102411422D01*
X182719998Y-102632258D01*
X182717702Y-102636554D01*
X182703311Y-102662250D01*
X182700851Y-102666445D01*
X182680369Y-102699871D01*
X182677742Y-102703976D01*
X182661373Y-102728474D01*
X182658589Y-102732469D01*
X182512909Y-102932977D01*
X182509972Y-102936857D01*
X182491736Y-102959990D01*
X182488643Y-102963758D01*
X182463185Y-102993564D01*
X182459952Y-102997202D01*
X182439959Y-103018830D01*
X182436585Y-103022339D01*
X182261339Y-103197585D01*
X182257830Y-103200959D01*
X182236202Y-103220952D01*
X182232564Y-103224185D01*
X182202758Y-103249643D01*
X182198990Y-103252736D01*
X182175857Y-103270972D01*
X182171977Y-103273909D01*
X181971469Y-103419589D01*
X181967474Y-103422373D01*
X181942976Y-103438742D01*
X181938871Y-103441369D01*
X181905445Y-103461851D01*
X181901250Y-103464311D01*
X181875554Y-103478702D01*
X181871258Y-103480998D01*
X181666437Y-103585359D01*
X178046500Y-103585359D01*
X178046500Y-102083359D01*
X176544500Y-102083359D01*
X176544500Y-103585359D01*
X172115363Y-103585359D01*
X172116170Y-103584213D01*
X172138103Y-103554639D01*
X172141849Y-103549839D01*
X172144259Y-103546901D01*
X172064566Y-103427632D01*
X172061309Y-103422488D01*
X172042373Y-103390894D01*
X172039373Y-103385599D01*
X172016271Y-103342377D01*
X172013534Y-103336938D01*
X171997794Y-103303656D01*
X171995329Y-103298095D01*
X171908699Y-103088949D01*
X171906509Y-103083272D01*
X171894110Y-103048620D01*
X171892202Y-103042845D01*
X171877975Y-102995952D01*
X171876351Y-102990084D01*
X171867399Y-102954349D01*
X171866065Y-102948408D01*
X171821896Y-102726357D01*
X171820855Y-102720360D01*
X171815451Y-102683929D01*
X171814706Y-102677888D01*
X171809903Y-102629116D01*
X171809455Y-102623046D01*
X171807649Y-102586274D01*
X171807500Y-102580191D01*
X171807500Y-102378304D01*
X172805500Y-102378304D01*
X172805500Y-102555695D01*
X172840103Y-102729658D01*
X172840106Y-102729667D01*
X172907983Y-102893540D01*
X172907990Y-102893553D01*
X173006535Y-103041034D01*
X173006538Y-103041038D01*
X173131961Y-103166461D01*
X173131965Y-103166464D01*
X173279446Y-103265009D01*
X173279459Y-103265016D01*
X173372746Y-103303656D01*
X173443334Y-103332894D01*
X173443336Y-103332894D01*
X173443341Y-103332896D01*
X173617304Y-103367499D01*
X173617307Y-103367500D01*
X173617309Y-103367500D01*
X173794693Y-103367500D01*
X173794694Y-103367499D01*
X173852682Y-103355964D01*
X173968658Y-103332896D01*
X173968661Y-103332894D01*
X173968666Y-103332894D01*
X174132547Y-103265013D01*
X174280035Y-103166464D01*
X174405464Y-103041035D01*
X174504013Y-102893547D01*
X174507840Y-102884309D01*
X174519161Y-102856975D01*
X174571894Y-102729666D01*
X174572132Y-102728474D01*
X174600417Y-102586274D01*
X174606500Y-102555691D01*
X174606500Y-102378309D01*
X174606500Y-102378306D01*
X174606499Y-102378304D01*
X174571896Y-102204341D01*
X174571893Y-102204332D01*
X174565578Y-102189087D01*
X174537074Y-102120269D01*
X174504016Y-102040459D01*
X174504009Y-102040446D01*
X174405464Y-101892965D01*
X174405461Y-101892961D01*
X174280038Y-101767538D01*
X174280034Y-101767535D01*
X174132553Y-101668990D01*
X174132540Y-101668983D01*
X173968667Y-101601106D01*
X173968658Y-101601103D01*
X173794694Y-101566500D01*
X173794691Y-101566500D01*
X173617309Y-101566500D01*
X173617306Y-101566500D01*
X173443341Y-101601103D01*
X173443332Y-101601106D01*
X173279459Y-101668983D01*
X173279446Y-101668990D01*
X173131965Y-101767535D01*
X173131961Y-101767538D01*
X173006538Y-101892961D01*
X173006535Y-101892965D01*
X172907990Y-102040446D01*
X172907983Y-102040459D01*
X172840106Y-102204332D01*
X172840103Y-102204341D01*
X172805500Y-102378304D01*
X171807500Y-102378304D01*
X171807500Y-102353809D01*
X171807649Y-102347726D01*
X171809455Y-102310954D01*
X171809903Y-102304884D01*
X171814706Y-102256112D01*
X171815451Y-102250071D01*
X171820855Y-102213640D01*
X171821896Y-102207643D01*
X171846618Y-102083359D01*
X171544500Y-102083359D01*
X171544500Y-103585359D01*
X170546500Y-103585359D01*
X170546500Y-102083359D01*
X170231637Y-102083359D01*
X170158956Y-102181838D01*
X170153175Y-102189087D01*
X170116565Y-102231629D01*
X170110257Y-102238427D01*
X170057427Y-102291257D01*
X170050629Y-102297565D01*
X170008087Y-102334175D01*
X170000838Y-102339956D01*
X169831454Y-102464967D01*
X169823790Y-102470192D01*
X169776258Y-102500057D01*
X169768227Y-102504694D01*
X169702174Y-102539602D01*
X169693821Y-102543624D01*
X169642389Y-102566063D01*
X169633758Y-102569450D01*
X169441678Y-102636663D01*
X169434494Y-102638935D01*
X169390614Y-102651355D01*
X169383301Y-102653186D01*
X169324012Y-102666135D01*
X169316608Y-102667518D01*
X169271561Y-102674523D01*
X169264083Y-102675454D01*
X169191830Y-102682229D01*
X169188947Y-102682466D01*
X169171459Y-102683695D01*
X169168559Y-102683865D01*
X169145254Y-102684955D01*
X169142361Y-102685056D01*
X169124832Y-102685466D01*
X169121932Y-102685500D01*
X169044500Y-102685500D01*
X168046500Y-102685500D01*
X168046500Y-102657073D01*
X168028699Y-102653186D01*
X168021386Y-102651355D01*
X167977506Y-102638935D01*
X167970322Y-102636663D01*
X167778242Y-102569450D01*
X167769611Y-102566063D01*
X167718179Y-102543624D01*
X167709826Y-102539602D01*
X167643773Y-102504694D01*
X167635742Y-102500057D01*
X167588210Y-102470192D01*
X167580546Y-102464967D01*
X167411162Y-102339956D01*
X167403913Y-102334175D01*
X167361371Y-102297565D01*
X167354573Y-102291257D01*
X167301743Y-102238427D01*
X167295435Y-102231629D01*
X167258825Y-102189087D01*
X167253044Y-102181838D01*
X167180363Y-102083359D01*
X166544500Y-102083359D01*
X166544500Y-103585359D01*
X165546500Y-103585359D01*
X165546500Y-102083359D01*
X164122046Y-102083359D01*
X160546500Y-102083359D01*
X159044500Y-102083359D01*
X159044500Y-102942666D01*
X157447501Y-102942666D01*
X157459790Y-102937577D01*
X157464320Y-102935805D01*
X157491931Y-102925620D01*
X157496527Y-102924026D01*
X157698535Y-102858389D01*
X157703195Y-102856975D01*
X157731537Y-102848982D01*
X157736242Y-102847755D01*
X157774359Y-102838602D01*
X157779120Y-102837557D01*
X157808021Y-102831808D01*
X157812815Y-102830952D01*
X158022617Y-102797723D01*
X158027436Y-102797056D01*
X158046500Y-102794798D01*
X158046500Y-102083359D01*
X156544500Y-102083359D01*
X156544500Y-103585359D01*
X155546500Y-103585359D01*
X155546500Y-102083359D01*
X154044500Y-102083359D01*
X154044500Y-103198940D01*
X152287500Y-103198940D01*
X152290623Y-103197271D01*
X152296062Y-103194534D01*
X152329344Y-103178794D01*
X152334905Y-103176329D01*
X152544051Y-103089699D01*
X152549728Y-103087509D01*
X152584380Y-103075110D01*
X152590155Y-103073202D01*
X152637048Y-103058975D01*
X152642916Y-103057351D01*
X152678651Y-103048399D01*
X152684592Y-103047065D01*
X152906643Y-103002896D01*
X152912640Y-103001855D01*
X152949071Y-102996451D01*
X152955112Y-102995706D01*
X153003884Y-102990903D01*
X153009954Y-102990455D01*
X153046500Y-102988660D01*
X153046500Y-102083359D01*
X151544500Y-102083359D01*
X151544500Y-103585359D01*
X149217516Y-103585359D01*
X149203598Y-103576059D01*
X149179277Y-103565985D01*
X149012420Y-103496870D01*
X149012412Y-103496868D01*
X148809469Y-103456500D01*
X148809465Y-103456500D01*
X148602535Y-103456500D01*
X148602530Y-103456500D01*
X148399587Y-103496868D01*
X148399579Y-103496870D01*
X148208403Y-103576058D01*
X148036342Y-103691024D01*
X147890024Y-103837342D01*
X147775058Y-104009403D01*
X147695870Y-104200579D01*
X147695868Y-104200587D01*
X147655500Y-104403530D01*
X142385818Y-104403530D01*
X142353990Y-104202582D01*
X142290755Y-104007968D01*
X142197859Y-103825650D01*
X142165474Y-103781077D01*
X142165474Y-103781076D01*
X141486000Y-104460551D01*
X141486000Y-104454339D01*
X141458741Y-104352606D01*
X141406080Y-104261394D01*
X141331606Y-104186920D01*
X141240394Y-104134259D01*
X141138661Y-104107000D01*
X141132446Y-104107000D01*
X141654087Y-103585359D01*
X144044500Y-103585359D01*
X145546500Y-103585359D01*
X146544500Y-103585359D01*
X146871455Y-103585359D01*
X146880619Y-103565985D01*
X146883355Y-103560549D01*
X146906456Y-103517331D01*
X146909456Y-103512035D01*
X146928383Y-103480458D01*
X146931638Y-103475318D01*
X147073826Y-103262516D01*
X147077331Y-103257540D01*
X147099265Y-103227965D01*
X147103010Y-103223166D01*
X147124952Y-103196429D01*
X147116170Y-103184588D01*
X147112667Y-103179614D01*
X146975946Y-102974997D01*
X146972689Y-102969853D01*
X146953754Y-102938261D01*
X146950754Y-102932965D01*
X146927653Y-102889744D01*
X146924917Y-102884309D01*
X146909176Y-102851027D01*
X146906710Y-102845463D01*
X146812541Y-102618116D01*
X146810351Y-102612439D01*
X146797949Y-102577778D01*
X146796040Y-102572000D01*
X146781814Y-102525105D01*
X146780191Y-102519241D01*
X146771241Y-102483515D01*
X146769907Y-102477573D01*
X146721896Y-102236208D01*
X146720855Y-102230211D01*
X146715451Y-102193779D01*
X146714706Y-102187738D01*
X146709903Y-102138966D01*
X146709455Y-102132896D01*
X146707649Y-102096124D01*
X146707500Y-102090041D01*
X146707500Y-102083359D01*
X146544500Y-102083359D01*
X146544500Y-103585359D01*
X145546500Y-103585359D01*
X145546500Y-102083359D01*
X144044500Y-102083359D01*
X144044500Y-103585359D01*
X141654087Y-103585359D01*
X141811922Y-103427524D01*
X141811921Y-103427523D01*
X141767359Y-103395147D01*
X141767350Y-103395141D01*
X141585031Y-103302244D01*
X141390417Y-103239009D01*
X141344411Y-103231723D01*
X141281276Y-103201794D01*
X141244345Y-103142482D01*
X141245343Y-103072619D01*
X141283953Y-103014387D01*
X141339616Y-102987633D01*
X141392420Y-102977130D01*
X141583598Y-102897941D01*
X141755655Y-102782977D01*
X141901977Y-102636655D01*
X142016941Y-102464598D01*
X142096130Y-102273420D01*
X142136500Y-102070465D01*
X142136500Y-102065543D01*
X147705499Y-102065543D01*
X147743947Y-102258829D01*
X147743950Y-102258839D01*
X147819364Y-102440907D01*
X147819371Y-102440920D01*
X147928860Y-102604781D01*
X147928863Y-102604785D01*
X148068214Y-102744136D01*
X148068218Y-102744139D01*
X148232079Y-102853628D01*
X148232092Y-102853635D01*
X148339058Y-102897941D01*
X148414165Y-102929051D01*
X148414169Y-102929051D01*
X148414170Y-102929052D01*
X148607456Y-102967500D01*
X148607459Y-102967500D01*
X148804543Y-102967500D01*
X148934582Y-102941632D01*
X148997835Y-102929051D01*
X149158744Y-102862401D01*
X149179907Y-102853635D01*
X149179907Y-102853634D01*
X149179914Y-102853632D01*
X149343782Y-102744139D01*
X149483139Y-102604782D01*
X149592632Y-102440914D01*
X149668051Y-102258835D01*
X149705520Y-102070469D01*
X149706500Y-102065543D01*
X149706500Y-101868456D01*
X149668052Y-101675170D01*
X149668051Y-101675169D01*
X149668051Y-101675165D01*
X149623041Y-101566500D01*
X149592635Y-101493092D01*
X149592628Y-101493079D01*
X149483139Y-101329218D01*
X149483134Y-101329212D01*
X149343785Y-101189863D01*
X149343781Y-101189860D01*
X149187385Y-101085359D01*
X151544500Y-101085359D01*
X153046500Y-101085359D01*
X153046500Y-101080371D01*
X156544500Y-101080371D01*
X156544500Y-101085359D01*
X158046500Y-101085359D01*
X159044500Y-101085359D01*
X160546500Y-101085359D01*
X161544500Y-101085359D01*
X163046500Y-101085359D01*
X164044500Y-101085359D01*
X165546500Y-101085359D01*
X166544500Y-101085359D01*
X166907500Y-101085359D01*
X166907500Y-100482730D01*
X167905500Y-100482730D01*
X167905500Y-101291269D01*
X167908353Y-101321699D01*
X167908353Y-101321701D01*
X167953206Y-101449880D01*
X167953207Y-101449882D01*
X168033850Y-101559150D01*
X168143118Y-101639793D01*
X168185845Y-101654744D01*
X168271299Y-101684646D01*
X168301730Y-101687500D01*
X168301734Y-101687500D01*
X169110270Y-101687500D01*
X169140699Y-101684646D01*
X169140701Y-101684646D01*
X169209479Y-101660579D01*
X169268882Y-101639793D01*
X169378150Y-101559150D01*
X169458793Y-101449882D01*
X169489308Y-101362675D01*
X179380500Y-101362675D01*
X179380500Y-101571324D01*
X179413137Y-101777389D01*
X179477612Y-101975820D01*
X179560739Y-102138966D01*
X179572330Y-102161714D01*
X179694965Y-102330505D01*
X179842495Y-102478035D01*
X180011286Y-102600670D01*
X180081713Y-102636554D01*
X180197179Y-102695387D01*
X180197181Y-102695387D01*
X180197184Y-102695389D01*
X180302681Y-102729667D01*
X180395610Y-102759862D01*
X180601676Y-102792500D01*
X180601681Y-102792500D01*
X180810324Y-102792500D01*
X181016389Y-102759862D01*
X181064779Y-102744139D01*
X181214816Y-102695389D01*
X181400714Y-102600670D01*
X181569505Y-102478035D01*
X181717035Y-102330505D01*
X181839670Y-102161714D01*
X181934389Y-101975816D01*
X181998862Y-101777389D01*
X182015053Y-101675165D01*
X182031500Y-101571324D01*
X182031500Y-101362675D01*
X181998862Y-101156610D01*
X181964705Y-101051488D01*
X181934389Y-100958184D01*
X181934387Y-100958181D01*
X181934387Y-100958179D01*
X181884421Y-100860116D01*
X181839670Y-100772286D01*
X181717035Y-100603495D01*
X181569505Y-100455965D01*
X181400714Y-100333330D01*
X181382634Y-100324118D01*
X181214820Y-100238612D01*
X181016389Y-100174137D01*
X180810324Y-100141500D01*
X180810319Y-100141500D01*
X180601681Y-100141500D01*
X180601676Y-100141500D01*
X180395610Y-100174137D01*
X180197179Y-100238612D01*
X180011285Y-100333330D01*
X179842493Y-100455966D01*
X179694966Y-100603493D01*
X179572330Y-100772285D01*
X179477612Y-100958179D01*
X179413137Y-101156610D01*
X179380500Y-101362675D01*
X169489308Y-101362675D01*
X169503646Y-101321701D01*
X169503646Y-101321699D01*
X169506500Y-101291269D01*
X169506500Y-101085359D01*
X171544500Y-101085359D01*
X172402757Y-101085359D01*
X172443600Y-101044516D01*
X172448009Y-101040318D01*
X172475296Y-101015587D01*
X172479903Y-101011613D01*
X172517785Y-100980524D01*
X172522583Y-100976779D01*
X172552155Y-100954847D01*
X172557131Y-100951343D01*
X172745368Y-100825566D01*
X172750512Y-100822309D01*
X172782106Y-100803373D01*
X172787401Y-100800373D01*
X172830623Y-100777271D01*
X172836062Y-100774534D01*
X172869344Y-100758794D01*
X172874905Y-100756329D01*
X173046500Y-100685252D01*
X173046500Y-100598638D01*
X174044500Y-100598638D01*
X174187408Y-100627065D01*
X174193349Y-100628399D01*
X174229084Y-100637351D01*
X174234952Y-100638975D01*
X174281845Y-100653202D01*
X174287620Y-100655110D01*
X174322272Y-100667509D01*
X174327949Y-100669699D01*
X174537095Y-100756329D01*
X174542656Y-100758794D01*
X174575938Y-100774534D01*
X174581377Y-100777271D01*
X174624599Y-100800373D01*
X174629894Y-100803373D01*
X174661488Y-100822309D01*
X174666632Y-100825566D01*
X174854869Y-100951343D01*
X174859845Y-100954847D01*
X174889417Y-100976779D01*
X174894215Y-100980524D01*
X174932097Y-101011613D01*
X174936704Y-101015587D01*
X174963991Y-101040318D01*
X174968400Y-101044516D01*
X175009243Y-101085359D01*
X175546500Y-101085359D01*
X176544500Y-101085359D01*
X178046500Y-101085359D01*
X178046500Y-99583359D01*
X176544500Y-99583359D01*
X176544500Y-101085359D01*
X175546500Y-101085359D01*
X175546500Y-99583359D01*
X174044500Y-99583359D01*
X174044500Y-100598638D01*
X173046500Y-100598638D01*
X173046500Y-99583359D01*
X171544500Y-99583359D01*
X171544500Y-101085359D01*
X169506500Y-101085359D01*
X169506500Y-100482730D01*
X169503646Y-100452300D01*
X169503646Y-100452298D01*
X169458793Y-100324119D01*
X169458792Y-100324117D01*
X169430400Y-100285647D01*
X169378150Y-100214850D01*
X169268882Y-100134207D01*
X169268880Y-100134206D01*
X169194288Y-100108105D01*
X169137512Y-100067383D01*
X169111765Y-100002430D01*
X169125222Y-99933869D01*
X169173609Y-99883466D01*
X169178948Y-99880579D01*
X169282525Y-99827803D01*
X169288736Y-99823289D01*
X169288737Y-99823289D01*
X168706001Y-99240553D01*
X168706000Y-99240553D01*
X168123261Y-99823289D01*
X168123262Y-99823290D01*
X168129471Y-99827801D01*
X168233051Y-99880579D01*
X168283847Y-99928554D01*
X168300642Y-99996375D01*
X168278104Y-100062510D01*
X168223389Y-100105961D01*
X168217712Y-100108105D01*
X168143117Y-100134207D01*
X168033850Y-100214850D01*
X167953207Y-100324117D01*
X167953206Y-100324119D01*
X167908353Y-100452298D01*
X167908353Y-100452300D01*
X167905500Y-100482730D01*
X166907500Y-100482730D01*
X166907500Y-100471068D01*
X166907534Y-100468168D01*
X166907944Y-100450639D01*
X166908045Y-100447746D01*
X166909135Y-100424441D01*
X166909305Y-100421541D01*
X166910534Y-100404053D01*
X166910771Y-100401170D01*
X166917546Y-100328917D01*
X166918477Y-100321439D01*
X166925482Y-100276392D01*
X166926865Y-100268988D01*
X166939814Y-100209699D01*
X166941645Y-100202386D01*
X166954065Y-100158506D01*
X166956337Y-100151322D01*
X166980709Y-100081671D01*
X166946259Y-100034252D01*
X166943475Y-100030258D01*
X166927107Y-100005760D01*
X166924480Y-100001656D01*
X166904004Y-99968238D01*
X166901545Y-99964042D01*
X166887162Y-99938359D01*
X166884867Y-99934066D01*
X166788462Y-99744863D01*
X166786335Y-99740477D01*
X166773992Y-99713700D01*
X166772040Y-99709237D01*
X166757041Y-99673020D01*
X166755268Y-99668489D01*
X166745083Y-99640879D01*
X166743489Y-99636282D01*
X166726293Y-99583359D01*
X166544500Y-99583359D01*
X166544500Y-101085359D01*
X165546500Y-101085359D01*
X165546500Y-99583359D01*
X164044500Y-99583359D01*
X164044500Y-101085359D01*
X163046500Y-101085359D01*
X163046500Y-99583359D01*
X161544500Y-99583359D01*
X161544500Y-101085359D01*
X160546500Y-101085359D01*
X160546500Y-99583359D01*
X159044500Y-99583359D01*
X159044500Y-101085359D01*
X158046500Y-101085359D01*
X158046500Y-99583359D01*
X157656104Y-99583359D01*
X157613246Y-99798822D01*
X157611912Y-99804764D01*
X157602962Y-99840490D01*
X157601339Y-99846354D01*
X157587113Y-99893249D01*
X157585205Y-99899026D01*
X157572803Y-99933688D01*
X157570612Y-99939367D01*
X157478701Y-100161261D01*
X157476235Y-100166825D01*
X157460488Y-100200119D01*
X157457750Y-100205557D01*
X157434648Y-100248776D01*
X157431650Y-100254069D01*
X157412723Y-100285647D01*
X157409466Y-100290789D01*
X157276033Y-100490487D01*
X157272529Y-100495463D01*
X157250595Y-100525038D01*
X157246850Y-100529837D01*
X157215760Y-100567720D01*
X157211786Y-100572327D01*
X157187055Y-100599614D01*
X157182857Y-100604023D01*
X157013023Y-100773857D01*
X157008614Y-100778055D01*
X156981327Y-100802786D01*
X156976720Y-100806760D01*
X156938837Y-100837850D01*
X156934038Y-100841595D01*
X156904463Y-100863529D01*
X156899487Y-100867033D01*
X156699789Y-101000466D01*
X156694647Y-101003723D01*
X156663069Y-101022650D01*
X156657776Y-101025648D01*
X156614557Y-101048750D01*
X156609119Y-101051488D01*
X156575825Y-101067235D01*
X156570260Y-101069701D01*
X156544500Y-101080371D01*
X153046500Y-101080371D01*
X153046500Y-99583359D01*
X151544500Y-99583359D01*
X151544500Y-101085359D01*
X149187385Y-101085359D01*
X149179920Y-101080371D01*
X149179907Y-101080364D01*
X148997839Y-101004950D01*
X148997829Y-101004947D01*
X148804543Y-100966500D01*
X148804541Y-100966500D01*
X148607459Y-100966500D01*
X148607457Y-100966500D01*
X148414170Y-101004947D01*
X148414160Y-101004950D01*
X148232092Y-101080364D01*
X148232079Y-101080371D01*
X148068218Y-101189860D01*
X148068214Y-101189863D01*
X147928866Y-101329212D01*
X147928860Y-101329218D01*
X147819371Y-101493079D01*
X147819364Y-101493092D01*
X147743950Y-101675160D01*
X147743947Y-101675170D01*
X147705500Y-101868456D01*
X147705500Y-101868459D01*
X147705500Y-102065541D01*
X147705500Y-102065543D01*
X147705499Y-102065543D01*
X142136500Y-102065543D01*
X142136500Y-101863535D01*
X142096130Y-101660580D01*
X142016941Y-101469402D01*
X141901977Y-101297345D01*
X141901975Y-101297342D01*
X141755657Y-101151024D01*
X141657381Y-101085359D01*
X144044500Y-101085359D01*
X145546500Y-101085359D01*
X146544500Y-101085359D01*
X146908118Y-101085359D01*
X146909176Y-101082973D01*
X146924917Y-101049691D01*
X146927653Y-101044256D01*
X146950754Y-101001035D01*
X146953754Y-100995739D01*
X146972689Y-100964147D01*
X146975946Y-100959003D01*
X147112667Y-100754386D01*
X147116170Y-100749412D01*
X147138103Y-100719838D01*
X147141849Y-100715038D01*
X147156652Y-100697000D01*
X147141849Y-100678962D01*
X147138103Y-100674162D01*
X147116170Y-100644588D01*
X147112667Y-100639614D01*
X146975946Y-100434997D01*
X146972689Y-100429853D01*
X146953754Y-100398261D01*
X146950754Y-100392965D01*
X146927653Y-100349744D01*
X146924917Y-100344309D01*
X146909176Y-100311027D01*
X146906710Y-100305463D01*
X146812541Y-100078116D01*
X146810351Y-100072439D01*
X146797949Y-100037778D01*
X146796040Y-100032000D01*
X146781814Y-99985105D01*
X146780191Y-99979241D01*
X146771241Y-99943515D01*
X146769907Y-99937573D01*
X146721896Y-99696208D01*
X146720855Y-99690211D01*
X146715451Y-99653779D01*
X146714706Y-99647738D01*
X146709903Y-99598966D01*
X146709455Y-99592896D01*
X146708987Y-99583359D01*
X146544500Y-99583359D01*
X146544500Y-101085359D01*
X145546500Y-101085359D01*
X145546500Y-99583359D01*
X144044500Y-99583359D01*
X144044500Y-101085359D01*
X141657381Y-101085359D01*
X141649916Y-101080371D01*
X141583598Y-101036059D01*
X141524580Y-101011613D01*
X141392420Y-100956870D01*
X141392414Y-100956868D01*
X141339617Y-100946366D01*
X141277706Y-100913981D01*
X141243132Y-100853265D01*
X141246873Y-100783495D01*
X141287739Y-100726823D01*
X141344413Y-100702275D01*
X141390422Y-100694988D01*
X141585031Y-100631755D01*
X141767349Y-100538859D01*
X141811921Y-100506474D01*
X141132447Y-99827000D01*
X141138661Y-99827000D01*
X141240394Y-99799741D01*
X141331606Y-99747080D01*
X141406080Y-99672606D01*
X141458741Y-99581394D01*
X141486000Y-99479661D01*
X141486000Y-99473447D01*
X142165474Y-100152921D01*
X142197859Y-100108349D01*
X142290755Y-99926031D01*
X142353990Y-99731417D01*
X142386000Y-99529317D01*
X142386000Y-99525543D01*
X147705499Y-99525543D01*
X147743947Y-99718829D01*
X147743950Y-99718839D01*
X147819364Y-99900907D01*
X147819371Y-99900920D01*
X147928860Y-100064781D01*
X147928863Y-100064785D01*
X148068214Y-100204136D01*
X148068218Y-100204139D01*
X148232079Y-100313628D01*
X148232092Y-100313635D01*
X148414160Y-100389049D01*
X148414165Y-100389051D01*
X148414169Y-100389051D01*
X148414170Y-100389052D01*
X148607456Y-100427500D01*
X148607459Y-100427500D01*
X148804543Y-100427500D01*
X148936909Y-100401170D01*
X148997835Y-100389051D01*
X149179914Y-100313632D01*
X149343782Y-100204139D01*
X149483139Y-100064782D01*
X149592632Y-99900914D01*
X149668051Y-99718835D01*
X149695652Y-99580078D01*
X149706500Y-99525543D01*
X149706500Y-99392588D01*
X154735499Y-99392588D01*
X154772794Y-99580078D01*
X154772797Y-99580088D01*
X154845951Y-99756700D01*
X154952164Y-99915660D01*
X155087339Y-100050835D01*
X155246299Y-100157048D01*
X155417059Y-100227778D01*
X155422916Y-100230204D01*
X155422920Y-100230204D01*
X155422921Y-100230205D01*
X155610411Y-100267500D01*
X155610414Y-100267500D01*
X155801588Y-100267500D01*
X155927729Y-100242408D01*
X155989084Y-100230204D01*
X156077394Y-100193625D01*
X156165700Y-100157048D01*
X156165701Y-100157047D01*
X156165704Y-100157046D01*
X156324658Y-100050837D01*
X156459837Y-99915658D01*
X156566046Y-99756704D01*
X156570033Y-99747080D01*
X156639202Y-99580088D01*
X156639204Y-99580084D01*
X156662389Y-99463525D01*
X156676500Y-99392588D01*
X156676500Y-99201411D01*
X156639205Y-99013921D01*
X156639204Y-99013920D01*
X156639204Y-99013916D01*
X156622493Y-98973571D01*
X156566048Y-98837299D01*
X156541412Y-98800428D01*
X167606000Y-98800428D01*
X167606000Y-98973571D01*
X167633085Y-99144584D01*
X167686592Y-99309259D01*
X167765196Y-99463525D01*
X167769709Y-99469736D01*
X167769709Y-99469737D01*
X168352446Y-98887001D01*
X168352446Y-98886999D01*
X168312951Y-98847504D01*
X168406000Y-98847504D01*
X168406000Y-98926496D01*
X168426444Y-99002796D01*
X168465940Y-99071205D01*
X168521795Y-99127060D01*
X168590204Y-99166556D01*
X168666504Y-99187000D01*
X168745496Y-99187000D01*
X168821796Y-99166556D01*
X168890205Y-99127060D01*
X168946060Y-99071205D01*
X168985556Y-99002796D01*
X169006000Y-98926496D01*
X169006000Y-98886999D01*
X169059553Y-98886999D01*
X169059553Y-98887000D01*
X169642289Y-99469736D01*
X169646803Y-99463525D01*
X169725408Y-99309257D01*
X169778914Y-99144584D01*
X169806000Y-98973571D01*
X169806000Y-98830551D01*
X182020500Y-98830551D01*
X182020500Y-99023449D01*
X182025380Y-99054259D01*
X182050675Y-99213969D01*
X182050676Y-99213972D01*
X182110285Y-99397429D01*
X182197859Y-99569302D01*
X182311241Y-99725359D01*
X182447641Y-99861759D01*
X182603698Y-99975141D01*
X182775571Y-100062715D01*
X182959028Y-100122324D01*
X183149551Y-100152500D01*
X183149552Y-100152500D01*
X183342448Y-100152500D01*
X183342449Y-100152500D01*
X183532972Y-100122324D01*
X183716429Y-100062715D01*
X183888302Y-99975141D01*
X184044359Y-99861759D01*
X184180759Y-99725359D01*
X184294141Y-99569302D01*
X184381715Y-99397429D01*
X184441324Y-99213972D01*
X184471500Y-99023449D01*
X184471500Y-98830551D01*
X184441324Y-98640028D01*
X184381715Y-98456571D01*
X184294141Y-98284698D01*
X184180759Y-98128641D01*
X184044359Y-97992241D01*
X183888302Y-97878859D01*
X183716429Y-97791285D01*
X183532972Y-97731676D01*
X183532970Y-97731675D01*
X183532969Y-97731675D01*
X183377427Y-97707040D01*
X183342449Y-97701500D01*
X183149551Y-97701500D01*
X183114573Y-97707040D01*
X182959030Y-97731675D01*
X182775568Y-97791286D01*
X182603697Y-97878859D01*
X182551701Y-97916637D01*
X182447641Y-97992241D01*
X182447639Y-97992243D01*
X182447638Y-97992243D01*
X182311243Y-98128638D01*
X182311243Y-98128639D01*
X182311241Y-98128641D01*
X182277532Y-98175038D01*
X182197859Y-98284697D01*
X182110286Y-98456568D01*
X182050675Y-98640030D01*
X182025271Y-98800428D01*
X182020500Y-98830551D01*
X169806000Y-98830551D01*
X169806000Y-98800428D01*
X169778914Y-98629415D01*
X169725408Y-98464742D01*
X169689812Y-98394882D01*
X173051669Y-98394882D01*
X173051670Y-98394883D01*
X173077059Y-98413329D01*
X173245362Y-98499085D01*
X173424997Y-98557451D01*
X173611553Y-98587000D01*
X173800447Y-98587000D01*
X173810807Y-98585359D01*
X176544500Y-98585359D01*
X178046500Y-98585359D01*
X178046500Y-97083359D01*
X176544500Y-97083359D01*
X176544500Y-98585359D01*
X173810807Y-98585359D01*
X173987002Y-98557451D01*
X174166637Y-98499085D01*
X174334937Y-98413331D01*
X174360328Y-98394883D01*
X174360328Y-98394882D01*
X173706001Y-97740554D01*
X173706000Y-97740554D01*
X173051669Y-98394882D01*
X169689812Y-98394882D01*
X169646801Y-98310471D01*
X169642290Y-98304262D01*
X169642289Y-98304261D01*
X169059553Y-98886999D01*
X169006000Y-98886999D01*
X169006000Y-98847504D01*
X168985556Y-98771204D01*
X168946060Y-98702795D01*
X168890205Y-98646940D01*
X168821796Y-98607444D01*
X168745496Y-98587000D01*
X168666504Y-98587000D01*
X168590204Y-98607444D01*
X168521795Y-98646940D01*
X168465940Y-98702795D01*
X168426444Y-98771204D01*
X168406000Y-98847504D01*
X168312951Y-98847504D01*
X167769709Y-98304261D01*
X167769708Y-98304261D01*
X167765203Y-98310463D01*
X167765193Y-98310480D01*
X167686592Y-98464740D01*
X167633085Y-98629415D01*
X167606000Y-98800428D01*
X156541412Y-98800428D01*
X156459835Y-98678339D01*
X156366855Y-98585359D01*
X159502964Y-98585359D01*
X160546500Y-98585359D01*
X161544500Y-98585359D01*
X163046500Y-98585359D01*
X164044500Y-98585359D01*
X165546500Y-98585359D01*
X166544500Y-98585359D01*
X166629624Y-98585359D01*
X166650438Y-98453949D01*
X166651293Y-98449161D01*
X166657033Y-98420298D01*
X166658075Y-98415547D01*
X166667223Y-98377429D01*
X166668454Y-98372710D01*
X166676457Y-98344331D01*
X166677871Y-98339669D01*
X166743489Y-98137718D01*
X166745083Y-98133121D01*
X166755268Y-98105511D01*
X166757041Y-98100980D01*
X166772040Y-98064763D01*
X166773992Y-98060300D01*
X166786335Y-98033523D01*
X166788463Y-98029137D01*
X166828425Y-97950708D01*
X168123261Y-97950708D01*
X168123261Y-97950709D01*
X168706000Y-98533446D01*
X168706001Y-98533446D01*
X169288737Y-97950709D01*
X169282525Y-97946196D01*
X169128259Y-97867592D01*
X168963584Y-97814085D01*
X168792571Y-97787000D01*
X168619429Y-97787000D01*
X168448415Y-97814085D01*
X168283740Y-97867592D01*
X168129480Y-97946193D01*
X168129463Y-97946203D01*
X168123261Y-97950708D01*
X166828425Y-97950708D01*
X166884863Y-97839944D01*
X166887154Y-97835656D01*
X166901527Y-97809988D01*
X166903987Y-97805790D01*
X166924452Y-97772388D01*
X166927075Y-97768290D01*
X166943434Y-97743801D01*
X166946218Y-97739805D01*
X167092559Y-97538338D01*
X167132287Y-97503029D01*
X167253905Y-97434905D01*
X167322029Y-97313287D01*
X167340458Y-97292552D01*
X172506000Y-97292552D01*
X172506000Y-97481447D01*
X172535548Y-97668002D01*
X172593914Y-97847637D01*
X172679666Y-98015933D01*
X172698116Y-98041328D01*
X173352446Y-97387000D01*
X173352446Y-97386999D01*
X173306369Y-97340922D01*
X173356000Y-97340922D01*
X173356000Y-97433078D01*
X173379852Y-97522095D01*
X173425930Y-97601905D01*
X173491095Y-97667070D01*
X173570905Y-97713148D01*
X173659922Y-97737000D01*
X173752078Y-97737000D01*
X173841095Y-97713148D01*
X173920905Y-97667070D01*
X173986070Y-97601905D01*
X174032148Y-97522095D01*
X174056000Y-97433078D01*
X174056000Y-97386999D01*
X174059554Y-97386999D01*
X174059554Y-97387000D01*
X174713882Y-98041328D01*
X174713883Y-98041328D01*
X174732331Y-98015937D01*
X174818085Y-97847637D01*
X174876451Y-97668002D01*
X174906000Y-97481447D01*
X174906000Y-97292552D01*
X174876451Y-97105997D01*
X174818085Y-96926362D01*
X174732329Y-96758059D01*
X174713883Y-96732670D01*
X174713882Y-96732669D01*
X174059554Y-97386999D01*
X174056000Y-97386999D01*
X174056000Y-97340922D01*
X174032148Y-97251905D01*
X173986070Y-97172095D01*
X173920905Y-97106930D01*
X173841095Y-97060852D01*
X173752078Y-97037000D01*
X173659922Y-97037000D01*
X173570905Y-97060852D01*
X173491095Y-97106930D01*
X173425930Y-97172095D01*
X173379852Y-97251905D01*
X173356000Y-97340922D01*
X173306369Y-97340922D01*
X172698116Y-96732669D01*
X172698116Y-96732670D01*
X172679669Y-96758060D01*
X172593914Y-96926362D01*
X172535548Y-97105997D01*
X172506000Y-97292552D01*
X167340458Y-97292552D01*
X167357338Y-97273559D01*
X167558805Y-97127218D01*
X167562801Y-97124434D01*
X167587290Y-97108075D01*
X167591388Y-97105452D01*
X167624790Y-97084987D01*
X167627568Y-97083359D01*
X166544500Y-97083359D01*
X166544500Y-98585359D01*
X165546500Y-98585359D01*
X165546500Y-97083359D01*
X164044500Y-97083359D01*
X164044500Y-98585359D01*
X163046500Y-98585359D01*
X163046500Y-97083359D01*
X161544500Y-97083359D01*
X161544500Y-98585359D01*
X160546500Y-98585359D01*
X160546500Y-97083359D01*
X160439957Y-97083359D01*
X160418607Y-97218152D01*
X160417752Y-97222941D01*
X160412012Y-97251803D01*
X160410970Y-97256553D01*
X160401822Y-97294672D01*
X160400591Y-97299391D01*
X160392588Y-97327770D01*
X160391174Y-97332433D01*
X160319718Y-97552348D01*
X160318125Y-97556942D01*
X160307941Y-97584551D01*
X160306168Y-97589082D01*
X160291170Y-97625298D01*
X160289216Y-97629765D01*
X160276873Y-97656541D01*
X160274747Y-97660925D01*
X160169761Y-97866970D01*
X160167465Y-97871265D01*
X160153068Y-97896972D01*
X160150606Y-97901173D01*
X160130122Y-97934599D01*
X160127495Y-97938703D01*
X160111130Y-97963193D01*
X160108347Y-97967185D01*
X159945265Y-98191641D01*
X159905535Y-98226945D01*
X159784003Y-98295003D01*
X159715945Y-98416535D01*
X159680641Y-98456265D01*
X159502964Y-98585359D01*
X156366855Y-98585359D01*
X156324660Y-98543164D01*
X156165700Y-98436951D01*
X155989088Y-98363797D01*
X155989078Y-98363794D01*
X155801588Y-98326500D01*
X155801586Y-98326500D01*
X155610414Y-98326500D01*
X155610412Y-98326500D01*
X155422921Y-98363794D01*
X155422911Y-98363797D01*
X155246299Y-98436951D01*
X155087339Y-98543164D01*
X154952164Y-98678339D01*
X154845951Y-98837299D01*
X154772797Y-99013911D01*
X154772794Y-99013921D01*
X154735500Y-99201411D01*
X154735500Y-99201414D01*
X154735500Y-99392586D01*
X154735500Y-99392588D01*
X154735499Y-99392588D01*
X149706500Y-99392588D01*
X149706500Y-99328456D01*
X149668052Y-99135170D01*
X149668051Y-99135169D01*
X149668051Y-99135165D01*
X149656352Y-99106920D01*
X149592635Y-98953092D01*
X149592628Y-98953079D01*
X149483139Y-98789218D01*
X149483136Y-98789214D01*
X149343785Y-98649863D01*
X149343781Y-98649860D01*
X149179920Y-98540371D01*
X149179907Y-98540364D01*
X148997839Y-98464950D01*
X148997829Y-98464947D01*
X148804543Y-98426500D01*
X148804541Y-98426500D01*
X148607459Y-98426500D01*
X148607457Y-98426500D01*
X148414170Y-98464947D01*
X148414160Y-98464950D01*
X148232092Y-98540364D01*
X148232079Y-98540371D01*
X148068218Y-98649860D01*
X148068214Y-98649863D01*
X147928863Y-98789214D01*
X147928860Y-98789218D01*
X147819371Y-98953079D01*
X147819364Y-98953092D01*
X147743950Y-99135160D01*
X147743947Y-99135170D01*
X147705500Y-99328456D01*
X147705500Y-99328459D01*
X147705500Y-99525541D01*
X147705500Y-99525543D01*
X147705499Y-99525543D01*
X142386000Y-99525543D01*
X142386000Y-99324682D01*
X142353990Y-99122582D01*
X142290755Y-98927968D01*
X142197859Y-98745650D01*
X142165474Y-98701077D01*
X142165474Y-98701076D01*
X141486000Y-99380551D01*
X141486000Y-99374339D01*
X141458741Y-99272606D01*
X141406080Y-99181394D01*
X141331606Y-99106920D01*
X141240394Y-99054259D01*
X141138661Y-99027000D01*
X141132446Y-99027000D01*
X141574087Y-98585359D01*
X144044500Y-98585359D01*
X145546500Y-98585359D01*
X146544500Y-98585359D01*
X146891458Y-98585359D01*
X146906710Y-98548537D01*
X146909176Y-98542973D01*
X146924917Y-98509691D01*
X146927653Y-98504256D01*
X146950754Y-98461035D01*
X146953754Y-98455739D01*
X146972689Y-98424147D01*
X146975946Y-98419003D01*
X147112667Y-98214386D01*
X147116170Y-98209412D01*
X147138103Y-98179838D01*
X147141849Y-98175038D01*
X147156652Y-98157000D01*
X147141849Y-98138962D01*
X147138103Y-98134162D01*
X147116170Y-98104588D01*
X147112667Y-98099614D01*
X146975946Y-97894997D01*
X146972689Y-97889853D01*
X146953754Y-97858261D01*
X146950754Y-97852965D01*
X146927653Y-97809744D01*
X146924917Y-97804309D01*
X146909176Y-97771027D01*
X146906710Y-97765463D01*
X146812541Y-97538116D01*
X146810351Y-97532439D01*
X146797949Y-97497778D01*
X146796040Y-97492000D01*
X146781814Y-97445105D01*
X146780191Y-97439241D01*
X146771241Y-97403515D01*
X146769907Y-97397573D01*
X146721896Y-97156208D01*
X146720855Y-97150211D01*
X146715451Y-97113779D01*
X146714706Y-97107738D01*
X146712305Y-97083359D01*
X146544500Y-97083359D01*
X146544500Y-98585359D01*
X145546500Y-98585359D01*
X145546500Y-97083359D01*
X144044500Y-97083359D01*
X144044500Y-98585359D01*
X141574087Y-98585359D01*
X141811922Y-98347524D01*
X141811921Y-98347523D01*
X141767359Y-98315147D01*
X141767350Y-98315141D01*
X141585031Y-98222244D01*
X141390417Y-98159009D01*
X141232343Y-98133973D01*
X141169208Y-98104044D01*
X141132277Y-98044732D01*
X141133275Y-97974870D01*
X141171885Y-97916637D01*
X141235849Y-97888523D01*
X141251741Y-97887500D01*
X141690270Y-97887500D01*
X141720699Y-97884646D01*
X141720701Y-97884646D01*
X141811238Y-97852965D01*
X141848882Y-97839793D01*
X141958150Y-97759150D01*
X142038793Y-97649882D01*
X142065787Y-97572737D01*
X142083646Y-97521701D01*
X142083646Y-97521699D01*
X142086500Y-97491269D01*
X142086500Y-96985543D01*
X147705499Y-96985543D01*
X147743947Y-97178829D01*
X147743950Y-97178839D01*
X147819364Y-97360907D01*
X147819371Y-97360920D01*
X147928860Y-97524781D01*
X147928863Y-97524785D01*
X148068214Y-97664136D01*
X148068218Y-97664139D01*
X148232079Y-97773628D01*
X148232092Y-97773635D01*
X148410751Y-97847637D01*
X148414165Y-97849051D01*
X148414169Y-97849051D01*
X148414170Y-97849052D01*
X148607456Y-97887500D01*
X148607459Y-97887500D01*
X148804543Y-97887500D01*
X148934582Y-97861632D01*
X148997835Y-97849051D01*
X149179914Y-97773632D01*
X149343782Y-97664139D01*
X149483139Y-97524782D01*
X149592632Y-97360914D01*
X149668051Y-97178835D01*
X149691520Y-97060852D01*
X149706500Y-96985543D01*
X149706500Y-96788456D01*
X149682208Y-96666334D01*
X152245500Y-96666334D01*
X152245500Y-96847665D01*
X152280872Y-97025492D01*
X152280874Y-97025500D01*
X152350261Y-97193017D01*
X152350266Y-97193026D01*
X152451000Y-97343784D01*
X152451003Y-97343788D01*
X152579211Y-97471996D01*
X152579215Y-97471999D01*
X152729973Y-97572733D01*
X152729982Y-97572738D01*
X152759653Y-97585028D01*
X152897500Y-97642126D01*
X153027589Y-97668002D01*
X153075334Y-97677499D01*
X153075338Y-97677500D01*
X153075339Y-97677500D01*
X153256662Y-97677500D01*
X153256663Y-97677499D01*
X153434500Y-97642126D01*
X153602020Y-97572737D01*
X153752785Y-97471999D01*
X153880999Y-97343785D01*
X153981737Y-97193020D01*
X154051126Y-97025500D01*
X154086500Y-96847661D01*
X154086500Y-96666339D01*
X154085435Y-96660984D01*
X157026000Y-96660984D01*
X157026000Y-96853015D01*
X157056040Y-97042684D01*
X157115383Y-97225321D01*
X157202561Y-97396415D01*
X157223798Y-97425646D01*
X157846000Y-96803445D01*
X157846000Y-96809661D01*
X157873259Y-96911394D01*
X157925920Y-97002606D01*
X158000394Y-97077080D01*
X158091606Y-97129741D01*
X158193339Y-97157000D01*
X158199554Y-97157000D01*
X157577351Y-97779200D01*
X157577352Y-97779201D01*
X157606577Y-97800434D01*
X157777678Y-97887616D01*
X157960315Y-97946959D01*
X158149985Y-97977000D01*
X158342015Y-97977000D01*
X158531684Y-97946959D01*
X158714321Y-97887616D01*
X158885419Y-97800436D01*
X158914646Y-97779201D01*
X158914646Y-97779200D01*
X158292447Y-97157000D01*
X158298661Y-97157000D01*
X158400394Y-97129741D01*
X158491606Y-97077080D01*
X158566080Y-97002606D01*
X158618741Y-96911394D01*
X158646000Y-96809661D01*
X158646000Y-96803446D01*
X159268200Y-97425646D01*
X159268201Y-97425646D01*
X159289436Y-97396419D01*
X159376616Y-97225321D01*
X159435959Y-97042684D01*
X159466000Y-96853015D01*
X159466000Y-96660984D01*
X159435959Y-96471315D01*
X159406001Y-96379116D01*
X173051669Y-96379116D01*
X173706000Y-97033446D01*
X173706001Y-97033446D01*
X174360328Y-96379116D01*
X174334933Y-96360666D01*
X174181869Y-96282675D01*
X179380500Y-96282675D01*
X179380500Y-96491324D01*
X179413137Y-96697389D01*
X179477612Y-96895820D01*
X179547736Y-97033446D01*
X179572330Y-97081714D01*
X179694965Y-97250505D01*
X179842495Y-97398035D01*
X180011286Y-97520670D01*
X180099116Y-97565421D01*
X180197179Y-97615387D01*
X180197181Y-97615387D01*
X180197184Y-97615389D01*
X180251065Y-97632896D01*
X180395610Y-97679862D01*
X180601676Y-97712500D01*
X180601681Y-97712500D01*
X180810324Y-97712500D01*
X181016389Y-97679862D01*
X181023658Y-97677500D01*
X181214816Y-97615389D01*
X181400714Y-97520670D01*
X181569505Y-97398035D01*
X181717035Y-97250505D01*
X181839670Y-97081714D01*
X181934389Y-96895816D01*
X181998862Y-96697389D01*
X182015053Y-96595165D01*
X182031500Y-96491324D01*
X182031500Y-96282675D01*
X181998862Y-96076610D01*
X181968948Y-95984545D01*
X181934389Y-95878184D01*
X181934387Y-95878181D01*
X181934387Y-95878179D01*
X181861331Y-95734798D01*
X181839670Y-95692286D01*
X181717035Y-95523495D01*
X181569505Y-95375965D01*
X181400714Y-95253330D01*
X181214820Y-95158612D01*
X181016389Y-95094137D01*
X180810324Y-95061500D01*
X180810319Y-95061500D01*
X180601681Y-95061500D01*
X180601676Y-95061500D01*
X180395610Y-95094137D01*
X180197179Y-95158612D01*
X180011285Y-95253330D01*
X179842493Y-95375966D01*
X179694966Y-95523493D01*
X179572330Y-95692285D01*
X179477612Y-95878179D01*
X179413137Y-96076610D01*
X179380500Y-96282675D01*
X174181869Y-96282675D01*
X174166637Y-96274914D01*
X173987002Y-96216548D01*
X173800447Y-96187000D01*
X173611553Y-96187000D01*
X173424997Y-96216548D01*
X173245362Y-96274914D01*
X173077060Y-96360669D01*
X173051670Y-96379116D01*
X173051669Y-96379116D01*
X159406001Y-96379116D01*
X159376616Y-96288678D01*
X159289434Y-96117577D01*
X159268201Y-96088352D01*
X159268200Y-96088351D01*
X158646000Y-96710552D01*
X158646000Y-96704339D01*
X158618741Y-96602606D01*
X158566080Y-96511394D01*
X158491606Y-96436920D01*
X158400394Y-96384259D01*
X158298661Y-96357000D01*
X158292447Y-96357000D01*
X158564087Y-96085359D01*
X161544500Y-96085359D01*
X163046500Y-96085359D01*
X164044500Y-96085359D01*
X165546500Y-96085359D01*
X166544500Y-96085359D01*
X168046500Y-96085359D01*
X169044500Y-96085359D01*
X170546500Y-96085359D01*
X176544500Y-96085359D01*
X178046500Y-96085359D01*
X178046500Y-95705622D01*
X176544500Y-95692504D01*
X176544500Y-96085359D01*
X170546500Y-96085359D01*
X170546500Y-95640119D01*
X169044500Y-95627002D01*
X169044500Y-96085359D01*
X168046500Y-96085359D01*
X168046500Y-95618285D01*
X166544500Y-95605167D01*
X166544500Y-96085359D01*
X165546500Y-96085359D01*
X165546500Y-95596451D01*
X164044500Y-95583333D01*
X164044500Y-96085359D01*
X163046500Y-96085359D01*
X163046500Y-95574617D01*
X161544500Y-95561499D01*
X161544500Y-96085359D01*
X158564087Y-96085359D01*
X158914646Y-95734798D01*
X158885415Y-95713561D01*
X158714321Y-95626383D01*
X158531684Y-95567040D01*
X158342015Y-95537000D01*
X158149985Y-95537000D01*
X157960315Y-95567040D01*
X157777678Y-95626383D01*
X157606578Y-95713564D01*
X157577352Y-95734798D01*
X157577351Y-95734798D01*
X158199554Y-96357000D01*
X158193339Y-96357000D01*
X158091606Y-96384259D01*
X158000394Y-96436920D01*
X157925920Y-96511394D01*
X157873259Y-96602606D01*
X157846000Y-96704339D01*
X157846000Y-96710553D01*
X157223798Y-96088351D01*
X157223798Y-96088352D01*
X157202564Y-96117578D01*
X157115383Y-96288678D01*
X157056040Y-96471315D01*
X157026000Y-96660984D01*
X154085435Y-96660984D01*
X154051126Y-96488500D01*
X153981737Y-96320980D01*
X153981736Y-96320979D01*
X153981733Y-96320973D01*
X153880999Y-96170215D01*
X153880996Y-96170211D01*
X153752788Y-96042003D01*
X153752784Y-96042000D01*
X153602026Y-95941266D01*
X153602017Y-95941261D01*
X153434500Y-95871874D01*
X153434492Y-95871872D01*
X153256665Y-95836500D01*
X153256661Y-95836500D01*
X153075339Y-95836500D01*
X153075334Y-95836500D01*
X152897507Y-95871872D01*
X152897499Y-95871874D01*
X152729982Y-95941261D01*
X152729973Y-95941266D01*
X152579215Y-96042000D01*
X152579211Y-96042003D01*
X152451003Y-96170211D01*
X152451000Y-96170215D01*
X152350266Y-96320973D01*
X152350261Y-96320982D01*
X152280874Y-96488499D01*
X152280872Y-96488507D01*
X152245500Y-96666334D01*
X149682208Y-96666334D01*
X149668052Y-96595170D01*
X149668051Y-96595169D01*
X149668051Y-96595165D01*
X149623872Y-96488507D01*
X149592635Y-96413092D01*
X149592628Y-96413079D01*
X149483139Y-96249218D01*
X149483136Y-96249214D01*
X149343785Y-96109863D01*
X149343781Y-96109860D01*
X149179920Y-96000371D01*
X149179907Y-96000364D01*
X148997839Y-95924950D01*
X148997829Y-95924947D01*
X148804543Y-95886500D01*
X148804541Y-95886500D01*
X148607459Y-95886500D01*
X148607457Y-95886500D01*
X148414170Y-95924947D01*
X148414160Y-95924950D01*
X148232092Y-96000364D01*
X148232079Y-96000371D01*
X148068218Y-96109860D01*
X148068214Y-96109863D01*
X147928863Y-96249214D01*
X147928860Y-96249218D01*
X147819371Y-96413079D01*
X147819364Y-96413092D01*
X147743950Y-96595160D01*
X147743947Y-96595170D01*
X147705500Y-96788456D01*
X147705500Y-96788459D01*
X147705500Y-96985541D01*
X147705500Y-96985543D01*
X147705499Y-96985543D01*
X142086500Y-96985543D01*
X142086500Y-96282730D01*
X142083646Y-96252300D01*
X142083646Y-96252298D01*
X142038793Y-96124119D01*
X142038792Y-96124117D01*
X142033966Y-96117578D01*
X142010188Y-96085359D01*
X144044500Y-96085359D01*
X145546500Y-96085359D01*
X145546500Y-95421779D01*
X144044500Y-95408661D01*
X144044500Y-96085359D01*
X142010188Y-96085359D01*
X141958150Y-96014850D01*
X141848882Y-95934207D01*
X141848880Y-95934206D01*
X141720700Y-95889353D01*
X141690270Y-95886500D01*
X141690266Y-95886500D01*
X140481734Y-95886500D01*
X140481730Y-95886500D01*
X140451300Y-95889353D01*
X140451298Y-95889353D01*
X140323119Y-95934206D01*
X140323117Y-95934207D01*
X140213850Y-96014850D01*
X140133207Y-96124117D01*
X140133206Y-96124119D01*
X140088353Y-96252298D01*
X140088353Y-96252300D01*
X140085500Y-96282730D01*
X140085500Y-97491269D01*
X140088353Y-97521699D01*
X140088353Y-97521701D01*
X140130493Y-97642126D01*
X140133207Y-97649882D01*
X140213850Y-97759150D01*
X140323118Y-97839793D01*
X140349576Y-97849051D01*
X140451299Y-97884646D01*
X140481730Y-97887500D01*
X140920259Y-97887500D01*
X140987298Y-97907185D01*
X141033053Y-97959989D01*
X141042997Y-98029147D01*
X141013972Y-98092703D01*
X140955194Y-98130477D01*
X140939657Y-98133973D01*
X140781582Y-98159009D01*
X140586968Y-98222244D01*
X140404644Y-98315143D01*
X140360077Y-98347523D01*
X140360077Y-98347524D01*
X141039554Y-99027000D01*
X141033339Y-99027000D01*
X140931606Y-99054259D01*
X140840394Y-99106920D01*
X140765920Y-99181394D01*
X140713259Y-99272606D01*
X140686000Y-99374339D01*
X140686000Y-99380553D01*
X140006524Y-98701077D01*
X140006523Y-98701077D01*
X139974143Y-98745644D01*
X139881244Y-98927968D01*
X139818009Y-99122582D01*
X139786000Y-99324682D01*
X136015200Y-99324682D01*
X135969343Y-99213972D01*
X135939984Y-99143092D01*
X135939977Y-99143079D01*
X135830488Y-98979218D01*
X135830485Y-98979214D01*
X135691134Y-98839863D01*
X135691130Y-98839860D01*
X135527269Y-98730371D01*
X135527256Y-98730364D01*
X135345188Y-98654950D01*
X135345178Y-98654947D01*
X135151892Y-98616500D01*
X135151890Y-98616500D01*
X134954808Y-98616500D01*
X134954806Y-98616500D01*
X134761519Y-98654947D01*
X134761509Y-98654950D01*
X134579441Y-98730364D01*
X134579428Y-98730371D01*
X134415567Y-98839860D01*
X134415563Y-98839863D01*
X134276212Y-98979214D01*
X134276209Y-98979218D01*
X134166720Y-99143079D01*
X134166713Y-99143092D01*
X134091299Y-99325160D01*
X134091296Y-99325170D01*
X134052849Y-99518456D01*
X134052849Y-99518459D01*
X134052849Y-99715541D01*
X134052849Y-99715543D01*
X134052848Y-99715543D01*
X133603849Y-99715543D01*
X133603848Y-99019128D01*
X133597440Y-98959517D01*
X133595041Y-98953086D01*
X133547146Y-98824671D01*
X133547142Y-98824664D01*
X133460896Y-98709455D01*
X133460893Y-98709452D01*
X133345684Y-98623206D01*
X133345677Y-98623202D01*
X133210831Y-98572908D01*
X133210832Y-98572908D01*
X133151232Y-98566501D01*
X133151230Y-98566500D01*
X133151222Y-98566500D01*
X133151213Y-98566500D01*
X131955478Y-98566500D01*
X131955472Y-98566501D01*
X131895865Y-98572908D01*
X131761020Y-98623202D01*
X131761013Y-98623206D01*
X131645804Y-98709452D01*
X131645801Y-98709455D01*
X131559555Y-98824664D01*
X131559551Y-98824671D01*
X131509257Y-98959517D01*
X131502850Y-99019116D01*
X131502850Y-99019123D01*
X131502849Y-99019135D01*
X129697970Y-99019135D01*
X129697970Y-98281845D01*
X136544500Y-98281845D01*
X136553508Y-98290853D01*
X136557706Y-98295262D01*
X136582437Y-98322549D01*
X136586411Y-98327156D01*
X136617500Y-98365038D01*
X136621246Y-98369838D01*
X136643179Y-98399412D01*
X136646682Y-98404386D01*
X136767605Y-98585359D01*
X138046500Y-98585359D01*
X138046500Y-97083359D01*
X136544500Y-97083359D01*
X136544500Y-98281845D01*
X129697970Y-98281845D01*
X129697970Y-97887514D01*
X134044500Y-97887514D01*
X134045353Y-97886945D01*
X134050496Y-97883689D01*
X134082088Y-97864754D01*
X134087384Y-97861754D01*
X134130605Y-97838653D01*
X134136040Y-97835917D01*
X134169322Y-97820176D01*
X134174886Y-97817710D01*
X134402233Y-97723541D01*
X134407910Y-97721351D01*
X134442571Y-97708949D01*
X134448349Y-97707040D01*
X134495244Y-97692814D01*
X134501108Y-97691191D01*
X134536834Y-97682241D01*
X134542776Y-97680907D01*
X134784141Y-97632896D01*
X134790138Y-97631855D01*
X134826570Y-97626451D01*
X134832611Y-97625706D01*
X134881383Y-97620903D01*
X134887453Y-97620455D01*
X134924225Y-97618649D01*
X134930308Y-97618500D01*
X135176390Y-97618500D01*
X135182473Y-97618649D01*
X135219245Y-97620455D01*
X135225315Y-97620903D01*
X135274087Y-97625706D01*
X135280128Y-97626451D01*
X135316560Y-97631855D01*
X135322557Y-97632896D01*
X135546500Y-97677441D01*
X135546500Y-97083359D01*
X134044500Y-97083359D01*
X134044500Y-97887514D01*
X129697970Y-97887514D01*
X129697970Y-97638803D01*
X131544500Y-97638803D01*
X131576331Y-97626931D01*
X131583670Y-97624452D01*
X131628521Y-97610847D01*
X131635997Y-97608832D01*
X131696712Y-97594484D01*
X131704304Y-97592939D01*
X131750509Y-97585028D01*
X131758182Y-97583959D01*
X131862104Y-97572788D01*
X131865413Y-97572477D01*
X131885450Y-97570865D01*
X131888762Y-97570643D01*
X131915444Y-97569214D01*
X131918762Y-97569081D01*
X131938812Y-97568545D01*
X131942126Y-97568501D01*
X133046500Y-97568500D01*
X133046500Y-97083359D01*
X131544500Y-97083359D01*
X131544500Y-97638803D01*
X129697970Y-97638803D01*
X129697970Y-96085359D01*
X131544500Y-96085359D01*
X133046500Y-96085359D01*
X134044500Y-96085359D01*
X135546500Y-96085359D01*
X136544500Y-96085359D01*
X138046500Y-96085359D01*
X138046500Y-95356277D01*
X136544500Y-95343159D01*
X136544500Y-96085359D01*
X135546500Y-96085359D01*
X135546500Y-95340109D01*
X134044500Y-95338338D01*
X134044500Y-96085359D01*
X133046500Y-96085359D01*
X133046500Y-95337160D01*
X131544500Y-95335389D01*
X131544500Y-96085359D01*
X129697970Y-96085359D01*
X129697970Y-94459359D01*
X129717655Y-94392320D01*
X129770459Y-94346565D01*
X129822114Y-94335359D01*
X152981428Y-94362673D01*
G37*
%TD.AperFunction*%
%TD*%
M02*
