%TF.GenerationSoftware,KiCad,Pcbnew,9.0.7*%
%TF.CreationDate,2026-03-06T10:06:46+03:00*%
%TF.ProjectId,FM Transmitter System,464d2054-7261-46e7-936d-697474657220,V2.0*%
%TF.SameCoordinates,Original*%
%TF.FileFunction,Legend,Bot*%
%TF.FilePolarity,Positive*%
%FSLAX46Y46*%
G04 Gerber Fmt 4.6, Leading zero omitted, Abs format (unit mm)*
G04 Created by KiCad (PCBNEW 9.0.7) date 2026-03-06 10:06:46*
%MOMM*%
%LPD*%
G01*
G04 APERTURE LIST*
G04 Aperture macros list*
%AMRoundRect*
0 Rectangle with rounded corners*
0 $1 Rounding radius*
0 $2 $3 $4 $5 $6 $7 $8 $9 X,Y pos of 4 corners*
0 Add a 4 corners polygon primitive as box body*
4,1,4,$2,$3,$4,$5,$6,$7,$8,$9,$2,$3,0*
0 Add four circle primitives for the rounded corners*
1,1,$1+$1,$2,$3*
1,1,$1+$1,$4,$5*
1,1,$1+$1,$6,$7*
1,1,$1+$1,$8,$9*
0 Add four rect primitives between the rounded corners*
20,1,$1+$1,$2,$3,$4,$5,0*
20,1,$1+$1,$4,$5,$6,$7,0*
20,1,$1+$1,$6,$7,$8,$9,0*
20,1,$1+$1,$8,$9,$2,$3,0*%
G04 Aperture macros list end*
%ADD10C,0.160000*%
%ADD11C,0.200000*%
%ADD12C,0.010000*%
%ADD13R,1.050000X1.500000*%
%ADD14O,1.050000X1.500000*%
%ADD15R,1.700000X1.700000*%
%ADD16C,1.700000*%
%ADD17RoundRect,0.250000X-0.550000X-0.550000X0.550000X-0.550000X0.550000X0.550000X-0.550000X0.550000X0*%
%ADD18C,1.600000*%
%ADD19RoundRect,0.250000X-0.750000X0.750000X-0.750000X-0.750000X0.750000X-0.750000X0.750000X0.750000X0*%
%ADD20C,2.000000*%
%ADD21C,1.400000*%
%ADD22RoundRect,0.250000X-0.350000X-0.350000X0.350000X-0.350000X0.350000X0.350000X-0.350000X0.350000X0*%
%ADD23C,1.200000*%
%ADD24RoundRect,0.250000X0.350000X-0.350000X0.350000X0.350000X-0.350000X0.350000X-0.350000X-0.350000X0*%
%ADD25C,2.050000*%
%ADD26C,2.250000*%
%ADD27C,1.440000*%
%ADD28C,2.800000*%
%ADD29C,1.500000*%
G04 APERTURE END LIST*
D10*
X144630260Y-118434775D02*
X144630260Y-117634775D01*
X144630260Y-117634775D02*
X144439784Y-117634775D01*
X144439784Y-117634775D02*
X144325498Y-117672870D01*
X144325498Y-117672870D02*
X144249308Y-117749060D01*
X144249308Y-117749060D02*
X144211213Y-117825251D01*
X144211213Y-117825251D02*
X144173117Y-117977632D01*
X144173117Y-117977632D02*
X144173117Y-118091918D01*
X144173117Y-118091918D02*
X144211213Y-118244299D01*
X144211213Y-118244299D02*
X144249308Y-118320489D01*
X144249308Y-118320489D02*
X144325498Y-118396680D01*
X144325498Y-118396680D02*
X144439784Y-118434775D01*
X144439784Y-118434775D02*
X144630260Y-118434775D01*
X143525498Y-118396680D02*
X143601689Y-118434775D01*
X143601689Y-118434775D02*
X143754070Y-118434775D01*
X143754070Y-118434775D02*
X143830260Y-118396680D01*
X143830260Y-118396680D02*
X143868356Y-118320489D01*
X143868356Y-118320489D02*
X143868356Y-118015727D01*
X143868356Y-118015727D02*
X143830260Y-117939537D01*
X143830260Y-117939537D02*
X143754070Y-117901441D01*
X143754070Y-117901441D02*
X143601689Y-117901441D01*
X143601689Y-117901441D02*
X143525498Y-117939537D01*
X143525498Y-117939537D02*
X143487403Y-118015727D01*
X143487403Y-118015727D02*
X143487403Y-118091918D01*
X143487403Y-118091918D02*
X143868356Y-118168108D01*
X143182642Y-118396680D02*
X143106451Y-118434775D01*
X143106451Y-118434775D02*
X142954070Y-118434775D01*
X142954070Y-118434775D02*
X142877880Y-118396680D01*
X142877880Y-118396680D02*
X142839784Y-118320489D01*
X142839784Y-118320489D02*
X142839784Y-118282394D01*
X142839784Y-118282394D02*
X142877880Y-118206203D01*
X142877880Y-118206203D02*
X142954070Y-118168108D01*
X142954070Y-118168108D02*
X143068356Y-118168108D01*
X143068356Y-118168108D02*
X143144546Y-118130013D01*
X143144546Y-118130013D02*
X143182642Y-118053822D01*
X143182642Y-118053822D02*
X143182642Y-118015727D01*
X143182642Y-118015727D02*
X143144546Y-117939537D01*
X143144546Y-117939537D02*
X143068356Y-117901441D01*
X143068356Y-117901441D02*
X142954070Y-117901441D01*
X142954070Y-117901441D02*
X142877880Y-117939537D01*
X142496927Y-118434775D02*
X142496927Y-117901441D01*
X142496927Y-117634775D02*
X142535023Y-117672870D01*
X142535023Y-117672870D02*
X142496927Y-117710965D01*
X142496927Y-117710965D02*
X142458832Y-117672870D01*
X142458832Y-117672870D02*
X142496927Y-117634775D01*
X142496927Y-117634775D02*
X142496927Y-117710965D01*
X141773118Y-117901441D02*
X141773118Y-118549060D01*
X141773118Y-118549060D02*
X141811213Y-118625251D01*
X141811213Y-118625251D02*
X141849309Y-118663346D01*
X141849309Y-118663346D02*
X141925499Y-118701441D01*
X141925499Y-118701441D02*
X142039785Y-118701441D01*
X142039785Y-118701441D02*
X142115975Y-118663346D01*
X141773118Y-118396680D02*
X141849309Y-118434775D01*
X141849309Y-118434775D02*
X142001690Y-118434775D01*
X142001690Y-118434775D02*
X142077880Y-118396680D01*
X142077880Y-118396680D02*
X142115975Y-118358584D01*
X142115975Y-118358584D02*
X142154071Y-118282394D01*
X142154071Y-118282394D02*
X142154071Y-118053822D01*
X142154071Y-118053822D02*
X142115975Y-117977632D01*
X142115975Y-117977632D02*
X142077880Y-117939537D01*
X142077880Y-117939537D02*
X142001690Y-117901441D01*
X142001690Y-117901441D02*
X141849309Y-117901441D01*
X141849309Y-117901441D02*
X141773118Y-117939537D01*
X141392165Y-117901441D02*
X141392165Y-118434775D01*
X141392165Y-117977632D02*
X141354070Y-117939537D01*
X141354070Y-117939537D02*
X141277880Y-117901441D01*
X141277880Y-117901441D02*
X141163594Y-117901441D01*
X141163594Y-117901441D02*
X141087403Y-117939537D01*
X141087403Y-117939537D02*
X141049308Y-118015727D01*
X141049308Y-118015727D02*
X141049308Y-118434775D01*
X140363593Y-118396680D02*
X140439784Y-118434775D01*
X140439784Y-118434775D02*
X140592165Y-118434775D01*
X140592165Y-118434775D02*
X140668355Y-118396680D01*
X140668355Y-118396680D02*
X140706451Y-118320489D01*
X140706451Y-118320489D02*
X140706451Y-118015727D01*
X140706451Y-118015727D02*
X140668355Y-117939537D01*
X140668355Y-117939537D02*
X140592165Y-117901441D01*
X140592165Y-117901441D02*
X140439784Y-117901441D01*
X140439784Y-117901441D02*
X140363593Y-117939537D01*
X140363593Y-117939537D02*
X140325498Y-118015727D01*
X140325498Y-118015727D02*
X140325498Y-118091918D01*
X140325498Y-118091918D02*
X140706451Y-118168108D01*
X139639784Y-118434775D02*
X139639784Y-117634775D01*
X139639784Y-118396680D02*
X139715975Y-118434775D01*
X139715975Y-118434775D02*
X139868356Y-118434775D01*
X139868356Y-118434775D02*
X139944546Y-118396680D01*
X139944546Y-118396680D02*
X139982641Y-118358584D01*
X139982641Y-118358584D02*
X140020737Y-118282394D01*
X140020737Y-118282394D02*
X140020737Y-118053822D01*
X140020737Y-118053822D02*
X139982641Y-117977632D01*
X139982641Y-117977632D02*
X139944546Y-117939537D01*
X139944546Y-117939537D02*
X139868356Y-117901441D01*
X139868356Y-117901441D02*
X139715975Y-117901441D01*
X139715975Y-117901441D02*
X139639784Y-117939537D01*
X138649307Y-118434775D02*
X138649307Y-117634775D01*
X138649307Y-117939537D02*
X138573117Y-117901441D01*
X138573117Y-117901441D02*
X138420736Y-117901441D01*
X138420736Y-117901441D02*
X138344545Y-117939537D01*
X138344545Y-117939537D02*
X138306450Y-117977632D01*
X138306450Y-117977632D02*
X138268355Y-118053822D01*
X138268355Y-118053822D02*
X138268355Y-118282394D01*
X138268355Y-118282394D02*
X138306450Y-118358584D01*
X138306450Y-118358584D02*
X138344545Y-118396680D01*
X138344545Y-118396680D02*
X138420736Y-118434775D01*
X138420736Y-118434775D02*
X138573117Y-118434775D01*
X138573117Y-118434775D02*
X138649307Y-118396680D01*
X138001688Y-117901441D02*
X137811212Y-118434775D01*
X137620735Y-117901441D02*
X137811212Y-118434775D01*
X137811212Y-118434775D02*
X137887402Y-118625251D01*
X137887402Y-118625251D02*
X137925497Y-118663346D01*
X137925497Y-118663346D02*
X138001688Y-118701441D01*
X137315973Y-118358584D02*
X137277878Y-118396680D01*
X137277878Y-118396680D02*
X137315973Y-118434775D01*
X137315973Y-118434775D02*
X137354069Y-118396680D01*
X137354069Y-118396680D02*
X137315973Y-118358584D01*
X137315973Y-118358584D02*
X137315973Y-118434775D01*
X137315973Y-117939537D02*
X137277878Y-117977632D01*
X137277878Y-117977632D02*
X137315973Y-118015727D01*
X137315973Y-118015727D02*
X137354069Y-117977632D01*
X137354069Y-117977632D02*
X137315973Y-117939537D01*
X137315973Y-117939537D02*
X137315973Y-118015727D01*
X136325497Y-118434775D02*
X136325497Y-117634775D01*
X136325497Y-118015727D02*
X135868354Y-118015727D01*
X135868354Y-118434775D02*
X135868354Y-117634775D01*
X135144545Y-118434775D02*
X135144545Y-118015727D01*
X135144545Y-118015727D02*
X135182640Y-117939537D01*
X135182640Y-117939537D02*
X135258831Y-117901441D01*
X135258831Y-117901441D02*
X135411212Y-117901441D01*
X135411212Y-117901441D02*
X135487402Y-117939537D01*
X135144545Y-118396680D02*
X135220736Y-118434775D01*
X135220736Y-118434775D02*
X135411212Y-118434775D01*
X135411212Y-118434775D02*
X135487402Y-118396680D01*
X135487402Y-118396680D02*
X135525498Y-118320489D01*
X135525498Y-118320489D02*
X135525498Y-118244299D01*
X135525498Y-118244299D02*
X135487402Y-118168108D01*
X135487402Y-118168108D02*
X135411212Y-118130013D01*
X135411212Y-118130013D02*
X135220736Y-118130013D01*
X135220736Y-118130013D02*
X135144545Y-118091918D01*
X134763592Y-118434775D02*
X134763592Y-117901441D01*
X134763592Y-117977632D02*
X134725497Y-117939537D01*
X134725497Y-117939537D02*
X134649307Y-117901441D01*
X134649307Y-117901441D02*
X134535021Y-117901441D01*
X134535021Y-117901441D02*
X134458830Y-117939537D01*
X134458830Y-117939537D02*
X134420735Y-118015727D01*
X134420735Y-118015727D02*
X134420735Y-118434775D01*
X134420735Y-118015727D02*
X134382640Y-117939537D01*
X134382640Y-117939537D02*
X134306449Y-117901441D01*
X134306449Y-117901441D02*
X134192164Y-117901441D01*
X134192164Y-117901441D02*
X134115973Y-117939537D01*
X134115973Y-117939537D02*
X134077878Y-118015727D01*
X134077878Y-118015727D02*
X134077878Y-118434775D01*
X133696925Y-118434775D02*
X133696925Y-117901441D01*
X133696925Y-117977632D02*
X133658830Y-117939537D01*
X133658830Y-117939537D02*
X133582640Y-117901441D01*
X133582640Y-117901441D02*
X133468354Y-117901441D01*
X133468354Y-117901441D02*
X133392163Y-117939537D01*
X133392163Y-117939537D02*
X133354068Y-118015727D01*
X133354068Y-118015727D02*
X133354068Y-118434775D01*
X133354068Y-118015727D02*
X133315973Y-117939537D01*
X133315973Y-117939537D02*
X133239782Y-117901441D01*
X133239782Y-117901441D02*
X133125497Y-117901441D01*
X133125497Y-117901441D02*
X133049306Y-117939537D01*
X133049306Y-117939537D02*
X133011211Y-118015727D01*
X133011211Y-118015727D02*
X133011211Y-118434775D01*
X132630258Y-118434775D02*
X132630258Y-117901441D01*
X132630258Y-117634775D02*
X132668354Y-117672870D01*
X132668354Y-117672870D02*
X132630258Y-117710965D01*
X132630258Y-117710965D02*
X132592163Y-117672870D01*
X132592163Y-117672870D02*
X132630258Y-117634775D01*
X132630258Y-117634775D02*
X132630258Y-117710965D01*
X132135021Y-118434775D02*
X132211211Y-118396680D01*
X132211211Y-118396680D02*
X132249306Y-118320489D01*
X132249306Y-118320489D02*
X132249306Y-117634775D01*
X131944544Y-117901441D02*
X131639782Y-117901441D01*
X131830258Y-117634775D02*
X131830258Y-118320489D01*
X131830258Y-118320489D02*
X131792163Y-118396680D01*
X131792163Y-118396680D02*
X131715973Y-118434775D01*
X131715973Y-118434775D02*
X131639782Y-118434775D01*
X131258830Y-118434775D02*
X131335020Y-118396680D01*
X131335020Y-118396680D02*
X131373115Y-118358584D01*
X131373115Y-118358584D02*
X131411211Y-118282394D01*
X131411211Y-118282394D02*
X131411211Y-118053822D01*
X131411211Y-118053822D02*
X131373115Y-117977632D01*
X131373115Y-117977632D02*
X131335020Y-117939537D01*
X131335020Y-117939537D02*
X131258830Y-117901441D01*
X131258830Y-117901441D02*
X131144544Y-117901441D01*
X131144544Y-117901441D02*
X131068353Y-117939537D01*
X131068353Y-117939537D02*
X131030258Y-117977632D01*
X131030258Y-117977632D02*
X130992163Y-118053822D01*
X130992163Y-118053822D02*
X130992163Y-118282394D01*
X130992163Y-118282394D02*
X131030258Y-118358584D01*
X131030258Y-118358584D02*
X131068353Y-118396680D01*
X131068353Y-118396680D02*
X131144544Y-118434775D01*
X131144544Y-118434775D02*
X131258830Y-118434775D01*
X130649305Y-117901441D02*
X130649305Y-118434775D01*
X130649305Y-117977632D02*
X130611210Y-117939537D01*
X130611210Y-117939537D02*
X130535020Y-117901441D01*
X130535020Y-117901441D02*
X130420734Y-117901441D01*
X130420734Y-117901441D02*
X130344543Y-117939537D01*
X130344543Y-117939537D02*
X130306448Y-118015727D01*
X130306448Y-118015727D02*
X130306448Y-118434775D01*
X129315971Y-118434775D02*
X129315971Y-117634775D01*
X129315971Y-117634775D02*
X128858828Y-118434775D01*
X128858828Y-118434775D02*
X128858828Y-117634775D01*
X128554067Y-117901441D02*
X128363591Y-118434775D01*
X128173114Y-117901441D02*
X128363591Y-118434775D01*
X128363591Y-118434775D02*
X128439781Y-118625251D01*
X128439781Y-118625251D02*
X128477876Y-118663346D01*
X128477876Y-118663346D02*
X128554067Y-118701441D01*
X127525495Y-118434775D02*
X127525495Y-118015727D01*
X127525495Y-118015727D02*
X127563590Y-117939537D01*
X127563590Y-117939537D02*
X127639781Y-117901441D01*
X127639781Y-117901441D02*
X127792162Y-117901441D01*
X127792162Y-117901441D02*
X127868352Y-117939537D01*
X127525495Y-118396680D02*
X127601686Y-118434775D01*
X127601686Y-118434775D02*
X127792162Y-118434775D01*
X127792162Y-118434775D02*
X127868352Y-118396680D01*
X127868352Y-118396680D02*
X127906448Y-118320489D01*
X127906448Y-118320489D02*
X127906448Y-118244299D01*
X127906448Y-118244299D02*
X127868352Y-118168108D01*
X127868352Y-118168108D02*
X127792162Y-118130013D01*
X127792162Y-118130013D02*
X127601686Y-118130013D01*
X127601686Y-118130013D02*
X127525495Y-118091918D01*
X127144542Y-118434775D02*
X127144542Y-117901441D01*
X127144542Y-117977632D02*
X127106447Y-117939537D01*
X127106447Y-117939537D02*
X127030257Y-117901441D01*
X127030257Y-117901441D02*
X126915971Y-117901441D01*
X126915971Y-117901441D02*
X126839780Y-117939537D01*
X126839780Y-117939537D02*
X126801685Y-118015727D01*
X126801685Y-118015727D02*
X126801685Y-118434775D01*
X126801685Y-118015727D02*
X126763590Y-117939537D01*
X126763590Y-117939537D02*
X126687399Y-117901441D01*
X126687399Y-117901441D02*
X126573114Y-117901441D01*
X126573114Y-117901441D02*
X126496923Y-117939537D01*
X126496923Y-117939537D02*
X126458828Y-118015727D01*
X126458828Y-118015727D02*
X126458828Y-118434775D01*
X125735018Y-118434775D02*
X125735018Y-118015727D01*
X125735018Y-118015727D02*
X125773113Y-117939537D01*
X125773113Y-117939537D02*
X125849304Y-117901441D01*
X125849304Y-117901441D02*
X126001685Y-117901441D01*
X126001685Y-117901441D02*
X126077875Y-117939537D01*
X125735018Y-118396680D02*
X125811209Y-118434775D01*
X125811209Y-118434775D02*
X126001685Y-118434775D01*
X126001685Y-118434775D02*
X126077875Y-118396680D01*
X126077875Y-118396680D02*
X126115971Y-118320489D01*
X126115971Y-118320489D02*
X126115971Y-118244299D01*
X126115971Y-118244299D02*
X126077875Y-118168108D01*
X126077875Y-118168108D02*
X126001685Y-118130013D01*
X126001685Y-118130013D02*
X125811209Y-118130013D01*
X125811209Y-118130013D02*
X125735018Y-118091918D01*
X125011208Y-118396680D02*
X125087399Y-118434775D01*
X125087399Y-118434775D02*
X125239780Y-118434775D01*
X125239780Y-118434775D02*
X125315970Y-118396680D01*
X125315970Y-118396680D02*
X125354065Y-118358584D01*
X125354065Y-118358584D02*
X125392161Y-118282394D01*
X125392161Y-118282394D02*
X125392161Y-118053822D01*
X125392161Y-118053822D02*
X125354065Y-117977632D01*
X125354065Y-117977632D02*
X125315970Y-117939537D01*
X125315970Y-117939537D02*
X125239780Y-117901441D01*
X125239780Y-117901441D02*
X125087399Y-117901441D01*
X125087399Y-117901441D02*
X125011208Y-117939537D01*
X124668351Y-118434775D02*
X124668351Y-117634775D01*
X124325494Y-118434775D02*
X124325494Y-118015727D01*
X124325494Y-118015727D02*
X124363589Y-117939537D01*
X124363589Y-117939537D02*
X124439780Y-117901441D01*
X124439780Y-117901441D02*
X124554066Y-117901441D01*
X124554066Y-117901441D02*
X124630256Y-117939537D01*
X124630256Y-117939537D02*
X124668351Y-117977632D01*
X123639779Y-118396680D02*
X123715970Y-118434775D01*
X123715970Y-118434775D02*
X123868351Y-118434775D01*
X123868351Y-118434775D02*
X123944541Y-118396680D01*
X123944541Y-118396680D02*
X123982637Y-118320489D01*
X123982637Y-118320489D02*
X123982637Y-118015727D01*
X123982637Y-118015727D02*
X123944541Y-117939537D01*
X123944541Y-117939537D02*
X123868351Y-117901441D01*
X123868351Y-117901441D02*
X123715970Y-117901441D01*
X123715970Y-117901441D02*
X123639779Y-117939537D01*
X123639779Y-117939537D02*
X123601684Y-118015727D01*
X123601684Y-118015727D02*
X123601684Y-118091918D01*
X123601684Y-118091918D02*
X123982637Y-118168108D01*
D11*
X150296993Y-106513577D02*
X150630326Y-106513577D01*
X150630326Y-107037387D02*
X150630326Y-106037387D01*
X150630326Y-106037387D02*
X150154136Y-106037387D01*
X149773183Y-107037387D02*
X149773183Y-106037387D01*
X149773183Y-106037387D02*
X149439850Y-106751672D01*
X149439850Y-106751672D02*
X149106517Y-106037387D01*
X149106517Y-106037387D02*
X149106517Y-107037387D01*
X148011278Y-106037387D02*
X147439850Y-106037387D01*
X147725564Y-107037387D02*
X147725564Y-106037387D01*
X146535088Y-107037387D02*
X146868421Y-106561196D01*
X147106516Y-107037387D02*
X147106516Y-106037387D01*
X147106516Y-106037387D02*
X146725564Y-106037387D01*
X146725564Y-106037387D02*
X146630326Y-106085006D01*
X146630326Y-106085006D02*
X146582707Y-106132625D01*
X146582707Y-106132625D02*
X146535088Y-106227863D01*
X146535088Y-106227863D02*
X146535088Y-106370720D01*
X146535088Y-106370720D02*
X146582707Y-106465958D01*
X146582707Y-106465958D02*
X146630326Y-106513577D01*
X146630326Y-106513577D02*
X146725564Y-106561196D01*
X146725564Y-106561196D02*
X147106516Y-106561196D01*
X146154135Y-106751672D02*
X145677945Y-106751672D01*
X146249373Y-107037387D02*
X145916040Y-106037387D01*
X145916040Y-106037387D02*
X145582707Y-107037387D01*
X145249373Y-107037387D02*
X145249373Y-106037387D01*
X145249373Y-106037387D02*
X144677945Y-107037387D01*
X144677945Y-107037387D02*
X144677945Y-106037387D01*
X144249373Y-106989768D02*
X144106516Y-107037387D01*
X144106516Y-107037387D02*
X143868421Y-107037387D01*
X143868421Y-107037387D02*
X143773183Y-106989768D01*
X143773183Y-106989768D02*
X143725564Y-106942148D01*
X143725564Y-106942148D02*
X143677945Y-106846910D01*
X143677945Y-106846910D02*
X143677945Y-106751672D01*
X143677945Y-106751672D02*
X143725564Y-106656434D01*
X143725564Y-106656434D02*
X143773183Y-106608815D01*
X143773183Y-106608815D02*
X143868421Y-106561196D01*
X143868421Y-106561196D02*
X144058897Y-106513577D01*
X144058897Y-106513577D02*
X144154135Y-106465958D01*
X144154135Y-106465958D02*
X144201754Y-106418339D01*
X144201754Y-106418339D02*
X144249373Y-106323101D01*
X144249373Y-106323101D02*
X144249373Y-106227863D01*
X144249373Y-106227863D02*
X144201754Y-106132625D01*
X144201754Y-106132625D02*
X144154135Y-106085006D01*
X144154135Y-106085006D02*
X144058897Y-106037387D01*
X144058897Y-106037387D02*
X143820802Y-106037387D01*
X143820802Y-106037387D02*
X143677945Y-106085006D01*
X143249373Y-107037387D02*
X143249373Y-106037387D01*
X143249373Y-106037387D02*
X142916040Y-106751672D01*
X142916040Y-106751672D02*
X142582707Y-106037387D01*
X142582707Y-106037387D02*
X142582707Y-107037387D01*
X142106516Y-107037387D02*
X142106516Y-106037387D01*
X141773183Y-106037387D02*
X141201755Y-106037387D01*
X141487469Y-107037387D02*
X141487469Y-106037387D01*
X141011278Y-106037387D02*
X140439850Y-106037387D01*
X140725564Y-107037387D02*
X140725564Y-106037387D01*
X140106516Y-106513577D02*
X139773183Y-106513577D01*
X139630326Y-107037387D02*
X140106516Y-107037387D01*
X140106516Y-107037387D02*
X140106516Y-106037387D01*
X140106516Y-106037387D02*
X139630326Y-106037387D01*
X138630326Y-107037387D02*
X138963659Y-106561196D01*
X139201754Y-107037387D02*
X139201754Y-106037387D01*
X139201754Y-106037387D02*
X138820802Y-106037387D01*
X138820802Y-106037387D02*
X138725564Y-106085006D01*
X138725564Y-106085006D02*
X138677945Y-106132625D01*
X138677945Y-106132625D02*
X138630326Y-106227863D01*
X138630326Y-106227863D02*
X138630326Y-106370720D01*
X138630326Y-106370720D02*
X138677945Y-106465958D01*
X138677945Y-106465958D02*
X138725564Y-106513577D01*
X138725564Y-106513577D02*
X138820802Y-106561196D01*
X138820802Y-106561196D02*
X139201754Y-106561196D01*
X137439849Y-107037387D02*
X137439849Y-106037387D01*
X137439849Y-106037387D02*
X137058897Y-106037387D01*
X137058897Y-106037387D02*
X136963659Y-106085006D01*
X136963659Y-106085006D02*
X136916040Y-106132625D01*
X136916040Y-106132625D02*
X136868421Y-106227863D01*
X136868421Y-106227863D02*
X136868421Y-106370720D01*
X136868421Y-106370720D02*
X136916040Y-106465958D01*
X136916040Y-106465958D02*
X136963659Y-106513577D01*
X136963659Y-106513577D02*
X137058897Y-106561196D01*
X137058897Y-106561196D02*
X137439849Y-106561196D01*
X135868421Y-107037387D02*
X136201754Y-106561196D01*
X136439849Y-107037387D02*
X136439849Y-106037387D01*
X136439849Y-106037387D02*
X136058897Y-106037387D01*
X136058897Y-106037387D02*
X135963659Y-106085006D01*
X135963659Y-106085006D02*
X135916040Y-106132625D01*
X135916040Y-106132625D02*
X135868421Y-106227863D01*
X135868421Y-106227863D02*
X135868421Y-106370720D01*
X135868421Y-106370720D02*
X135916040Y-106465958D01*
X135916040Y-106465958D02*
X135963659Y-106513577D01*
X135963659Y-106513577D02*
X136058897Y-106561196D01*
X136058897Y-106561196D02*
X136439849Y-106561196D01*
X135249373Y-106037387D02*
X135058897Y-106037387D01*
X135058897Y-106037387D02*
X134963659Y-106085006D01*
X134963659Y-106085006D02*
X134868421Y-106180244D01*
X134868421Y-106180244D02*
X134820802Y-106370720D01*
X134820802Y-106370720D02*
X134820802Y-106704053D01*
X134820802Y-106704053D02*
X134868421Y-106894529D01*
X134868421Y-106894529D02*
X134963659Y-106989768D01*
X134963659Y-106989768D02*
X135058897Y-107037387D01*
X135058897Y-107037387D02*
X135249373Y-107037387D01*
X135249373Y-107037387D02*
X135344611Y-106989768D01*
X135344611Y-106989768D02*
X135439849Y-106894529D01*
X135439849Y-106894529D02*
X135487468Y-106704053D01*
X135487468Y-106704053D02*
X135487468Y-106370720D01*
X135487468Y-106370720D02*
X135439849Y-106180244D01*
X135439849Y-106180244D02*
X135344611Y-106085006D01*
X135344611Y-106085006D02*
X135249373Y-106037387D01*
X134106516Y-106037387D02*
X134106516Y-106751672D01*
X134106516Y-106751672D02*
X134154135Y-106894529D01*
X134154135Y-106894529D02*
X134249373Y-106989768D01*
X134249373Y-106989768D02*
X134392230Y-107037387D01*
X134392230Y-107037387D02*
X134487468Y-107037387D01*
X133630325Y-106513577D02*
X133296992Y-106513577D01*
X133154135Y-107037387D02*
X133630325Y-107037387D01*
X133630325Y-107037387D02*
X133630325Y-106037387D01*
X133630325Y-106037387D02*
X133154135Y-106037387D01*
X132154135Y-106942148D02*
X132201754Y-106989768D01*
X132201754Y-106989768D02*
X132344611Y-107037387D01*
X132344611Y-107037387D02*
X132439849Y-107037387D01*
X132439849Y-107037387D02*
X132582706Y-106989768D01*
X132582706Y-106989768D02*
X132677944Y-106894529D01*
X132677944Y-106894529D02*
X132725563Y-106799291D01*
X132725563Y-106799291D02*
X132773182Y-106608815D01*
X132773182Y-106608815D02*
X132773182Y-106465958D01*
X132773182Y-106465958D02*
X132725563Y-106275482D01*
X132725563Y-106275482D02*
X132677944Y-106180244D01*
X132677944Y-106180244D02*
X132582706Y-106085006D01*
X132582706Y-106085006D02*
X132439849Y-106037387D01*
X132439849Y-106037387D02*
X132344611Y-106037387D01*
X132344611Y-106037387D02*
X132201754Y-106085006D01*
X132201754Y-106085006D02*
X132154135Y-106132625D01*
X131868420Y-106037387D02*
X131296992Y-106037387D01*
X131582706Y-107037387D02*
X131582706Y-106037387D01*
X150058898Y-108552092D02*
X150106517Y-108599712D01*
X150106517Y-108599712D02*
X150249374Y-108647331D01*
X150249374Y-108647331D02*
X150344612Y-108647331D01*
X150344612Y-108647331D02*
X150487469Y-108599712D01*
X150487469Y-108599712D02*
X150582707Y-108504473D01*
X150582707Y-108504473D02*
X150630326Y-108409235D01*
X150630326Y-108409235D02*
X150677945Y-108218759D01*
X150677945Y-108218759D02*
X150677945Y-108075902D01*
X150677945Y-108075902D02*
X150630326Y-107885426D01*
X150630326Y-107885426D02*
X150582707Y-107790188D01*
X150582707Y-107790188D02*
X150487469Y-107694950D01*
X150487469Y-107694950D02*
X150344612Y-107647331D01*
X150344612Y-107647331D02*
X150249374Y-107647331D01*
X150249374Y-107647331D02*
X150106517Y-107694950D01*
X150106517Y-107694950D02*
X150058898Y-107742569D01*
X149630326Y-108647331D02*
X149630326Y-107980664D01*
X149630326Y-108171140D02*
X149582707Y-108075902D01*
X149582707Y-108075902D02*
X149535088Y-108028283D01*
X149535088Y-108028283D02*
X149439850Y-107980664D01*
X149439850Y-107980664D02*
X149344612Y-107980664D01*
X149106516Y-107980664D02*
X148868421Y-108647331D01*
X148630326Y-107980664D02*
X148868421Y-108647331D01*
X148868421Y-108647331D02*
X148963659Y-108885426D01*
X148963659Y-108885426D02*
X149011278Y-108933045D01*
X149011278Y-108933045D02*
X149106516Y-108980664D01*
X148296992Y-108599712D02*
X148201754Y-108647331D01*
X148201754Y-108647331D02*
X148011278Y-108647331D01*
X148011278Y-108647331D02*
X147916040Y-108599712D01*
X147916040Y-108599712D02*
X147868421Y-108504473D01*
X147868421Y-108504473D02*
X147868421Y-108456854D01*
X147868421Y-108456854D02*
X147916040Y-108361616D01*
X147916040Y-108361616D02*
X148011278Y-108313997D01*
X148011278Y-108313997D02*
X148154135Y-108313997D01*
X148154135Y-108313997D02*
X148249373Y-108266378D01*
X148249373Y-108266378D02*
X148296992Y-108171140D01*
X148296992Y-108171140D02*
X148296992Y-108123521D01*
X148296992Y-108123521D02*
X148249373Y-108028283D01*
X148249373Y-108028283D02*
X148154135Y-107980664D01*
X148154135Y-107980664D02*
X148011278Y-107980664D01*
X148011278Y-107980664D02*
X147916040Y-108028283D01*
X147582706Y-107980664D02*
X147201754Y-107980664D01*
X147439849Y-107647331D02*
X147439849Y-108504473D01*
X147439849Y-108504473D02*
X147392230Y-108599712D01*
X147392230Y-108599712D02*
X147296992Y-108647331D01*
X147296992Y-108647331D02*
X147201754Y-108647331D01*
X146439849Y-108647331D02*
X146439849Y-108123521D01*
X146439849Y-108123521D02*
X146487468Y-108028283D01*
X146487468Y-108028283D02*
X146582706Y-107980664D01*
X146582706Y-107980664D02*
X146773182Y-107980664D01*
X146773182Y-107980664D02*
X146868420Y-108028283D01*
X146439849Y-108599712D02*
X146535087Y-108647331D01*
X146535087Y-108647331D02*
X146773182Y-108647331D01*
X146773182Y-108647331D02*
X146868420Y-108599712D01*
X146868420Y-108599712D02*
X146916039Y-108504473D01*
X146916039Y-108504473D02*
X146916039Y-108409235D01*
X146916039Y-108409235D02*
X146868420Y-108313997D01*
X146868420Y-108313997D02*
X146773182Y-108266378D01*
X146773182Y-108266378D02*
X146535087Y-108266378D01*
X146535087Y-108266378D02*
X146439849Y-108218759D01*
X145820801Y-108647331D02*
X145916039Y-108599712D01*
X145916039Y-108599712D02*
X145963658Y-108504473D01*
X145963658Y-108504473D02*
X145963658Y-107647331D01*
X144106515Y-108552092D02*
X144154134Y-108599712D01*
X144154134Y-108599712D02*
X144296991Y-108647331D01*
X144296991Y-108647331D02*
X144392229Y-108647331D01*
X144392229Y-108647331D02*
X144535086Y-108599712D01*
X144535086Y-108599712D02*
X144630324Y-108504473D01*
X144630324Y-108504473D02*
X144677943Y-108409235D01*
X144677943Y-108409235D02*
X144725562Y-108218759D01*
X144725562Y-108218759D02*
X144725562Y-108075902D01*
X144725562Y-108075902D02*
X144677943Y-107885426D01*
X144677943Y-107885426D02*
X144630324Y-107790188D01*
X144630324Y-107790188D02*
X144535086Y-107694950D01*
X144535086Y-107694950D02*
X144392229Y-107647331D01*
X144392229Y-107647331D02*
X144296991Y-107647331D01*
X144296991Y-107647331D02*
X144154134Y-107694950D01*
X144154134Y-107694950D02*
X144106515Y-107742569D01*
X143535086Y-108647331D02*
X143630324Y-108599712D01*
X143630324Y-108599712D02*
X143677943Y-108552092D01*
X143677943Y-108552092D02*
X143725562Y-108456854D01*
X143725562Y-108456854D02*
X143725562Y-108171140D01*
X143725562Y-108171140D02*
X143677943Y-108075902D01*
X143677943Y-108075902D02*
X143630324Y-108028283D01*
X143630324Y-108028283D02*
X143535086Y-107980664D01*
X143535086Y-107980664D02*
X143392229Y-107980664D01*
X143392229Y-107980664D02*
X143296991Y-108028283D01*
X143296991Y-108028283D02*
X143249372Y-108075902D01*
X143249372Y-108075902D02*
X143201753Y-108171140D01*
X143201753Y-108171140D02*
X143201753Y-108456854D01*
X143201753Y-108456854D02*
X143249372Y-108552092D01*
X143249372Y-108552092D02*
X143296991Y-108599712D01*
X143296991Y-108599712D02*
X143392229Y-108647331D01*
X143392229Y-108647331D02*
X143535086Y-108647331D01*
X142773181Y-107980664D02*
X142773181Y-108647331D01*
X142773181Y-108075902D02*
X142725562Y-108028283D01*
X142725562Y-108028283D02*
X142630324Y-107980664D01*
X142630324Y-107980664D02*
X142487467Y-107980664D01*
X142487467Y-107980664D02*
X142392229Y-108028283D01*
X142392229Y-108028283D02*
X142344610Y-108123521D01*
X142344610Y-108123521D02*
X142344610Y-108647331D01*
X142011276Y-107980664D02*
X141630324Y-107980664D01*
X141868419Y-107647331D02*
X141868419Y-108504473D01*
X141868419Y-108504473D02*
X141820800Y-108599712D01*
X141820800Y-108599712D02*
X141725562Y-108647331D01*
X141725562Y-108647331D02*
X141630324Y-108647331D01*
X141296990Y-108647331D02*
X141296990Y-107980664D01*
X141296990Y-108171140D02*
X141249371Y-108075902D01*
X141249371Y-108075902D02*
X141201752Y-108028283D01*
X141201752Y-108028283D02*
X141106514Y-107980664D01*
X141106514Y-107980664D02*
X141011276Y-107980664D01*
X140535085Y-108647331D02*
X140630323Y-108599712D01*
X140630323Y-108599712D02*
X140677942Y-108552092D01*
X140677942Y-108552092D02*
X140725561Y-108456854D01*
X140725561Y-108456854D02*
X140725561Y-108171140D01*
X140725561Y-108171140D02*
X140677942Y-108075902D01*
X140677942Y-108075902D02*
X140630323Y-108028283D01*
X140630323Y-108028283D02*
X140535085Y-107980664D01*
X140535085Y-107980664D02*
X140392228Y-107980664D01*
X140392228Y-107980664D02*
X140296990Y-108028283D01*
X140296990Y-108028283D02*
X140249371Y-108075902D01*
X140249371Y-108075902D02*
X140201752Y-108171140D01*
X140201752Y-108171140D02*
X140201752Y-108456854D01*
X140201752Y-108456854D02*
X140249371Y-108552092D01*
X140249371Y-108552092D02*
X140296990Y-108599712D01*
X140296990Y-108599712D02*
X140392228Y-108647331D01*
X140392228Y-108647331D02*
X140535085Y-108647331D01*
X139630323Y-108647331D02*
X139725561Y-108599712D01*
X139725561Y-108599712D02*
X139773180Y-108504473D01*
X139773180Y-108504473D02*
X139773180Y-107647331D01*
X139106513Y-108647331D02*
X139201751Y-108599712D01*
X139201751Y-108599712D02*
X139249370Y-108504473D01*
X139249370Y-108504473D02*
X139249370Y-107647331D01*
X138344608Y-108599712D02*
X138439846Y-108647331D01*
X138439846Y-108647331D02*
X138630322Y-108647331D01*
X138630322Y-108647331D02*
X138725560Y-108599712D01*
X138725560Y-108599712D02*
X138773179Y-108504473D01*
X138773179Y-108504473D02*
X138773179Y-108123521D01*
X138773179Y-108123521D02*
X138725560Y-108028283D01*
X138725560Y-108028283D02*
X138630322Y-107980664D01*
X138630322Y-107980664D02*
X138439846Y-107980664D01*
X138439846Y-107980664D02*
X138344608Y-108028283D01*
X138344608Y-108028283D02*
X138296989Y-108123521D01*
X138296989Y-108123521D02*
X138296989Y-108218759D01*
X138296989Y-108218759D02*
X138773179Y-108313997D01*
X137439846Y-108647331D02*
X137439846Y-107647331D01*
X137439846Y-108599712D02*
X137535084Y-108647331D01*
X137535084Y-108647331D02*
X137725560Y-108647331D01*
X137725560Y-108647331D02*
X137820798Y-108599712D01*
X137820798Y-108599712D02*
X137868417Y-108552092D01*
X137868417Y-108552092D02*
X137916036Y-108456854D01*
X137916036Y-108456854D02*
X137916036Y-108171140D01*
X137916036Y-108171140D02*
X137868417Y-108075902D01*
X137868417Y-108075902D02*
X137820798Y-108028283D01*
X137820798Y-108028283D02*
X137725560Y-107980664D01*
X137725560Y-107980664D02*
X137535084Y-107980664D01*
X137535084Y-107980664D02*
X137439846Y-108028283D01*
X136011274Y-107647331D02*
X135820798Y-107647331D01*
X135820798Y-107647331D02*
X135725560Y-107694950D01*
X135725560Y-107694950D02*
X135630322Y-107790188D01*
X135630322Y-107790188D02*
X135582703Y-107980664D01*
X135582703Y-107980664D02*
X135582703Y-108313997D01*
X135582703Y-108313997D02*
X135630322Y-108504473D01*
X135630322Y-108504473D02*
X135725560Y-108599712D01*
X135725560Y-108599712D02*
X135820798Y-108647331D01*
X135820798Y-108647331D02*
X136011274Y-108647331D01*
X136011274Y-108647331D02*
X136106512Y-108599712D01*
X136106512Y-108599712D02*
X136201750Y-108504473D01*
X136201750Y-108504473D02*
X136249369Y-108313997D01*
X136249369Y-108313997D02*
X136249369Y-107980664D01*
X136249369Y-107980664D02*
X136201750Y-107790188D01*
X136201750Y-107790188D02*
X136106512Y-107694950D01*
X136106512Y-107694950D02*
X136011274Y-107647331D01*
X135201750Y-108599712D02*
X135106512Y-108647331D01*
X135106512Y-108647331D02*
X134916036Y-108647331D01*
X134916036Y-108647331D02*
X134820798Y-108599712D01*
X134820798Y-108599712D02*
X134773179Y-108504473D01*
X134773179Y-108504473D02*
X134773179Y-108456854D01*
X134773179Y-108456854D02*
X134820798Y-108361616D01*
X134820798Y-108361616D02*
X134916036Y-108313997D01*
X134916036Y-108313997D02*
X135058893Y-108313997D01*
X135058893Y-108313997D02*
X135154131Y-108266378D01*
X135154131Y-108266378D02*
X135201750Y-108171140D01*
X135201750Y-108171140D02*
X135201750Y-108123521D01*
X135201750Y-108123521D02*
X135154131Y-108028283D01*
X135154131Y-108028283D02*
X135058893Y-107980664D01*
X135058893Y-107980664D02*
X134916036Y-107980664D01*
X134916036Y-107980664D02*
X134820798Y-108028283D01*
X133916036Y-108599712D02*
X134011274Y-108647331D01*
X134011274Y-108647331D02*
X134201750Y-108647331D01*
X134201750Y-108647331D02*
X134296988Y-108599712D01*
X134296988Y-108599712D02*
X134344607Y-108552092D01*
X134344607Y-108552092D02*
X134392226Y-108456854D01*
X134392226Y-108456854D02*
X134392226Y-108171140D01*
X134392226Y-108171140D02*
X134344607Y-108075902D01*
X134344607Y-108075902D02*
X134296988Y-108028283D01*
X134296988Y-108028283D02*
X134201750Y-107980664D01*
X134201750Y-107980664D02*
X134011274Y-107980664D01*
X134011274Y-107980664D02*
X133916036Y-108028283D01*
X133487464Y-108647331D02*
X133487464Y-107980664D01*
X133487464Y-107647331D02*
X133535083Y-107694950D01*
X133535083Y-107694950D02*
X133487464Y-107742569D01*
X133487464Y-107742569D02*
X133439845Y-107694950D01*
X133439845Y-107694950D02*
X133487464Y-107647331D01*
X133487464Y-107647331D02*
X133487464Y-107742569D01*
X132868417Y-108647331D02*
X132963655Y-108599712D01*
X132963655Y-108599712D02*
X133011274Y-108504473D01*
X133011274Y-108504473D02*
X133011274Y-107647331D01*
X132344607Y-108647331D02*
X132439845Y-108599712D01*
X132439845Y-108599712D02*
X132487464Y-108504473D01*
X132487464Y-108504473D02*
X132487464Y-107647331D01*
X131535083Y-108647331D02*
X131535083Y-108123521D01*
X131535083Y-108123521D02*
X131582702Y-108028283D01*
X131582702Y-108028283D02*
X131677940Y-107980664D01*
X131677940Y-107980664D02*
X131868416Y-107980664D01*
X131868416Y-107980664D02*
X131963654Y-108028283D01*
X131535083Y-108599712D02*
X131630321Y-108647331D01*
X131630321Y-108647331D02*
X131868416Y-108647331D01*
X131868416Y-108647331D02*
X131963654Y-108599712D01*
X131963654Y-108599712D02*
X132011273Y-108504473D01*
X132011273Y-108504473D02*
X132011273Y-108409235D01*
X132011273Y-108409235D02*
X131963654Y-108313997D01*
X131963654Y-108313997D02*
X131868416Y-108266378D01*
X131868416Y-108266378D02*
X131630321Y-108266378D01*
X131630321Y-108266378D02*
X131535083Y-108218759D01*
X131201749Y-107980664D02*
X130820797Y-107980664D01*
X131058892Y-107647331D02*
X131058892Y-108504473D01*
X131058892Y-108504473D02*
X131011273Y-108599712D01*
X131011273Y-108599712D02*
X130916035Y-108647331D01*
X130916035Y-108647331D02*
X130820797Y-108647331D01*
X130344606Y-108647331D02*
X130439844Y-108599712D01*
X130439844Y-108599712D02*
X130487463Y-108552092D01*
X130487463Y-108552092D02*
X130535082Y-108456854D01*
X130535082Y-108456854D02*
X130535082Y-108171140D01*
X130535082Y-108171140D02*
X130487463Y-108075902D01*
X130487463Y-108075902D02*
X130439844Y-108028283D01*
X130439844Y-108028283D02*
X130344606Y-107980664D01*
X130344606Y-107980664D02*
X130201749Y-107980664D01*
X130201749Y-107980664D02*
X130106511Y-108028283D01*
X130106511Y-108028283D02*
X130058892Y-108075902D01*
X130058892Y-108075902D02*
X130011273Y-108171140D01*
X130011273Y-108171140D02*
X130011273Y-108456854D01*
X130011273Y-108456854D02*
X130058892Y-108552092D01*
X130058892Y-108552092D02*
X130106511Y-108599712D01*
X130106511Y-108599712D02*
X130201749Y-108647331D01*
X130201749Y-108647331D02*
X130344606Y-108647331D01*
X129582701Y-108647331D02*
X129582701Y-107980664D01*
X129582701Y-108171140D02*
X129535082Y-108075902D01*
X129535082Y-108075902D02*
X129487463Y-108028283D01*
X129487463Y-108028283D02*
X129392225Y-107980664D01*
X129392225Y-107980664D02*
X129296987Y-107980664D01*
X150725564Y-109257275D02*
X150106517Y-109257275D01*
X150106517Y-109257275D02*
X150439850Y-109638227D01*
X150439850Y-109638227D02*
X150296993Y-109638227D01*
X150296993Y-109638227D02*
X150201755Y-109685846D01*
X150201755Y-109685846D02*
X150154136Y-109733465D01*
X150154136Y-109733465D02*
X150106517Y-109828703D01*
X150106517Y-109828703D02*
X150106517Y-110066798D01*
X150106517Y-110066798D02*
X150154136Y-110162036D01*
X150154136Y-110162036D02*
X150201755Y-110209656D01*
X150201755Y-110209656D02*
X150296993Y-110257275D01*
X150296993Y-110257275D02*
X150582707Y-110257275D01*
X150582707Y-110257275D02*
X150677945Y-110209656D01*
X150677945Y-110209656D02*
X150725564Y-110162036D01*
X149487469Y-109257275D02*
X149392231Y-109257275D01*
X149392231Y-109257275D02*
X149296993Y-109304894D01*
X149296993Y-109304894D02*
X149249374Y-109352513D01*
X149249374Y-109352513D02*
X149201755Y-109447751D01*
X149201755Y-109447751D02*
X149154136Y-109638227D01*
X149154136Y-109638227D02*
X149154136Y-109876322D01*
X149154136Y-109876322D02*
X149201755Y-110066798D01*
X149201755Y-110066798D02*
X149249374Y-110162036D01*
X149249374Y-110162036D02*
X149296993Y-110209656D01*
X149296993Y-110209656D02*
X149392231Y-110257275D01*
X149392231Y-110257275D02*
X149487469Y-110257275D01*
X149487469Y-110257275D02*
X149582707Y-110209656D01*
X149582707Y-110209656D02*
X149630326Y-110162036D01*
X149630326Y-110162036D02*
X149677945Y-110066798D01*
X149677945Y-110066798D02*
X149725564Y-109876322D01*
X149725564Y-109876322D02*
X149725564Y-109638227D01*
X149725564Y-109638227D02*
X149677945Y-109447751D01*
X149677945Y-109447751D02*
X149630326Y-109352513D01*
X149630326Y-109352513D02*
X149582707Y-109304894D01*
X149582707Y-109304894D02*
X149487469Y-109257275D01*
X148725564Y-110257275D02*
X148725564Y-109257275D01*
X148725564Y-109257275D02*
X148392231Y-109971560D01*
X148392231Y-109971560D02*
X148058898Y-109257275D01*
X148058898Y-109257275D02*
X148058898Y-110257275D01*
X147582707Y-110257275D02*
X147582707Y-109257275D01*
X147582707Y-109733465D02*
X147011279Y-109733465D01*
X147011279Y-110257275D02*
X147011279Y-109257275D01*
X146630326Y-109590608D02*
X146106517Y-109590608D01*
X146106517Y-109590608D02*
X146630326Y-110257275D01*
X146630326Y-110257275D02*
X146106517Y-110257275D01*
X150058898Y-111771980D02*
X150106517Y-111819600D01*
X150106517Y-111819600D02*
X150249374Y-111867219D01*
X150249374Y-111867219D02*
X150344612Y-111867219D01*
X150344612Y-111867219D02*
X150487469Y-111819600D01*
X150487469Y-111819600D02*
X150582707Y-111724361D01*
X150582707Y-111724361D02*
X150630326Y-111629123D01*
X150630326Y-111629123D02*
X150677945Y-111438647D01*
X150677945Y-111438647D02*
X150677945Y-111295790D01*
X150677945Y-111295790D02*
X150630326Y-111105314D01*
X150630326Y-111105314D02*
X150582707Y-111010076D01*
X150582707Y-111010076D02*
X150487469Y-110914838D01*
X150487469Y-110914838D02*
X150344612Y-110867219D01*
X150344612Y-110867219D02*
X150249374Y-110867219D01*
X150249374Y-110867219D02*
X150106517Y-110914838D01*
X150106517Y-110914838D02*
X150058898Y-110962457D01*
X149630326Y-111771980D02*
X149582707Y-111819600D01*
X149582707Y-111819600D02*
X149630326Y-111867219D01*
X149630326Y-111867219D02*
X149677945Y-111819600D01*
X149677945Y-111819600D02*
X149630326Y-111771980D01*
X149630326Y-111771980D02*
X149630326Y-111867219D01*
X149154136Y-111867219D02*
X149154136Y-110867219D01*
X148677946Y-111771980D02*
X148630327Y-111819600D01*
X148630327Y-111819600D02*
X148677946Y-111867219D01*
X148677946Y-111867219D02*
X148725565Y-111819600D01*
X148725565Y-111819600D02*
X148677946Y-111771980D01*
X148677946Y-111771980D02*
X148677946Y-111867219D01*
X148249375Y-111819600D02*
X148106518Y-111867219D01*
X148106518Y-111867219D02*
X147868423Y-111867219D01*
X147868423Y-111867219D02*
X147773185Y-111819600D01*
X147773185Y-111819600D02*
X147725566Y-111771980D01*
X147725566Y-111771980D02*
X147677947Y-111676742D01*
X147677947Y-111676742D02*
X147677947Y-111581504D01*
X147677947Y-111581504D02*
X147725566Y-111486266D01*
X147725566Y-111486266D02*
X147773185Y-111438647D01*
X147773185Y-111438647D02*
X147868423Y-111391028D01*
X147868423Y-111391028D02*
X148058899Y-111343409D01*
X148058899Y-111343409D02*
X148154137Y-111295790D01*
X148154137Y-111295790D02*
X148201756Y-111248171D01*
X148201756Y-111248171D02*
X148249375Y-111152933D01*
X148249375Y-111152933D02*
X148249375Y-111057695D01*
X148249375Y-111057695D02*
X148201756Y-110962457D01*
X148201756Y-110962457D02*
X148154137Y-110914838D01*
X148154137Y-110914838D02*
X148058899Y-110867219D01*
X148058899Y-110867219D02*
X147820804Y-110867219D01*
X147820804Y-110867219D02*
X147677947Y-110914838D01*
X147249375Y-111771980D02*
X147201756Y-111819600D01*
X147201756Y-111819600D02*
X147249375Y-111867219D01*
X147249375Y-111867219D02*
X147296994Y-111819600D01*
X147296994Y-111819600D02*
X147249375Y-111771980D01*
X147249375Y-111771980D02*
X147249375Y-111867219D01*
X146773185Y-111867219D02*
X146773185Y-110867219D01*
X146773185Y-110867219D02*
X146439852Y-111581504D01*
X146439852Y-111581504D02*
X146106519Y-110867219D01*
X146106519Y-110867219D02*
X146106519Y-111867219D01*
X145630328Y-111771980D02*
X145582709Y-111819600D01*
X145582709Y-111819600D02*
X145630328Y-111867219D01*
X145630328Y-111867219D02*
X145677947Y-111819600D01*
X145677947Y-111819600D02*
X145630328Y-111771980D01*
X145630328Y-111771980D02*
X145630328Y-111867219D01*
X145154138Y-111867219D02*
X145154138Y-110867219D01*
X144677948Y-111771980D02*
X144630329Y-111819600D01*
X144630329Y-111819600D02*
X144677948Y-111867219D01*
X144677948Y-111867219D02*
X144725567Y-111819600D01*
X144725567Y-111819600D02*
X144677948Y-111771980D01*
X144677948Y-111771980D02*
X144677948Y-111867219D01*
X143630330Y-111771980D02*
X143677949Y-111819600D01*
X143677949Y-111819600D02*
X143820806Y-111867219D01*
X143820806Y-111867219D02*
X143916044Y-111867219D01*
X143916044Y-111867219D02*
X144058901Y-111819600D01*
X144058901Y-111819600D02*
X144154139Y-111724361D01*
X144154139Y-111724361D02*
X144201758Y-111629123D01*
X144201758Y-111629123D02*
X144249377Y-111438647D01*
X144249377Y-111438647D02*
X144249377Y-111295790D01*
X144249377Y-111295790D02*
X144201758Y-111105314D01*
X144201758Y-111105314D02*
X144154139Y-111010076D01*
X144154139Y-111010076D02*
X144058901Y-110914838D01*
X144058901Y-110914838D02*
X143916044Y-110867219D01*
X143916044Y-110867219D02*
X143820806Y-110867219D01*
X143820806Y-110867219D02*
X143677949Y-110914838D01*
X143677949Y-110914838D02*
X143630330Y-110962457D01*
X178433564Y-96827608D02*
X178195469Y-97494275D01*
X178195469Y-97494275D02*
X177957374Y-96827608D01*
X177624040Y-96589513D02*
X177576421Y-96541894D01*
X177576421Y-96541894D02*
X177481183Y-96494275D01*
X177481183Y-96494275D02*
X177243088Y-96494275D01*
X177243088Y-96494275D02*
X177147850Y-96541894D01*
X177147850Y-96541894D02*
X177100231Y-96589513D01*
X177100231Y-96589513D02*
X177052612Y-96684751D01*
X177052612Y-96684751D02*
X177052612Y-96779989D01*
X177052612Y-96779989D02*
X177100231Y-96922846D01*
X177100231Y-96922846D02*
X177671659Y-97494275D01*
X177671659Y-97494275D02*
X177052612Y-97494275D01*
X176624040Y-97399036D02*
X176576421Y-97446656D01*
X176576421Y-97446656D02*
X176624040Y-97494275D01*
X176624040Y-97494275D02*
X176671659Y-97446656D01*
X176671659Y-97446656D02*
X176624040Y-97399036D01*
X176624040Y-97399036D02*
X176624040Y-97494275D01*
X175957374Y-96494275D02*
X175862136Y-96494275D01*
X175862136Y-96494275D02*
X175766898Y-96541894D01*
X175766898Y-96541894D02*
X175719279Y-96589513D01*
X175719279Y-96589513D02*
X175671660Y-96684751D01*
X175671660Y-96684751D02*
X175624041Y-96875227D01*
X175624041Y-96875227D02*
X175624041Y-97113322D01*
X175624041Y-97113322D02*
X175671660Y-97303798D01*
X175671660Y-97303798D02*
X175719279Y-97399036D01*
X175719279Y-97399036D02*
X175766898Y-97446656D01*
X175766898Y-97446656D02*
X175862136Y-97494275D01*
X175862136Y-97494275D02*
X175957374Y-97494275D01*
X175957374Y-97494275D02*
X176052612Y-97446656D01*
X176052612Y-97446656D02*
X176100231Y-97399036D01*
X176100231Y-97399036D02*
X176147850Y-97303798D01*
X176147850Y-97303798D02*
X176195469Y-97113322D01*
X176195469Y-97113322D02*
X176195469Y-96875227D01*
X176195469Y-96875227D02*
X176147850Y-96684751D01*
X176147850Y-96684751D02*
X176100231Y-96589513D01*
X176100231Y-96589513D02*
X176052612Y-96541894D01*
X176052612Y-96541894D02*
X175957374Y-96494275D01*
X178385945Y-98199457D02*
X178338326Y-98151838D01*
X178338326Y-98151838D02*
X178243088Y-98104219D01*
X178243088Y-98104219D02*
X178004993Y-98104219D01*
X178004993Y-98104219D02*
X177909755Y-98151838D01*
X177909755Y-98151838D02*
X177862136Y-98199457D01*
X177862136Y-98199457D02*
X177814517Y-98294695D01*
X177814517Y-98294695D02*
X177814517Y-98389933D01*
X177814517Y-98389933D02*
X177862136Y-98532790D01*
X177862136Y-98532790D02*
X178433564Y-99104219D01*
X178433564Y-99104219D02*
X177814517Y-99104219D01*
X177195469Y-98104219D02*
X177100231Y-98104219D01*
X177100231Y-98104219D02*
X177004993Y-98151838D01*
X177004993Y-98151838D02*
X176957374Y-98199457D01*
X176957374Y-98199457D02*
X176909755Y-98294695D01*
X176909755Y-98294695D02*
X176862136Y-98485171D01*
X176862136Y-98485171D02*
X176862136Y-98723266D01*
X176862136Y-98723266D02*
X176909755Y-98913742D01*
X176909755Y-98913742D02*
X176957374Y-99008980D01*
X176957374Y-99008980D02*
X177004993Y-99056600D01*
X177004993Y-99056600D02*
X177100231Y-99104219D01*
X177100231Y-99104219D02*
X177195469Y-99104219D01*
X177195469Y-99104219D02*
X177290707Y-99056600D01*
X177290707Y-99056600D02*
X177338326Y-99008980D01*
X177338326Y-99008980D02*
X177385945Y-98913742D01*
X177385945Y-98913742D02*
X177433564Y-98723266D01*
X177433564Y-98723266D02*
X177433564Y-98485171D01*
X177433564Y-98485171D02*
X177385945Y-98294695D01*
X177385945Y-98294695D02*
X177338326Y-98199457D01*
X177338326Y-98199457D02*
X177290707Y-98151838D01*
X177290707Y-98151838D02*
X177195469Y-98104219D01*
X176481183Y-98199457D02*
X176433564Y-98151838D01*
X176433564Y-98151838D02*
X176338326Y-98104219D01*
X176338326Y-98104219D02*
X176100231Y-98104219D01*
X176100231Y-98104219D02*
X176004993Y-98151838D01*
X176004993Y-98151838D02*
X175957374Y-98199457D01*
X175957374Y-98199457D02*
X175909755Y-98294695D01*
X175909755Y-98294695D02*
X175909755Y-98389933D01*
X175909755Y-98389933D02*
X175957374Y-98532790D01*
X175957374Y-98532790D02*
X176528802Y-99104219D01*
X176528802Y-99104219D02*
X175909755Y-99104219D01*
X175052612Y-98104219D02*
X175243088Y-98104219D01*
X175243088Y-98104219D02*
X175338326Y-98151838D01*
X175338326Y-98151838D02*
X175385945Y-98199457D01*
X175385945Y-98199457D02*
X175481183Y-98342314D01*
X175481183Y-98342314D02*
X175528802Y-98532790D01*
X175528802Y-98532790D02*
X175528802Y-98913742D01*
X175528802Y-98913742D02*
X175481183Y-99008980D01*
X175481183Y-99008980D02*
X175433564Y-99056600D01*
X175433564Y-99056600D02*
X175338326Y-99104219D01*
X175338326Y-99104219D02*
X175147850Y-99104219D01*
X175147850Y-99104219D02*
X175052612Y-99056600D01*
X175052612Y-99056600D02*
X175004993Y-99008980D01*
X175004993Y-99008980D02*
X174957374Y-98913742D01*
X174957374Y-98913742D02*
X174957374Y-98675647D01*
X174957374Y-98675647D02*
X175004993Y-98580409D01*
X175004993Y-98580409D02*
X175052612Y-98532790D01*
X175052612Y-98532790D02*
X175147850Y-98485171D01*
X175147850Y-98485171D02*
X175338326Y-98485171D01*
X175338326Y-98485171D02*
X175433564Y-98532790D01*
X175433564Y-98532790D02*
X175481183Y-98580409D01*
X175481183Y-98580409D02*
X175528802Y-98675647D01*
X180370326Y-117392219D02*
X180370326Y-116392219D01*
X180370326Y-116392219D02*
X179989374Y-116392219D01*
X179989374Y-116392219D02*
X179894136Y-116439838D01*
X179894136Y-116439838D02*
X179846517Y-116487457D01*
X179846517Y-116487457D02*
X179798898Y-116582695D01*
X179798898Y-116582695D02*
X179798898Y-116725552D01*
X179798898Y-116725552D02*
X179846517Y-116820790D01*
X179846517Y-116820790D02*
X179894136Y-116868409D01*
X179894136Y-116868409D02*
X179989374Y-116916028D01*
X179989374Y-116916028D02*
X180370326Y-116916028D01*
X179227469Y-117392219D02*
X179322707Y-117344600D01*
X179322707Y-117344600D02*
X179370326Y-117296980D01*
X179370326Y-117296980D02*
X179417945Y-117201742D01*
X179417945Y-117201742D02*
X179417945Y-116916028D01*
X179417945Y-116916028D02*
X179370326Y-116820790D01*
X179370326Y-116820790D02*
X179322707Y-116773171D01*
X179322707Y-116773171D02*
X179227469Y-116725552D01*
X179227469Y-116725552D02*
X179084612Y-116725552D01*
X179084612Y-116725552D02*
X178989374Y-116773171D01*
X178989374Y-116773171D02*
X178941755Y-116820790D01*
X178941755Y-116820790D02*
X178894136Y-116916028D01*
X178894136Y-116916028D02*
X178894136Y-117201742D01*
X178894136Y-117201742D02*
X178941755Y-117296980D01*
X178941755Y-117296980D02*
X178989374Y-117344600D01*
X178989374Y-117344600D02*
X179084612Y-117392219D01*
X179084612Y-117392219D02*
X179227469Y-117392219D01*
X178560802Y-116725552D02*
X178370326Y-117392219D01*
X178370326Y-117392219D02*
X178179850Y-116916028D01*
X178179850Y-116916028D02*
X177989374Y-117392219D01*
X177989374Y-117392219D02*
X177798898Y-116725552D01*
X177036993Y-117344600D02*
X177132231Y-117392219D01*
X177132231Y-117392219D02*
X177322707Y-117392219D01*
X177322707Y-117392219D02*
X177417945Y-117344600D01*
X177417945Y-117344600D02*
X177465564Y-117249361D01*
X177465564Y-117249361D02*
X177465564Y-116868409D01*
X177465564Y-116868409D02*
X177417945Y-116773171D01*
X177417945Y-116773171D02*
X177322707Y-116725552D01*
X177322707Y-116725552D02*
X177132231Y-116725552D01*
X177132231Y-116725552D02*
X177036993Y-116773171D01*
X177036993Y-116773171D02*
X176989374Y-116868409D01*
X176989374Y-116868409D02*
X176989374Y-116963647D01*
X176989374Y-116963647D02*
X177465564Y-117058885D01*
X176560802Y-117392219D02*
X176560802Y-116725552D01*
X176560802Y-116916028D02*
X176513183Y-116820790D01*
X176513183Y-116820790D02*
X176465564Y-116773171D01*
X176465564Y-116773171D02*
X176370326Y-116725552D01*
X176370326Y-116725552D02*
X176275088Y-116725552D01*
X175227468Y-117344600D02*
X175084611Y-117392219D01*
X175084611Y-117392219D02*
X174846516Y-117392219D01*
X174846516Y-117392219D02*
X174751278Y-117344600D01*
X174751278Y-117344600D02*
X174703659Y-117296980D01*
X174703659Y-117296980D02*
X174656040Y-117201742D01*
X174656040Y-117201742D02*
X174656040Y-117106504D01*
X174656040Y-117106504D02*
X174703659Y-117011266D01*
X174703659Y-117011266D02*
X174751278Y-116963647D01*
X174751278Y-116963647D02*
X174846516Y-116916028D01*
X174846516Y-116916028D02*
X175036992Y-116868409D01*
X175036992Y-116868409D02*
X175132230Y-116820790D01*
X175132230Y-116820790D02*
X175179849Y-116773171D01*
X175179849Y-116773171D02*
X175227468Y-116677933D01*
X175227468Y-116677933D02*
X175227468Y-116582695D01*
X175227468Y-116582695D02*
X175179849Y-116487457D01*
X175179849Y-116487457D02*
X175132230Y-116439838D01*
X175132230Y-116439838D02*
X175036992Y-116392219D01*
X175036992Y-116392219D02*
X174798897Y-116392219D01*
X174798897Y-116392219D02*
X174656040Y-116439838D01*
X173798897Y-116725552D02*
X173798897Y-117392219D01*
X174227468Y-116725552D02*
X174227468Y-117249361D01*
X174227468Y-117249361D02*
X174179849Y-117344600D01*
X174179849Y-117344600D02*
X174084611Y-117392219D01*
X174084611Y-117392219D02*
X173941754Y-117392219D01*
X173941754Y-117392219D02*
X173846516Y-117344600D01*
X173846516Y-117344600D02*
X173798897Y-117296980D01*
X173322706Y-116725552D02*
X173322706Y-117725552D01*
X173322706Y-116773171D02*
X173227468Y-116725552D01*
X173227468Y-116725552D02*
X173036992Y-116725552D01*
X173036992Y-116725552D02*
X172941754Y-116773171D01*
X172941754Y-116773171D02*
X172894135Y-116820790D01*
X172894135Y-116820790D02*
X172846516Y-116916028D01*
X172846516Y-116916028D02*
X172846516Y-117201742D01*
X172846516Y-117201742D02*
X172894135Y-117296980D01*
X172894135Y-117296980D02*
X172941754Y-117344600D01*
X172941754Y-117344600D02*
X173036992Y-117392219D01*
X173036992Y-117392219D02*
X173227468Y-117392219D01*
X173227468Y-117392219D02*
X173322706Y-117344600D01*
X172417944Y-116725552D02*
X172417944Y-117725552D01*
X172417944Y-116773171D02*
X172322706Y-116725552D01*
X172322706Y-116725552D02*
X172132230Y-116725552D01*
X172132230Y-116725552D02*
X172036992Y-116773171D01*
X172036992Y-116773171D02*
X171989373Y-116820790D01*
X171989373Y-116820790D02*
X171941754Y-116916028D01*
X171941754Y-116916028D02*
X171941754Y-117201742D01*
X171941754Y-117201742D02*
X171989373Y-117296980D01*
X171989373Y-117296980D02*
X172036992Y-117344600D01*
X172036992Y-117344600D02*
X172132230Y-117392219D01*
X172132230Y-117392219D02*
X172322706Y-117392219D01*
X172322706Y-117392219D02*
X172417944Y-117344600D01*
X171370325Y-117392219D02*
X171465563Y-117344600D01*
X171465563Y-117344600D02*
X171513182Y-117249361D01*
X171513182Y-117249361D02*
X171513182Y-116392219D01*
X171084610Y-116725552D02*
X170846515Y-117392219D01*
X170608420Y-116725552D02*
X170846515Y-117392219D01*
X170846515Y-117392219D02*
X170941753Y-117630314D01*
X170941753Y-117630314D02*
X170989372Y-117677933D01*
X170989372Y-117677933D02*
X171084610Y-117725552D01*
X170227467Y-117296980D02*
X170179848Y-117344600D01*
X170179848Y-117344600D02*
X170227467Y-117392219D01*
X170227467Y-117392219D02*
X170275086Y-117344600D01*
X170275086Y-117344600D02*
X170227467Y-117296980D01*
X170227467Y-117296980D02*
X170227467Y-117392219D01*
X170227467Y-116773171D02*
X170179848Y-116820790D01*
X170179848Y-116820790D02*
X170227467Y-116868409D01*
X170227467Y-116868409D02*
X170275086Y-116820790D01*
X170275086Y-116820790D02*
X170227467Y-116773171D01*
X170227467Y-116773171D02*
X170227467Y-116868409D01*
X168989372Y-117011266D02*
X168227468Y-117011266D01*
X168608420Y-117392219D02*
X168608420Y-116630314D01*
X167227468Y-117392219D02*
X167798896Y-117392219D01*
X167513182Y-117392219D02*
X167513182Y-116392219D01*
X167513182Y-116392219D02*
X167608420Y-116535076D01*
X167608420Y-116535076D02*
X167703658Y-116630314D01*
X167703658Y-116630314D02*
X167798896Y-116677933D01*
X166846515Y-116487457D02*
X166798896Y-116439838D01*
X166798896Y-116439838D02*
X166703658Y-116392219D01*
X166703658Y-116392219D02*
X166465563Y-116392219D01*
X166465563Y-116392219D02*
X166370325Y-116439838D01*
X166370325Y-116439838D02*
X166322706Y-116487457D01*
X166322706Y-116487457D02*
X166275087Y-116582695D01*
X166275087Y-116582695D02*
X166275087Y-116677933D01*
X166275087Y-116677933D02*
X166322706Y-116820790D01*
X166322706Y-116820790D02*
X166894134Y-117392219D01*
X166894134Y-117392219D02*
X166275087Y-117392219D01*
X165989372Y-116392219D02*
X165656039Y-117392219D01*
X165656039Y-117392219D02*
X165322706Y-116392219D01*
X164227467Y-117392219D02*
X164227467Y-116392219D01*
X164227467Y-116392219D02*
X163989372Y-116392219D01*
X163989372Y-116392219D02*
X163846515Y-116439838D01*
X163846515Y-116439838D02*
X163751277Y-116535076D01*
X163751277Y-116535076D02*
X163703658Y-116630314D01*
X163703658Y-116630314D02*
X163656039Y-116820790D01*
X163656039Y-116820790D02*
X163656039Y-116963647D01*
X163656039Y-116963647D02*
X163703658Y-117154123D01*
X163703658Y-117154123D02*
X163751277Y-117249361D01*
X163751277Y-117249361D02*
X163846515Y-117344600D01*
X163846515Y-117344600D02*
X163989372Y-117392219D01*
X163989372Y-117392219D02*
X164227467Y-117392219D01*
X162656039Y-117296980D02*
X162703658Y-117344600D01*
X162703658Y-117344600D02*
X162846515Y-117392219D01*
X162846515Y-117392219D02*
X162941753Y-117392219D01*
X162941753Y-117392219D02*
X163084610Y-117344600D01*
X163084610Y-117344600D02*
X163179848Y-117249361D01*
X163179848Y-117249361D02*
X163227467Y-117154123D01*
X163227467Y-117154123D02*
X163275086Y-116963647D01*
X163275086Y-116963647D02*
X163275086Y-116820790D01*
X163275086Y-116820790D02*
X163227467Y-116630314D01*
X163227467Y-116630314D02*
X163179848Y-116535076D01*
X163179848Y-116535076D02*
X163084610Y-116439838D01*
X163084610Y-116439838D02*
X162941753Y-116392219D01*
X162941753Y-116392219D02*
X162846515Y-116392219D01*
X162846515Y-116392219D02*
X162703658Y-116439838D01*
X162703658Y-116439838D02*
X162656039Y-116487457D01*
D12*
%TO.C,REF\u002A\u002A*%
X132653406Y-116751949D02*
X132679127Y-116767647D01*
X132705778Y-116789227D01*
X132705778Y-117436684D01*
X132679127Y-117458264D01*
X132647767Y-117475739D01*
X132611966Y-117476575D01*
X132580528Y-117456082D01*
X132576652Y-117451416D01*
X132571186Y-117441949D01*
X132566979Y-117428267D01*
X132563867Y-117407748D01*
X132561687Y-117377768D01*
X132560276Y-117335704D01*
X132559471Y-117278932D01*
X132559107Y-117204830D01*
X132559022Y-117110773D01*
X132559022Y-116789227D01*
X132585673Y-116767647D01*
X132609386Y-116752877D01*
X132632400Y-116746067D01*
X132653406Y-116751949D01*
G36*
X132653406Y-116751949D02*
G01*
X132679127Y-116767647D01*
X132705778Y-116789227D01*
X132705778Y-117436684D01*
X132679127Y-117458264D01*
X132647767Y-117475739D01*
X132611966Y-117476575D01*
X132580528Y-117456082D01*
X132576652Y-117451416D01*
X132571186Y-117441949D01*
X132566979Y-117428267D01*
X132563867Y-117407748D01*
X132561687Y-117377768D01*
X132560276Y-117335704D01*
X132559471Y-117278932D01*
X132559107Y-117204830D01*
X132559022Y-117110773D01*
X132559022Y-116789227D01*
X132585673Y-116767647D01*
X132609386Y-116752877D01*
X132632400Y-116746067D01*
X132653406Y-116751949D01*
G37*
X139784137Y-116750463D02*
X139818291Y-116773776D01*
X139846000Y-116801485D01*
X139846000Y-117114537D01*
X139845959Y-117198567D01*
X139845701Y-117272789D01*
X139845030Y-117329541D01*
X139843752Y-117371512D01*
X139841673Y-117401389D01*
X139838599Y-117421861D01*
X139834334Y-117435614D01*
X139828684Y-117445337D01*
X139821455Y-117453717D01*
X139789991Y-117475181D01*
X139754826Y-117476947D01*
X139721822Y-117457267D01*
X139716516Y-117451398D01*
X139711066Y-117442314D01*
X139706900Y-117428973D01*
X139703846Y-117408757D01*
X139701732Y-117379049D01*
X139700386Y-117337232D01*
X139699638Y-117280689D01*
X139699314Y-117206802D01*
X139699245Y-117112956D01*
X139699284Y-117037294D01*
X139699539Y-116959385D01*
X139700183Y-116899375D01*
X139701387Y-116854648D01*
X139703324Y-116822585D01*
X139706164Y-116800571D01*
X139710079Y-116785987D01*
X139715242Y-116776218D01*
X139721822Y-116768645D01*
X139751006Y-116749623D01*
X139784137Y-116750463D01*
G36*
X139784137Y-116750463D02*
G01*
X139818291Y-116773776D01*
X139846000Y-116801485D01*
X139846000Y-117114537D01*
X139845959Y-117198567D01*
X139845701Y-117272789D01*
X139845030Y-117329541D01*
X139843752Y-117371512D01*
X139841673Y-117401389D01*
X139838599Y-117421861D01*
X139834334Y-117435614D01*
X139828684Y-117445337D01*
X139821455Y-117453717D01*
X139789991Y-117475181D01*
X139754826Y-117476947D01*
X139721822Y-117457267D01*
X139716516Y-117451398D01*
X139711066Y-117442314D01*
X139706900Y-117428973D01*
X139703846Y-117408757D01*
X139701732Y-117379049D01*
X139700386Y-117337232D01*
X139699638Y-117280689D01*
X139699314Y-117206802D01*
X139699245Y-117112956D01*
X139699284Y-117037294D01*
X139699539Y-116959385D01*
X139700183Y-116899375D01*
X139701387Y-116854648D01*
X139703324Y-116822585D01*
X139706164Y-116800571D01*
X139710079Y-116785987D01*
X139715242Y-116776218D01*
X139721822Y-116768645D01*
X139751006Y-116749623D01*
X139784137Y-116750463D01*
G37*
X139252562Y-111509850D02*
X139335313Y-111537053D01*
X139410406Y-111582484D01*
X139482298Y-111648302D01*
X139520846Y-111692567D01*
X139560256Y-111750961D01*
X139585446Y-111811586D01*
X139598861Y-111880865D01*
X139602948Y-111965222D01*
X139602669Y-112011307D01*
X139600460Y-112052450D01*
X139594894Y-112084582D01*
X139584586Y-112115122D01*
X139568148Y-112151489D01*
X139554200Y-112178728D01*
X139495665Y-112264429D01*
X139423619Y-112333617D01*
X139339947Y-112384741D01*
X139246531Y-112416250D01*
X139213434Y-112423225D01*
X139172960Y-112430094D01*
X139139999Y-112431919D01*
X139105698Y-112428947D01*
X139061200Y-112421426D01*
X139009934Y-112409002D01*
X138919434Y-112371112D01*
X138840345Y-112316836D01*
X138774528Y-112248770D01*
X138723840Y-112169511D01*
X138690140Y-112081654D01*
X138675286Y-111987795D01*
X138681136Y-111890530D01*
X138707399Y-111794220D01*
X138752418Y-111705494D01*
X138813373Y-111630419D01*
X138888184Y-111570641D01*
X138974768Y-111527809D01*
X139071043Y-111503571D01*
X139174928Y-111499576D01*
X139252562Y-111509850D01*
G36*
X139252562Y-111509850D02*
G01*
X139335313Y-111537053D01*
X139410406Y-111582484D01*
X139482298Y-111648302D01*
X139520846Y-111692567D01*
X139560256Y-111750961D01*
X139585446Y-111811586D01*
X139598861Y-111880865D01*
X139602948Y-111965222D01*
X139602669Y-112011307D01*
X139600460Y-112052450D01*
X139594894Y-112084582D01*
X139584586Y-112115122D01*
X139568148Y-112151489D01*
X139554200Y-112178728D01*
X139495665Y-112264429D01*
X139423619Y-112333617D01*
X139339947Y-112384741D01*
X139246531Y-112416250D01*
X139213434Y-112423225D01*
X139172960Y-112430094D01*
X139139999Y-112431919D01*
X139105698Y-112428947D01*
X139061200Y-112421426D01*
X139009934Y-112409002D01*
X138919434Y-112371112D01*
X138840345Y-112316836D01*
X138774528Y-112248770D01*
X138723840Y-112169511D01*
X138690140Y-112081654D01*
X138675286Y-111987795D01*
X138681136Y-111890530D01*
X138707399Y-111794220D01*
X138752418Y-111705494D01*
X138813373Y-111630419D01*
X138888184Y-111570641D01*
X138974768Y-111527809D01*
X139071043Y-111503571D01*
X139174928Y-111499576D01*
X139252562Y-111509850D01*
G37*
X131953767Y-116746068D02*
X132047890Y-116746158D01*
X132122405Y-116746498D01*
X132179811Y-116747239D01*
X132222611Y-116748535D01*
X132253304Y-116750537D01*
X132274391Y-116753396D01*
X132288373Y-116757266D01*
X132297750Y-116762298D01*
X132305022Y-116768645D01*
X132323828Y-116801362D01*
X132325275Y-116838939D01*
X132308917Y-116872178D01*
X132307557Y-116873631D01*
X132296354Y-116881992D01*
X132279252Y-116887547D01*
X132252082Y-116890840D01*
X132210678Y-116892418D01*
X132150873Y-116892822D01*
X132011511Y-116892822D01*
X132011511Y-117156589D01*
X132011436Y-117232417D01*
X132011028Y-117299083D01*
X132010046Y-117348867D01*
X132008250Y-117384784D01*
X132005399Y-117409850D01*
X132001253Y-117427081D01*
X131995571Y-117439492D01*
X131988114Y-117450100D01*
X131985824Y-117452906D01*
X131954646Y-117475548D01*
X131920266Y-117477112D01*
X131887334Y-117457267D01*
X131880355Y-117449191D01*
X131874883Y-117438593D01*
X131870863Y-117422749D01*
X131868072Y-117398773D01*
X131866288Y-117363774D01*
X131865289Y-117314864D01*
X131864852Y-117249154D01*
X131864756Y-117163756D01*
X131864756Y-116892822D01*
X131718820Y-116892822D01*
X131707720Y-116892821D01*
X131651202Y-116892596D01*
X131612358Y-116891457D01*
X131586965Y-116888657D01*
X131570804Y-116883450D01*
X131559652Y-116875089D01*
X131549289Y-116862826D01*
X131533441Y-116832138D01*
X131536543Y-116798358D01*
X131562187Y-116765822D01*
X131567129Y-116762105D01*
X131577338Y-116757269D01*
X131592764Y-116753506D01*
X131615886Y-116750683D01*
X131649183Y-116748670D01*
X131695137Y-116747333D01*
X131756228Y-116746542D01*
X131834935Y-116746163D01*
X131933740Y-116746067D01*
X131953767Y-116746068D01*
G36*
X131953767Y-116746068D02*
G01*
X132047890Y-116746158D01*
X132122405Y-116746498D01*
X132179811Y-116747239D01*
X132222611Y-116748535D01*
X132253304Y-116750537D01*
X132274391Y-116753396D01*
X132288373Y-116757266D01*
X132297750Y-116762298D01*
X132305022Y-116768645D01*
X132323828Y-116801362D01*
X132325275Y-116838939D01*
X132308917Y-116872178D01*
X132307557Y-116873631D01*
X132296354Y-116881992D01*
X132279252Y-116887547D01*
X132252082Y-116890840D01*
X132210678Y-116892418D01*
X132150873Y-116892822D01*
X132011511Y-116892822D01*
X132011511Y-117156589D01*
X132011436Y-117232417D01*
X132011028Y-117299083D01*
X132010046Y-117348867D01*
X132008250Y-117384784D01*
X132005399Y-117409850D01*
X132001253Y-117427081D01*
X131995571Y-117439492D01*
X131988114Y-117450100D01*
X131985824Y-117452906D01*
X131954646Y-117475548D01*
X131920266Y-117477112D01*
X131887334Y-117457267D01*
X131880355Y-117449191D01*
X131874883Y-117438593D01*
X131870863Y-117422749D01*
X131868072Y-117398773D01*
X131866288Y-117363774D01*
X131865289Y-117314864D01*
X131864852Y-117249154D01*
X131864756Y-117163756D01*
X131864756Y-116892822D01*
X131718820Y-116892822D01*
X131707720Y-116892821D01*
X131651202Y-116892596D01*
X131612358Y-116891457D01*
X131586965Y-116888657D01*
X131570804Y-116883450D01*
X131559652Y-116875089D01*
X131549289Y-116862826D01*
X131533441Y-116832138D01*
X131536543Y-116798358D01*
X131562187Y-116765822D01*
X131567129Y-116762105D01*
X131577338Y-116757269D01*
X131592764Y-116753506D01*
X131615886Y-116750683D01*
X131649183Y-116748670D01*
X131695137Y-116747333D01*
X131756228Y-116746542D01*
X131834935Y-116746163D01*
X131933740Y-116746067D01*
X131953767Y-116746068D01*
G37*
X131277734Y-116768645D02*
X131283366Y-116774835D01*
X131288456Y-116783041D01*
X131292543Y-116794817D01*
X131295721Y-116812276D01*
X131298087Y-116837530D01*
X131299738Y-116872690D01*
X131300769Y-116919869D01*
X131301277Y-116981177D01*
X131301359Y-117058727D01*
X131301109Y-117154631D01*
X131300625Y-117271000D01*
X131300557Y-117285175D01*
X131299971Y-117346937D01*
X131298648Y-117390620D01*
X131296103Y-117420001D01*
X131291848Y-117438855D01*
X131285396Y-117450959D01*
X131276262Y-117460089D01*
X131242804Y-117477506D01*
X131207856Y-117474604D01*
X131176953Y-117450100D01*
X131167944Y-117436897D01*
X131160492Y-117418361D01*
X131156124Y-117392333D01*
X131154069Y-117353787D01*
X131153556Y-117297700D01*
X131153556Y-117175045D01*
X130656845Y-117175045D01*
X130656845Y-117309871D01*
X130656772Y-117345662D01*
X130656009Y-117391992D01*
X130653833Y-117422526D01*
X130649536Y-117441557D01*
X130642412Y-117453374D01*
X130631755Y-117462271D01*
X130599504Y-117477341D01*
X130564217Y-117474673D01*
X130533486Y-117450100D01*
X130528831Y-117443845D01*
X130522895Y-117433321D01*
X130518364Y-117419391D01*
X130515048Y-117399317D01*
X130512759Y-117370360D01*
X130511308Y-117329780D01*
X130510505Y-117274840D01*
X130510162Y-117202799D01*
X130510089Y-117110920D01*
X130510089Y-116801485D01*
X130537798Y-116773776D01*
X130569177Y-116751533D01*
X130602406Y-116748844D01*
X130634267Y-116768645D01*
X130642553Y-116778415D01*
X130649965Y-116794307D01*
X130654302Y-116818275D01*
X130656338Y-116855148D01*
X130656845Y-116909756D01*
X130656845Y-117028289D01*
X131153556Y-117028289D01*
X131153556Y-116912776D01*
X131153994Y-116861078D01*
X131155958Y-116826554D01*
X131160474Y-116803978D01*
X131168567Y-116788126D01*
X131181265Y-116773776D01*
X131212643Y-116751533D01*
X131245872Y-116748844D01*
X131277734Y-116768645D01*
G36*
X131277734Y-116768645D02*
G01*
X131283366Y-116774835D01*
X131288456Y-116783041D01*
X131292543Y-116794817D01*
X131295721Y-116812276D01*
X131298087Y-116837530D01*
X131299738Y-116872690D01*
X131300769Y-116919869D01*
X131301277Y-116981177D01*
X131301359Y-117058727D01*
X131301109Y-117154631D01*
X131300625Y-117271000D01*
X131300557Y-117285175D01*
X131299971Y-117346937D01*
X131298648Y-117390620D01*
X131296103Y-117420001D01*
X131291848Y-117438855D01*
X131285396Y-117450959D01*
X131276262Y-117460089D01*
X131242804Y-117477506D01*
X131207856Y-117474604D01*
X131176953Y-117450100D01*
X131167944Y-117436897D01*
X131160492Y-117418361D01*
X131156124Y-117392333D01*
X131154069Y-117353787D01*
X131153556Y-117297700D01*
X131153556Y-117175045D01*
X130656845Y-117175045D01*
X130656845Y-117309871D01*
X130656772Y-117345662D01*
X130656009Y-117391992D01*
X130653833Y-117422526D01*
X130649536Y-117441557D01*
X130642412Y-117453374D01*
X130631755Y-117462271D01*
X130599504Y-117477341D01*
X130564217Y-117474673D01*
X130533486Y-117450100D01*
X130528831Y-117443845D01*
X130522895Y-117433321D01*
X130518364Y-117419391D01*
X130515048Y-117399317D01*
X130512759Y-117370360D01*
X130511308Y-117329780D01*
X130510505Y-117274840D01*
X130510162Y-117202799D01*
X130510089Y-117110920D01*
X130510089Y-116801485D01*
X130537798Y-116773776D01*
X130569177Y-116751533D01*
X130602406Y-116748844D01*
X130634267Y-116768645D01*
X130642553Y-116778415D01*
X130649965Y-116794307D01*
X130654302Y-116818275D01*
X130656338Y-116855148D01*
X130656845Y-116909756D01*
X130656845Y-117028289D01*
X131153556Y-117028289D01*
X131153556Y-116912776D01*
X131153994Y-116861078D01*
X131155958Y-116826554D01*
X131160474Y-116803978D01*
X131168567Y-116788126D01*
X131181265Y-116773776D01*
X131212643Y-116751533D01*
X131245872Y-116748844D01*
X131277734Y-116768645D01*
G37*
X135983133Y-117357396D02*
X135981163Y-117390175D01*
X135978235Y-117413095D01*
X135974158Y-117428897D01*
X135968743Y-117440319D01*
X135961803Y-117450100D01*
X135938406Y-117479845D01*
X135772714Y-117479251D01*
X135737918Y-117478953D01*
X135639435Y-117475522D01*
X135558473Y-117467839D01*
X135491379Y-117455282D01*
X135434496Y-117437227D01*
X135384169Y-117413052D01*
X135380810Y-117411135D01*
X135322998Y-117374417D01*
X135280644Y-117337451D01*
X135247828Y-117293966D01*
X135218628Y-117237689D01*
X135214346Y-117228073D01*
X135191769Y-117164887D01*
X135186034Y-117119333D01*
X135335279Y-117119333D01*
X135340892Y-117144061D01*
X135346618Y-117159939D01*
X135379548Y-117219847D01*
X135426886Y-117265600D01*
X135490652Y-117298736D01*
X135572861Y-117320790D01*
X135575655Y-117321292D01*
X135621940Y-117327255D01*
X135678336Y-117331483D01*
X135733274Y-117333089D01*
X135827156Y-117333089D01*
X135827156Y-116892822D01*
X135739667Y-116893270D01*
X135672747Y-116895746D01*
X135580349Y-116906998D01*
X135501034Y-116926537D01*
X135439060Y-116953511D01*
X135408120Y-116974240D01*
X135380000Y-117004006D01*
X135356660Y-117046434D01*
X135349533Y-117062400D01*
X135337709Y-117094902D01*
X135335279Y-117119333D01*
X135186034Y-117119333D01*
X135184797Y-117109509D01*
X135193399Y-117054483D01*
X135217541Y-116992351D01*
X135218337Y-116990658D01*
X135258788Y-116921236D01*
X135309473Y-116864638D01*
X135372198Y-116820070D01*
X135448774Y-116786741D01*
X135541009Y-116763861D01*
X135650712Y-116750636D01*
X135779691Y-116746275D01*
X135783263Y-116746270D01*
X135843283Y-116746410D01*
X135885214Y-116747446D01*
X135913328Y-116750040D01*
X135931897Y-116754853D01*
X135945194Y-116762544D01*
X135957491Y-116773776D01*
X135985200Y-116801485D01*
X135985200Y-117110920D01*
X135985175Y-117172526D01*
X135984950Y-117251311D01*
X135984332Y-117312021D01*
X135983775Y-117333089D01*
X135983133Y-117357396D01*
G36*
X135983133Y-117357396D02*
G01*
X135981163Y-117390175D01*
X135978235Y-117413095D01*
X135974158Y-117428897D01*
X135968743Y-117440319D01*
X135961803Y-117450100D01*
X135938406Y-117479845D01*
X135772714Y-117479251D01*
X135737918Y-117478953D01*
X135639435Y-117475522D01*
X135558473Y-117467839D01*
X135491379Y-117455282D01*
X135434496Y-117437227D01*
X135384169Y-117413052D01*
X135380810Y-117411135D01*
X135322998Y-117374417D01*
X135280644Y-117337451D01*
X135247828Y-117293966D01*
X135218628Y-117237689D01*
X135214346Y-117228073D01*
X135191769Y-117164887D01*
X135186034Y-117119333D01*
X135335279Y-117119333D01*
X135340892Y-117144061D01*
X135346618Y-117159939D01*
X135379548Y-117219847D01*
X135426886Y-117265600D01*
X135490652Y-117298736D01*
X135572861Y-117320790D01*
X135575655Y-117321292D01*
X135621940Y-117327255D01*
X135678336Y-117331483D01*
X135733274Y-117333089D01*
X135827156Y-117333089D01*
X135827156Y-116892822D01*
X135739667Y-116893270D01*
X135672747Y-116895746D01*
X135580349Y-116906998D01*
X135501034Y-116926537D01*
X135439060Y-116953511D01*
X135408120Y-116974240D01*
X135380000Y-117004006D01*
X135356660Y-117046434D01*
X135349533Y-117062400D01*
X135337709Y-117094902D01*
X135335279Y-117119333D01*
X135186034Y-117119333D01*
X135184797Y-117109509D01*
X135193399Y-117054483D01*
X135217541Y-116992351D01*
X135218337Y-116990658D01*
X135258788Y-116921236D01*
X135309473Y-116864638D01*
X135372198Y-116820070D01*
X135448774Y-116786741D01*
X135541009Y-116763861D01*
X135650712Y-116750636D01*
X135779691Y-116746275D01*
X135783263Y-116746270D01*
X135843283Y-116746410D01*
X135885214Y-116747446D01*
X135913328Y-116750040D01*
X135931897Y-116754853D01*
X135945194Y-116762544D01*
X135957491Y-116773776D01*
X135985200Y-116801485D01*
X135985200Y-117110920D01*
X135985175Y-117172526D01*
X135984950Y-117251311D01*
X135984332Y-117312021D01*
X135983775Y-117333089D01*
X135983133Y-117357396D01*
G37*
X143074817Y-116931427D02*
X143074870Y-117012041D01*
X143074622Y-117112956D01*
X143074583Y-117188617D01*
X143074328Y-117266526D01*
X143073684Y-117326536D01*
X143072480Y-117371264D01*
X143070543Y-117403326D01*
X143067703Y-117425340D01*
X143063788Y-117439924D01*
X143058626Y-117449694D01*
X143052045Y-117457267D01*
X143045077Y-117463501D01*
X143032079Y-117470801D01*
X143012931Y-117475554D01*
X142983528Y-117478292D01*
X142939762Y-117479545D01*
X142877528Y-117479845D01*
X142828582Y-117479469D01*
X142721722Y-117475041D01*
X142632494Y-117464953D01*
X142557696Y-117448365D01*
X142494125Y-117424435D01*
X142438579Y-117392321D01*
X142387854Y-117351182D01*
X142381866Y-117345330D01*
X142344999Y-117296821D01*
X142313899Y-117236013D01*
X142292417Y-117171769D01*
X142287136Y-117133026D01*
X142434353Y-117133026D01*
X142452635Y-117183961D01*
X142482305Y-117229878D01*
X142529002Y-117272287D01*
X142590392Y-117302090D01*
X142669538Y-117321226D01*
X142671028Y-117321464D01*
X142719999Y-117327256D01*
X142778693Y-117331396D01*
X142834734Y-117333004D01*
X142927867Y-117333089D01*
X142927867Y-116892822D01*
X142851667Y-116892808D01*
X142848639Y-116892817D01*
X142797519Y-116894782D01*
X142737416Y-116899507D01*
X142680708Y-116906035D01*
X142630750Y-116915331D01*
X142555998Y-116941600D01*
X142498489Y-116980899D01*
X142456988Y-117033933D01*
X142435771Y-117085200D01*
X142434353Y-117133026D01*
X142287136Y-117133026D01*
X142284400Y-117112956D01*
X142285679Y-117091739D01*
X142297991Y-117034323D01*
X142320520Y-116974413D01*
X142349750Y-116920363D01*
X142382167Y-116880532D01*
X142401708Y-116863510D01*
X142456420Y-116824322D01*
X142516723Y-116794193D01*
X142585919Y-116772232D01*
X142667311Y-116757550D01*
X142764200Y-116749259D01*
X142879889Y-116746467D01*
X142919371Y-116746066D01*
X142965082Y-116745653D01*
X143000883Y-116747457D01*
X143027974Y-116753739D01*
X143047556Y-116766759D01*
X143060830Y-116788778D01*
X143068998Y-116822055D01*
X143073260Y-116868851D01*
X143073857Y-116892822D01*
X143074817Y-116931427D01*
G36*
X143074817Y-116931427D02*
G01*
X143074870Y-117012041D01*
X143074622Y-117112956D01*
X143074583Y-117188617D01*
X143074328Y-117266526D01*
X143073684Y-117326536D01*
X143072480Y-117371264D01*
X143070543Y-117403326D01*
X143067703Y-117425340D01*
X143063788Y-117439924D01*
X143058626Y-117449694D01*
X143052045Y-117457267D01*
X143045077Y-117463501D01*
X143032079Y-117470801D01*
X143012931Y-117475554D01*
X142983528Y-117478292D01*
X142939762Y-117479545D01*
X142877528Y-117479845D01*
X142828582Y-117479469D01*
X142721722Y-117475041D01*
X142632494Y-117464953D01*
X142557696Y-117448365D01*
X142494125Y-117424435D01*
X142438579Y-117392321D01*
X142387854Y-117351182D01*
X142381866Y-117345330D01*
X142344999Y-117296821D01*
X142313899Y-117236013D01*
X142292417Y-117171769D01*
X142287136Y-117133026D01*
X142434353Y-117133026D01*
X142452635Y-117183961D01*
X142482305Y-117229878D01*
X142529002Y-117272287D01*
X142590392Y-117302090D01*
X142669538Y-117321226D01*
X142671028Y-117321464D01*
X142719999Y-117327256D01*
X142778693Y-117331396D01*
X142834734Y-117333004D01*
X142927867Y-117333089D01*
X142927867Y-116892822D01*
X142851667Y-116892808D01*
X142848639Y-116892817D01*
X142797519Y-116894782D01*
X142737416Y-116899507D01*
X142680708Y-116906035D01*
X142630750Y-116915331D01*
X142555998Y-116941600D01*
X142498489Y-116980899D01*
X142456988Y-117033933D01*
X142435771Y-117085200D01*
X142434353Y-117133026D01*
X142287136Y-117133026D01*
X142284400Y-117112956D01*
X142285679Y-117091739D01*
X142297991Y-117034323D01*
X142320520Y-116974413D01*
X142349750Y-116920363D01*
X142382167Y-116880532D01*
X142401708Y-116863510D01*
X142456420Y-116824322D01*
X142516723Y-116794193D01*
X142585919Y-116772232D01*
X142667311Y-116757550D01*
X142764200Y-116749259D01*
X142879889Y-116746467D01*
X142919371Y-116746066D01*
X142965082Y-116745653D01*
X143000883Y-116747457D01*
X143027974Y-116753739D01*
X143047556Y-116766759D01*
X143060830Y-116788778D01*
X143068998Y-116822055D01*
X143073260Y-116868851D01*
X143073857Y-116892822D01*
X143074817Y-116931427D01*
G37*
X138129893Y-116744892D02*
X138141301Y-116751029D01*
X138151850Y-116761691D01*
X138163136Y-116775811D01*
X138167589Y-116781772D01*
X138173588Y-116792268D01*
X138178167Y-116806093D01*
X138181519Y-116825998D01*
X138183833Y-116854732D01*
X138185301Y-116895045D01*
X138186113Y-116949687D01*
X138186460Y-117021407D01*
X138186534Y-117112956D01*
X138186511Y-117171486D01*
X138186292Y-117250573D01*
X138185683Y-117311516D01*
X138184492Y-117357062D01*
X138182529Y-117389963D01*
X138179603Y-117412968D01*
X138175523Y-117428826D01*
X138170097Y-117440286D01*
X138163136Y-117450100D01*
X138132708Y-117474493D01*
X138097765Y-117477372D01*
X138060784Y-117458282D01*
X138056600Y-117454807D01*
X138048424Y-117446279D01*
X138042364Y-117434728D01*
X138037981Y-117416896D01*
X138034839Y-117389524D01*
X138032502Y-117349354D01*
X138030531Y-117293128D01*
X138028489Y-117217589D01*
X138022845Y-116998458D01*
X137757556Y-117239099D01*
X137683722Y-117305875D01*
X137618542Y-117363991D01*
X137566348Y-117408949D01*
X137525273Y-117441871D01*
X137493455Y-117463879D01*
X137469026Y-117476094D01*
X137450124Y-117479639D01*
X137434883Y-117475636D01*
X137421439Y-117465207D01*
X137407927Y-117449474D01*
X137401682Y-117440991D01*
X137396050Y-117430413D01*
X137391839Y-117416255D01*
X137388887Y-117395803D01*
X137387032Y-117366342D01*
X137386113Y-117325161D01*
X137385968Y-117269544D01*
X137386435Y-117196779D01*
X137387352Y-117104151D01*
X137390667Y-116789199D01*
X137417318Y-116767633D01*
X137443383Y-116751441D01*
X137476241Y-116748670D01*
X137510772Y-116767623D01*
X137515084Y-116771208D01*
X137523216Y-116779737D01*
X137529245Y-116791329D01*
X137533606Y-116809235D01*
X137536734Y-116836706D01*
X137539063Y-116876994D01*
X137541029Y-116933351D01*
X137543067Y-117009029D01*
X137548711Y-117228878D01*
X137729334Y-117065084D01*
X137816072Y-116986451D01*
X137891843Y-116918058D01*
X137953980Y-116862708D01*
X138004078Y-116819338D01*
X138043735Y-116786881D01*
X138074548Y-116764273D01*
X138098114Y-116750448D01*
X138116030Y-116744343D01*
X138129893Y-116744892D01*
G36*
X138129893Y-116744892D02*
G01*
X138141301Y-116751029D01*
X138151850Y-116761691D01*
X138163136Y-116775811D01*
X138167589Y-116781772D01*
X138173588Y-116792268D01*
X138178167Y-116806093D01*
X138181519Y-116825998D01*
X138183833Y-116854732D01*
X138185301Y-116895045D01*
X138186113Y-116949687D01*
X138186460Y-117021407D01*
X138186534Y-117112956D01*
X138186511Y-117171486D01*
X138186292Y-117250573D01*
X138185683Y-117311516D01*
X138184492Y-117357062D01*
X138182529Y-117389963D01*
X138179603Y-117412968D01*
X138175523Y-117428826D01*
X138170097Y-117440286D01*
X138163136Y-117450100D01*
X138132708Y-117474493D01*
X138097765Y-117477372D01*
X138060784Y-117458282D01*
X138056600Y-117454807D01*
X138048424Y-117446279D01*
X138042364Y-117434728D01*
X138037981Y-117416896D01*
X138034839Y-117389524D01*
X138032502Y-117349354D01*
X138030531Y-117293128D01*
X138028489Y-117217589D01*
X138022845Y-116998458D01*
X137757556Y-117239099D01*
X137683722Y-117305875D01*
X137618542Y-117363991D01*
X137566348Y-117408949D01*
X137525273Y-117441871D01*
X137493455Y-117463879D01*
X137469026Y-117476094D01*
X137450124Y-117479639D01*
X137434883Y-117475636D01*
X137421439Y-117465207D01*
X137407927Y-117449474D01*
X137401682Y-117440991D01*
X137396050Y-117430413D01*
X137391839Y-117416255D01*
X137388887Y-117395803D01*
X137387032Y-117366342D01*
X137386113Y-117325161D01*
X137385968Y-117269544D01*
X137386435Y-117196779D01*
X137387352Y-117104151D01*
X137390667Y-116789199D01*
X137417318Y-116767633D01*
X137443383Y-116751441D01*
X137476241Y-116748670D01*
X137510772Y-116767623D01*
X137515084Y-116771208D01*
X137523216Y-116779737D01*
X137529245Y-116791329D01*
X137533606Y-116809235D01*
X137536734Y-116836706D01*
X137539063Y-116876994D01*
X137541029Y-116933351D01*
X137543067Y-117009029D01*
X137548711Y-117228878D01*
X137729334Y-117065084D01*
X137816072Y-116986451D01*
X137891843Y-116918058D01*
X137953980Y-116862708D01*
X138004078Y-116819338D01*
X138043735Y-116786881D01*
X138074548Y-116764273D01*
X138098114Y-116750448D01*
X138116030Y-116744343D01*
X138129893Y-116744892D01*
G37*
X138927150Y-116751179D02*
X139033157Y-116767494D01*
X139126969Y-116795545D01*
X139205765Y-116834452D01*
X139266719Y-116883334D01*
X139292789Y-116916195D01*
X139322297Y-116965394D01*
X139347568Y-117019252D01*
X139365218Y-117070419D01*
X139371858Y-117111544D01*
X139370298Y-117131259D01*
X139357357Y-117182592D01*
X139334194Y-117239118D01*
X139304302Y-117293035D01*
X139271173Y-117336539D01*
X139260977Y-117346887D01*
X139193892Y-117398662D01*
X139113766Y-117438554D01*
X139027556Y-117462956D01*
X138972592Y-117471068D01*
X138879139Y-117477673D01*
X138789358Y-117475586D01*
X138706869Y-117465340D01*
X138635286Y-117447470D01*
X138578228Y-117422508D01*
X138539311Y-117390988D01*
X138537936Y-117389012D01*
X138530848Y-117363786D01*
X138526609Y-117316535D01*
X138525200Y-117247071D01*
X138526060Y-117184838D01*
X138530780Y-117137456D01*
X138542470Y-117105353D01*
X138564239Y-117085800D01*
X138599198Y-117076070D01*
X138650456Y-117073433D01*
X138721123Y-117075161D01*
X138769743Y-117078173D01*
X138819939Y-117086366D01*
X138852433Y-117100419D01*
X138869892Y-117121654D01*
X138874983Y-117151394D01*
X138874877Y-117155936D01*
X138866175Y-117190730D01*
X138842165Y-117214147D01*
X138800900Y-117227347D01*
X138740431Y-117231489D01*
X138671956Y-117231489D01*
X138671956Y-117269841D01*
X138672006Y-117278976D01*
X138674227Y-117296227D01*
X138683494Y-117306521D01*
X138704875Y-117313459D01*
X138743436Y-117320641D01*
X138748910Y-117321575D01*
X138845860Y-117331478D01*
X138935852Y-117328559D01*
X139016760Y-117313829D01*
X139086459Y-117288299D01*
X139142824Y-117252978D01*
X139183729Y-117208879D01*
X139207051Y-117157012D01*
X139210663Y-117098388D01*
X139205145Y-117069494D01*
X139178461Y-117013604D01*
X139132273Y-116967945D01*
X139067291Y-116933108D01*
X138984229Y-116909690D01*
X138959555Y-116905241D01*
X138870226Y-116894742D01*
X138790419Y-116895971D01*
X138712326Y-116908906D01*
X138677183Y-116915696D01*
X138631745Y-116916713D01*
X138600430Y-116904182D01*
X138580277Y-116877395D01*
X138573893Y-116849148D01*
X138583379Y-116817924D01*
X138592708Y-116804499D01*
X138626943Y-116780967D01*
X138679565Y-116763095D01*
X138748081Y-116751599D01*
X138830000Y-116747192D01*
X138927150Y-116751179D01*
G36*
X138927150Y-116751179D02*
G01*
X139033157Y-116767494D01*
X139126969Y-116795545D01*
X139205765Y-116834452D01*
X139266719Y-116883334D01*
X139292789Y-116916195D01*
X139322297Y-116965394D01*
X139347568Y-117019252D01*
X139365218Y-117070419D01*
X139371858Y-117111544D01*
X139370298Y-117131259D01*
X139357357Y-117182592D01*
X139334194Y-117239118D01*
X139304302Y-117293035D01*
X139271173Y-117336539D01*
X139260977Y-117346887D01*
X139193892Y-117398662D01*
X139113766Y-117438554D01*
X139027556Y-117462956D01*
X138972592Y-117471068D01*
X138879139Y-117477673D01*
X138789358Y-117475586D01*
X138706869Y-117465340D01*
X138635286Y-117447470D01*
X138578228Y-117422508D01*
X138539311Y-117390988D01*
X138537936Y-117389012D01*
X138530848Y-117363786D01*
X138526609Y-117316535D01*
X138525200Y-117247071D01*
X138526060Y-117184838D01*
X138530780Y-117137456D01*
X138542470Y-117105353D01*
X138564239Y-117085800D01*
X138599198Y-117076070D01*
X138650456Y-117073433D01*
X138721123Y-117075161D01*
X138769743Y-117078173D01*
X138819939Y-117086366D01*
X138852433Y-117100419D01*
X138869892Y-117121654D01*
X138874983Y-117151394D01*
X138874877Y-117155936D01*
X138866175Y-117190730D01*
X138842165Y-117214147D01*
X138800900Y-117227347D01*
X138740431Y-117231489D01*
X138671956Y-117231489D01*
X138671956Y-117269841D01*
X138672006Y-117278976D01*
X138674227Y-117296227D01*
X138683494Y-117306521D01*
X138704875Y-117313459D01*
X138743436Y-117320641D01*
X138748910Y-117321575D01*
X138845860Y-117331478D01*
X138935852Y-117328559D01*
X139016760Y-117313829D01*
X139086459Y-117288299D01*
X139142824Y-117252978D01*
X139183729Y-117208879D01*
X139207051Y-117157012D01*
X139210663Y-117098388D01*
X139205145Y-117069494D01*
X139178461Y-117013604D01*
X139132273Y-116967945D01*
X139067291Y-116933108D01*
X138984229Y-116909690D01*
X138959555Y-116905241D01*
X138870226Y-116894742D01*
X138790419Y-116895971D01*
X138712326Y-116908906D01*
X138677183Y-116915696D01*
X138631745Y-116916713D01*
X138600430Y-116904182D01*
X138580277Y-116877395D01*
X138573893Y-116849148D01*
X138583379Y-116817924D01*
X138592708Y-116804499D01*
X138626943Y-116780967D01*
X138679565Y-116763095D01*
X138748081Y-116751599D01*
X138830000Y-116747192D01*
X138927150Y-116751179D01*
G37*
X136977803Y-116775811D02*
X136982752Y-116782495D01*
X136988596Y-116793066D01*
X136993057Y-116807153D01*
X136996321Y-116827478D01*
X136998574Y-116856765D01*
X137000002Y-116897737D01*
X137000792Y-116953117D01*
X137001129Y-117025628D01*
X137001200Y-117117994D01*
X137001171Y-117183911D01*
X137000939Y-117262228D01*
X137000319Y-117322496D01*
X136999126Y-117367393D01*
X136997179Y-117399602D01*
X136994294Y-117421800D01*
X136990288Y-117436669D01*
X136984979Y-117446889D01*
X136978183Y-117455138D01*
X136973668Y-117459795D01*
X136965438Y-117466282D01*
X136954078Y-117471194D01*
X136936810Y-117474749D01*
X136910855Y-117477167D01*
X136873436Y-117478667D01*
X136821773Y-117479467D01*
X136753089Y-117479787D01*
X136664606Y-117479845D01*
X136644931Y-117479838D01*
X136557906Y-117479572D01*
X136490254Y-117478806D01*
X136439299Y-117477392D01*
X136402367Y-117475180D01*
X136376783Y-117472022D01*
X136359871Y-117467769D01*
X136348957Y-117462271D01*
X136338464Y-117452285D01*
X136325203Y-117421168D01*
X136326386Y-117385280D01*
X136342550Y-117353733D01*
X136344739Y-117351457D01*
X136353427Y-117345189D01*
X136366769Y-117340523D01*
X136387752Y-117337227D01*
X136419363Y-117335068D01*
X136464590Y-117333814D01*
X136526420Y-117333231D01*
X136607839Y-117333089D01*
X136854445Y-117333089D01*
X136854445Y-117175045D01*
X136692006Y-117175045D01*
X136656338Y-117174964D01*
X136600568Y-117174167D01*
X136561430Y-117172162D01*
X136534976Y-117168521D01*
X136517259Y-117162812D01*
X136504329Y-117154607D01*
X136500686Y-117151423D01*
X136482278Y-117120448D01*
X136481644Y-117084112D01*
X136499183Y-117050493D01*
X136499245Y-117050424D01*
X136508916Y-117041798D01*
X136522209Y-117035742D01*
X136542917Y-117031811D01*
X136574828Y-117029556D01*
X136621734Y-117028531D01*
X136687424Y-117028289D01*
X136855571Y-117028289D01*
X136852186Y-116963378D01*
X136848800Y-116898467D01*
X136606723Y-116895414D01*
X136581707Y-116895086D01*
X136500087Y-116893606D01*
X136437768Y-116891222D01*
X136392154Y-116887227D01*
X136360652Y-116880913D01*
X136340667Y-116871574D01*
X136329604Y-116858503D01*
X136324869Y-116840992D01*
X136323867Y-116818335D01*
X136323873Y-116815970D01*
X136325027Y-116795939D01*
X136329824Y-116780146D01*
X136340632Y-116768090D01*
X136359817Y-116759267D01*
X136389745Y-116753175D01*
X136432783Y-116749311D01*
X136491299Y-116747174D01*
X136567657Y-116746260D01*
X136664226Y-116746067D01*
X136954406Y-116746067D01*
X136977803Y-116775811D01*
G36*
X136977803Y-116775811D02*
G01*
X136982752Y-116782495D01*
X136988596Y-116793066D01*
X136993057Y-116807153D01*
X136996321Y-116827478D01*
X136998574Y-116856765D01*
X137000002Y-116897737D01*
X137000792Y-116953117D01*
X137001129Y-117025628D01*
X137001200Y-117117994D01*
X137001171Y-117183911D01*
X137000939Y-117262228D01*
X137000319Y-117322496D01*
X136999126Y-117367393D01*
X136997179Y-117399602D01*
X136994294Y-117421800D01*
X136990288Y-117436669D01*
X136984979Y-117446889D01*
X136978183Y-117455138D01*
X136973668Y-117459795D01*
X136965438Y-117466282D01*
X136954078Y-117471194D01*
X136936810Y-117474749D01*
X136910855Y-117477167D01*
X136873436Y-117478667D01*
X136821773Y-117479467D01*
X136753089Y-117479787D01*
X136664606Y-117479845D01*
X136644931Y-117479838D01*
X136557906Y-117479572D01*
X136490254Y-117478806D01*
X136439299Y-117477392D01*
X136402367Y-117475180D01*
X136376783Y-117472022D01*
X136359871Y-117467769D01*
X136348957Y-117462271D01*
X136338464Y-117452285D01*
X136325203Y-117421168D01*
X136326386Y-117385280D01*
X136342550Y-117353733D01*
X136344739Y-117351457D01*
X136353427Y-117345189D01*
X136366769Y-117340523D01*
X136387752Y-117337227D01*
X136419363Y-117335068D01*
X136464590Y-117333814D01*
X136526420Y-117333231D01*
X136607839Y-117333089D01*
X136854445Y-117333089D01*
X136854445Y-117175045D01*
X136692006Y-117175045D01*
X136656338Y-117174964D01*
X136600568Y-117174167D01*
X136561430Y-117172162D01*
X136534976Y-117168521D01*
X136517259Y-117162812D01*
X136504329Y-117154607D01*
X136500686Y-117151423D01*
X136482278Y-117120448D01*
X136481644Y-117084112D01*
X136499183Y-117050493D01*
X136499245Y-117050424D01*
X136508916Y-117041798D01*
X136522209Y-117035742D01*
X136542917Y-117031811D01*
X136574828Y-117029556D01*
X136621734Y-117028531D01*
X136687424Y-117028289D01*
X136855571Y-117028289D01*
X136852186Y-116963378D01*
X136848800Y-116898467D01*
X136606723Y-116895414D01*
X136581707Y-116895086D01*
X136500087Y-116893606D01*
X136437768Y-116891222D01*
X136392154Y-116887227D01*
X136360652Y-116880913D01*
X136340667Y-116871574D01*
X136329604Y-116858503D01*
X136324869Y-116840992D01*
X136323867Y-116818335D01*
X136323873Y-116815970D01*
X136325027Y-116795939D01*
X136329824Y-116780146D01*
X136340632Y-116768090D01*
X136359817Y-116759267D01*
X136389745Y-116753175D01*
X136432783Y-116749311D01*
X136491299Y-116747174D01*
X136567657Y-116746260D01*
X136664226Y-116746067D01*
X136954406Y-116746067D01*
X136977803Y-116775811D01*
G37*
X141654734Y-116746083D02*
X141731831Y-116746275D01*
X141790777Y-116746860D01*
X141834364Y-116748051D01*
X141865383Y-116750064D01*
X141886625Y-116753112D01*
X141900882Y-116757409D01*
X141910945Y-116763172D01*
X141919606Y-116770612D01*
X141921391Y-116772293D01*
X141928635Y-116779832D01*
X141934277Y-116788850D01*
X141938517Y-116801984D01*
X141941556Y-116821872D01*
X141943594Y-116851151D01*
X141944830Y-116892458D01*
X141945465Y-116948431D01*
X141945700Y-117021707D01*
X141945734Y-117114923D01*
X141945697Y-117187713D01*
X141945448Y-117265889D01*
X141944812Y-117326103D01*
X141943615Y-117370982D01*
X141941684Y-117403152D01*
X141938846Y-117425239D01*
X141934927Y-117439870D01*
X141929755Y-117449670D01*
X141923156Y-117457267D01*
X141919822Y-117460444D01*
X141911300Y-117466554D01*
X141899298Y-117471229D01*
X141881087Y-117474659D01*
X141853940Y-117477036D01*
X141815129Y-117478552D01*
X141761924Y-117479398D01*
X141691598Y-117479765D01*
X141601422Y-117479845D01*
X141559314Y-117479833D01*
X141478167Y-117479651D01*
X141415675Y-117479098D01*
X141369109Y-117477982D01*
X141335741Y-117476113D01*
X141312844Y-117473298D01*
X141297688Y-117469346D01*
X141287546Y-117464066D01*
X141279689Y-117457267D01*
X141264963Y-117435667D01*
X141257111Y-117406467D01*
X141262610Y-117382560D01*
X141279689Y-117355667D01*
X141284668Y-117351059D01*
X141294443Y-117344772D01*
X141308559Y-117340146D01*
X141330054Y-117336930D01*
X141361968Y-117334870D01*
X141407342Y-117333712D01*
X141469213Y-117333202D01*
X141550622Y-117333089D01*
X141798978Y-117333089D01*
X141798978Y-117175045D01*
X141637801Y-117175045D01*
X141601983Y-117174899D01*
X141536359Y-117173176D01*
X141489118Y-117168741D01*
X141457383Y-117160637D01*
X141438277Y-117147906D01*
X141428923Y-117129592D01*
X141426445Y-117104738D01*
X141427242Y-117084482D01*
X141432494Y-117062656D01*
X141445288Y-117047304D01*
X141468628Y-117037309D01*
X141505517Y-117031553D01*
X141558959Y-117028919D01*
X141631958Y-117028289D01*
X141800105Y-117028289D01*
X141796719Y-116963378D01*
X141793334Y-116898467D01*
X141545617Y-116895418D01*
X141483026Y-116894539D01*
X141414565Y-116893095D01*
X141363661Y-116891164D01*
X141327408Y-116888514D01*
X141302901Y-116884910D01*
X141287235Y-116880121D01*
X141277506Y-116873913D01*
X141271491Y-116867510D01*
X141258482Y-116835828D01*
X141262043Y-116800142D01*
X141281818Y-116769084D01*
X141285069Y-116766161D01*
X141294049Y-116759810D01*
X141306153Y-116754957D01*
X141324159Y-116751403D01*
X141350847Y-116748946D01*
X141388997Y-116747385D01*
X141441386Y-116746518D01*
X141510794Y-116746146D01*
X141600001Y-116746067D01*
X141654734Y-116746083D01*
G36*
X141654734Y-116746083D02*
G01*
X141731831Y-116746275D01*
X141790777Y-116746860D01*
X141834364Y-116748051D01*
X141865383Y-116750064D01*
X141886625Y-116753112D01*
X141900882Y-116757409D01*
X141910945Y-116763172D01*
X141919606Y-116770612D01*
X141921391Y-116772293D01*
X141928635Y-116779832D01*
X141934277Y-116788850D01*
X141938517Y-116801984D01*
X141941556Y-116821872D01*
X141943594Y-116851151D01*
X141944830Y-116892458D01*
X141945465Y-116948431D01*
X141945700Y-117021707D01*
X141945734Y-117114923D01*
X141945697Y-117187713D01*
X141945448Y-117265889D01*
X141944812Y-117326103D01*
X141943615Y-117370982D01*
X141941684Y-117403152D01*
X141938846Y-117425239D01*
X141934927Y-117439870D01*
X141929755Y-117449670D01*
X141923156Y-117457267D01*
X141919822Y-117460444D01*
X141911300Y-117466554D01*
X141899298Y-117471229D01*
X141881087Y-117474659D01*
X141853940Y-117477036D01*
X141815129Y-117478552D01*
X141761924Y-117479398D01*
X141691598Y-117479765D01*
X141601422Y-117479845D01*
X141559314Y-117479833D01*
X141478167Y-117479651D01*
X141415675Y-117479098D01*
X141369109Y-117477982D01*
X141335741Y-117476113D01*
X141312844Y-117473298D01*
X141297688Y-117469346D01*
X141287546Y-117464066D01*
X141279689Y-117457267D01*
X141264963Y-117435667D01*
X141257111Y-117406467D01*
X141262610Y-117382560D01*
X141279689Y-117355667D01*
X141284668Y-117351059D01*
X141294443Y-117344772D01*
X141308559Y-117340146D01*
X141330054Y-117336930D01*
X141361968Y-117334870D01*
X141407342Y-117333712D01*
X141469213Y-117333202D01*
X141550622Y-117333089D01*
X141798978Y-117333089D01*
X141798978Y-117175045D01*
X141637801Y-117175045D01*
X141601983Y-117174899D01*
X141536359Y-117173176D01*
X141489118Y-117168741D01*
X141457383Y-117160637D01*
X141438277Y-117147906D01*
X141428923Y-117129592D01*
X141426445Y-117104738D01*
X141427242Y-117084482D01*
X141432494Y-117062656D01*
X141445288Y-117047304D01*
X141468628Y-117037309D01*
X141505517Y-117031553D01*
X141558959Y-117028919D01*
X141631958Y-117028289D01*
X141800105Y-117028289D01*
X141796719Y-116963378D01*
X141793334Y-116898467D01*
X141545617Y-116895418D01*
X141483026Y-116894539D01*
X141414565Y-116893095D01*
X141363661Y-116891164D01*
X141327408Y-116888514D01*
X141302901Y-116884910D01*
X141287235Y-116880121D01*
X141277506Y-116873913D01*
X141271491Y-116867510D01*
X141258482Y-116835828D01*
X141262043Y-116800142D01*
X141281818Y-116769084D01*
X141285069Y-116766161D01*
X141294049Y-116759810D01*
X141306153Y-116754957D01*
X141324159Y-116751403D01*
X141350847Y-116748946D01*
X141388997Y-116747385D01*
X141441386Y-116746518D01*
X141510794Y-116746146D01*
X141600001Y-116746067D01*
X141654734Y-116746083D01*
G37*
X133087702Y-116755478D02*
X133105663Y-116773989D01*
X133126263Y-116805071D01*
X133151095Y-116850756D01*
X133181750Y-116913078D01*
X133219820Y-116994071D01*
X133234454Y-117025454D01*
X133264203Y-117088638D01*
X133290297Y-117143244D01*
X133311292Y-117186290D01*
X133325739Y-117214793D01*
X133332191Y-117225770D01*
X133333550Y-117225189D01*
X133343542Y-117211242D01*
X133360833Y-117181704D01*
X133383430Y-117140087D01*
X133409338Y-117089903D01*
X133425311Y-117058414D01*
X133454261Y-117003061D01*
X133476749Y-116964044D01*
X133494965Y-116938566D01*
X133511096Y-116923831D01*
X133527330Y-116917042D01*
X133545857Y-116915400D01*
X133556360Y-116915875D01*
X133572476Y-116920082D01*
X133587790Y-116930946D01*
X133604388Y-116951219D01*
X133624357Y-116983654D01*
X133649783Y-117031004D01*
X133682752Y-117096022D01*
X133692485Y-117115277D01*
X133716943Y-117161946D01*
X133737178Y-117198109D01*
X133751311Y-117220497D01*
X133757460Y-117225845D01*
X133758827Y-117222573D01*
X133768202Y-117201664D01*
X133785062Y-117164725D01*
X133807979Y-117114874D01*
X133835520Y-117055226D01*
X133866255Y-116988898D01*
X133892970Y-116931677D01*
X133922593Y-116869688D01*
X133945664Y-116823949D01*
X133963643Y-116791908D01*
X133977990Y-116771014D01*
X133990166Y-116758718D01*
X134001632Y-116752466D01*
X134011042Y-116749574D01*
X134036147Y-116749425D01*
X134063290Y-116764768D01*
X134064590Y-116765753D01*
X134086674Y-116788388D01*
X134097723Y-116810613D01*
X134097769Y-116811253D01*
X134093228Y-116828915D01*
X134080364Y-116863481D01*
X134060605Y-116911826D01*
X134035381Y-116970825D01*
X134006119Y-117037355D01*
X133974250Y-117108291D01*
X133941201Y-117180507D01*
X133908401Y-117250880D01*
X133877280Y-117316285D01*
X133849265Y-117373597D01*
X133825786Y-117419692D01*
X133808272Y-117451446D01*
X133798151Y-117465733D01*
X133763743Y-117479102D01*
X133722046Y-117472741D01*
X133716681Y-117468044D01*
X133700852Y-117445893D01*
X133678650Y-117409132D01*
X133652233Y-117361415D01*
X133623760Y-117306393D01*
X133543986Y-117147150D01*
X133470799Y-117293742D01*
X133461103Y-117313032D01*
X133434125Y-117365380D01*
X133410096Y-117410170D01*
X133391332Y-117443154D01*
X133380146Y-117460089D01*
X133379000Y-117461332D01*
X133350879Y-117476619D01*
X133315817Y-117478302D01*
X133284776Y-117465733D01*
X133282350Y-117462884D01*
X133270090Y-117442259D01*
X133250352Y-117404708D01*
X133224448Y-117352880D01*
X133193685Y-117289423D01*
X133159375Y-117216985D01*
X133122825Y-117138216D01*
X133102585Y-117094093D01*
X133065812Y-117013365D01*
X133037355Y-116949687D01*
X133016331Y-116900752D01*
X133001854Y-116864257D01*
X132993039Y-116837895D01*
X132989004Y-116819361D01*
X132988862Y-116806352D01*
X132991730Y-116796561D01*
X133006387Y-116775678D01*
X133032990Y-116755377D01*
X133033745Y-116755035D01*
X133053335Y-116748034D01*
X133070790Y-116747504D01*
X133087702Y-116755478D01*
G36*
X133087702Y-116755478D02*
G01*
X133105663Y-116773989D01*
X133126263Y-116805071D01*
X133151095Y-116850756D01*
X133181750Y-116913078D01*
X133219820Y-116994071D01*
X133234454Y-117025454D01*
X133264203Y-117088638D01*
X133290297Y-117143244D01*
X133311292Y-117186290D01*
X133325739Y-117214793D01*
X133332191Y-117225770D01*
X133333550Y-117225189D01*
X133343542Y-117211242D01*
X133360833Y-117181704D01*
X133383430Y-117140087D01*
X133409338Y-117089903D01*
X133425311Y-117058414D01*
X133454261Y-117003061D01*
X133476749Y-116964044D01*
X133494965Y-116938566D01*
X133511096Y-116923831D01*
X133527330Y-116917042D01*
X133545857Y-116915400D01*
X133556360Y-116915875D01*
X133572476Y-116920082D01*
X133587790Y-116930946D01*
X133604388Y-116951219D01*
X133624357Y-116983654D01*
X133649783Y-117031004D01*
X133682752Y-117096022D01*
X133692485Y-117115277D01*
X133716943Y-117161946D01*
X133737178Y-117198109D01*
X133751311Y-117220497D01*
X133757460Y-117225845D01*
X133758827Y-117222573D01*
X133768202Y-117201664D01*
X133785062Y-117164725D01*
X133807979Y-117114874D01*
X133835520Y-117055226D01*
X133866255Y-116988898D01*
X133892970Y-116931677D01*
X133922593Y-116869688D01*
X133945664Y-116823949D01*
X133963643Y-116791908D01*
X133977990Y-116771014D01*
X133990166Y-116758718D01*
X134001632Y-116752466D01*
X134011042Y-116749574D01*
X134036147Y-116749425D01*
X134063290Y-116764768D01*
X134064590Y-116765753D01*
X134086674Y-116788388D01*
X134097723Y-116810613D01*
X134097769Y-116811253D01*
X134093228Y-116828915D01*
X134080364Y-116863481D01*
X134060605Y-116911826D01*
X134035381Y-116970825D01*
X134006119Y-117037355D01*
X133974250Y-117108291D01*
X133941201Y-117180507D01*
X133908401Y-117250880D01*
X133877280Y-117316285D01*
X133849265Y-117373597D01*
X133825786Y-117419692D01*
X133808272Y-117451446D01*
X133798151Y-117465733D01*
X133763743Y-117479102D01*
X133722046Y-117472741D01*
X133716681Y-117468044D01*
X133700852Y-117445893D01*
X133678650Y-117409132D01*
X133652233Y-117361415D01*
X133623760Y-117306393D01*
X133543986Y-117147150D01*
X133470799Y-117293742D01*
X133461103Y-117313032D01*
X133434125Y-117365380D01*
X133410096Y-117410170D01*
X133391332Y-117443154D01*
X133380146Y-117460089D01*
X133379000Y-117461332D01*
X133350879Y-117476619D01*
X133315817Y-117478302D01*
X133284776Y-117465733D01*
X133282350Y-117462884D01*
X133270090Y-117442259D01*
X133250352Y-117404708D01*
X133224448Y-117352880D01*
X133193685Y-117289423D01*
X133159375Y-117216985D01*
X133122825Y-117138216D01*
X133102585Y-117094093D01*
X133065812Y-117013365D01*
X133037355Y-116949687D01*
X133016331Y-116900752D01*
X133001854Y-116864257D01*
X132993039Y-116837895D01*
X132989004Y-116819361D01*
X132988862Y-116806352D01*
X132991730Y-116796561D01*
X133006387Y-116775678D01*
X133032990Y-116755377D01*
X133033745Y-116755035D01*
X133053335Y-116748034D01*
X133070790Y-116747504D01*
X133087702Y-116755478D01*
G37*
X140638853Y-116746936D02*
X140705100Y-116752366D01*
X140760400Y-116761964D01*
X140811283Y-116776825D01*
X140882595Y-116809958D01*
X140933752Y-116852640D01*
X140964575Y-116904705D01*
X140974889Y-116965983D01*
X140973952Y-116997232D01*
X140968160Y-117022029D01*
X140953353Y-117043699D01*
X140925380Y-117071049D01*
X140917402Y-117078378D01*
X140893692Y-117099281D01*
X140871298Y-117116251D01*
X140847265Y-117130205D01*
X140818637Y-117142056D01*
X140782460Y-117152720D01*
X140735780Y-117163111D01*
X140675641Y-117174146D01*
X140599090Y-117186738D01*
X140503171Y-117201804D01*
X140484808Y-117204838D01*
X140422478Y-117218458D01*
X140377260Y-117234192D01*
X140350976Y-117251263D01*
X140345447Y-117268897D01*
X140348068Y-117273168D01*
X140366000Y-117288233D01*
X140394126Y-117304867D01*
X140406926Y-117310857D01*
X140428224Y-117318050D01*
X140454610Y-117322827D01*
X140490454Y-117325646D01*
X140540128Y-117326964D01*
X140608000Y-117327237D01*
X140625785Y-117327164D01*
X140693406Y-117326053D01*
X140758345Y-117323828D01*
X140813970Y-117320762D01*
X140853651Y-117317127D01*
X140889162Y-117313059D01*
X140918415Y-117312276D01*
X140937315Y-117316876D01*
X140952429Y-117327551D01*
X140956085Y-117331144D01*
X140972427Y-117362918D01*
X140971107Y-117398572D01*
X140952150Y-117429190D01*
X140931780Y-117440796D01*
X140895796Y-117453491D01*
X140853372Y-117463541D01*
X140849922Y-117464140D01*
X140807252Y-117469356D01*
X140749866Y-117473730D01*
X140684849Y-117476818D01*
X140619289Y-117478177D01*
X140603057Y-117478218D01*
X140504744Y-117475741D01*
X140424692Y-117467735D01*
X140359513Y-117453203D01*
X140305817Y-117431149D01*
X140260216Y-117400576D01*
X140219323Y-117360486D01*
X140199202Y-117334259D01*
X140187576Y-117304712D01*
X140184667Y-117264995D01*
X140184808Y-117253026D01*
X140188681Y-117220345D01*
X140201065Y-117193819D01*
X140226230Y-117162971D01*
X140247442Y-117140831D01*
X140273838Y-117118285D01*
X140303555Y-117099917D01*
X140339785Y-117084661D01*
X140385717Y-117071449D01*
X140444544Y-117059214D01*
X140519456Y-117046889D01*
X140613645Y-117033406D01*
X140658957Y-117026396D01*
X140726911Y-117011837D01*
X140776047Y-116995337D01*
X140805614Y-116977439D01*
X140814864Y-116958685D01*
X140803048Y-116939615D01*
X140769416Y-116920771D01*
X140766370Y-116919557D01*
X140720011Y-116907479D01*
X140657361Y-116899279D01*
X140583927Y-116895119D01*
X140505217Y-116895161D01*
X140426739Y-116899569D01*
X140354000Y-116908505D01*
X140350073Y-116909154D01*
X140301257Y-116916861D01*
X140269005Y-116920473D01*
X140248008Y-116919876D01*
X140232954Y-116914954D01*
X140218534Y-116905596D01*
X140217364Y-116904725D01*
X140192847Y-116874351D01*
X140188054Y-116838850D01*
X140203860Y-116804269D01*
X140208406Y-116799813D01*
X140238020Y-116784673D01*
X140285002Y-116771550D01*
X140345306Y-116760750D01*
X140414888Y-116752581D01*
X140489703Y-116747351D01*
X140565706Y-116745367D01*
X140638853Y-116746936D01*
G36*
X140638853Y-116746936D02*
G01*
X140705100Y-116752366D01*
X140760400Y-116761964D01*
X140811283Y-116776825D01*
X140882595Y-116809958D01*
X140933752Y-116852640D01*
X140964575Y-116904705D01*
X140974889Y-116965983D01*
X140973952Y-116997232D01*
X140968160Y-117022029D01*
X140953353Y-117043699D01*
X140925380Y-117071049D01*
X140917402Y-117078378D01*
X140893692Y-117099281D01*
X140871298Y-117116251D01*
X140847265Y-117130205D01*
X140818637Y-117142056D01*
X140782460Y-117152720D01*
X140735780Y-117163111D01*
X140675641Y-117174146D01*
X140599090Y-117186738D01*
X140503171Y-117201804D01*
X140484808Y-117204838D01*
X140422478Y-117218458D01*
X140377260Y-117234192D01*
X140350976Y-117251263D01*
X140345447Y-117268897D01*
X140348068Y-117273168D01*
X140366000Y-117288233D01*
X140394126Y-117304867D01*
X140406926Y-117310857D01*
X140428224Y-117318050D01*
X140454610Y-117322827D01*
X140490454Y-117325646D01*
X140540128Y-117326964D01*
X140608000Y-117327237D01*
X140625785Y-117327164D01*
X140693406Y-117326053D01*
X140758345Y-117323828D01*
X140813970Y-117320762D01*
X140853651Y-117317127D01*
X140889162Y-117313059D01*
X140918415Y-117312276D01*
X140937315Y-117316876D01*
X140952429Y-117327551D01*
X140956085Y-117331144D01*
X140972427Y-117362918D01*
X140971107Y-117398572D01*
X140952150Y-117429190D01*
X140931780Y-117440796D01*
X140895796Y-117453491D01*
X140853372Y-117463541D01*
X140849922Y-117464140D01*
X140807252Y-117469356D01*
X140749866Y-117473730D01*
X140684849Y-117476818D01*
X140619289Y-117478177D01*
X140603057Y-117478218D01*
X140504744Y-117475741D01*
X140424692Y-117467735D01*
X140359513Y-117453203D01*
X140305817Y-117431149D01*
X140260216Y-117400576D01*
X140219323Y-117360486D01*
X140199202Y-117334259D01*
X140187576Y-117304712D01*
X140184667Y-117264995D01*
X140184808Y-117253026D01*
X140188681Y-117220345D01*
X140201065Y-117193819D01*
X140226230Y-117162971D01*
X140247442Y-117140831D01*
X140273838Y-117118285D01*
X140303555Y-117099917D01*
X140339785Y-117084661D01*
X140385717Y-117071449D01*
X140444544Y-117059214D01*
X140519456Y-117046889D01*
X140613645Y-117033406D01*
X140658957Y-117026396D01*
X140726911Y-117011837D01*
X140776047Y-116995337D01*
X140805614Y-116977439D01*
X140814864Y-116958685D01*
X140803048Y-116939615D01*
X140769416Y-116920771D01*
X140766370Y-116919557D01*
X140720011Y-116907479D01*
X140657361Y-116899279D01*
X140583927Y-116895119D01*
X140505217Y-116895161D01*
X140426739Y-116899569D01*
X140354000Y-116908505D01*
X140350073Y-116909154D01*
X140301257Y-116916861D01*
X140269005Y-116920473D01*
X140248008Y-116919876D01*
X140232954Y-116914954D01*
X140218534Y-116905596D01*
X140217364Y-116904725D01*
X140192847Y-116874351D01*
X140188054Y-116838850D01*
X140203860Y-116804269D01*
X140208406Y-116799813D01*
X140238020Y-116784673D01*
X140285002Y-116771550D01*
X140345306Y-116760750D01*
X140414888Y-116752581D01*
X140489703Y-116747351D01*
X140565706Y-116745367D01*
X140638853Y-116746936D01*
G37*
X136786711Y-112439033D02*
X136882268Y-112456523D01*
X137046558Y-112501564D01*
X137200589Y-112564656D01*
X137346509Y-112646915D01*
X137486466Y-112749457D01*
X137622608Y-112873399D01*
X137666473Y-112918661D01*
X137778758Y-113050865D01*
X137871972Y-113188832D01*
X137948719Y-113336750D01*
X138011603Y-113498803D01*
X138015420Y-113510391D01*
X138065507Y-113696392D01*
X138098899Y-113892521D01*
X138115584Y-114094568D01*
X138115551Y-114298325D01*
X138098791Y-114499581D01*
X138065292Y-114694128D01*
X138015044Y-114877756D01*
X137971190Y-114995053D01*
X137893348Y-115157951D01*
X137799828Y-115311866D01*
X137692822Y-115453671D01*
X137574519Y-115580239D01*
X137447111Y-115688441D01*
X137369606Y-115741120D01*
X137242725Y-115810750D01*
X137105243Y-115869468D01*
X136963716Y-115914587D01*
X136824702Y-115943422D01*
X136810597Y-115945106D01*
X136767153Y-115948434D01*
X136709723Y-115951275D01*
X136644122Y-115953373D01*
X136576167Y-115954468D01*
X136449378Y-115952140D01*
X136301673Y-115939136D01*
X136163779Y-115914133D01*
X136030014Y-115876318D01*
X136006562Y-115867889D01*
X135958612Y-115848408D01*
X135902140Y-115823473D01*
X135840379Y-115794722D01*
X135776563Y-115763790D01*
X135713926Y-115732315D01*
X135655703Y-115701934D01*
X135605127Y-115674283D01*
X135565433Y-115650999D01*
X135539854Y-115633718D01*
X135531625Y-115624079D01*
X135533076Y-115620984D01*
X135544250Y-115601079D01*
X135565134Y-115565420D01*
X135594265Y-115516459D01*
X135630181Y-115456646D01*
X135671420Y-115388433D01*
X135716517Y-115314271D01*
X135897785Y-115017008D01*
X135944315Y-115061539D01*
X136035723Y-115139865D01*
X136149334Y-115214439D01*
X136267122Y-115268474D01*
X136387559Y-115301290D01*
X136509117Y-115312211D01*
X136550585Y-115310868D01*
X136668080Y-115292612D01*
X136778089Y-115253617D01*
X136879430Y-115194670D01*
X136970921Y-115116557D01*
X137051380Y-115020064D01*
X137119627Y-114905978D01*
X137135908Y-114871724D01*
X137181982Y-114748240D01*
X137217106Y-114609918D01*
X137241197Y-114460561D01*
X137254173Y-114303973D01*
X137255949Y-114143956D01*
X137246443Y-113984314D01*
X137225572Y-113828850D01*
X137193252Y-113681366D01*
X137149399Y-113545667D01*
X137111982Y-113459076D01*
X137047185Y-113345688D01*
X136971772Y-113252070D01*
X136885418Y-113177959D01*
X136787795Y-113123094D01*
X136678577Y-113087212D01*
X136557439Y-113070051D01*
X136488038Y-113068880D01*
X136365168Y-113083141D01*
X136249664Y-113118241D01*
X136142953Y-113173682D01*
X136046464Y-113248964D01*
X136030720Y-113263440D01*
X136000150Y-113289962D01*
X135977809Y-113307138D01*
X135967691Y-113311787D01*
X135965706Y-113309597D01*
X135951241Y-113290721D01*
X135927400Y-113257397D01*
X135896029Y-113212380D01*
X135858974Y-113158425D01*
X135818083Y-113098285D01*
X135775202Y-113034718D01*
X135732178Y-112970476D01*
X135690857Y-112908315D01*
X135653086Y-112850991D01*
X135620712Y-112801257D01*
X135595582Y-112761868D01*
X135579542Y-112735580D01*
X135574439Y-112725147D01*
X135579050Y-112720941D01*
X135598267Y-112715933D01*
X135607838Y-112713386D01*
X135635809Y-112702249D01*
X135677448Y-112683802D01*
X135728995Y-112659725D01*
X135786690Y-112631699D01*
X135797957Y-112626154D01*
X135975687Y-112546889D01*
X136145490Y-112487385D01*
X136309430Y-112447245D01*
X136469571Y-112426071D01*
X136627977Y-112423466D01*
X136786711Y-112439033D01*
G36*
X136786711Y-112439033D02*
G01*
X136882268Y-112456523D01*
X137046558Y-112501564D01*
X137200589Y-112564656D01*
X137346509Y-112646915D01*
X137486466Y-112749457D01*
X137622608Y-112873399D01*
X137666473Y-112918661D01*
X137778758Y-113050865D01*
X137871972Y-113188832D01*
X137948719Y-113336750D01*
X138011603Y-113498803D01*
X138015420Y-113510391D01*
X138065507Y-113696392D01*
X138098899Y-113892521D01*
X138115584Y-114094568D01*
X138115551Y-114298325D01*
X138098791Y-114499581D01*
X138065292Y-114694128D01*
X138015044Y-114877756D01*
X137971190Y-114995053D01*
X137893348Y-115157951D01*
X137799828Y-115311866D01*
X137692822Y-115453671D01*
X137574519Y-115580239D01*
X137447111Y-115688441D01*
X137369606Y-115741120D01*
X137242725Y-115810750D01*
X137105243Y-115869468D01*
X136963716Y-115914587D01*
X136824702Y-115943422D01*
X136810597Y-115945106D01*
X136767153Y-115948434D01*
X136709723Y-115951275D01*
X136644122Y-115953373D01*
X136576167Y-115954468D01*
X136449378Y-115952140D01*
X136301673Y-115939136D01*
X136163779Y-115914133D01*
X136030014Y-115876318D01*
X136006562Y-115867889D01*
X135958612Y-115848408D01*
X135902140Y-115823473D01*
X135840379Y-115794722D01*
X135776563Y-115763790D01*
X135713926Y-115732315D01*
X135655703Y-115701934D01*
X135605127Y-115674283D01*
X135565433Y-115650999D01*
X135539854Y-115633718D01*
X135531625Y-115624079D01*
X135533076Y-115620984D01*
X135544250Y-115601079D01*
X135565134Y-115565420D01*
X135594265Y-115516459D01*
X135630181Y-115456646D01*
X135671420Y-115388433D01*
X135716517Y-115314271D01*
X135897785Y-115017008D01*
X135944315Y-115061539D01*
X136035723Y-115139865D01*
X136149334Y-115214439D01*
X136267122Y-115268474D01*
X136387559Y-115301290D01*
X136509117Y-115312211D01*
X136550585Y-115310868D01*
X136668080Y-115292612D01*
X136778089Y-115253617D01*
X136879430Y-115194670D01*
X136970921Y-115116557D01*
X137051380Y-115020064D01*
X137119627Y-114905978D01*
X137135908Y-114871724D01*
X137181982Y-114748240D01*
X137217106Y-114609918D01*
X137241197Y-114460561D01*
X137254173Y-114303973D01*
X137255949Y-114143956D01*
X137246443Y-113984314D01*
X137225572Y-113828850D01*
X137193252Y-113681366D01*
X137149399Y-113545667D01*
X137111982Y-113459076D01*
X137047185Y-113345688D01*
X136971772Y-113252070D01*
X136885418Y-113177959D01*
X136787795Y-113123094D01*
X136678577Y-113087212D01*
X136557439Y-113070051D01*
X136488038Y-113068880D01*
X136365168Y-113083141D01*
X136249664Y-113118241D01*
X136142953Y-113173682D01*
X136046464Y-113248964D01*
X136030720Y-113263440D01*
X136000150Y-113289962D01*
X135977809Y-113307138D01*
X135967691Y-113311787D01*
X135965706Y-113309597D01*
X135951241Y-113290721D01*
X135927400Y-113257397D01*
X135896029Y-113212380D01*
X135858974Y-113158425D01*
X135818083Y-113098285D01*
X135775202Y-113034718D01*
X135732178Y-112970476D01*
X135690857Y-112908315D01*
X135653086Y-112850991D01*
X135620712Y-112801257D01*
X135595582Y-112761868D01*
X135579542Y-112735580D01*
X135574439Y-112725147D01*
X135579050Y-112720941D01*
X135598267Y-112715933D01*
X135607838Y-112713386D01*
X135635809Y-112702249D01*
X135677448Y-112683802D01*
X135728995Y-112659725D01*
X135786690Y-112631699D01*
X135797957Y-112626154D01*
X135975687Y-112546889D01*
X136145490Y-112487385D01*
X136309430Y-112447245D01*
X136469571Y-112426071D01*
X136627977Y-112423466D01*
X136786711Y-112439033D01*
G37*
X132983994Y-114719711D02*
X132983268Y-114797158D01*
X132974689Y-114948594D01*
X132955833Y-115085283D01*
X132925837Y-115211276D01*
X132883836Y-115330625D01*
X132828969Y-115447381D01*
X132762167Y-115558179D01*
X132671363Y-115671739D01*
X132567708Y-115767211D01*
X132451887Y-115844073D01*
X132324586Y-115901797D01*
X132186489Y-115939858D01*
X132148793Y-115945666D01*
X132069752Y-115951396D01*
X131981629Y-115951583D01*
X131892236Y-115946539D01*
X131809384Y-115936578D01*
X131740887Y-115922012D01*
X131710035Y-115912364D01*
X131632730Y-115882123D01*
X131555679Y-115844617D01*
X131486200Y-115803614D01*
X131431615Y-115762879D01*
X131408916Y-115743505D01*
X131386201Y-115725662D01*
X131374779Y-115718778D01*
X131373537Y-115720424D01*
X131370728Y-115738205D01*
X131368776Y-115771370D01*
X131368045Y-115814733D01*
X131368045Y-115910689D01*
X130509896Y-115910689D01*
X130544161Y-115849974D01*
X130549355Y-115840868D01*
X130557715Y-115826249D01*
X130565288Y-115812173D01*
X130572112Y-115797540D01*
X130578227Y-115781249D01*
X130583673Y-115762198D01*
X130588487Y-115739286D01*
X130592708Y-115711413D01*
X130596377Y-115677478D01*
X130599531Y-115636379D01*
X130602211Y-115587015D01*
X130604454Y-115528286D01*
X130606299Y-115459090D01*
X130607787Y-115378326D01*
X130608955Y-115284894D01*
X130609844Y-115177692D01*
X130610491Y-115055620D01*
X130610936Y-114917576D01*
X130611218Y-114762459D01*
X130611375Y-114589168D01*
X130611448Y-114396603D01*
X130611474Y-114183662D01*
X130611485Y-114047530D01*
X131413200Y-114047530D01*
X131413200Y-115197721D01*
X131483756Y-115244089D01*
X131524417Y-115267791D01*
X131578546Y-115293639D01*
X131627689Y-115311829D01*
X131691165Y-115327551D01*
X131787331Y-115338541D01*
X131871900Y-115330365D01*
X131945219Y-115302805D01*
X132007637Y-115255642D01*
X132059502Y-115188658D01*
X132101160Y-115101633D01*
X132132962Y-114994350D01*
X132135545Y-114982009D01*
X132144000Y-114920772D01*
X132149663Y-114843692D01*
X132152576Y-114756002D01*
X132152783Y-114662934D01*
X132150330Y-114569720D01*
X132145261Y-114481594D01*
X132137619Y-114403788D01*
X132127448Y-114341533D01*
X132126167Y-114335666D01*
X132097126Y-114225121D01*
X132062610Y-114134575D01*
X132021456Y-114061953D01*
X131972499Y-114005181D01*
X131914574Y-113962184D01*
X131882620Y-113946615D01*
X131809784Y-113927722D01*
X131728443Y-113924465D01*
X131643319Y-113936389D01*
X131559133Y-113963040D01*
X131480608Y-114003962D01*
X131413200Y-114047530D01*
X130611485Y-114047530D01*
X130611493Y-113949245D01*
X130611689Y-112264378D01*
X131517017Y-112264378D01*
X131492585Y-112301067D01*
X131486318Y-112310647D01*
X131460208Y-112356981D01*
X131442469Y-112404102D01*
X131430908Y-112459251D01*
X131423331Y-112529667D01*
X131422839Y-112536650D01*
X131421062Y-112574641D01*
X131419444Y-112628576D01*
X131417999Y-112695703D01*
X131416740Y-112773271D01*
X131415680Y-112858528D01*
X131414829Y-112948724D01*
X131414203Y-113041107D01*
X131413812Y-113132925D01*
X131413670Y-113221427D01*
X131413790Y-113303862D01*
X131414183Y-113377479D01*
X131414862Y-113439526D01*
X131415841Y-113487251D01*
X131417132Y-113517904D01*
X131418747Y-113528733D01*
X131426957Y-113524333D01*
X131448647Y-113509362D01*
X131478014Y-113487448D01*
X131526879Y-113453236D01*
X131615125Y-113406714D01*
X131713916Y-113373046D01*
X131826510Y-113351231D01*
X131956164Y-113340265D01*
X132048670Y-113339219D01*
X132170011Y-113349014D01*
X132280099Y-113373174D01*
X132383389Y-113412785D01*
X132484338Y-113468932D01*
X132529503Y-113499883D01*
X132634911Y-113591115D01*
X132726538Y-113700106D01*
X132804332Y-113826726D01*
X132868241Y-113970845D01*
X132918214Y-114132332D01*
X132954198Y-114311059D01*
X132976143Y-114506895D01*
X132981900Y-114662934D01*
X132983994Y-114719711D01*
G36*
X132983994Y-114719711D02*
G01*
X132983268Y-114797158D01*
X132974689Y-114948594D01*
X132955833Y-115085283D01*
X132925837Y-115211276D01*
X132883836Y-115330625D01*
X132828969Y-115447381D01*
X132762167Y-115558179D01*
X132671363Y-115671739D01*
X132567708Y-115767211D01*
X132451887Y-115844073D01*
X132324586Y-115901797D01*
X132186489Y-115939858D01*
X132148793Y-115945666D01*
X132069752Y-115951396D01*
X131981629Y-115951583D01*
X131892236Y-115946539D01*
X131809384Y-115936578D01*
X131740887Y-115922012D01*
X131710035Y-115912364D01*
X131632730Y-115882123D01*
X131555679Y-115844617D01*
X131486200Y-115803614D01*
X131431615Y-115762879D01*
X131408916Y-115743505D01*
X131386201Y-115725662D01*
X131374779Y-115718778D01*
X131373537Y-115720424D01*
X131370728Y-115738205D01*
X131368776Y-115771370D01*
X131368045Y-115814733D01*
X131368045Y-115910689D01*
X130509896Y-115910689D01*
X130544161Y-115849974D01*
X130549355Y-115840868D01*
X130557715Y-115826249D01*
X130565288Y-115812173D01*
X130572112Y-115797540D01*
X130578227Y-115781249D01*
X130583673Y-115762198D01*
X130588487Y-115739286D01*
X130592708Y-115711413D01*
X130596377Y-115677478D01*
X130599531Y-115636379D01*
X130602211Y-115587015D01*
X130604454Y-115528286D01*
X130606299Y-115459090D01*
X130607787Y-115378326D01*
X130608955Y-115284894D01*
X130609844Y-115177692D01*
X130610491Y-115055620D01*
X130610936Y-114917576D01*
X130611218Y-114762459D01*
X130611375Y-114589168D01*
X130611448Y-114396603D01*
X130611474Y-114183662D01*
X130611485Y-114047530D01*
X131413200Y-114047530D01*
X131413200Y-115197721D01*
X131483756Y-115244089D01*
X131524417Y-115267791D01*
X131578546Y-115293639D01*
X131627689Y-115311829D01*
X131691165Y-115327551D01*
X131787331Y-115338541D01*
X131871900Y-115330365D01*
X131945219Y-115302805D01*
X132007637Y-115255642D01*
X132059502Y-115188658D01*
X132101160Y-115101633D01*
X132132962Y-114994350D01*
X132135545Y-114982009D01*
X132144000Y-114920772D01*
X132149663Y-114843692D01*
X132152576Y-114756002D01*
X132152783Y-114662934D01*
X132150330Y-114569720D01*
X132145261Y-114481594D01*
X132137619Y-114403788D01*
X132127448Y-114341533D01*
X132126167Y-114335666D01*
X132097126Y-114225121D01*
X132062610Y-114134575D01*
X132021456Y-114061953D01*
X131972499Y-114005181D01*
X131914574Y-113962184D01*
X131882620Y-113946615D01*
X131809784Y-113927722D01*
X131728443Y-113924465D01*
X131643319Y-113936389D01*
X131559133Y-113963040D01*
X131480608Y-114003962D01*
X131413200Y-114047530D01*
X130611485Y-114047530D01*
X130611493Y-113949245D01*
X130611689Y-112264378D01*
X131517017Y-112264378D01*
X131492585Y-112301067D01*
X131486318Y-112310647D01*
X131460208Y-112356981D01*
X131442469Y-112404102D01*
X131430908Y-112459251D01*
X131423331Y-112529667D01*
X131422839Y-112536650D01*
X131421062Y-112574641D01*
X131419444Y-112628576D01*
X131417999Y-112695703D01*
X131416740Y-112773271D01*
X131415680Y-112858528D01*
X131414829Y-112948724D01*
X131414203Y-113041107D01*
X131413812Y-113132925D01*
X131413670Y-113221427D01*
X131413790Y-113303862D01*
X131414183Y-113377479D01*
X131414862Y-113439526D01*
X131415841Y-113487251D01*
X131417132Y-113517904D01*
X131418747Y-113528733D01*
X131426957Y-113524333D01*
X131448647Y-113509362D01*
X131478014Y-113487448D01*
X131526879Y-113453236D01*
X131615125Y-113406714D01*
X131713916Y-113373046D01*
X131826510Y-113351231D01*
X131956164Y-113340265D01*
X132048670Y-113339219D01*
X132170011Y-113349014D01*
X132280099Y-113373174D01*
X132383389Y-113412785D01*
X132484338Y-113468932D01*
X132529503Y-113499883D01*
X132634911Y-113591115D01*
X132726538Y-113700106D01*
X132804332Y-113826726D01*
X132868241Y-113970845D01*
X132918214Y-114132332D01*
X132954198Y-114311059D01*
X132976143Y-114506895D01*
X132981900Y-114662934D01*
X132983994Y-114719711D01*
G37*
X135525755Y-115120467D02*
X135525261Y-115154363D01*
X135521632Y-115229202D01*
X135514022Y-115291401D01*
X135501688Y-115347984D01*
X135457313Y-115474076D01*
X135394400Y-115588679D01*
X135314238Y-115689568D01*
X135217740Y-115775924D01*
X135105822Y-115846932D01*
X134979397Y-115901776D01*
X134839378Y-115939638D01*
X134803149Y-115945351D01*
X134724155Y-115951313D01*
X134635841Y-115951646D01*
X134546075Y-115946659D01*
X134462722Y-115936666D01*
X134393651Y-115921978D01*
X134307187Y-115891749D01*
X134197286Y-115837057D01*
X134099956Y-115769543D01*
X134037867Y-115718556D01*
X134034605Y-115814622D01*
X134031343Y-115910689D01*
X133608450Y-115910689D01*
X133597543Y-115910686D01*
X133503056Y-115910380D01*
X133416331Y-115909616D01*
X133339837Y-115908451D01*
X133276043Y-115906942D01*
X133227418Y-115905147D01*
X133196433Y-115903121D01*
X133185556Y-115900922D01*
X133185578Y-115900463D01*
X133192614Y-115884910D01*
X133208434Y-115862071D01*
X133212734Y-115856638D01*
X133223777Y-115842606D01*
X133233311Y-115829186D01*
X133241461Y-115814722D01*
X133248352Y-115797556D01*
X133254111Y-115776034D01*
X133258862Y-115748498D01*
X133262731Y-115713292D01*
X133265844Y-115668760D01*
X133268325Y-115613246D01*
X133270300Y-115545093D01*
X133271894Y-115462645D01*
X133273234Y-115364246D01*
X133274444Y-115248239D01*
X133275649Y-115112968D01*
X133276595Y-115001586D01*
X134077378Y-115001586D01*
X134077378Y-115197462D01*
X134122048Y-115253973D01*
X134134785Y-115269212D01*
X134181604Y-115311844D01*
X134242255Y-115347672D01*
X134252897Y-115352850D01*
X134291676Y-115369745D01*
X134326692Y-115379909D01*
X134366722Y-115385325D01*
X134420541Y-115387978D01*
X134438648Y-115388383D01*
X134514011Y-115385540D01*
X134574743Y-115373620D01*
X134626452Y-115351037D01*
X134674746Y-115316211D01*
X134679803Y-115311798D01*
X134728272Y-115256160D01*
X134756459Y-115192333D01*
X134765752Y-115117282D01*
X134758520Y-115045693D01*
X134733796Y-114982645D01*
X134689249Y-114924758D01*
X134634319Y-114877808D01*
X134561894Y-114837961D01*
X134475340Y-114810263D01*
X134372670Y-114794096D01*
X134251894Y-114788842D01*
X134243007Y-114788857D01*
X134187660Y-114789655D01*
X134140736Y-114791488D01*
X134106953Y-114794111D01*
X134091028Y-114797274D01*
X134086943Y-114803741D01*
X134082572Y-114825875D01*
X134079604Y-114864988D01*
X134077914Y-114922939D01*
X134077378Y-115001586D01*
X133276595Y-115001586D01*
X133276975Y-114956778D01*
X133278228Y-114814012D01*
X133279651Y-114668942D01*
X133281176Y-114543027D01*
X133282933Y-114434436D01*
X133285051Y-114341334D01*
X133287660Y-114261891D01*
X133290890Y-114194273D01*
X133294869Y-114136649D01*
X133299728Y-114087185D01*
X133305597Y-114044050D01*
X133312604Y-114005410D01*
X133320880Y-113969434D01*
X133330554Y-113934289D01*
X133341756Y-113898142D01*
X133354616Y-113859161D01*
X133370090Y-113816091D01*
X133412994Y-113723871D01*
X133466735Y-113644099D01*
X133535576Y-113569965D01*
X133613185Y-113506405D01*
X133717761Y-113444725D01*
X133837244Y-113397202D01*
X133972508Y-113363567D01*
X134124426Y-113343552D01*
X134293872Y-113336889D01*
X134351890Y-113337287D01*
X134417398Y-113339335D01*
X134478693Y-113343704D01*
X134540097Y-113351035D01*
X134605932Y-113361969D01*
X134680520Y-113377147D01*
X134768184Y-113397209D01*
X134873245Y-113422797D01*
X134901806Y-113429820D01*
X134977054Y-113447776D01*
X135047388Y-113463820D01*
X135108567Y-113477028D01*
X135156354Y-113486474D01*
X135186511Y-113491231D01*
X135214783Y-113494910D01*
X135241060Y-113500187D01*
X135251059Y-113504942D01*
X135247952Y-113513781D01*
X135237194Y-113541072D01*
X135219864Y-113583906D01*
X135197126Y-113639425D01*
X135170147Y-113704772D01*
X135140090Y-113777089D01*
X135133493Y-113792879D01*
X135094907Y-113883484D01*
X135063768Y-113953217D01*
X135039917Y-114002405D01*
X135023198Y-114031374D01*
X135013454Y-114040452D01*
X135005766Y-114038405D01*
X134979415Y-114028760D01*
X134940982Y-114013190D01*
X134895822Y-113993815D01*
X134801293Y-113955814D01*
X134664480Y-113914780D01*
X134523289Y-113889612D01*
X134485314Y-113885611D01*
X134382059Y-113883447D01*
X134294952Y-113896622D01*
X134223129Y-113925756D01*
X134165731Y-113971466D01*
X134121896Y-114034372D01*
X134090762Y-114115092D01*
X134071470Y-114214245D01*
X134064050Y-114273224D01*
X134225936Y-114266445D01*
X134352495Y-114264813D01*
X134503951Y-114271194D01*
X134652396Y-114285777D01*
X134788578Y-114307882D01*
X134853245Y-114322821D01*
X134985490Y-114365741D01*
X135107762Y-114422340D01*
X135217685Y-114491017D01*
X135312883Y-114570170D01*
X135390980Y-114658196D01*
X135449599Y-114753493D01*
X135473595Y-114805864D01*
X135499232Y-114876590D01*
X135515478Y-114947812D01*
X135523822Y-115026712D01*
X135525690Y-115117282D01*
X135525755Y-115120467D01*
G36*
X135525755Y-115120467D02*
G01*
X135525261Y-115154363D01*
X135521632Y-115229202D01*
X135514022Y-115291401D01*
X135501688Y-115347984D01*
X135457313Y-115474076D01*
X135394400Y-115588679D01*
X135314238Y-115689568D01*
X135217740Y-115775924D01*
X135105822Y-115846932D01*
X134979397Y-115901776D01*
X134839378Y-115939638D01*
X134803149Y-115945351D01*
X134724155Y-115951313D01*
X134635841Y-115951646D01*
X134546075Y-115946659D01*
X134462722Y-115936666D01*
X134393651Y-115921978D01*
X134307187Y-115891749D01*
X134197286Y-115837057D01*
X134099956Y-115769543D01*
X134037867Y-115718556D01*
X134034605Y-115814622D01*
X134031343Y-115910689D01*
X133608450Y-115910689D01*
X133597543Y-115910686D01*
X133503056Y-115910380D01*
X133416331Y-115909616D01*
X133339837Y-115908451D01*
X133276043Y-115906942D01*
X133227418Y-115905147D01*
X133196433Y-115903121D01*
X133185556Y-115900922D01*
X133185578Y-115900463D01*
X133192614Y-115884910D01*
X133208434Y-115862071D01*
X133212734Y-115856638D01*
X133223777Y-115842606D01*
X133233311Y-115829186D01*
X133241461Y-115814722D01*
X133248352Y-115797556D01*
X133254111Y-115776034D01*
X133258862Y-115748498D01*
X133262731Y-115713292D01*
X133265844Y-115668760D01*
X133268325Y-115613246D01*
X133270300Y-115545093D01*
X133271894Y-115462645D01*
X133273234Y-115364246D01*
X133274444Y-115248239D01*
X133275649Y-115112968D01*
X133276595Y-115001586D01*
X134077378Y-115001586D01*
X134077378Y-115197462D01*
X134122048Y-115253973D01*
X134134785Y-115269212D01*
X134181604Y-115311844D01*
X134242255Y-115347672D01*
X134252897Y-115352850D01*
X134291676Y-115369745D01*
X134326692Y-115379909D01*
X134366722Y-115385325D01*
X134420541Y-115387978D01*
X134438648Y-115388383D01*
X134514011Y-115385540D01*
X134574743Y-115373620D01*
X134626452Y-115351037D01*
X134674746Y-115316211D01*
X134679803Y-115311798D01*
X134728272Y-115256160D01*
X134756459Y-115192333D01*
X134765752Y-115117282D01*
X134758520Y-115045693D01*
X134733796Y-114982645D01*
X134689249Y-114924758D01*
X134634319Y-114877808D01*
X134561894Y-114837961D01*
X134475340Y-114810263D01*
X134372670Y-114794096D01*
X134251894Y-114788842D01*
X134243007Y-114788857D01*
X134187660Y-114789655D01*
X134140736Y-114791488D01*
X134106953Y-114794111D01*
X134091028Y-114797274D01*
X134086943Y-114803741D01*
X134082572Y-114825875D01*
X134079604Y-114864988D01*
X134077914Y-114922939D01*
X134077378Y-115001586D01*
X133276595Y-115001586D01*
X133276975Y-114956778D01*
X133278228Y-114814012D01*
X133279651Y-114668942D01*
X133281176Y-114543027D01*
X133282933Y-114434436D01*
X133285051Y-114341334D01*
X133287660Y-114261891D01*
X133290890Y-114194273D01*
X133294869Y-114136649D01*
X133299728Y-114087185D01*
X133305597Y-114044050D01*
X133312604Y-114005410D01*
X133320880Y-113969434D01*
X133330554Y-113934289D01*
X133341756Y-113898142D01*
X133354616Y-113859161D01*
X133370090Y-113816091D01*
X133412994Y-113723871D01*
X133466735Y-113644099D01*
X133535576Y-113569965D01*
X133613185Y-113506405D01*
X133717761Y-113444725D01*
X133837244Y-113397202D01*
X133972508Y-113363567D01*
X134124426Y-113343552D01*
X134293872Y-113336889D01*
X134351890Y-113337287D01*
X134417398Y-113339335D01*
X134478693Y-113343704D01*
X134540097Y-113351035D01*
X134605932Y-113361969D01*
X134680520Y-113377147D01*
X134768184Y-113397209D01*
X134873245Y-113422797D01*
X134901806Y-113429820D01*
X134977054Y-113447776D01*
X135047388Y-113463820D01*
X135108567Y-113477028D01*
X135156354Y-113486474D01*
X135186511Y-113491231D01*
X135214783Y-113494910D01*
X135241060Y-113500187D01*
X135251059Y-113504942D01*
X135247952Y-113513781D01*
X135237194Y-113541072D01*
X135219864Y-113583906D01*
X135197126Y-113639425D01*
X135170147Y-113704772D01*
X135140090Y-113777089D01*
X135133493Y-113792879D01*
X135094907Y-113883484D01*
X135063768Y-113953217D01*
X135039917Y-114002405D01*
X135023198Y-114031374D01*
X135013454Y-114040452D01*
X135005766Y-114038405D01*
X134979415Y-114028760D01*
X134940982Y-114013190D01*
X134895822Y-113993815D01*
X134801293Y-113955814D01*
X134664480Y-113914780D01*
X134523289Y-113889612D01*
X134485314Y-113885611D01*
X134382059Y-113883447D01*
X134294952Y-113896622D01*
X134223129Y-113925756D01*
X134165731Y-113971466D01*
X134121896Y-114034372D01*
X134090762Y-114115092D01*
X134071470Y-114214245D01*
X134064050Y-114273224D01*
X134225936Y-114266445D01*
X134352495Y-114264813D01*
X134503951Y-114271194D01*
X134652396Y-114285777D01*
X134788578Y-114307882D01*
X134853245Y-114322821D01*
X134985490Y-114365741D01*
X135107762Y-114422340D01*
X135217685Y-114491017D01*
X135312883Y-114570170D01*
X135390980Y-114658196D01*
X135449599Y-114753493D01*
X135473595Y-114805864D01*
X135499232Y-114876590D01*
X135515478Y-114947812D01*
X135523822Y-115026712D01*
X135525690Y-115117282D01*
X135525755Y-115120467D01*
G37*
X143073614Y-112588792D02*
X143074059Y-112720011D01*
X143074362Y-112867216D01*
X143074548Y-113031349D01*
X143074642Y-113213352D01*
X143074671Y-113414165D01*
X143074661Y-113634732D01*
X143074636Y-113875992D01*
X143074622Y-114138889D01*
X143074622Y-114181040D01*
X143074646Y-114441668D01*
X143074685Y-114680796D01*
X143074708Y-114899360D01*
X143074687Y-115098295D01*
X143074593Y-115278535D01*
X143074395Y-115441015D01*
X143074063Y-115586670D01*
X143073569Y-115716434D01*
X143072883Y-115831243D01*
X143071976Y-115932030D01*
X143070817Y-116019730D01*
X143069378Y-116095279D01*
X143067629Y-116159611D01*
X143065540Y-116213661D01*
X143063083Y-116258363D01*
X143060227Y-116294652D01*
X143056943Y-116323463D01*
X143053202Y-116345731D01*
X143048974Y-116362390D01*
X143044229Y-116374375D01*
X143038939Y-116382621D01*
X143033073Y-116388062D01*
X143026602Y-116391634D01*
X143019497Y-116394270D01*
X143011728Y-116396906D01*
X143003266Y-116400477D01*
X142998908Y-116402145D01*
X142990395Y-116404111D01*
X142977694Y-116405911D01*
X142959885Y-116407555D01*
X142936049Y-116409047D01*
X142905266Y-116410397D01*
X142866617Y-116411611D01*
X142819182Y-116412697D01*
X142762043Y-116413661D01*
X142694279Y-116414511D01*
X142614971Y-116415253D01*
X142523199Y-116415897D01*
X142418044Y-116416447D01*
X142298587Y-116416913D01*
X142163908Y-116417300D01*
X142013088Y-116417616D01*
X141845206Y-116417869D01*
X141659345Y-116418066D01*
X141454583Y-116418213D01*
X141230002Y-116418318D01*
X140984682Y-116418389D01*
X140717704Y-116418432D01*
X140679321Y-116418437D01*
X140413922Y-116418480D01*
X140170050Y-116418525D01*
X139946783Y-116418548D01*
X139743196Y-116418524D01*
X139558367Y-116418430D01*
X139391373Y-116418243D01*
X139241290Y-116417939D01*
X139107196Y-116417494D01*
X138988166Y-116416885D01*
X138883279Y-116416089D01*
X138791610Y-116415080D01*
X138712237Y-116413837D01*
X138644237Y-116412335D01*
X138586686Y-116410551D01*
X138538662Y-116408461D01*
X138499240Y-116406042D01*
X138467499Y-116403270D01*
X138442514Y-116400121D01*
X138423364Y-116396572D01*
X138409123Y-116392598D01*
X138398871Y-116388178D01*
X138391682Y-116383286D01*
X138386635Y-116377900D01*
X138382805Y-116371996D01*
X138379271Y-116365549D01*
X138375108Y-116358537D01*
X138374025Y-116356687D01*
X138371813Y-116351180D01*
X138369786Y-116342868D01*
X138367938Y-116330809D01*
X138366261Y-116314063D01*
X138364745Y-116291687D01*
X138363383Y-116262740D01*
X138362167Y-116226280D01*
X138361089Y-116181367D01*
X138360140Y-116127057D01*
X138359312Y-116062410D01*
X138358597Y-115986484D01*
X138357987Y-115898338D01*
X138357942Y-115889493D01*
X138649378Y-115889493D01*
X138653260Y-115890765D01*
X138676520Y-115892791D01*
X138718874Y-115894626D01*
X138778132Y-115896227D01*
X138852107Y-115897549D01*
X138938610Y-115898548D01*
X139035452Y-115899180D01*
X139140445Y-115899400D01*
X139838651Y-115899400D01*
X140993090Y-115899400D01*
X140992456Y-115823200D01*
X140993574Y-115781160D01*
X140999304Y-115745334D01*
X141011890Y-115707772D01*
X141033568Y-115659577D01*
X141036789Y-115652897D01*
X141062188Y-115603359D01*
X141088996Y-115555369D01*
X141111917Y-115518466D01*
X141116485Y-115511834D01*
X141138516Y-115480593D01*
X141170693Y-115435654D01*
X141211457Y-115379147D01*
X141259245Y-115313204D01*
X141312498Y-115239957D01*
X141369655Y-115161536D01*
X141429155Y-115080072D01*
X141489437Y-114997698D01*
X141548940Y-114916544D01*
X141606105Y-114838742D01*
X141659370Y-114766423D01*
X141707174Y-114701718D01*
X141747957Y-114646759D01*
X141780158Y-114603676D01*
X141802216Y-114574602D01*
X141812571Y-114561667D01*
X141817044Y-114557351D01*
X141821236Y-114555312D01*
X141824643Y-114557926D01*
X141827325Y-114566986D01*
X141829341Y-114584285D01*
X141830748Y-114611614D01*
X141831605Y-114650765D01*
X141831970Y-114703533D01*
X141831903Y-114771707D01*
X141831460Y-114857082D01*
X141830702Y-114961449D01*
X141829685Y-115086600D01*
X141829308Y-115131300D01*
X141828169Y-115252395D01*
X141826972Y-115353688D01*
X141825636Y-115437262D01*
X141824077Y-115505204D01*
X141822215Y-115559599D01*
X141819966Y-115602532D01*
X141817248Y-115636089D01*
X141813979Y-115662355D01*
X141810078Y-115683416D01*
X141805461Y-115701357D01*
X141797192Y-115727770D01*
X141773583Y-115789772D01*
X141747685Y-115842573D01*
X141722535Y-115879645D01*
X141721339Y-115881075D01*
X141719168Y-115885424D01*
X141721328Y-115889026D01*
X141729644Y-115891951D01*
X141745940Y-115894269D01*
X141772041Y-115896051D01*
X141809771Y-115897367D01*
X141860956Y-115898286D01*
X141927420Y-115898878D01*
X142010987Y-115899215D01*
X142113483Y-115899365D01*
X142236732Y-115899400D01*
X142768296Y-115899400D01*
X142729523Y-115841783D01*
X142723432Y-115832893D01*
X142712976Y-115818069D01*
X142703579Y-115804422D01*
X142695183Y-115790765D01*
X142687733Y-115775911D01*
X142681173Y-115758670D01*
X142675446Y-115737855D01*
X142670495Y-115712280D01*
X142666266Y-115680755D01*
X142662701Y-115642093D01*
X142659744Y-115595107D01*
X142657340Y-115538608D01*
X142655431Y-115471409D01*
X142653962Y-115392322D01*
X142652876Y-115300160D01*
X142652118Y-115193734D01*
X142651630Y-115071857D01*
X142651358Y-114933341D01*
X142651243Y-114776999D01*
X142651231Y-114601642D01*
X142651265Y-114406082D01*
X142651289Y-114189133D01*
X142651280Y-114066513D01*
X142651243Y-113861447D01*
X142651227Y-113677116D01*
X142651288Y-113512334D01*
X142651484Y-113365916D01*
X142651870Y-113236674D01*
X142652505Y-113123422D01*
X142653444Y-113024975D01*
X142654745Y-112940144D01*
X142656464Y-112867744D01*
X142658659Y-112806589D01*
X142661385Y-112755492D01*
X142664701Y-112713267D01*
X142668662Y-112678727D01*
X142673325Y-112650686D01*
X142678747Y-112627958D01*
X142684986Y-112609356D01*
X142692097Y-112593693D01*
X142700138Y-112579784D01*
X142709166Y-112566441D01*
X142719236Y-112552479D01*
X142730407Y-112536711D01*
X142770197Y-112478867D01*
X141710314Y-112478867D01*
X141748311Y-112541966D01*
X141762993Y-112567005D01*
X141777531Y-112594586D01*
X141789627Y-112622700D01*
X141799532Y-112653551D01*
X141807494Y-112689344D01*
X141813761Y-112732283D01*
X141818582Y-112784574D01*
X141822206Y-112848419D01*
X141824881Y-112926025D01*
X141826857Y-113019594D01*
X141828382Y-113131333D01*
X141829704Y-113263445D01*
X141830613Y-113383434D01*
X141831020Y-113500063D01*
X141830767Y-113595531D01*
X141829857Y-113669556D01*
X141828293Y-113721855D01*
X141826079Y-113752149D01*
X141823220Y-113760156D01*
X141820161Y-113756858D01*
X141802006Y-113735408D01*
X141772275Y-113698889D01*
X141732639Y-113649442D01*
X141684771Y-113589207D01*
X141630343Y-113520327D01*
X141571027Y-113444943D01*
X141508495Y-113365196D01*
X141444421Y-113283228D01*
X141380475Y-113201180D01*
X141318331Y-113121194D01*
X141259661Y-113045411D01*
X141206137Y-112975973D01*
X141159430Y-112915021D01*
X141121214Y-112864696D01*
X141093161Y-112827140D01*
X141076943Y-112804495D01*
X141031635Y-112732212D01*
X140991661Y-112652463D01*
X140970130Y-112584188D01*
X140966827Y-112526844D01*
X140972116Y-112478867D01*
X139840356Y-112479117D01*
X139879867Y-112509722D01*
X139889248Y-112517089D01*
X139952183Y-112571438D01*
X140020997Y-112639259D01*
X140097596Y-112722516D01*
X140183888Y-112823178D01*
X140201052Y-112843847D01*
X140241833Y-112893409D01*
X140291588Y-112954326D01*
X140348955Y-113024898D01*
X140412569Y-113103424D01*
X140481069Y-113188204D01*
X140553090Y-113277537D01*
X140627270Y-113369722D01*
X140642517Y-113388702D01*
X140702246Y-113463060D01*
X140776653Y-113555848D01*
X140849131Y-113646388D01*
X140918314Y-113732978D01*
X140982841Y-113813918D01*
X141041347Y-113887506D01*
X141092470Y-113952044D01*
X141134847Y-114005829D01*
X141167115Y-114047162D01*
X141187910Y-114074342D01*
X141195869Y-114085668D01*
X141194111Y-114089771D01*
X141181230Y-114110334D01*
X141156885Y-114146561D01*
X141122247Y-114196824D01*
X141078486Y-114259492D01*
X141026775Y-114332936D01*
X140968284Y-114415527D01*
X140904184Y-114505636D01*
X140835646Y-114601631D01*
X140763843Y-114701885D01*
X140689944Y-114804768D01*
X140615121Y-114908650D01*
X140540545Y-115011901D01*
X140467387Y-115112892D01*
X140396819Y-115209994D01*
X140330011Y-115301577D01*
X140268135Y-115386011D01*
X140212361Y-115461667D01*
X140163862Y-115526916D01*
X140123807Y-115580128D01*
X140093369Y-115619673D01*
X140072944Y-115645026D01*
X140026899Y-115699295D01*
X139976612Y-115755775D01*
X139929815Y-115805669D01*
X139838651Y-115899400D01*
X139140445Y-115899400D01*
X139209356Y-115899349D01*
X139307607Y-115899091D01*
X139397030Y-115898637D01*
X139475333Y-115898010D01*
X139540223Y-115897235D01*
X139589411Y-115896335D01*
X139620604Y-115895334D01*
X139631511Y-115894257D01*
X139630322Y-115891037D01*
X139620176Y-115873452D01*
X139603040Y-115847158D01*
X139594540Y-115834691D01*
X139585329Y-115820622D01*
X139577233Y-115806351D01*
X139570185Y-115790479D01*
X139564117Y-115771609D01*
X139558961Y-115748341D01*
X139554651Y-115719278D01*
X139551119Y-115683021D01*
X139548297Y-115638170D01*
X139546118Y-115583328D01*
X139544514Y-115517097D01*
X139543419Y-115438077D01*
X139542765Y-115344871D01*
X139542484Y-115236079D01*
X139542509Y-115110303D01*
X139542772Y-114966145D01*
X139543206Y-114802207D01*
X139543745Y-114617089D01*
X139544279Y-114438232D01*
X139544805Y-114279374D01*
X139545350Y-114140316D01*
X139545945Y-114019665D01*
X139546619Y-113916028D01*
X139547403Y-113828011D01*
X139548326Y-113754223D01*
X139549419Y-113693269D01*
X139550712Y-113643757D01*
X139552235Y-113604293D01*
X139554019Y-113573484D01*
X139556092Y-113549938D01*
X139558486Y-113532260D01*
X139561230Y-113519059D01*
X139564356Y-113508940D01*
X139567892Y-113500511D01*
X139571791Y-113492375D01*
X139591438Y-113455544D01*
X139610225Y-113425391D01*
X139611272Y-113423908D01*
X139625602Y-113401659D01*
X139631511Y-113388702D01*
X139630504Y-113388249D01*
X139613305Y-113386803D01*
X139576656Y-113385480D01*
X139522962Y-113384316D01*
X139454630Y-113383347D01*
X139374064Y-113382611D01*
X139283670Y-113382142D01*
X139185853Y-113381978D01*
X138740195Y-113381978D01*
X138737120Y-114558845D01*
X138734045Y-115735711D01*
X138707407Y-115794622D01*
X138695485Y-115819183D01*
X138678246Y-115849434D01*
X138665074Y-115866560D01*
X138657076Y-115874591D01*
X138649378Y-115889493D01*
X138357942Y-115889493D01*
X138357474Y-115797029D01*
X138357050Y-115681617D01*
X138356706Y-115551160D01*
X138356434Y-115404716D01*
X138356227Y-115241344D01*
X138356076Y-115060101D01*
X138355972Y-114860048D01*
X138355908Y-114640241D01*
X138355876Y-114399739D01*
X138355867Y-114137602D01*
X138355867Y-111946031D01*
X138394249Y-111907649D01*
X138421355Y-111883911D01*
X138448253Y-111872111D01*
X138484560Y-111869267D01*
X138536489Y-111869267D01*
X138536489Y-111957206D01*
X138538427Y-112007102D01*
X138557199Y-112117523D01*
X138594217Y-112218987D01*
X138647369Y-112310152D01*
X138714546Y-112389673D01*
X138793638Y-112456205D01*
X138882534Y-112508406D01*
X138979125Y-112544930D01*
X139081300Y-112564434D01*
X139186950Y-112565573D01*
X139293964Y-112547005D01*
X139400232Y-112507384D01*
X139497219Y-112449516D01*
X139582293Y-112374684D01*
X139651015Y-112286615D01*
X139701918Y-112187616D01*
X139733535Y-112079993D01*
X139744400Y-111966054D01*
X139744400Y-111869267D01*
X141364753Y-111869267D01*
X141575897Y-111869280D01*
X141780020Y-111869330D01*
X141963686Y-111869430D01*
X142127991Y-111869592D01*
X142274029Y-111869829D01*
X142402894Y-111870153D01*
X142515683Y-111870575D01*
X142613488Y-111871109D01*
X142697404Y-111871767D01*
X142768527Y-111872561D01*
X142827950Y-111873504D01*
X142876768Y-111874608D01*
X142916077Y-111875884D01*
X142946969Y-111877347D01*
X142970541Y-111879007D01*
X142987886Y-111880878D01*
X143000099Y-111882972D01*
X143008275Y-111885300D01*
X143013508Y-111887876D01*
X143019504Y-111891445D01*
X143026279Y-111894978D01*
X143032478Y-111898488D01*
X143038126Y-111902918D01*
X143043247Y-111909208D01*
X143047869Y-111918301D01*
X143052015Y-111931139D01*
X143055713Y-111948662D01*
X143058987Y-111971813D01*
X143061863Y-112001534D01*
X143064367Y-112038765D01*
X143066524Y-112084449D01*
X143068360Y-112139527D01*
X143069900Y-112204941D01*
X143071170Y-112281633D01*
X143072195Y-112370544D01*
X143073001Y-112472617D01*
X143073034Y-112478867D01*
X143073614Y-112588792D01*
G36*
X143073614Y-112588792D02*
G01*
X143074059Y-112720011D01*
X143074362Y-112867216D01*
X143074548Y-113031349D01*
X143074642Y-113213352D01*
X143074671Y-113414165D01*
X143074661Y-113634732D01*
X143074636Y-113875992D01*
X143074622Y-114138889D01*
X143074622Y-114181040D01*
X143074646Y-114441668D01*
X143074685Y-114680796D01*
X143074708Y-114899360D01*
X143074687Y-115098295D01*
X143074593Y-115278535D01*
X143074395Y-115441015D01*
X143074063Y-115586670D01*
X143073569Y-115716434D01*
X143072883Y-115831243D01*
X143071976Y-115932030D01*
X143070817Y-116019730D01*
X143069378Y-116095279D01*
X143067629Y-116159611D01*
X143065540Y-116213661D01*
X143063083Y-116258363D01*
X143060227Y-116294652D01*
X143056943Y-116323463D01*
X143053202Y-116345731D01*
X143048974Y-116362390D01*
X143044229Y-116374375D01*
X143038939Y-116382621D01*
X143033073Y-116388062D01*
X143026602Y-116391634D01*
X143019497Y-116394270D01*
X143011728Y-116396906D01*
X143003266Y-116400477D01*
X142998908Y-116402145D01*
X142990395Y-116404111D01*
X142977694Y-116405911D01*
X142959885Y-116407555D01*
X142936049Y-116409047D01*
X142905266Y-116410397D01*
X142866617Y-116411611D01*
X142819182Y-116412697D01*
X142762043Y-116413661D01*
X142694279Y-116414511D01*
X142614971Y-116415253D01*
X142523199Y-116415897D01*
X142418044Y-116416447D01*
X142298587Y-116416913D01*
X142163908Y-116417300D01*
X142013088Y-116417616D01*
X141845206Y-116417869D01*
X141659345Y-116418066D01*
X141454583Y-116418213D01*
X141230002Y-116418318D01*
X140984682Y-116418389D01*
X140717704Y-116418432D01*
X140679321Y-116418437D01*
X140413922Y-116418480D01*
X140170050Y-116418525D01*
X139946783Y-116418548D01*
X139743196Y-116418524D01*
X139558367Y-116418430D01*
X139391373Y-116418243D01*
X139241290Y-116417939D01*
X139107196Y-116417494D01*
X138988166Y-116416885D01*
X138883279Y-116416089D01*
X138791610Y-116415080D01*
X138712237Y-116413837D01*
X138644237Y-116412335D01*
X138586686Y-116410551D01*
X138538662Y-116408461D01*
X138499240Y-116406042D01*
X138467499Y-116403270D01*
X138442514Y-116400121D01*
X138423364Y-116396572D01*
X138409123Y-116392598D01*
X138398871Y-116388178D01*
X138391682Y-116383286D01*
X138386635Y-116377900D01*
X138382805Y-116371996D01*
X138379271Y-116365549D01*
X138375108Y-116358537D01*
X138374025Y-116356687D01*
X138371813Y-116351180D01*
X138369786Y-116342868D01*
X138367938Y-116330809D01*
X138366261Y-116314063D01*
X138364745Y-116291687D01*
X138363383Y-116262740D01*
X138362167Y-116226280D01*
X138361089Y-116181367D01*
X138360140Y-116127057D01*
X138359312Y-116062410D01*
X138358597Y-115986484D01*
X138357987Y-115898338D01*
X138357942Y-115889493D01*
X138649378Y-115889493D01*
X138653260Y-115890765D01*
X138676520Y-115892791D01*
X138718874Y-115894626D01*
X138778132Y-115896227D01*
X138852107Y-115897549D01*
X138938610Y-115898548D01*
X139035452Y-115899180D01*
X139140445Y-115899400D01*
X139838651Y-115899400D01*
X140993090Y-115899400D01*
X140992456Y-115823200D01*
X140993574Y-115781160D01*
X140999304Y-115745334D01*
X141011890Y-115707772D01*
X141033568Y-115659577D01*
X141036789Y-115652897D01*
X141062188Y-115603359D01*
X141088996Y-115555369D01*
X141111917Y-115518466D01*
X141116485Y-115511834D01*
X141138516Y-115480593D01*
X141170693Y-115435654D01*
X141211457Y-115379147D01*
X141259245Y-115313204D01*
X141312498Y-115239957D01*
X141369655Y-115161536D01*
X141429155Y-115080072D01*
X141489437Y-114997698D01*
X141548940Y-114916544D01*
X141606105Y-114838742D01*
X141659370Y-114766423D01*
X141707174Y-114701718D01*
X141747957Y-114646759D01*
X141780158Y-114603676D01*
X141802216Y-114574602D01*
X141812571Y-114561667D01*
X141817044Y-114557351D01*
X141821236Y-114555312D01*
X141824643Y-114557926D01*
X141827325Y-114566986D01*
X141829341Y-114584285D01*
X141830748Y-114611614D01*
X141831605Y-114650765D01*
X141831970Y-114703533D01*
X141831903Y-114771707D01*
X141831460Y-114857082D01*
X141830702Y-114961449D01*
X141829685Y-115086600D01*
X141829308Y-115131300D01*
X141828169Y-115252395D01*
X141826972Y-115353688D01*
X141825636Y-115437262D01*
X141824077Y-115505204D01*
X141822215Y-115559599D01*
X141819966Y-115602532D01*
X141817248Y-115636089D01*
X141813979Y-115662355D01*
X141810078Y-115683416D01*
X141805461Y-115701357D01*
X141797192Y-115727770D01*
X141773583Y-115789772D01*
X141747685Y-115842573D01*
X141722535Y-115879645D01*
X141721339Y-115881075D01*
X141719168Y-115885424D01*
X141721328Y-115889026D01*
X141729644Y-115891951D01*
X141745940Y-115894269D01*
X141772041Y-115896051D01*
X141809771Y-115897367D01*
X141860956Y-115898286D01*
X141927420Y-115898878D01*
X142010987Y-115899215D01*
X142113483Y-115899365D01*
X142236732Y-115899400D01*
X142768296Y-115899400D01*
X142729523Y-115841783D01*
X142723432Y-115832893D01*
X142712976Y-115818069D01*
X142703579Y-115804422D01*
X142695183Y-115790765D01*
X142687733Y-115775911D01*
X142681173Y-115758670D01*
X142675446Y-115737855D01*
X142670495Y-115712280D01*
X142666266Y-115680755D01*
X142662701Y-115642093D01*
X142659744Y-115595107D01*
X142657340Y-115538608D01*
X142655431Y-115471409D01*
X142653962Y-115392322D01*
X142652876Y-115300160D01*
X142652118Y-115193734D01*
X142651630Y-115071857D01*
X142651358Y-114933341D01*
X142651243Y-114776999D01*
X142651231Y-114601642D01*
X142651265Y-114406082D01*
X142651289Y-114189133D01*
X142651280Y-114066513D01*
X142651243Y-113861447D01*
X142651227Y-113677116D01*
X142651288Y-113512334D01*
X142651484Y-113365916D01*
X142651870Y-113236674D01*
X142652505Y-113123422D01*
X142653444Y-113024975D01*
X142654745Y-112940144D01*
X142656464Y-112867744D01*
X142658659Y-112806589D01*
X142661385Y-112755492D01*
X142664701Y-112713267D01*
X142668662Y-112678727D01*
X142673325Y-112650686D01*
X142678747Y-112627958D01*
X142684986Y-112609356D01*
X142692097Y-112593693D01*
X142700138Y-112579784D01*
X142709166Y-112566441D01*
X142719236Y-112552479D01*
X142730407Y-112536711D01*
X142770197Y-112478867D01*
X141710314Y-112478867D01*
X141748311Y-112541966D01*
X141762993Y-112567005D01*
X141777531Y-112594586D01*
X141789627Y-112622700D01*
X141799532Y-112653551D01*
X141807494Y-112689344D01*
X141813761Y-112732283D01*
X141818582Y-112784574D01*
X141822206Y-112848419D01*
X141824881Y-112926025D01*
X141826857Y-113019594D01*
X141828382Y-113131333D01*
X141829704Y-113263445D01*
X141830613Y-113383434D01*
X141831020Y-113500063D01*
X141830767Y-113595531D01*
X141829857Y-113669556D01*
X141828293Y-113721855D01*
X141826079Y-113752149D01*
X141823220Y-113760156D01*
X141820161Y-113756858D01*
X141802006Y-113735408D01*
X141772275Y-113698889D01*
X141732639Y-113649442D01*
X141684771Y-113589207D01*
X141630343Y-113520327D01*
X141571027Y-113444943D01*
X141508495Y-113365196D01*
X141444421Y-113283228D01*
X141380475Y-113201180D01*
X141318331Y-113121194D01*
X141259661Y-113045411D01*
X141206137Y-112975973D01*
X141159430Y-112915021D01*
X141121214Y-112864696D01*
X141093161Y-112827140D01*
X141076943Y-112804495D01*
X141031635Y-112732212D01*
X140991661Y-112652463D01*
X140970130Y-112584188D01*
X140966827Y-112526844D01*
X140972116Y-112478867D01*
X139840356Y-112479117D01*
X139879867Y-112509722D01*
X139889248Y-112517089D01*
X139952183Y-112571438D01*
X140020997Y-112639259D01*
X140097596Y-112722516D01*
X140183888Y-112823178D01*
X140201052Y-112843847D01*
X140241833Y-112893409D01*
X140291588Y-112954326D01*
X140348955Y-113024898D01*
X140412569Y-113103424D01*
X140481069Y-113188204D01*
X140553090Y-113277537D01*
X140627270Y-113369722D01*
X140642517Y-113388702D01*
X140702246Y-113463060D01*
X140776653Y-113555848D01*
X140849131Y-113646388D01*
X140918314Y-113732978D01*
X140982841Y-113813918D01*
X141041347Y-113887506D01*
X141092470Y-113952044D01*
X141134847Y-114005829D01*
X141167115Y-114047162D01*
X141187910Y-114074342D01*
X141195869Y-114085668D01*
X141194111Y-114089771D01*
X141181230Y-114110334D01*
X141156885Y-114146561D01*
X141122247Y-114196824D01*
X141078486Y-114259492D01*
X141026775Y-114332936D01*
X140968284Y-114415527D01*
X140904184Y-114505636D01*
X140835646Y-114601631D01*
X140763843Y-114701885D01*
X140689944Y-114804768D01*
X140615121Y-114908650D01*
X140540545Y-115011901D01*
X140467387Y-115112892D01*
X140396819Y-115209994D01*
X140330011Y-115301577D01*
X140268135Y-115386011D01*
X140212361Y-115461667D01*
X140163862Y-115526916D01*
X140123807Y-115580128D01*
X140093369Y-115619673D01*
X140072944Y-115645026D01*
X140026899Y-115699295D01*
X139976612Y-115755775D01*
X139929815Y-115805669D01*
X139838651Y-115899400D01*
X139140445Y-115899400D01*
X139209356Y-115899349D01*
X139307607Y-115899091D01*
X139397030Y-115898637D01*
X139475333Y-115898010D01*
X139540223Y-115897235D01*
X139589411Y-115896335D01*
X139620604Y-115895334D01*
X139631511Y-115894257D01*
X139630322Y-115891037D01*
X139620176Y-115873452D01*
X139603040Y-115847158D01*
X139594540Y-115834691D01*
X139585329Y-115820622D01*
X139577233Y-115806351D01*
X139570185Y-115790479D01*
X139564117Y-115771609D01*
X139558961Y-115748341D01*
X139554651Y-115719278D01*
X139551119Y-115683021D01*
X139548297Y-115638170D01*
X139546118Y-115583328D01*
X139544514Y-115517097D01*
X139543419Y-115438077D01*
X139542765Y-115344871D01*
X139542484Y-115236079D01*
X139542509Y-115110303D01*
X139542772Y-114966145D01*
X139543206Y-114802207D01*
X139543745Y-114617089D01*
X139544279Y-114438232D01*
X139544805Y-114279374D01*
X139545350Y-114140316D01*
X139545945Y-114019665D01*
X139546619Y-113916028D01*
X139547403Y-113828011D01*
X139548326Y-113754223D01*
X139549419Y-113693269D01*
X139550712Y-113643757D01*
X139552235Y-113604293D01*
X139554019Y-113573484D01*
X139556092Y-113549938D01*
X139558486Y-113532260D01*
X139561230Y-113519059D01*
X139564356Y-113508940D01*
X139567892Y-113500511D01*
X139571791Y-113492375D01*
X139591438Y-113455544D01*
X139610225Y-113425391D01*
X139611272Y-113423908D01*
X139625602Y-113401659D01*
X139631511Y-113388702D01*
X139630504Y-113388249D01*
X139613305Y-113386803D01*
X139576656Y-113385480D01*
X139522962Y-113384316D01*
X139454630Y-113383347D01*
X139374064Y-113382611D01*
X139283670Y-113382142D01*
X139185853Y-113381978D01*
X138740195Y-113381978D01*
X138737120Y-114558845D01*
X138734045Y-115735711D01*
X138707407Y-115794622D01*
X138695485Y-115819183D01*
X138678246Y-115849434D01*
X138665074Y-115866560D01*
X138657076Y-115874591D01*
X138649378Y-115889493D01*
X138357942Y-115889493D01*
X138357474Y-115797029D01*
X138357050Y-115681617D01*
X138356706Y-115551160D01*
X138356434Y-115404716D01*
X138356227Y-115241344D01*
X138356076Y-115060101D01*
X138355972Y-114860048D01*
X138355908Y-114640241D01*
X138355876Y-114399739D01*
X138355867Y-114137602D01*
X138355867Y-111946031D01*
X138394249Y-111907649D01*
X138421355Y-111883911D01*
X138448253Y-111872111D01*
X138484560Y-111869267D01*
X138536489Y-111869267D01*
X138536489Y-111957206D01*
X138538427Y-112007102D01*
X138557199Y-112117523D01*
X138594217Y-112218987D01*
X138647369Y-112310152D01*
X138714546Y-112389673D01*
X138793638Y-112456205D01*
X138882534Y-112508406D01*
X138979125Y-112544930D01*
X139081300Y-112564434D01*
X139186950Y-112565573D01*
X139293964Y-112547005D01*
X139400232Y-112507384D01*
X139497219Y-112449516D01*
X139582293Y-112374684D01*
X139651015Y-112286615D01*
X139701918Y-112187616D01*
X139733535Y-112079993D01*
X139744400Y-111966054D01*
X139744400Y-111869267D01*
X141364753Y-111869267D01*
X141575897Y-111869280D01*
X141780020Y-111869330D01*
X141963686Y-111869430D01*
X142127991Y-111869592D01*
X142274029Y-111869829D01*
X142402894Y-111870153D01*
X142515683Y-111870575D01*
X142613488Y-111871109D01*
X142697404Y-111871767D01*
X142768527Y-111872561D01*
X142827950Y-111873504D01*
X142876768Y-111874608D01*
X142916077Y-111875884D01*
X142946969Y-111877347D01*
X142970541Y-111879007D01*
X142987886Y-111880878D01*
X143000099Y-111882972D01*
X143008275Y-111885300D01*
X143013508Y-111887876D01*
X143019504Y-111891445D01*
X143026279Y-111894978D01*
X143032478Y-111898488D01*
X143038126Y-111902918D01*
X143043247Y-111909208D01*
X143047869Y-111918301D01*
X143052015Y-111931139D01*
X143055713Y-111948662D01*
X143058987Y-111971813D01*
X143061863Y-112001534D01*
X143064367Y-112038765D01*
X143066524Y-112084449D01*
X143068360Y-112139527D01*
X143069900Y-112204941D01*
X143071170Y-112281633D01*
X143072195Y-112370544D01*
X143073001Y-112472617D01*
X143073034Y-112478867D01*
X143073614Y-112588792D01*
G37*
%TD*%
%LPC*%
D13*
%TO.C,Q1*%
X167726000Y-106681801D03*
D14*
X168996000Y-106681801D03*
X170266000Y-106681801D03*
%TD*%
D15*
%TO.C,J2*%
X183096000Y-116887000D03*
D16*
X185636000Y-116887000D03*
%TD*%
D17*
%TO.C,U1*%
X141086000Y-96887000D03*
D18*
X141086000Y-99427000D03*
X141086000Y-101967000D03*
X141086000Y-104507000D03*
X148706000Y-104507000D03*
X148706000Y-101967000D03*
X148706000Y-99427000D03*
X148706000Y-96887000D03*
%TD*%
D19*
%TO.C,D1*%
X162706000Y-104347000D03*
D20*
X162706000Y-109427000D03*
%TD*%
D21*
%TO.C,R2*%
X153206000Y-109387000D03*
X158286000Y-109387000D03*
%TD*%
%TO.C,R3*%
X153206000Y-113387000D03*
X158286000Y-113387000D03*
%TD*%
D22*
%TO.C,C6*%
X176962000Y-112953000D03*
D23*
X178962000Y-112953000D03*
%TD*%
D24*
%TO.C,C5*%
X178706000Y-107887000D03*
D23*
X178706000Y-105887000D03*
%TD*%
D21*
%TO.C,R4*%
X158286000Y-117387000D03*
X153206000Y-117387000D03*
%TD*%
D17*
%TO.C,C1*%
X132553349Y-99617000D03*
D18*
X135053349Y-99617000D03*
%TD*%
D22*
%TO.C,C4*%
X184166000Y-109387000D03*
D23*
X186166000Y-109387000D03*
%TD*%
D25*
%TO.C,AE1*%
X183246000Y-98927000D03*
D26*
X180706000Y-96387000D03*
X180706000Y-101467000D03*
X185786000Y-96387000D03*
X185786000Y-101467000D03*
%TD*%
D18*
%TO.C,L1*%
X173706000Y-107341801D03*
X173706000Y-104801801D03*
%TD*%
D27*
%TO.C,RV1*%
X158246000Y-96757000D03*
X155706000Y-99297000D03*
X153166000Y-96757000D03*
%TD*%
D28*
%TO.C,J1*%
X134706000Y-111387000D03*
X126806000Y-113387000D03*
X129206000Y-111387000D03*
%TD*%
D21*
%TO.C,R1*%
X153166000Y-104887000D03*
X158246000Y-104887000D03*
%TD*%
D29*
%TO.C,Y1*%
X165666000Y-114387000D03*
X170546000Y-114387000D03*
%TD*%
D24*
%TO.C,C3*%
X168706000Y-100887000D03*
D23*
X168706000Y-98887000D03*
%TD*%
D17*
%TO.C,C2*%
X144206000Y-113637000D03*
D18*
X146706000Y-113637000D03*
%TD*%
D21*
%TO.C,R5*%
X173706000Y-102467000D03*
X173706000Y-97387000D03*
%TD*%
%LPD*%
M02*
