M48
; DRILL file {KiCad 9.0.7} date 2026-03-06T10:06:47+0300
; FORMAT={-:-/ absolute / inch / decimal}
; #@! TF.CreationDate,2026-03-06T10:06:47+03:00
; #@! TF.GenerationSoftware,Kicad,Pcbnew,9.0.7
; #@! TF.FileFunction,Plated,1,2,PTH
FMAT,2
INCH
; #@! TA.AperFunction,Plated,PTH,ViaDrill
T1C0.0118
; #@! TA.AperFunction,Plated,PTH,ComponentDrill
T2C0.0236
; #@! TA.AperFunction,Plated,PTH,ComponentDrill
T3C0.0276
; #@! TA.AperFunction,Plated,PTH,ComponentDrill
T4C0.0295
; #@! TA.AperFunction,Plated,PTH,ComponentDrill
T5C0.0315
; #@! TA.AperFunction,Plated,PTH,ComponentDrill
T6C0.0394
; #@! TA.AperFunction,Plated,PTH,ComponentDrill
T7C0.0591
; #@! TA.AperFunction,Plated,PTH,ComponentDrill
T8C0.0669
; #@! TA.AperFunction,Plated,PTH,ComponentDrill
T9C0.0787
%
G90
G05
T1
X6.3457Y-4.407
X6.5157Y-4.357
T2
X6.642Y-3.8932
X6.642Y-3.9719
X6.967Y-4.447
X7.0357Y-4.1688
X7.0357Y-4.2475
X7.0457Y-4.447
X7.2506Y-4.3066
X7.3294Y-4.3066
T3
X6.0302Y-4.1294
X6.0317Y-4.3066
X6.0317Y-4.4641
X6.0317Y-4.6215
X6.2302Y-4.1294
X6.2317Y-4.3066
X6.2317Y-4.4641
X6.2317Y-4.6215
X6.8388Y-3.8341
X6.8388Y-4.0341
T4
X6.6034Y-4.2001
X6.6534Y-4.2001
X6.7034Y-4.2001
T5
X5.2186Y-3.9219
X5.3171Y-3.9219
X5.5546Y-3.8144
X5.5546Y-3.9144
X5.5546Y-4.0144
X5.5546Y-4.1144
X5.6774Y-4.4739
X5.7758Y-4.4739
X5.8546Y-3.8144
X5.8546Y-3.9144
X5.8546Y-4.0144
X5.8546Y-4.1144
X6.0302Y-3.8093
X6.1302Y-3.9093
X6.2302Y-3.8093
X6.5223Y-4.5034
X6.7144Y-4.5034
X6.8388Y-4.1261
X6.8388Y-4.2261
T6
X6.4057Y-4.1081
X6.4057Y-4.3081
X7.2085Y-4.6019
X7.3085Y-4.6019
T7
X7.2144Y-3.8948
T8
X7.1144Y-3.7948
X7.1144Y-3.9948
X7.3144Y-3.7948
X7.3144Y-3.9948
T9
X4.9924Y-4.4641
X5.0869Y-4.3853
X5.3034Y-4.3853
M30
